<svg width="70" height="70" viewBox="0 0 70 70" fill="none" xmlns="http://www.w3.org/2000/svg">
<path d="M47.7859 40.9475L42.443 46.0091C39.6954 48.4777 36.4672 50.3118 32.9751 51.3885L34.3934 58.2069C34.4659 58.5548 34.6168 58.8803 34.8338 59.1571C35.0509 59.4338 35.328 59.6541 35.6429 59.8001C35.9578 59.9461 36.3016 60.0138 36.6465 59.9977C36.9915 59.9815 37.3279 59.882 37.6286 59.7072L46.2288 54.7092C47.4395 53.9512 48.3852 52.8163 48.9295 51.4684C49.4738 50.1205 49.5885 48.6293 49.2571 47.2098L47.7859 40.9475ZM24.7251 27.6785L29.3236 22.0494L23.5887 20.624C22.194 20.1225 20.6704 20.1581 19.2993 20.7243C17.9281 21.2905 16.8021 22.3489 16.1293 23.7041L11.2841 32.5562C11.1145 32.8662 11.0179 33.2129 11.0023 33.5684C10.9866 33.9239 11.0523 34.2782 11.194 34.6027C11.3356 34.9272 11.5494 35.2129 11.8179 35.4366C12.0865 35.6603 12.4023 35.8158 12.7399 35.8905L19.5077 37.3863C20.6298 33.8369 22.4008 30.5416 24.7251 27.6785ZM45.5769 27.7693C46.2303 27.7693 46.869 27.5696 47.4123 27.1955C47.9555 26.8214 48.3789 26.2896 48.629 25.6675C48.879 25.0454 48.9444 24.3608 48.817 23.7004C48.6895 23.04 48.3749 22.4333 47.9129 21.9572C47.4509 21.481 46.8622 21.1567 46.2214 21.0254C45.5806 20.894 44.9164 20.9614 44.3127 21.2191C43.7091 21.4768 43.1931 21.9132 42.8301 22.4731C42.4671 23.033 42.2734 23.6912 42.2734 24.3646C42.2734 25.2676 42.6214 26.1336 43.241 26.7721C43.8605 27.4106 44.7008 27.7693 45.5769 27.7693Z" fill="#A54729"/>
<path d="M58.4991 12.4391C58.3999 12.0501 58.2022 11.6953 57.9263 11.411C57.6504 11.1266 57.3062 10.9229 56.9288 10.8207C52.4113 9.61088 47.6541 9.74089 43.2051 11.1958C38.7562 12.6507 34.7966 15.3712 31.7824 19.0441L24.726 27.6783C21.2016 32.0102 18.9655 37.2987 18.2863 42.9084C18.2424 43.2533 18.2759 43.604 18.3844 43.9334C18.4928 44.2628 18.6733 44.5621 18.9118 44.8082L25.7391 51.8445C25.9438 52.0556 26.1869 52.223 26.4545 52.3371C26.722 52.4512 27.0088 52.5098 27.2984 52.5096C27.36 52.5096 27.4239 52.5073 27.4878 52.5005C33.0152 52.0297 38.2532 49.7558 42.4417 46.0089L50.5111 38.3644C54.0872 35.2655 56.7361 31.184 58.1498 26.5945C59.5635 22.0051 59.6861 17.0963 58.4991 12.4391ZM45.5779 27.7691C44.9245 27.7691 44.2858 27.5694 43.7425 27.1953C43.1993 26.8212 42.7759 26.2894 42.5258 25.6673C42.2758 25.0452 42.2104 24.3606 42.3378 23.7002C42.4653 23.0398 42.7799 22.4331 43.2419 21.957C43.7039 21.4808 44.2926 21.1566 44.9334 21.0252C45.5742 20.8938 46.2384 20.9612 46.8421 21.2189C47.4457 21.4766 47.9617 21.913 48.3247 22.4729C48.6877 23.0328 48.8814 23.691 48.8814 24.3644C48.8814 25.2674 48.5334 26.1334 47.9138 26.7719C47.2943 27.4104 46.454 27.7691 45.5779 27.7691Z" fill="#E19C5B"/>
</svg>
