<svg width="100" height="80" viewBox="0 0 100 80" fill="none" xmlns="http://www.w3.org/2000/svg">
<g clip-path="url(#clip0_814_4313)">
<path opacity="0.18" d="M82.462 77.614C79.9434 79.3591 78.6847 79.4097 75.7262 79.4097C69.018 79.4097 62.3098 79.3742 55.6016 79.3031L56.9903 78.7032C57.0717 77.8367 56.0074 77.5197 55.2322 77.5333L20.138 78.1114C13.8785 78.2139 6.72725 77.8818 2.71787 72.4742C0.485979 69.4676 -0.291597 65.3131 0.100836 61.4196C0.493269 57.5262 0.811589 49.0231 11.0088 38.8446C14.3827 35.4759 18.1771 39.9379 19.0275 34.9511C20.3032 27.4867 15.2502 20.0551 16.4081 12.562C17.0289 8.54685 19.4552 5.0456 22.5473 2.91505C25.6394 0.784504 29.3316 -0.0518615 32.9547 6.96805e-05C35.1416 0.0328683 37.3577 0.389554 39.3332 1.44048C41.2626 2.46817 42.8724 4.10673 44.5576 5.58541C47.0239 7.75422 49.7442 9.64151 52.7586 10.5886C58.7933 12.4841 65.1658 10.4423 71.3912 9.64834C76.7857 8.96503 82.4328 9.26979 87.3486 11.8609C92.2643 14.452 96.3187 19.641 96.88 25.7142C97.4935 32.3436 94.1123 39.5689 96.9796 45.4016C97.7851 47.0415 99.3609 48.2086 99.8323 50.003C100.656 53.1339 98.1605 57.958 99.565 64.1119C100.392 67.7402 97.2566 72.5548 94.0819 74.5336C92.6713 75.4124 88.4931 73.4349 82.462 77.614Z" fill="#68E1FD"/>
<path d="M37.9263 70.2698H59.6085V79.7841H37.9263V70.2698Z" fill="#68E1FD"/>
<path d="M37.9263 70.2698H59.6085V79.7841H37.9263V70.2698Z" fill="url(#paint0_linear_814_4313)"/>
<path d="M88.9742 12.0521V65.0766C88.9738 66.6262 88.4264 68.1122 87.4521 69.2078C86.4779 70.3034 85.1566 70.9188 83.779 70.9188H15.238C14.5555 70.9188 13.8797 70.7675 13.2493 70.4736C12.6188 70.1796 12.046 69.7488 11.5636 69.2057C11.0813 68.6627 10.6988 68.018 10.438 67.3085C10.1773 66.5991 10.0434 65.8388 10.0441 65.0711V12.0466C10.0441 10.497 10.5913 9.0109 11.5653 7.91504C12.5393 6.81919 13.8604 6.20337 15.238 6.203H83.779C84.4616 6.20318 85.1375 6.35464 85.768 6.64871C86.3986 6.94279 86.9715 7.37372 87.4539 7.91689C87.9363 8.46007 88.3189 9.10484 88.5798 9.81437C88.8406 10.5239 88.9746 11.2843 88.9742 12.0521Z" fill="#68E1FD"/>
<path d="M88.9742 12.0521V65.0766C88.9738 66.6262 88.4264 68.1122 87.4521 69.2078C86.4779 70.3034 85.1566 70.9188 83.779 70.9188H15.238C14.5555 70.9188 13.8797 70.7675 13.2493 70.4736C12.6188 70.1796 12.046 69.7488 11.5636 69.2057C11.0813 68.6627 10.6988 68.018 10.438 67.3085C10.1773 66.5991 10.0434 65.8388 10.0441 65.0711V12.0466C10.0441 10.497 10.5913 9.0109 11.5653 7.91504C12.5393 6.81919 13.8604 6.20337 15.238 6.203H83.779C84.4616 6.20318 85.1375 6.35464 85.768 6.64871C86.3986 6.94279 86.9715 7.37372 87.4539 7.91689C87.9363 8.46007 88.3189 9.10484 88.5798 9.81437C88.8406 10.5239 88.9746 11.2843 88.9742 12.0521Z" fill="url(#paint1_linear_814_4313)"/>
<path d="M88.9742 57.0614V65.0711C88.9743 65.8385 88.8401 66.5984 88.579 67.3074C88.318 68.0164 87.9353 68.6605 87.4528 69.2031C86.9704 69.7456 86.3976 70.1759 85.7672 70.4694C85.1368 70.7629 84.4612 70.9137 83.779 70.9134H15.238C13.8605 70.9134 12.5394 70.2978 11.5653 69.2022C10.5913 68.1066 10.0441 66.6206 10.0441 65.0711V57.0614H88.9742Z" fill="#68E1FD"/>
<path d="M88.9742 57.0614V65.0711C88.9743 65.8385 88.8401 66.5984 88.579 67.3074C88.318 68.0164 87.9353 68.6605 87.4528 69.2031C86.9704 69.7456 86.3976 70.1759 85.7672 70.4694C85.1368 70.7629 84.4612 70.9137 83.779 70.9134H15.238C13.8605 70.9134 12.5394 70.2978 11.5653 69.2022C10.5913 68.1066 10.0441 66.6206 10.0441 65.0711V57.0614H88.9742Z" fill="url(#paint2_linear_814_4313)"/>
<path opacity="0.19" d="M88.9742 64.6229V65.0712C88.9747 66.0581 88.7528 67.029 88.3291 67.8932C87.9054 68.7574 87.2938 69.4867 86.5515 70.0128C86.011 70.276 85.4558 70.4993 84.8895 70.6811C83.4809 67.2436 82.0732 63.8066 80.6663 60.37C80.2058 59.2494 79.7319 58.1042 79.1451 57.0615C78.6635 56.1723 78.0594 55.3747 77.3555 54.6986L77.2461 57.0615C77.2133 57.7625 77.1793 58.4663 77.1477 59.1674C77.1283 59.5774 77.1016 60.0106 76.8902 60.3441C76.4929 60.9672 75.6011 60.9262 75.0604 60.4589C74.5198 59.9915 74.2427 59.2412 73.9998 58.5265C73.8329 58.04 73.6709 57.5516 73.5138 57.0615C72.9346 55.2903 72.3988 53.5014 71.9064 51.6948C69.8689 51.3477 68.3089 48.9247 68.6442 46.6465C68.722 46.1204 68.8872 45.6147 68.9698 45.0941C69.084 44.4108 69.0658 43.7015 69.05 43.0018L68.7754 32.0129C67.818 31.9798 66.865 31.8518 65.9275 31.6302C65.8839 32.0018 65.7418 32.35 65.5195 32.6293C65.2973 32.9086 65.0054 33.1061 64.6819 33.196C64.3584 33.2859 64.0183 33.2639 63.706 33.1331C63.3938 33.0022 63.1238 32.7685 62.9314 32.4625C62.6435 32.0047 62.5548 31.428 62.4868 30.8704C62.3932 30.0887 61.804 27.2079 62.3713 26.6202C62.8792 26.0941 64.7211 26.7254 65.4792 26.5177C66.4803 26.2444 67.4098 25.7169 68.3769 25.3165C69.9431 24.6701 71.6029 24.3591 73.2708 24.3995C74.476 24.4295 75.7226 24.6619 76.7164 25.4326C77.7103 26.2034 78.3809 27.6096 78.0978 28.9284C77.5231 29.1457 77.0821 28.2725 76.4904 28.1317C76.1952 28.062 75.8951 28.1836 75.6132 28.3025C74.4971 28.7772 73.3805 29.2514 72.2636 29.7252C72.0522 29.814 71.8262 29.9165 71.7083 30.1351C71.5905 30.3538 71.6136 30.6326 71.65 30.8868C71.8956 32.62 72.4958 34.2654 73.4032 35.6931C74.2136 36.9668 75.2572 38.0492 75.9765 39.3912C76.6958 40.7332 77.0457 42.4907 76.3507 43.8477C76.2951 43.9353 76.2574 44.0356 76.2401 44.1415C76.2207 44.3684 76.3981 44.5447 76.5573 44.6882C80.3297 47.968 83.112 52.3576 85.4824 57.0615C86.7301 59.5323 87.8649 62.0906 88.9742 64.6229Z" fill="url(#paint3_linear_814_4313)"/>
<path d="M97.1437 72.7679L97.1303 72.7788C96.7841 73.0819 96.4187 73.3559 96.0368 73.5988C95.4241 73.9964 94.7716 74.3106 94.0929 74.5349C94.0929 74.5349 83.7195 57.0833 82.4645 55.7782C81.4986 54.7792 79.766 54.1834 78.8694 53.7911C78.6812 53.7229 78.5028 53.6244 78.3397 53.4987C77.9691 53.1215 76.482 47.0661 75.4541 45.2731C74.3339 43.3174 74.3157 42.3499 74.7252 41.9016C74.9558 41.684 75.2466 41.5632 75.5477 41.56C76.2973 41.5012 77.166 41.8128 77.166 41.8128C77.3665 41.3728 77.3106 40.9081 77.1174 40.3847C76.821 39.5647 76.194 38.6081 75.691 37.3782C74.8685 35.3542 76.2378 34.3976 76.2378 34.3976C76.2378 34.3976 80.0795 39.014 82.2421 40.9395C84.4048 42.8651 84.4509 48.773 87.7581 52.2045C91.0652 55.6361 99.5639 64.1227 99.5639 64.1227C100.536 68.5697 98.8835 71.2455 97.1437 72.7679Z" fill="url(#paint4_linear_814_4313)"/>
<path opacity="0.19" d="M80.1086 51.3763C80.4124 51.9886 80.5412 54.3214 78.867 53.7884C78.3421 53.6217 77.782 53.6668 77.2547 53.5151C77.0801 53.4735 76.9148 53.3926 76.7687 53.2773C76.4552 53.004 76.4042 52.5065 76.3325 52.0665C76.0397 50.1737 75.0811 48.4805 74.7531 46.6C74.6061 45.7691 74.5733 44.8767 74.1723 44.1606C73.9293 43.726 73.543 43.2546 73.7192 42.7817C73.8006 42.5644 73.984 42.4209 74.159 42.2897C74.3406 42.1463 74.5314 42.0184 74.73 41.9071C74.764 41.8893 74.7993 41.8702 74.8345 41.8551C75.0058 41.78 75.1856 41.7322 75.3569 41.657C75.4237 41.6283 75.4894 41.5982 75.5525 41.5654C76.3022 41.5067 77.1709 41.8182 77.1709 41.8182C77.3713 41.3782 77.3154 40.9135 77.1223 40.3901C77.7152 40.9368 79.664 43.8723 79.082 46.6834C78.9812 47.1221 78.172 47.4719 80.1086 51.3763Z" fill="url(#paint5_linear_814_4313)"/>
<path d="M31.9353 78.4393H65.9604V80.0014H31.9353V78.4393Z" fill="#68E1FD"/>
<path d="M31.9353 78.4393H65.9604V80.0014H31.9353V78.4393Z" fill="url(#paint6_linear_814_4313)"/>
<path d="M62.1029 25.8673L63.9897 25.1252L64.2692 25.7197C64.2692 25.7197 74.1323 21.0404 77.9071 20.9365C81.682 20.8327 83.0805 24.6551 83.5458 27.1163C83.5458 27.1163 80.2654 23.2898 75.6898 24.8642C71.1143 26.4385 65.1998 28.7235 65.1998 28.7235L65.3857 29.6801L63.5706 30.4659L62.1029 25.8673Z" fill="#68E1FD"/>
<path d="M67.6042 24.1069L69.0428 28.3175C69.1192 28.5417 69.2664 28.7263 69.4562 28.8362C69.646 28.9461 69.8652 28.9736 70.0718 28.9133L72.8662 28.1016C73.0657 28.0438 73.2405 27.9082 73.3593 27.719C73.4782 27.5297 73.5333 27.2992 73.515 27.0684L73.1408 22.3044C73.1292 22.1587 73.0886 22.0178 73.0222 21.8921C72.9559 21.7663 72.8653 21.6588 72.7571 21.5776C72.649 21.4963 72.5261 21.4433 72.3974 21.4225C72.2687 21.4016 72.1375 21.4135 72.0133 21.4571L68.1546 22.8237C68.0415 22.8639 67.9368 22.9297 67.8471 23.017C67.7575 23.1044 67.6846 23.2114 67.633 23.3316C67.5815 23.4518 67.5523 23.5826 67.5474 23.7159C67.5424 23.8493 67.5618 23.9823 67.6042 24.1069Z" fill="#68E1FD"/>
<path d="M68.7232 27.3828C66.676 28.1508 65.1998 28.7221 65.1998 28.7221L65.3857 29.6787L63.5706 30.4645L62.1029 25.8645L63.9897 25.1224L64.2692 25.7169C64.2692 25.7169 65.6798 25.0473 67.6395 24.2136L68.7232 27.3828Z" fill="url(#paint7_linear_814_4313)"/>
<path d="M83.5457 27.1149C83.5457 27.1149 80.2653 23.2884 75.6898 24.8627C74.9523 25.1155 74.1808 25.3875 73.4044 25.6649L73.1408 22.3044C73.1348 22.2285 73.1206 22.1536 73.0983 22.0816C74.9705 21.4434 76.7334 20.9679 77.9071 20.9351C81.682 20.8312 83.0804 24.6536 83.5457 27.1149Z" fill="url(#paint8_linear_814_4313)"/>
<path d="M72.8662 28.1017L70.0718 28.9134C69.8651 28.9737 69.646 28.9463 69.4562 28.8364C69.2663 28.7265 69.1192 28.5418 69.0427 28.3176L68.7232 27.3828L67.6394 24.2109L67.6042 24.1071C67.5615 23.9824 67.542 23.8492 67.5469 23.7157C67.5517 23.5822 67.5808 23.4512 67.6324 23.3309C67.684 23.2105 67.7569 23.1033 67.8467 23.0159C67.9365 22.9284 68.0413 22.8626 68.1546 22.8224L72.0133 21.4558C72.2308 21.3789 72.4665 21.4013 72.6695 21.5182C72.8724 21.635 73.0264 21.8369 73.0982 22.0804C73.1205 22.1524 73.1348 22.2272 73.1408 22.3031L73.4044 25.6636L73.515 27.0671C73.5336 27.2981 73.4785 27.529 73.3597 27.7186C73.2408 27.9081 73.0659 28.0439 72.8662 28.1017Z" fill="url(#paint9_linear_814_4313)"/>
<path d="M70.0718 28.9134L75.9644 59.9778C75.9644 59.9778 77.3008 62.5347 79.28 61.8459C81.2592 61.1572 79.0795 52.87 76.8197 45.2348C74.5599 37.5995 72.8856 29.9287 72.8662 28.1071L70.0718 28.9134Z" fill="#3F3D56"/>
<path d="M72.4981 41.7062C72.4981 41.7062 70.0366 42.4701 70.4776 43.8531C70.9186 45.2361 75.1285 46.3882 77.3579 45.9167C79.5874 45.4452 79.0467 44.3574 78.3153 43.8531C77.5839 43.3488 72.6791 42.6628 72.6791 42.6628L72.4981 41.7062Z" fill="url(#paint10_linear_814_4313)"/>
<path d="M71.3572 44.7838C71.3572 44.7838 69.7389 46.1969 70.333 47.4897C70.9271 48.7825 76.9412 49.2731 78.0541 48.9041C79.167 48.5352 78.6968 47.2505 78.376 46.9909C78.0203 46.6549 77.6804 46.2982 77.3579 45.9222C77.3579 45.9222 74.2537 46.4265 71.3572 44.7838Z" fill="url(#paint11_linear_814_4313)"/>
<path d="M71.5942 50.8898C71.5942 50.8898 70.4254 49.023 72.2199 48.4805C72.2199 48.4805 76.895 49.325 78.0517 48.9041C78.0517 48.9041 79.4088 49.5041 79.2776 50.5905C79.1111 51.9886 72.3073 52.214 71.5942 50.8898Z" fill="url(#paint12_linear_814_4313)"/>
<path d="M74.2428 54.0481C74.2428 54.0481 78.3736 54.4307 79.0382 53.3224C79.7028 52.2141 78.3736 51.3763 78.3736 51.3763C78.3736 51.3763 74.4542 51.9626 73.2623 51.6333C72.0704 51.3039 71.7764 53.3812 74.2428 54.0481Z" fill="url(#paint13_linear_814_4313)"/>
<path opacity="0.47" d="M47.9995 29.1649C47.9935 29.1485 47.9886 29.1293 47.9837 29.1116C47.849 28.5838 47.6616 28.0749 47.4249 27.5946C47.0409 26.828 46.4529 26.023 45.6024 25.8659C45.509 25.843 45.4269 25.7806 45.3732 25.6915C45.3195 25.6025 45.2982 25.4937 45.3138 25.3875C45.3294 25.2814 45.3807 25.186 45.457 25.1212C45.5333 25.0563 45.6289 25.0269 45.7239 25.0391C47.8197 25.4299 48.6179 28.5431 48.6981 28.8793C49.5239 28.6184 50.397 28.6132 51.2253 28.8642C51.3225 28.4652 52.1243 25.4258 54.1958 25.0377C54.2909 25.0256 54.3864 25.055 54.4627 25.1198C54.5391 25.1847 54.5903 25.28 54.6059 25.3862C54.6215 25.4923 54.6003 25.6011 54.5466 25.6902C54.4929 25.7792 54.4108 25.8416 54.3173 25.8645C53.4729 26.0217 52.8788 26.8211 52.4949 27.5933C52.258 28.0729 52.0705 28.5814 51.936 29.1088L51.9287 29.1416C53.1911 29.7635 54.2372 30.9784 54.8908 32.5336H45.0836C45.7239 30.9989 46.7554 29.7921 47.9995 29.1649Z" fill="url(#paint14_linear_814_4313)"/>
<path opacity="0.47" d="M55.5967 36.6019C55.5748 37.1674 55.5052 37.7293 55.3889 38.2801H57.0692C57.18 38.2797 57.2884 38.3163 57.3807 38.3854C57.4729 38.4544 57.5448 38.5528 57.5872 38.6679C57.6297 38.783 57.6408 38.9097 57.6191 39.0319C57.5973 39.1541 57.5438 39.2663 57.4653 39.3542C57.3597 39.4712 57.2175 39.537 57.0692 39.5374H55.3245C55.2305 39.5382 55.1379 39.5114 55.056 39.4595C54.9115 39.8659 54.7372 40.2581 54.5348 40.632H55.638C55.7862 40.632 55.9284 40.6982 56.0332 40.8161C56.138 40.934 56.1969 41.0939 56.1969 41.2607C56.1969 41.4274 56.138 41.5873 56.0332 41.7052C55.9284 41.8231 55.7862 41.8893 55.638 41.8893H53.8933C53.83 41.8895 53.7671 41.8775 53.7074 41.8538C52.7172 43.0291 51.4136 43.7438 49.9872 43.7438C48.5608 43.7438 47.2499 43.0263 46.2585 41.8456C46.1932 41.8749 46.1235 41.8897 46.0532 41.8893H44.3072C44.2338 41.8895 44.1611 41.8733 44.0932 41.8418C44.0253 41.8103 43.9636 41.764 43.9117 41.7056C43.8598 41.6472 43.8186 41.5778 43.7906 41.5014C43.7626 41.4251 43.7482 41.3433 43.7484 41.2607C43.7482 41.1781 43.7626 41.0962 43.7906 41.0199C43.8186 40.9435 43.8598 40.8741 43.9117 40.8157C43.9636 40.7573 44.0253 40.711 44.0932 40.6795C44.1611 40.648 44.2338 40.6318 44.3072 40.632H45.4372C45.2334 40.2529 45.0575 39.8557 44.9111 39.4444C44.824 39.5057 44.7234 39.5379 44.6207 39.5374H42.8748C42.7266 39.5374 42.5844 39.4711 42.4796 39.3532C42.3748 39.2353 42.3159 39.0754 42.3159 38.9087C42.3159 38.742 42.3748 38.5821 42.4796 38.4642C42.5844 38.3463 42.7266 38.2801 42.8748 38.2801H44.5843C44.4678 37.7326 44.3986 37.1738 44.3777 36.6114H42.6537C42.578 36.6154 42.5024 36.6021 42.4315 36.5722C42.3605 36.5424 42.2957 36.4967 42.2409 36.4379C42.1861 36.379 42.1425 36.3083 42.1127 36.23C42.0829 36.1516 42.0675 36.0673 42.0675 35.9821C42.0675 35.8969 42.0829 35.8126 42.1127 35.7343C42.1425 35.6559 42.1861 35.5852 42.2409 35.5264C42.2957 35.4676 42.3605 35.4218 42.4315 35.392C42.5024 35.3622 42.578 35.3488 42.6537 35.3528H44.4105C44.4507 34.8775 44.5255 34.4067 44.6341 33.9452H55.3488C55.4584 34.4116 55.5336 34.8875 55.5736 35.3678C55.6135 35.358 55.6542 35.3529 55.6951 35.3528H57.4398C57.5155 35.3488 57.591 35.3622 57.662 35.392C57.733 35.4218 57.7978 35.4676 57.8526 35.5264C57.9074 35.5852 57.951 35.6559 57.9808 35.7343C58.0106 35.8126 58.026 35.8969 58.026 35.9821C58.026 36.0673 58.0106 36.1516 57.9808 36.23C57.951 36.3083 57.9074 36.379 57.8526 36.4379C57.7978 36.4967 57.733 36.5424 57.662 36.5722C57.591 36.6021 57.5155 36.6154 57.4398 36.6114H55.6902C55.6589 36.6117 55.6275 36.6085 55.5967 36.6019Z" fill="url(#paint15_linear_814_4313)"/>
<path opacity="0.47" d="M42.0888 28.9148C41.5842 28.9148 41.0909 29.0831 40.6713 29.3985C40.2517 29.7138 39.9247 30.162 39.7316 30.6864C39.5385 31.2108 39.4879 31.7879 39.5864 32.3446C39.6848 32.9013 39.9278 33.4126 40.2847 33.814C40.6415 34.2153 41.0961 34.4887 41.591 34.5994C42.0859 34.7102 42.599 34.6533 43.0652 34.4361C43.5314 34.2189 43.9299 33.851 44.2102 33.3791C44.4906 32.9071 44.6402 32.3523 44.6402 31.7847C44.6402 31.0235 44.3714 30.2936 43.8929 29.7554C43.4144 29.2172 42.7655 28.9148 42.0888 28.9148ZM42.0888 29.773C42.3235 29.7728 42.556 29.8247 42.7729 29.9257C42.9898 30.0266 43.1869 30.1747 43.3529 30.3614C43.5189 30.5481 43.6505 30.7698 43.7403 31.0138C43.83 31.2578 43.8761 31.5193 43.876 31.7833C43.8761 31.9586 43.8561 32.1331 43.8165 32.3026L40.8313 30.3607C40.9963 30.1746 41.1923 30.027 41.4081 29.9261C41.6238 29.8253 41.8551 29.7733 42.0888 29.773ZM42.0888 33.7936C41.8131 33.7934 41.5411 33.7215 41.2942 33.5835C41.0473 33.4455 40.8321 33.2451 40.6654 32.9981C40.4987 32.7511 40.3851 32.4641 40.3334 32.1594C40.2816 31.8548 40.2932 31.5409 40.3672 31.2421L43.3669 33.1896C43.2003 33.3808 43.0014 33.5327 42.782 33.6364C42.5625 33.7402 42.3268 33.7936 42.0888 33.7936Z" fill="url(#paint16_linear_814_4313)"/>
<path opacity="0.19" d="M97.1436 72.7679L97.1303 72.7789C97.044 72.8472 96.5835 73.2162 96.0368 73.5988C95.337 74.084 94.4914 74.5896 94.0929 74.535C94.0929 74.535 83.7341 57.082 82.479 55.7769C81.224 54.4717 83.9212 55.796 85.4994 57.0628C87.0777 58.3297 97.1436 72.7679 97.1436 72.7679Z" fill="url(#paint17_linear_814_4313)"/>
</g>
<defs>
<linearGradient id="paint0_linear_814_4313" x1="48.5353" y1="68.1201" x2="49.0224" y2="79.5844" gradientUnits="userSpaceOnUse">
<stop/>
<stop offset="0.98" stop-opacity="0"/>
</linearGradient>
<linearGradient id="paint1_linear_814_4313" x1="49.5097" y1="12.9472" x2="49.5097" y2="82.4093" gradientUnits="userSpaceOnUse">
<stop stop-color="white" stop-opacity="0"/>
<stop offset="0.01" stop-color="white" stop-opacity="0.01"/>
<stop offset="0.38" stop-color="white" stop-opacity="0.43"/>
<stop offset="0.67" stop-color="white" stop-opacity="0.74"/>
<stop offset="0.88" stop-color="white" stop-opacity="0.93"/>
<stop offset="0.98" stop-color="white"/>
</linearGradient>
<linearGradient id="paint2_linear_814_4313" x1="48.2984" y1="40.1277" x2="50.4865" y2="70.1736" gradientUnits="userSpaceOnUse">
<stop/>
<stop offset="0.98" stop-opacity="0"/>
</linearGradient>
<linearGradient id="paint3_linear_814_4313" x1="62.132" y1="47.5389" x2="88.9742" y2="47.5389" gradientUnits="userSpaceOnUse">
<stop stop-color="#183866"/>
<stop offset="1" stop-color="#1A7FC1"/>
</linearGradient>
<linearGradient id="paint4_linear_814_4313" x1="74.4785" y1="54.4635" x2="99.8518" y2="54.4635" gradientUnits="userSpaceOnUse">
<stop stop-color="#ECC4D7"/>
<stop offset="0.42" stop-color="#EFD4D1"/>
<stop offset="1" stop-color="#F2EAC9"/>
</linearGradient>
<linearGradient id="paint5_linear_814_4313" x1="81.9554" y1="46.559" x2="59.4621" y2="49.2795" gradientUnits="userSpaceOnUse">
<stop stop-color="#183866"/>
<stop offset="1" stop-color="#1A7FC1"/>
</linearGradient>
<linearGradient id="paint6_linear_814_4313" x1="48.9484" y1="75.1772" x2="48.9484" y2="81.6126" gradientUnits="userSpaceOnUse">
<stop/>
<stop offset="0.98" stop-opacity="0"/>
</linearGradient>
<linearGradient id="paint7_linear_814_4313" x1="63.7152" y1="27.3391" x2="70.3355" y2="27.3391" gradientUnits="userSpaceOnUse">
<stop/>
<stop offset="0.98" stop-opacity="0"/>
</linearGradient>
<linearGradient id="paint8_linear_814_4313" x1="71.5225" y1="24.0236" x2="81.9699" y2="24.0236" gradientUnits="userSpaceOnUse">
<stop/>
<stop offset="0.98" stop-opacity="0"/>
</linearGradient>
<linearGradient id="paint9_linear_814_4313" x1="67.6078" y1="21.7292" x2="77.2309" y2="29.3217" gradientUnits="userSpaceOnUse">
<stop/>
<stop offset="0.98" stop-opacity="0"/>
</linearGradient>
<linearGradient id="paint10_linear_814_4313" x1="70.4253" y1="43.8641" x2="78.952" y2="43.8641" gradientUnits="userSpaceOnUse">
<stop stop-color="#ECC4D7"/>
<stop offset="0.42" stop-color="#EFD4D1"/>
<stop offset="1" stop-color="#F2EAC9"/>
</linearGradient>
<linearGradient id="paint11_linear_814_4313" x1="74.5355" y1="45.3619" x2="74.4034" y2="49.0931" gradientUnits="userSpaceOnUse">
<stop stop-color="#ECC4D7"/>
<stop offset="0.42" stop-color="#EFD4D1"/>
<stop offset="1" stop-color="#F2EAC9"/>
</linearGradient>
<linearGradient id="paint12_linear_814_4313" x1="75.2548" y1="49.0585" x2="75.2548" y2="51.2192" gradientUnits="userSpaceOnUse">
<stop stop-color="#ECC4D7"/>
<stop offset="0.42" stop-color="#EFD4D1"/>
<stop offset="1" stop-color="#F2EAC9"/>
</linearGradient>
<linearGradient id="paint13_linear_814_4313" x1="75.7287" y1="50.488" x2="75.8608" y2="53.6684" gradientUnits="userSpaceOnUse">
<stop stop-color="#ECC4D7"/>
<stop offset="0.42" stop-color="#EFD4D1"/>
<stop offset="1" stop-color="#F2EAC9"/>
</linearGradient>
<linearGradient id="paint14_linear_814_4313" x1="52.1061" y1="19.1627" x2="42.1469" y2="57.4729" gradientUnits="userSpaceOnUse">
<stop/>
<stop offset="0.98" stop-opacity="0"/>
</linearGradient>
<linearGradient id="paint15_linear_814_4313" x1="53.5398" y1="19.5357" x2="43.5791" y2="57.8443" gradientUnits="userSpaceOnUse">
<stop/>
<stop offset="0.98" stop-opacity="0"/>
</linearGradient>
<linearGradient id="paint16_linear_814_4313" x1="45.0582" y1="17.33" x2="35.0989" y2="55.6403" gradientUnits="userSpaceOnUse">
<stop/>
<stop offset="0.98" stop-opacity="0"/>
</linearGradient>
<linearGradient id="paint17_linear_814_4313" x1="82.462" y1="65.1586" x2="97.1436" y2="65.1586" gradientUnits="userSpaceOnUse">
<stop stop-color="#183866"/>
<stop offset="1" stop-color="#1A7FC1"/>
</linearGradient>
<clipPath id="clip0_814_4313">
<rect width="100" height="80" fill="white"/>
</clipPath>
</defs>
</svg>
