<svg width="125" height="125" viewBox="0 0 125 125" fill="none" xmlns="http://www.w3.org/2000/svg">
<g clip-path="url(#clip0_814_4314)">
<path d="M86.9246 6.49209C72.6236 -4.00845 52.5267 -1.88639 39.884 13.6998C32.9716 22.2246 30.1639 33.9508 22.9888 42.2927C14.9106 51.6956 5.2562 60.8242 1.59475 73.6297C-2.29657 87.2402 1.1186 102.845 9.8207 113.254C20.411 125.913 35.9763 122.108 50.6878 121.907C110.929 121.065 155.704 76.264 98.73 21.0355C93.9684 16.3889 91.6533 9.94959 86.9246 6.49209Z" fill="#CCE9FF"/>
<path d="M36.3906 16.0051L33.4352 24.6946H88.9645L86.009 16.0051C86.009 16.0051 59.8206 14.4135 36.3906 16.0051Z" fill="#FFBE55"/>
<path d="M81.098 123.132L92.8705 26.505H29.5258L41.2982 123.132C41.2982 123.132 65.4343 127.047 81.098 123.132Z" fill="#F7F7F7"/>
<path d="M28.781 21.0536H93.6035V27.9686H28.781V21.0536ZM85.4432 90.112H36.9413L32.541 52.3906H89.8435L85.4432 90.112Z" fill="#FFBE55"/>
<path opacity="0.78" d="M67.4168 74.9107C69.3378 71.0873 70.405 66.3859 66.5465 63.6784C66.5465 63.6784 62.8687 61.0259 58.8296 65.9834C55.6935 69.8251 54.2158 74.307 56.7608 77.7645C59.8147 81.9355 65.4793 78.7341 67.4168 74.9107ZM61.391 74.307C58.7967 76.301 58.1564 78.5694 58.1564 78.5694C57.7952 75.8254 58.846 74.307 62.4582 71.1788C66.0704 68.0506 66.251 64.1906 66.251 64.1906C68.1885 69.3494 63.9852 72.313 61.391 74.307Z" fill="white"/>
<path opacity="0.17" d="M81.6047 120.571L81.2763 123.26C81.2763 123.26 57.1403 127.175 41.4765 123.26L38.6688 100.192C47.2396 114.003 61.5406 120.79 81.6047 120.571Z" fill="#D3D3D3"/>
<path d="M13.8559 59.16C13.8559 59.16 13.9216 58.4831 14.0694 57.477C14.2171 56.4891 15.3008 54.989 15.3008 54.989C14.3977 54.9159 13.6589 56.5623 13.6589 56.5623L13.5768 57.294L11.7707 55.9952C11.7707 55.9952 10.2273 54.7329 9.93176 54.6232C9.65264 54.5134 8.37195 59.4161 8.37195 59.4161L13.0678 63.3309L15.0709 60.4588L13.8559 59.16Z" fill="#FFE3CA"/>
<path d="M8.9762 54.6416L9.79715 61.9225L13.0645 62.0139L13.8527 54.6416H8.9762Z" fill="#D3D3D3"/>
<path d="M8.28418 54.7316H14.4413V54.0181H13.8667V52.8839L8.85885 53.7071L8.84243 54.1096H8.28418V54.823" fill="#FFBE55"/>
<path d="M8.68913 59.58C7.55622 59.7081 8.96826 56.214 8.96826 56.214C8.96826 56.214 12.0386 55.9762 12.0715 56.1591C12.1043 56.3421 12.0879 56.6714 11.8416 56.7262C11.5953 56.7994 9.67428 57.0738 9.67428 57.0738C9.67428 57.0738 11.6774 57.1836 11.6446 57.4214C11.5789 57.7873 11.349 57.8056 10.7579 57.9153C10.2489 58.0068 9.13245 58.0434 9.13245 58.0434C9.13245 58.0434 11.2505 58.0983 11.2013 58.2446C11.152 58.391 11.2998 58.8849 10.5773 58.7568C8.93542 58.519 8.68913 59.58 8.68913 59.58Z" fill="#FFE3CA"/>
<path d="M22.5494 73.5756C22.5494 73.5756 19.4134 98.1988 20.8747 103.412C22.3196 108.644 22.8778 113.364 22.8778 113.364L30.135 111.004C30.135 111.004 27.7214 98.6927 27.3766 96.3145C27.0154 93.9547 30.7425 74.7281 30.7425 74.7281L22.5494 73.5756Z" fill="#0B4870"/>
<path d="M25.9747 75.3494L29.4063 114.919H36.3352C36.3352 114.919 34.1022 73.0444 34.4962 72.6968C34.9067 72.3493 25.9747 75.3494 25.9747 75.3494Z" fill="#0B4870"/>
<path d="M23.2332 51.2375C23.2332 51.2375 22.4944 64.5004 20.9017 64.0248C19.3091 63.5492 15.0237 60.0917 15.0237 60.0917L12.4131 63.2748C12.4131 63.2748 20.3435 73.1167 23.6109 69.0738C26.8783 65.0675 23.2332 51.2375 23.2332 51.2375Z" fill="#2A94F4"/>
<path d="M25.3805 121.522L24.9044 118.851L29.9778 116.601L30.7824 120.589L30.5033 120.644C29.3703 121.229 23.8371 124.083 22.9669 124.156C21.9982 124.229 25.3805 121.522 25.3805 121.522Z" fill="#0B4870"/>
<path d="M37.4223 82.5942L36.864 83.4723C36.864 83.4723 36.6013 84.076 35.961 84.9907C35.7968 85.2285 35.5833 85.4297 35.3535 85.5944C35.0744 85.7956 34.6967 86.0334 34.4504 86.0883C34.1549 86.1615 34.0892 86.6188 34.3355 86.7286C34.5982 86.8566 35.4356 86.6737 36.2401 85.9968C37.0446 85.32 36.667 87.0213 36.5356 87.6615C36.4043 88.2835 36.1088 90.2409 36.2401 90.4422C36.4536 90.7349 36.7655 90.5336 36.8804 89.9117C36.9954 89.2714 37.4551 87.4237 37.7507 87.5152C38.0462 87.6067 37.3566 90.7714 37.3566 90.7714C37.3566 90.7714 37.1103 91.43 37.4551 91.5398C38.0626 91.741 38.5552 88.3201 38.6044 87.9908C38.6373 87.7713 38.9493 87.8445 38.9164 88.0823C38.8672 88.3384 38.1776 91.2288 38.7851 91.4483C39.2612 91.613 39.2284 88.6311 39.6717 88.1189C40.115 87.6067 39.4911 90.3873 39.9508 90.5336C40.115 90.5885 40.2464 90.6068 40.4105 88.9421C40.5583 87.2591 40.312 82.5942 40.312 82.5942L37.4223 82.6308M27.3738 46.7753C27.4395 46.2448 27.1768 44.0312 27.1768 44.0312C27.1768 44.0312 25.3543 43.8849 25.1901 41.8726C25.0259 39.8786 24.993 35.2503 24.993 35.2503L28.244 33.3295L31.9711 36.2747L33.5966 37.4272L31.8562 42.0921L31.7084 43.702V46.3362L27.3738 46.7753Z" fill="#FFE3CA"/>
<path d="M27.176 44.03C27.176 44.03 28.391 43.9934 29.5404 43.0421C29.5404 43.0421 29.0478 44.5422 27.2417 44.5239L27.176 44.03Z" fill="#FCD2B1"/>
<path d="M34.2838 32.3413C34.054 32.0669 33.8241 31.8474 33.6107 31.6827C31.0657 29.5607 29.3253 31.4998 27.4043 31.1339C25.8116 30.8412 26.4684 29.5424 26.4684 29.5424C23.4308 30.7497 23.2666 34.4633 25.2534 35.6341C26.6161 36.4391 28.6028 36.3842 30.2119 35.8537C30.1627 36.6586 30.1627 37.6281 30.2448 38.5428L30.9836 38.2867C31.0985 36.8964 32.4285 37.1525 32.5106 38.2501C32.6912 40.5002 31.6896 40.299 31.6896 40.299C31.6568 40.7198 31.7881 41.4149 31.9195 42.0186C32.2315 42.165 36.9437 35.4878 34.2838 32.3413Z" fill="#0B4870"/>
<path d="M38.9861 52.0434C38.9861 52.0434 37.7547 45.6406 31.7125 46.3175L26.2121 46.9394C26.2121 46.9394 22.4357 48.7139 22.9611 53.7447C23.4865 58.7754 23.7492 63.3488 23.6179 64.2452C23.4865 65.1233 22.1566 73.0444 22.5506 73.5933C26.524 78.9716 36.671 70.3919 36.671 70.3919L38.9861 52.0434Z" fill="#F7F7F7"/>
<path d="M40.4095 83.2526L38.981 52.0437C38.5705 50.2875 37.7331 48.9154 36.6495 47.7447C36.1898 47.1775 34.8106 45.9702 31.7073 46.3178L33.103 83.6733L36.3375 81.7342V83.6733L40.4095 83.2526ZM27.3727 46.7751C27.3727 46.7751 23.6127 48.8423 23.7934 55.867C23.974 62.8918 21.5275 82.7038 21.5275 82.7038L18.3915 82.0086C18.3915 82.0086 22.0201 63.2211 22.1843 59.9282C22.3485 56.5622 22.0694 51.8241 24.1053 48.5496C25.5502 46.1714 27.3727 46.7751 27.3727 46.7751Z" fill="#2A94F4"/>
<path d="M25.3359 118.65C25.4015 118.632 24.0552 112.979 24.0552 112.979L28.5047 111.534L29.4406 116.821L25.3359 118.65ZM30.5407 114.918H35.5978V119.345H30.5407V114.918Z" fill="#FFE3CA"/>
<path d="M30.0336 121.742L30.4933 119.053H35.9609L35.3862 122.986L35.0907 123.004C33.8428 123.078 27.7678 123.443 26.9304 123.151C25.9945 122.858 30.0336 121.742 30.0336 121.742Z" fill="#0B4870"/>
<path d="M12.8622 51.8788C13.0264 51.8788 13.1413 51.7325 13.1413 51.5679C13.1413 50.9459 12.7637 50.6532 12.4517 50.4154C12.1562 50.1958 12.0084 50.0495 12.0084 49.7751C12.0084 49.5007 12.1726 49.3726 12.4517 49.1348C12.7637 48.897 13.1413 48.586 13.1413 47.9823C13.1413 47.3603 12.7637 47.0676 12.4517 46.8298C12.1562 46.6103 12.0084 46.4639 12.0084 46.1895C12.0084 46.0066 11.8771 45.8785 11.7293 45.8785C11.5651 45.8785 11.4502 46.0249 11.4502 46.1895C11.4502 46.8115 11.8278 47.1042 12.1398 47.342C12.4353 47.5616 12.5831 47.7079 12.5831 47.9823C12.5831 48.2567 12.4189 48.3848 12.1398 48.6226C11.8278 48.8604 11.4502 49.1714 11.4502 49.7751C11.4502 50.3788 11.8278 50.6898 12.1398 50.9276C12.4353 51.1471 12.5831 51.2934 12.5831 51.5679C12.5667 51.7508 12.698 51.8788 12.8622 51.8788ZM10.4322 52.7204C10.5964 52.7204 10.7113 52.574 10.7113 52.4094C10.7113 51.7874 10.3337 51.4947 10.0217 51.2569C9.72616 51.0373 9.57839 50.891 9.57839 50.6166C9.57839 50.3422 9.74258 50.2141 10.0217 49.9763C10.3337 49.7385 10.7113 49.4275 10.7113 48.8238C10.7113 48.2018 10.3337 47.9091 10.0217 47.6713C9.72616 47.4518 9.57839 47.3054 9.57839 47.031C9.57839 46.8481 9.44704 46.72 9.29927 46.72C9.13508 46.72 9.02014 46.8664 9.02014 47.031C9.02014 47.653 9.39778 47.9457 9.70974 48.1835C10.0053 48.4031 10.1531 48.5494 10.1531 48.8238C10.1531 49.0982 9.98887 49.2263 9.70974 49.4641C9.39778 49.7019 9.02014 50.0129 9.02014 50.6166C9.02014 51.2386 9.39778 51.5313 9.70974 51.7691C10.0053 51.9886 10.1531 52.135 10.1531 52.4094C10.1531 52.574 10.268 52.7204 10.4322 52.7204Z" fill="#CCE9FF"/>
</g>
<defs>
<clipPath id="clip0_814_4314">
<rect width="125" height="125" fill="white"/>
</clipPath>
</defs>
</svg>
