<svg width="700" height="600" viewBox="0 0 700 600" fill="none" xmlns="http://www.w3.org/2000/svg">
<rect x="1.5" y="1.5" width="697" height="597" rx="29.5" fill="#FFFCFC" stroke="#A54729" stroke-width="3"/>
<path d="M153.161 423.2L153.865 415.84H184.265L183.561 423.2L172.425 422.24L172.169 443.36L172.937 460H163.977L164.745 444.448L164.489 422.304L153.161 423.2ZM194.398 460C192.094 460 190.217 459.253 188.766 457.76C187.358 456.224 186.654 454.219 186.654 451.744L187.038 444.384L186.334 429.024L194.91 427.424L194.078 446.88C194.078 448.715 194.398 450.059 195.038 450.912C195.721 451.765 196.788 452.192 198.238 452.192C199.689 452.192 201.694 451.467 204.254 450.016V446.176L203.55 429.344L212.19 427.744L211.422 443.744L211.486 448.992C211.486 451.723 212.19 454.475 213.598 457.248L206.942 460.192C205.534 457.419 204.681 455.2 204.382 453.536C200.542 457.845 197.214 460 194.398 460ZM225.954 429.088L233.698 427.424C234.082 430.709 234.338 433.824 234.466 436.768C238.349 430.752 241.997 427.744 245.41 427.744L244.706 437.728C242.232 437.728 240.269 437.963 238.818 438.432C237.41 438.859 235.96 439.733 234.466 441.056V443.36L235.17 458.4L226.594 460L227.362 444.448C227.192 438.731 226.722 433.611 225.954 429.088ZM259.711 453.472C260.948 453.472 262.249 453.152 263.615 452.512C264.98 451.872 266.047 451.232 266.815 450.592L267.967 449.632L270.911 453.216C270.484 453.941 269.823 454.773 268.927 455.712C268.031 456.651 267.113 457.461 266.175 458.144C265.279 458.784 264.063 459.381 262.527 459.936C261.033 460.448 259.476 460.704 257.855 460.704C254.399 460.704 251.583 459.403 249.407 456.8C247.231 454.155 246.143 450.763 246.143 446.624C246.143 441.419 247.657 436.853 250.687 432.928C253.716 429.003 257.257 427.04 261.311 427.04C264.425 427.04 266.836 427.915 268.543 429.664C270.292 431.413 271.167 433.867 271.167 437.024C271.167 438.901 270.847 441.035 270.207 443.424L268.927 444.768L252.927 446.24C253.652 451.061 255.913 453.472 259.711 453.472ZM259.711 433.632C257.833 433.632 256.255 434.4 254.975 435.936C253.695 437.429 252.948 439.349 252.735 441.696L263.615 440.352C263.743 439.371 263.807 438.56 263.807 437.92C263.807 435.061 262.441 433.632 259.711 433.632ZM285.137 454.048C287.356 454.048 288.465 453.067 288.465 451.104C288.465 450.421 287.975 449.781 286.993 449.184C286.055 448.587 284.881 447.989 283.473 447.392C282.108 446.795 280.721 446.133 279.313 445.408C277.948 444.64 276.775 443.595 275.793 442.272C274.855 440.949 274.385 439.435 274.385 437.728C274.385 434.869 275.644 432.373 278.161 430.24C280.679 428.107 283.58 427.04 286.865 427.04C288.401 427.04 289.895 427.232 291.345 427.616C292.839 427.957 294.268 428.512 295.633 429.28L291.345 437.088C291.047 436.832 290.663 436.512 290.193 436.128C289.724 435.744 288.828 435.253 287.505 434.656C286.225 434.016 285.073 433.696 284.049 433.696C283.068 433.696 282.3 433.931 281.745 434.4C281.233 434.827 280.977 435.445 280.977 436.256C280.977 437.024 281.703 437.813 283.153 438.624C284.647 439.392 286.268 440.117 288.017 440.8C289.767 441.44 291.367 442.528 292.817 444.064C294.311 445.557 295.057 447.349 295.057 449.44C295.057 452.427 293.82 455.051 291.345 457.312C288.913 459.573 286.097 460.704 282.897 460.704C280.849 460.704 278.929 460.256 277.137 459.36C275.388 458.464 274.129 457.568 273.361 456.672L272.209 455.328L277.265 449.44C277.521 449.781 277.884 450.208 278.353 450.72C278.823 451.232 279.74 451.915 281.105 452.768C282.513 453.621 283.857 454.048 285.137 454.048ZM310.901 453.472C312.138 453.472 313.439 453.152 314.805 452.512C316.17 451.872 317.237 451.232 318.005 450.592L319.157 449.632L322.101 453.216C321.674 453.941 321.013 454.773 320.117 455.712C319.221 456.651 318.303 457.461 317.365 458.144C316.469 458.784 315.253 459.381 313.717 459.936C312.223 460.448 310.666 460.704 309.045 460.704C305.589 460.704 302.773 459.403 300.597 456.8C298.421 454.155 297.333 450.763 297.333 446.624C297.333 441.419 298.847 436.853 301.877 432.928C304.906 429.003 308.447 427.04 312.501 427.04C315.615 427.04 318.026 427.915 319.733 429.664C321.482 431.413 322.357 433.867 322.357 437.024C322.357 438.901 322.037 441.035 321.397 443.424L320.117 444.768L304.117 446.24C304.842 451.061 307.103 453.472 310.901 453.472ZM310.901 433.632C309.023 433.632 307.445 434.4 306.165 435.936C304.885 437.429 304.138 439.349 303.925 441.696L314.805 440.352C314.933 439.371 314.997 438.56 314.997 437.92C314.997 435.061 313.631 433.632 310.901 433.632ZM325.959 429.088L333.703 427.424C334.087 430.709 334.343 433.824 334.471 436.768C338.354 430.752 342.002 427.744 345.415 427.744L344.711 437.728C342.237 437.728 340.274 437.963 338.823 438.432C337.415 438.859 335.965 439.733 334.471 441.056V443.36L335.175 458.4L326.599 460L327.367 444.448C327.197 438.731 326.727 433.611 325.959 429.088ZM359.076 452H359.908L362.02 443.232L365.476 427.424L373.412 428.384L368.612 444.256L364.58 459.232L353.636 460.192L349.86 444.64L345.252 429.088L353.956 427.488L356.708 441.568L359.076 452ZM382.753 460C380.236 460 378.167 459.211 376.545 457.632C374.967 456.011 374.177 453.856 374.177 451.168C374.177 448.437 375.415 446.091 377.889 444.128C380.364 442.123 383.372 441.12 386.913 441.12H391.265V440.032C391.265 437.941 390.839 436.512 389.985 435.744C389.132 434.976 387.532 434.592 385.185 434.592C384.204 434.592 383.031 434.805 381.665 435.232C380.343 435.616 378.849 436.235 377.185 437.088L375.329 432.032C377.164 430.752 379.383 429.6 381.985 428.576C384.631 427.552 386.807 427.04 388.513 427.04C395.212 427.04 398.561 430.283 398.561 436.768V449.312C398.561 451.701 399.308 454.368 400.801 457.312L394.017 460.192C392.951 458.144 392.161 456.309 391.649 454.688C389.303 458.229 386.337 460 382.753 460ZM385.441 453.472C387.148 453.472 389.089 452.597 391.265 450.848V446.56C389.004 446.048 387.169 445.792 385.761 445.792C383.073 445.792 381.729 446.987 381.729 449.376C381.729 450.613 382.071 451.616 382.753 452.384C383.436 453.109 384.332 453.472 385.441 453.472ZM420.068 460C417.551 460 415.482 459.211 413.86 457.632C412.282 456.011 411.492 453.856 411.492 451.168C411.492 448.437 412.73 446.091 415.204 444.128C417.679 442.123 420.687 441.12 424.228 441.12H428.58V440.032C428.58 437.941 428.154 436.512 427.3 435.744C426.447 434.976 424.847 434.592 422.5 434.592C421.519 434.592 420.346 434.805 418.98 435.232C417.658 435.616 416.164 436.235 414.5 437.088L412.644 432.032C414.479 430.752 416.698 429.6 419.3 428.576C421.946 427.552 424.122 427.04 425.828 427.04C432.527 427.04 435.876 430.283 435.876 436.768V449.312C435.876 451.701 436.623 454.368 438.116 457.312L431.332 460.192C430.266 458.144 429.476 456.309 428.964 454.688C426.618 458.229 423.652 460 420.068 460ZM422.756 453.472C424.463 453.472 426.404 452.597 428.58 450.848V446.56C426.319 446.048 424.484 445.792 423.076 445.792C420.388 445.792 419.044 446.987 419.044 449.376C419.044 450.613 419.386 451.616 420.068 452.384C420.751 453.109 421.647 453.472 422.756 453.472ZM460.647 454.048C462.866 454.048 463.975 453.067 463.975 451.104C463.975 450.421 463.485 449.781 462.503 449.184C461.565 448.587 460.391 447.989 458.983 447.392C457.618 446.795 456.231 446.133 454.823 445.408C453.458 444.64 452.285 443.595 451.303 442.272C450.365 440.949 449.895 439.435 449.895 437.728C449.895 434.869 451.154 432.373 453.671 430.24C456.189 428.107 459.09 427.04 462.375 427.04C463.911 427.04 465.405 427.232 466.855 427.616C468.349 427.957 469.778 428.512 471.143 429.28L466.855 437.088C466.557 436.832 466.173 436.512 465.703 436.128C465.234 435.744 464.338 435.253 463.015 434.656C461.735 434.016 460.583 433.696 459.559 433.696C458.578 433.696 457.81 433.931 457.255 434.4C456.743 434.827 456.487 435.445 456.487 436.256C456.487 437.024 457.213 437.813 458.663 438.624C460.157 439.392 461.778 440.117 463.527 440.8C465.277 441.44 466.877 442.528 468.327 444.064C469.821 445.557 470.567 447.349 470.567 449.44C470.567 452.427 469.33 455.051 466.855 457.312C464.423 459.573 461.607 460.704 458.407 460.704C456.359 460.704 454.439 460.256 452.647 459.36C450.898 458.464 449.639 457.568 448.871 456.672L447.719 455.328L452.775 449.44C453.031 449.781 453.394 450.208 453.863 450.72C454.333 451.232 455.25 451.915 456.615 452.768C458.023 453.621 459.367 454.048 460.647 454.048ZM483.467 427.424L482.699 443.36L483.403 458.4L474.827 460L475.595 444.448L474.891 429.024L483.467 427.424ZM474.443 418.08C474.443 416.629 474.997 415.349 476.107 414.24C477.216 413.088 478.496 412.512 479.947 412.512C481.397 412.512 482.507 412.917 483.275 413.728C484.043 414.496 484.427 415.669 484.427 417.248C484.427 418.827 483.872 420.192 482.763 421.344C481.696 422.453 480.437 423.008 478.987 423.008C477.579 423.008 476.469 422.539 475.659 421.6C474.848 420.661 474.443 419.488 474.443 418.08ZM506.132 453.728C502.804 457.909 499.924 460 497.492 460C494.462 460 491.966 458.763 490.004 456.288C488.084 453.813 487.124 450.635 487.124 446.752C487.124 441.419 488.596 436.917 491.54 433.248C494.526 429.579 498.174 427.744 502.484 427.744L506.068 428.256V427.04L505.3 412.064L514.068 410.464L513.236 443.36V448.992C513.236 451.552 513.876 454.496 515.156 457.824L508.244 460.704C507.006 458.144 506.302 455.819 506.132 453.728ZM494.292 443.424C494.292 446.155 494.782 448.288 495.764 449.824C496.788 451.36 498.238 452.128 500.116 452.128C502.036 452.128 504.02 451.36 506.068 449.824V436C503.508 435.488 501.609 435.232 500.372 435.232C498.452 435.232 496.958 435.915 495.892 437.28C494.825 438.645 494.292 440.693 494.292 443.424ZM518.161 446.624C518.161 441.163 519.633 436.533 522.577 432.736C525.521 428.939 528.955 427.04 532.881 427.04C536.849 427.04 539.921 428.32 542.097 430.88C544.315 433.44 545.425 436.832 545.425 441.056C545.425 446.688 543.995 451.381 541.137 455.136C538.321 458.848 534.758 460.704 530.449 460.704C526.907 460.704 523.963 459.381 521.617 456.736C519.313 454.048 518.161 450.677 518.161 446.624ZM538.257 444.384C538.257 438.197 536.145 435.104 531.921 435.104C527.526 435.104 525.329 438.005 525.329 443.808C525.329 446.837 525.947 449.205 527.185 450.912C528.422 452.619 530.043 453.472 532.049 453.472C534.097 453.472 535.633 452.704 536.657 451.168C537.723 449.589 538.257 447.328 538.257 444.384ZM224.886 517.36C223.009 517.36 221.558 518.043 220.534 519.408C219.51 520.731 218.998 522.779 218.998 525.552C218.998 528.325 219.51 530.565 220.534 532.272C221.601 533.936 223.137 534.768 225.142 534.768C226.166 534.768 227.169 534.448 228.15 533.808C229.132 533.168 229.878 532.528 230.39 531.888L231.094 530.864L234.294 534.192C234.166 534.405 233.996 534.704 233.782 535.088C233.612 535.472 233.142 536.155 232.374 537.136C231.649 538.117 230.86 538.992 230.006 539.76C229.196 540.485 228.129 541.168 226.806 541.808C225.484 542.405 224.097 542.704 222.646 542.704C219.446 542.704 216.844 541.403 214.838 538.8C212.833 536.197 211.83 532.805 211.83 528.624C211.83 523.419 213.345 518.853 216.374 514.928C219.404 511.003 222.945 509.04 226.998 509.04C228.236 509.04 229.473 509.232 230.71 509.616C231.948 509.957 233.206 510.512 234.486 511.28L230.006 519.152C228.47 517.957 226.764 517.36 224.886 517.36ZM235.303 528.624C235.303 523.163 236.775 518.533 239.719 514.736C242.663 510.939 246.098 509.04 250.023 509.04C253.991 509.04 257.063 510.32 259.239 512.88C261.458 515.44 262.567 518.832 262.567 523.056C262.567 528.688 261.138 533.381 258.279 537.136C255.463 540.848 251.901 542.704 247.591 542.704C244.05 542.704 241.106 541.381 238.759 538.736C236.455 536.048 235.303 532.677 235.303 528.624ZM255.399 526.384C255.399 520.197 253.287 517.104 249.063 517.104C244.669 517.104 242.471 520.005 242.471 525.808C242.471 528.837 243.09 531.205 244.327 532.912C245.565 534.619 247.186 535.472 249.191 535.472C251.239 535.472 252.775 534.704 253.799 533.168C254.866 531.589 255.399 529.328 255.399 526.384ZM285.378 525.808C285.378 522.864 285.122 520.901 284.61 519.92C284.098 518.939 282.904 518.448 281.026 518.448C279.149 518.448 277.016 519.195 274.626 520.688V525.36L275.33 540.4L266.754 542L267.522 526.448C267.352 520.731 266.882 515.611 266.114 511.088L273.858 509.424C274.157 511.899 274.37 514.309 274.498 516.656C275.138 515.803 275.864 514.971 276.674 514.16C277.485 513.307 278.765 512.368 280.514 511.344C282.264 510.277 284.098 509.744 286.018 509.744C287.981 509.744 289.624 510.512 290.946 512.048C292.269 513.541 292.93 515.589 292.93 518.192L292.546 525.36L293.25 540.72L284.61 542.32L285.378 525.808ZM316.126 500.336C314.548 499.952 313.118 499.76 311.838 499.76C310.558 499.76 309.62 500.144 309.022 500.912C308.468 501.68 308.19 503.024 308.19 504.944L308.126 511.024H315.038L314.334 516.272H308.126L308.062 525.36L308.766 540.4L300.126 542L300.894 526.448L300.638 516.272H296.414L297.118 511.024H300.51L300.446 506.16C300.446 502.363 301.62 499.141 303.966 496.496C306.313 493.808 309.172 492.464 312.542 492.464C314.334 492.464 316.19 492.656 318.11 493.04L316.126 500.336ZM325.709 509.424L324.941 525.36L325.645 540.4L317.069 542L317.837 526.448L317.133 511.024L325.709 509.424ZM316.685 500.08C316.685 498.629 317.24 497.349 318.349 496.24C319.459 495.088 320.739 494.512 322.189 494.512C323.64 494.512 324.749 494.917 325.517 495.728C326.285 496.496 326.669 497.669 326.669 499.248C326.669 500.827 326.115 502.192 325.005 503.344C323.939 504.453 322.68 505.008 321.229 505.008C319.821 505.008 318.712 504.539 317.901 503.6C317.091 502.661 316.685 501.488 316.685 500.08ZM330.774 511.088L338.518 509.424C338.902 512.709 339.158 515.824 339.286 518.768C343.169 512.752 346.817 509.744 350.23 509.744L349.526 519.728C347.052 519.728 345.089 519.963 343.638 520.432C342.23 520.859 340.78 521.733 339.286 523.056V525.36L339.99 540.4L331.414 542L332.182 526.448C332.012 520.731 331.542 515.611 330.774 511.088ZM371.571 525.808C371.571 522.864 371.315 520.901 370.803 519.92C370.291 518.939 369.096 518.448 367.219 518.448C365.341 518.448 363.208 519.195 360.819 520.688V525.36L361.523 540.4L352.947 542L353.715 526.448C353.544 520.731 353.075 515.611 352.307 511.088L360.051 509.424C360.349 511.899 360.563 514.309 360.691 516.656C361.331 515.803 362.056 514.971 362.867 514.16C363.677 513.307 364.957 512.368 366.707 511.344C368.456 510.277 370.227 509.744 372.019 509.744C373.811 509.744 375.325 510.32 376.563 511.472C377.8 512.624 378.589 514.203 378.931 516.208C382.472 511.899 386.056 509.744 389.683 509.744C391.944 509.744 393.736 510.512 395.059 512.048C396.381 513.541 397.043 515.589 397.043 518.192L396.659 525.36L397.363 540.72L388.723 542.32L389.491 525.808C389.491 522.864 389.235 520.901 388.723 519.92C388.211 518.939 387.037 518.448 385.203 518.448C383.368 518.448 381.299 519.152 378.995 520.56L378.739 525.36L379.443 540.72L370.803 542.32L371.571 525.808ZM409.506 542C406.988 542 404.919 541.211 403.298 539.632C401.719 538.011 400.93 535.856 400.93 533.168C400.93 530.437 402.167 528.091 404.642 526.128C407.116 524.123 410.124 523.12 413.666 523.12H418.018V522.032C418.018 519.941 417.591 518.512 416.738 517.744C415.884 516.976 414.284 516.592 411.938 516.592C410.956 516.592 409.783 516.805 408.418 517.232C407.095 517.616 405.602 518.235 403.938 519.088L402.082 514.032C403.916 512.752 406.135 511.6 408.738 510.576C411.383 509.552 413.559 509.04 415.266 509.04C421.964 509.04 425.314 512.283 425.314 518.768V531.312C425.314 533.701 426.06 536.368 427.554 539.312L420.77 542.192C419.703 540.144 418.914 538.309 418.402 536.688C416.055 540.229 413.09 542 409.506 542ZM412.194 535.472C413.9 535.472 415.842 534.597 418.018 532.848V528.56C415.756 528.048 413.922 527.792 412.514 527.792C409.826 527.792 408.482 528.987 408.482 531.376C408.482 532.613 408.823 533.616 409.506 534.384C410.188 535.109 411.084 535.472 412.194 535.472ZM448.722 535.728C445.394 539.909 442.514 542 440.082 542C437.052 542 434.556 540.763 432.594 538.288C430.674 535.813 429.714 532.635 429.714 528.752C429.714 523.419 431.186 518.917 434.13 515.248C437.116 511.579 440.764 509.744 445.074 509.744L448.658 510.256V509.04L447.89 494.064L456.658 492.464L455.826 525.36V530.992C455.826 533.552 456.466 536.496 457.746 539.824L450.834 542.704C449.596 540.144 448.892 537.819 448.722 535.728ZM436.882 525.424C436.882 528.155 437.372 530.288 438.354 531.824C439.378 533.36 440.828 534.128 442.706 534.128C444.626 534.128 446.61 533.36 448.658 531.824V518C446.098 517.488 444.199 517.232 442.962 517.232C441.042 517.232 439.548 517.915 438.482 519.28C437.415 520.645 436.882 522.693 436.882 525.424ZM469.071 542C466.553 542 464.484 541.211 462.863 539.632C461.284 538.011 460.495 535.856 460.495 533.168C460.495 530.437 461.732 528.091 464.207 526.128C466.681 524.123 469.689 523.12 473.231 523.12H477.583V522.032C477.583 519.941 477.156 518.512 476.303 517.744C475.449 516.976 473.849 516.592 471.503 516.592C470.521 516.592 469.348 516.805 467.983 517.232C466.66 517.616 465.167 518.235 463.503 519.088L461.647 514.032C463.481 512.752 465.7 511.6 468.303 510.576C470.948 509.552 473.124 509.04 474.831 509.04C481.529 509.04 484.879 512.283 484.879 518.768V531.312C484.879 533.701 485.625 536.368 487.119 539.312L480.335 542.192C479.268 540.144 478.479 538.309 477.967 536.688C475.62 540.229 472.655 542 469.071 542ZM471.759 535.472C473.465 535.472 475.407 534.597 477.583 532.848V528.56C475.321 528.048 473.487 527.792 472.079 527.792C469.391 527.792 468.047 528.987 468.047 531.376C468.047 532.613 468.388 533.616 469.071 534.384C469.753 535.109 470.649 535.472 471.759 535.472Z" fill="black"/>
<ellipse cx="349.845" cy="198.662" rx="169.782" ry="170.569" fill="#E19C5B"/>
<g clip-path="url(#clip0_885_4305)">
<path d="M323.102 138.72H322.136V111.661C322.136 109.604 321.739 107.568 320.969 105.668C320.198 103.768 319.069 102.041 317.646 100.587C316.223 99.1327 314.533 97.9792 312.673 97.1921C310.814 96.4051 308.821 96 306.808 96H250.699C246.634 96 242.735 97.65 239.861 100.587C236.986 103.524 235.371 107.507 235.371 111.661V260.107C235.371 262.164 235.768 264.2 236.538 266.101C237.308 268.001 238.437 269.727 239.861 271.181C241.284 272.636 242.974 273.789 244.833 274.576C246.693 275.363 248.686 275.768 250.699 275.768H306.808C310.873 275.768 314.771 274.118 317.646 271.181C320.521 268.244 322.135 264.261 322.135 260.107V157.981H323.102V138.72Z" fill="#3F3D56"/>
<path d="M307.427 100.074H300.103C300.44 100.918 300.568 101.833 300.477 102.74C300.386 103.646 300.079 104.516 299.581 105.272C299.084 106.028 298.412 106.648 297.625 107.076C296.838 107.505 295.96 107.729 295.068 107.729H262.924C262.032 107.729 261.154 107.505 260.367 107.076C259.58 106.648 258.908 106.028 258.411 105.272C257.913 104.516 257.606 103.646 257.515 102.74C257.424 101.833 257.552 100.918 257.889 100.074H251.048C249.545 100.074 248.057 100.377 246.668 100.964C245.279 101.552 244.017 102.414 242.954 103.5C241.891 104.586 241.048 105.875 240.473 107.294C239.898 108.713 239.602 110.234 239.602 111.77V259.998C239.602 261.534 239.898 263.055 240.473 264.474C241.048 265.893 241.891 267.182 242.954 268.268C244.017 269.354 245.279 270.216 246.668 270.803C248.057 271.391 249.545 271.694 251.048 271.694H307.427C308.93 271.694 310.419 271.391 311.808 270.803C313.196 270.216 314.458 269.354 315.521 268.268C316.584 267.182 317.427 265.893 318.002 264.474C318.578 263.055 318.874 261.534 318.874 259.998V111.77C318.874 110.234 318.578 108.713 318.002 107.294C317.427 105.875 316.584 104.586 315.521 103.5C314.458 102.414 313.196 101.552 311.808 100.964C310.419 100.377 308.93 100.074 307.427 100.074Z" fill="white"/>
<path d="M341.086 275.794H217.387C217.301 275.794 217.218 275.759 217.158 275.697C217.097 275.635 217.062 275.551 217.062 275.463C217.062 275.375 217.097 275.29 217.158 275.228C217.218 275.166 217.301 275.131 217.387 275.131H341.086C341.172 275.131 341.255 275.166 341.316 275.228C341.377 275.29 341.411 275.375 341.411 275.463C341.411 275.551 341.377 275.635 341.316 275.697C341.255 275.759 341.172 275.794 341.086 275.794Z" fill="#CBCBCB"/>
<path d="M279.237 210.67C294.379 210.67 306.654 198.128 306.654 182.657C306.654 167.186 294.379 154.645 279.237 154.645C264.095 154.645 251.82 167.186 251.82 182.657C251.82 198.128 264.095 210.67 279.237 210.67Z" fill="#A54729"/>
<path d="M276.521 193.343C275.904 193.344 275.304 193.14 274.81 192.762L274.779 192.739L268.336 187.703C268.038 187.469 267.787 187.177 267.599 186.845C267.411 186.512 267.289 186.145 267.24 185.764C267.19 185.383 267.215 184.996 267.312 184.625C267.409 184.254 267.577 183.906 267.806 183.601C268.035 183.296 268.32 183.04 268.645 182.848C268.971 182.656 269.33 182.531 269.703 182.481C270.076 182.43 270.455 182.455 270.818 182.555C271.181 182.654 271.522 182.825 271.82 183.059L275.994 186.329L285.856 173.183C286.085 172.878 286.37 172.623 286.695 172.431C287.021 172.238 287.38 172.114 287.753 172.063C288.125 172.013 288.504 172.038 288.867 172.137C289.23 172.237 289.571 172.408 289.869 172.642L289.87 172.642L289.809 172.729L289.871 172.642C290.473 173.115 290.867 173.812 290.966 174.581C291.066 175.35 290.862 176.127 290.401 176.743L278.801 192.199C278.532 192.555 278.187 192.843 277.792 193.041C277.397 193.239 276.963 193.341 276.523 193.34L276.521 193.343Z" fill="white"/>
<path d="M442.463 278.547C442.796 277.996 443.189 277.485 443.633 277.023C443.817 276.829 444.01 276.646 444.209 276.468C445.422 275.365 446.899 274.613 448.491 274.287C450.082 273.962 451.73 274.075 453.264 274.616C454.798 275.157 456.163 276.105 457.22 277.364C458.276 278.623 458.986 280.146 459.275 281.778C460.614 276.718 457.128 271.735 453.624 267.907C450.117 264.08 446.11 259.882 446.13 254.638C446.14 251.72 447.537 249.117 449.646 247.188C449.711 247.129 449.776 247.071 449.842 247.014C452.392 244.782 455.671 243.614 459.027 243.744C465.26 244.085 470.703 248.366 474.482 253.443C480.566 261.612 483.232 273.08 478.973 282.38C475.227 290.559 467.237 295.416 459.082 299.32C457.943 299.866 456.807 300.395 455.673 300.907C455.665 300.909 455.657 300.915 455.65 300.917C455.595 300.941 455.54 300.966 455.489 300.991C455.255 301.096 455.021 301.202 454.789 301.306L454.897 301.378L455.232 301.6C455.116 301.528 455.001 301.458 454.884 301.386C454.85 301.364 454.813 301.344 454.779 301.322C450.774 298.867 446.713 296.269 443.946 292.436C441.076 288.456 439.923 282.755 442.463 278.547Z" fill="#F1F1F1"/>
<path d="M469.183 269.304C470.07 271.366 470.658 273.548 470.929 275.783C471.141 277.775 471.061 279.789 470.691 281.758C469.896 285.803 468.161 289.594 465.634 292.812C463.727 295.255 461.525 297.441 459.081 299.32C457.943 299.866 456.806 300.394 455.672 300.907C455.665 300.909 455.656 300.914 455.649 300.916C455.594 300.941 455.54 300.965 455.489 300.991C455.254 301.096 455.02 301.202 454.788 301.306L454.896 301.378L455.231 301.6C455.115 301.528 455 301.458 454.884 301.386C454.849 301.364 454.812 301.344 454.778 301.322C455.659 298.172 455.789 294.852 455.156 291.64C454.523 288.428 453.145 285.418 451.139 282.863C449.122 280.339 446.55 278.338 443.633 277.023C443.816 276.829 444.009 276.646 444.209 276.468C445.332 276.995 446.408 277.623 447.424 278.344C451.056 280.909 453.784 284.6 455.203 288.872C456.469 292.748 456.628 296.913 455.659 300.877C455.86 300.743 456.062 300.605 456.258 300.468C459.989 297.897 463.428 294.809 466.018 291.023C468.252 287.823 469.681 284.111 470.18 280.214C470.677 275.957 469.634 271.771 467.774 267.972C465.72 263.908 463.131 260.15 460.081 256.803C457.016 253.363 453.552 250.319 449.764 247.739C449.679 247.681 449.619 247.59 449.596 247.488C449.574 247.385 449.592 247.278 449.645 247.188C449.686 247.106 449.756 247.043 449.842 247.014C449.885 247.003 449.93 247.002 449.974 247.011C450.018 247.02 450.059 247.039 450.095 247.067C450.562 247.385 451.026 247.707 451.484 248.038C455.298 250.798 458.763 254.031 461.797 257.664C464.729 261.165 467.398 265.055 469.183 269.304Z" fill="white"/>
<path d="M387.526 109.007C390.742 109.007 393.348 106.343 393.348 103.058C393.348 99.7719 390.742 97.1084 387.526 97.1084C384.31 97.1084 381.703 99.7719 381.703 103.058C381.703 106.343 384.31 109.007 387.526 109.007Z" fill="#F1F1F1"/>
<path d="M459.929 188.621C461.889 188.621 463.479 186.997 463.479 184.994C463.479 182.99 461.889 181.366 459.929 181.366C457.968 181.366 456.379 182.99 456.379 184.994C456.379 186.997 457.968 188.621 459.929 188.621Z" fill="#F1F1F1"/>
<path d="M356.034 198.573C357.995 198.573 359.584 196.949 359.584 194.945C359.584 192.942 357.995 191.318 356.034 191.318C354.074 191.318 352.484 192.942 352.484 194.945C352.484 196.949 354.074 198.573 356.034 198.573Z" fill="#F1F1F1"/>
<path d="M358.04 302H481.738C481.825 302 481.907 301.965 481.968 301.903C482.029 301.841 482.063 301.757 482.063 301.669C482.063 301.581 482.029 301.496 481.968 301.434C481.907 301.372 481.825 301.337 481.738 301.337H358.04C357.953 301.337 357.871 301.372 357.81 301.434C357.749 301.496 357.715 301.581 357.715 301.669C357.715 301.757 357.749 301.841 357.81 301.903C357.871 301.965 357.953 302 358.04 302Z" fill="#CBCBCB"/>
<path d="M468.087 128.056C468.249 126.878 467.983 125.68 467.339 124.689C466.694 123.698 465.716 122.982 464.59 122.679C463.464 122.375 462.268 122.504 461.229 123.041C460.19 123.578 459.38 124.486 458.952 125.593L448.914 137.35L451.859 145.755L461.954 132.017C462.613 132.232 463.31 132.298 463.996 132.208C464.682 132.119 465.341 131.877 465.926 131.499C466.51 131.122 467.007 130.618 467.38 130.023C467.754 129.428 467.995 128.757 468.087 128.056Z" fill="#FFB7B7"/>
<path d="M426.478 173.806L459.799 137.472L455.304 130.172L413.512 166.285L426.478 173.806Z" fill="#3F3D56"/>
<path d="M419.044 151.73C425.499 151.73 430.732 146.383 430.732 139.788C430.732 133.192 425.499 127.846 419.044 127.846C412.588 127.846 407.355 133.192 407.355 139.788C407.355 146.383 412.588 151.73 419.044 151.73Z" fill="#2F2E41"/>
<path d="M419.98 133.042C422.496 130.436 425.539 128.425 428.897 127.151C431.052 126.335 433.398 125.831 435.652 126.294C437.905 126.757 440.036 128.35 440.665 130.609C441.179 132.456 440.648 134.445 439.85 136.184C439.052 137.923 437.987 139.535 437.342 141.339C436.684 143.179 436.486 145.158 436.766 147.097C437.047 149.035 437.796 150.871 438.947 152.439C440.098 154.006 441.614 155.255 443.357 156.071C445.101 156.888 447.016 157.247 448.929 157.116C446.715 157.419 444.674 158.483 442.51 159.048C440.346 159.614 437.792 159.576 436.184 157.992C434.482 156.316 434.448 153.591 434.53 151.177C434.653 147.59 434.775 144.002 434.897 140.415C434.96 138.585 435.013 136.697 434.367 134.989C433.721 133.281 432.187 131.786 430.395 131.802C429.037 131.813 427.835 132.654 426.746 133.483C425.657 134.312 424.504 135.196 423.152 135.319C421.799 135.443 420.255 134.42 420.356 133.036L419.98 133.042Z" fill="#2F2E41"/>
<path d="M374.648 219.973C373.525 220.291 372.328 220.178 371.282 219.655C370.236 219.132 369.415 218.235 368.973 217.134C368.531 216.033 368.5 214.804 368.885 213.682C369.27 212.559 370.046 211.619 371.064 211.041L381.161 199.337L389.701 201.222L377.689 213.243C377.985 213.882 378.139 214.58 378.142 215.286C378.145 215.993 377.996 216.692 377.706 217.334C377.416 217.975 376.992 218.544 376.464 219C375.935 219.456 375.315 219.788 374.648 219.973Z" fill="#FFB7B7"/>
<path d="M407.869 178.069L382.703 210.346L375.031 206.748L404.612 159.694L407.869 178.069Z" fill="#3F3D56"/>
<path d="M387.791 275.532L381.793 275.436L382.514 296.323H387.79L387.791 275.532Z" fill="#FFB7B7"/>
<path d="M389.132 294.564L378.743 294.563H378.742C376.986 294.564 375.302 295.276 374.061 296.545C372.819 297.814 372.121 299.534 372.121 301.328V301.548L389.132 301.549L389.132 294.564Z" fill="#2F2E41"/>
<path d="M427.501 269.992L420.949 274.29L434.055 290.4L438.495 287.488L427.501 269.992Z" fill="#FFB7B7"/>
<path d="M438.697 285.265L429.954 291L429.954 291C428.476 291.969 427.436 293.499 427.062 295.252C426.688 297.005 427.011 298.838 427.96 300.348L428.076 300.533L442.391 291.143L438.697 285.265Z" fill="#2F2E41"/>
<path d="M429.836 206.212C429.836 206.212 415.278 156.809 410.599 156.141C405.921 155.474 398.383 168.818 398.383 168.818C388.609 181.558 378.531 222.829 378.531 222.829C378.531 222.829 395.332 223.903 407.613 230.579C419.894 237.255 434.388 230.241 434.388 230.241L429.836 206.212Z" fill="#3F3D56"/>
<path opacity="0.1" d="M429.836 206.211C429.836 206.211 415.278 156.809 410.599 156.141C405.921 155.474 400.297 168.953 400.297 168.953C395.427 189.52 378.531 222.829 378.531 222.829C378.531 222.829 395.332 223.903 407.613 230.579C419.894 237.255 434.388 230.241 434.388 230.241L429.836 206.211Z" fill="black"/>
<path d="M417.893 191.43V216.255L420.752 252.215L435.038 279.416L428.219 284.392L408.739 258.518L401.035 232.826L388.934 289.7L379.844 289.036L386.157 210.182L398.138 187.986L417.893 191.43Z" fill="#2F2E41"/>
<path d="M403.215 167.42C398.669 172.064 402.89 177.04 402.89 177.04L397.695 188.982L418.149 194.621L425.297 161.987L420.427 156.68C410.687 156.348 410.682 156.142 410.682 156.142C408.976 157.848 403.215 167.42 403.215 167.42Z" fill="#A54729"/>
<path d="M426.119 158.606C425.19 157.906 424.134 157.4 423.013 157.12C421.891 156.839 420.726 156.788 419.586 156.971C418.445 157.153 417.351 157.565 416.367 158.182C415.383 158.8 414.529 159.611 413.854 160.568C408.712 167.883 403.957 179.695 410.508 194.427C421.027 218.082 430.181 230.192 433.902 230.191C434.065 230.192 434.227 230.166 434.381 230.114C436.671 229.32 439.983 225.36 440.583 221.87C440.797 220.621 440.746 218.881 439.284 217.686C435.084 214.254 427.545 203.567 425.193 189.501C423.893 181.729 426.414 174.649 428.757 170.079C429.747 168.188 430.037 165.996 429.573 163.904C429.109 161.813 427.923 159.962 426.232 158.691L426.119 158.606Z" fill="#3F3D56"/>
<path d="M419.643 150.556C423.812 148.227 425.345 142.886 423.066 138.626C420.786 134.366 415.559 132.8 411.389 135.129C407.22 137.458 405.688 142.799 407.967 147.059C410.246 151.319 415.474 152.885 419.643 150.556Z" fill="#FFB7B7"/>
<path d="M403.418 142.178H415.842L415.969 140.356L416.606 142.178H418.519L418.771 138.566L420.034 142.178H423.735V141.999C423.733 139.485 422.754 137.074 421.014 135.296C419.273 133.518 416.914 132.517 414.453 132.515H412.701C410.24 132.517 407.88 133.518 406.14 135.296C404.4 137.074 403.421 139.485 403.418 141.999V142.178Z" fill="#2F2E41"/>
<path d="M421.857 148.729L427.159 146.971V133.816H417.145L417.392 134.069C420.842 137.589 424.678 150.077 421.857 148.729Z" fill="#2F2E41"/>
</g>
<g clip-path="url(#clip1_885_4305)">
<path d="M662 28H642C636.477 28 632 32.4772 632 38V58C632 63.5228 636.477 68 642 68H662C667.523 68 672 63.5228 672 58V38C672 32.4772 667.523 28 662 28Z" fill="#E19C5B"/>
<path d="M655.734 56.32L651.926 50.656L647.99 56.32L644.822 54.56L649.846 48.064L645.078 42.176L648.63 39.744L652.118 45.152L655.894 39.68L658.998 41.6L654.23 47.808L659.286 53.888L655.734 56.32Z" fill="white"/>
<rect x="637.5" y="33.5" width="29" height="29" rx="5.5" stroke="white"/>
</g>
<defs>
<clipPath id="clip0_885_4305">
<rect width="265" height="206" fill="white" transform="translate(217.062 96)"/>
</clipPath>
<clipPath id="clip1_885_4305">
<rect width="40" height="40" fill="white" transform="translate(632 28)"/>
</clipPath>
</defs>
</svg>
