<svg width="375" height="375" viewBox="0 0 375 375" fill="none" xmlns="http://www.w3.org/2000/svg">
<path d="M375 63.7422H315.171V93.8484H339.496L348.595 103.485L357.695 93.8484H375V63.7422Z" fill="#F5F5F5"/>
<path d="M329.511 77.2767C329.502 76.1588 329.1 75.0845 328.384 74.263C327.668 73.4416 326.689 72.9318 325.637 72.833C324.586 72.7343 323.537 73.0535 322.696 73.7286C321.854 74.4037 321.28 75.3863 321.086 76.4851C320.914 77.5391 321.098 78.6236 321.606 79.5482C321.768 79.8407 321.971 80.0473 322.174 80.357L324.612 83.7987C324.688 83.8917 324.782 83.9662 324.888 84.0174C324.994 84.0685 325.109 84.0949 325.225 84.0949C325.341 84.0949 325.456 84.0685 325.562 84.0174C325.668 83.9662 325.762 83.8917 325.838 83.7987L328.276 80.4C328.497 80.1263 328.704 79.839 328.893 79.5396C329.286 78.8569 329.499 78.0757 329.511 77.2767ZM325.27 79.2385C324.9 79.2402 324.538 79.1255 324.229 78.9091C323.921 78.6927 323.68 78.3842 323.538 78.0228C323.395 77.6613 323.357 77.2632 323.428 76.8787C323.499 76.4943 323.676 76.1408 323.937 75.8632C324.198 75.5856 324.531 75.3962 324.894 75.3192C325.257 75.2421 325.633 75.2808 325.975 75.4303C326.317 75.5799 326.609 75.8335 326.815 76.1591C327.02 76.4848 327.13 76.8677 327.13 77.2595C327.13 77.7828 326.934 78.2849 326.586 78.6558C326.237 79.0267 325.764 79.2362 325.27 79.2385Z" fill="#E0E0E0"/>
<path d="M369.037 80.4862C369.037 80.6066 361.067 80.7099 351.228 80.7099C341.39 80.7099 333.419 80.6066 333.419 80.4862C333.419 80.3657 341.39 80.2625 351.228 80.2625C361.067 80.2625 369.037 80.3657 369.037 80.4862Z" fill="#E0E0E0"/>
<path d="M357.695 84.5474C357.695 84.6678 352.26 84.7711 345.557 84.7711C338.855 84.7711 333.419 84.6678 333.419 84.5474C333.419 84.4269 338.855 84.3151 345.557 84.3151C352.26 84.3151 357.695 84.4183 357.695 84.5474Z" fill="#E0E0E0"/>
<path d="M335.597 71.1332L336.409 72.8799L338.229 73.1638L336.913 74.5233L337.222 76.442L335.597 75.53L333.964 76.442L334.281 74.5233L332.957 73.1638L334.776 72.8799L335.597 71.1332Z" fill="#E0E0E0"/>
<path d="M343.298 71.1332L344.11 72.8799L345.93 73.1638L344.614 74.5233L344.923 76.442L343.298 75.53L341.665 76.442L341.982 74.5233L340.666 73.1638L342.485 72.8799L343.298 71.1332Z" fill="#E0E0E0"/>
<path d="M351.001 71.1332L351.813 72.8799L353.633 73.1638L352.317 74.5233L352.626 76.442L351.001 75.53L349.368 76.442L349.685 74.5233L348.369 73.1638L350.189 72.8799L351.001 71.1332Z" fill="#E0E0E0"/>
<path d="M358.702 71.1332L359.515 72.8799L361.334 73.1638L360.018 74.5233L360.327 76.442L358.702 75.53L357.077 76.442L357.386 74.5233L356.07 73.1638L357.89 72.8799L358.702 71.1332Z" fill="#EBEBEB"/>
<path d="M366.403 71.1332L367.216 72.8799L369.036 73.1638L367.719 74.5233L368.028 76.442L366.403 75.53L364.778 76.442L365.087 74.5233L363.771 73.1638L365.591 72.8799L366.403 71.1332Z" fill="#EBEBEB"/>
<path d="M113.654 0.312195H20.6289V47.1278H58.4482L72.601 62.1077L86.7457 47.1278H113.654V0.312195Z" fill="#F5F5F5"/>
<path d="M42.9207 21.3667C42.9226 20.2921 42.6904 19.2316 42.2422 18.2676C41.7941 17.3036 41.142 16.462 40.3367 15.8084C39.5314 15.1547 38.5946 14.7066 37.5991 14.4989C36.6036 14.2911 35.5763 14.3293 34.5971 14.6105C33.6178 14.8918 32.713 15.4084 31.953 16.1203C31.193 16.8322 30.5983 17.7201 30.2151 18.7151C29.8319 19.71 29.6706 20.7852 29.7437 21.8569C29.8168 22.9286 30.1223 23.9681 30.6365 24.8944C30.8883 25.3504 31.2052 25.6688 31.5302 26.142L35.3568 31.5196C35.4672 31.6763 35.6107 31.8035 35.7757 31.8912C35.9407 31.9788 36.1228 32.0244 36.3074 32.0244C36.492 32.0244 36.674 31.9788 36.839 31.8912C37.0041 31.8035 37.1475 31.6763 37.2579 31.5196L41.0439 26.2797C41.3848 25.8468 41.7048 25.3959 42.0026 24.9288C42.6092 23.8521 42.9267 22.6204 42.9207 21.3667ZM36.3236 24.404C35.75 24.404 35.1892 24.2238 34.7122 23.8863C34.2352 23.5488 33.8635 23.069 33.644 22.5077C33.4244 21.9465 33.367 21.3288 33.4789 20.733C33.5908 20.1371 33.8671 19.5898 34.2727 19.1602C34.6783 18.7306 35.1951 18.4381 35.7578 18.3196C36.3204 18.201 36.9036 18.2619 37.4336 18.4944C37.9635 18.7269 38.4165 19.1206 38.7352 19.6257C39.0539 20.1308 39.224 20.7247 39.224 21.3323C39.224 22.1469 38.9185 22.9282 38.3745 23.5043C37.8306 24.0803 37.0928 24.404 36.3236 24.404Z" fill="#E0E0E0"/>
<path d="M104.382 26.357C104.382 26.4775 91.9845 26.5807 76.6943 26.5807C61.4041 26.5807 48.998 26.4775 48.998 26.357C48.998 26.2365 61.396 26.1333 76.6943 26.1333C91.9927 26.1333 104.382 26.2796 104.382 26.357Z" fill="#E0E0E0"/>
<path d="M86.7524 32.6554C86.7524 32.7844 78.303 32.8791 67.8793 32.8791C57.4556 32.8791 48.998 32.7844 48.998 32.6554C48.998 32.5263 57.4475 32.4317 67.8793 32.4317C78.3111 32.4317 86.7524 32.5349 86.7524 32.6554Z" fill="#E0E0E0"/>
<path d="M52.3877 11.807L53.647 14.526L56.4743 14.9562L54.4269 17.0728L54.9144 20.0585L52.3877 18.6474L49.8529 20.0585L50.3403 17.0728L48.293 14.9562L51.1203 14.526L52.3877 11.807Z" fill="#E0E0E0"/>
<path d="M64.3622 11.807L65.6215 14.526L68.4569 14.9562L66.4095 17.0728L66.8889 20.0585L64.3622 18.6474L61.8273 20.0585L62.3148 17.0728L60.2675 14.9562L63.0948 14.526L64.3622 11.807Z" fill="#E0E0E0"/>
<path d="M76.3387 11.807L77.6062 14.526L80.4335 14.9562L78.3861 17.0728L78.8654 20.0585L76.3387 18.6474L73.812 20.0585L74.2914 17.0728L72.244 14.9562L75.0713 14.526L76.3387 11.807Z" fill="#E0E0E0"/>
<path d="M88.3134 11.807L89.5808 14.526L92.4081 14.9562L90.3607 17.0728L90.8482 20.0585L88.3134 18.6474L85.7866 20.0585L86.266 17.0728L84.2186 14.9562L87.0541 14.526L88.3134 11.807Z" fill="#EBEBEB"/>
<path d="M100.296 11.807L101.555 14.526L104.382 14.9562L102.343 17.0728L102.822 20.0585L100.296 18.6474L97.7609 20.0585L98.2484 17.0728L96.201 14.9562L99.0284 14.526L100.296 11.807Z" fill="#EBEBEB"/>
<path d="M327.958 114.843C328.446 111.074 323.433 107.959 319.671 107.658C317.876 107.512 316.007 107.796 314.301 107.168C310.621 105.808 309.142 100.766 305.543 99.1573C302.854 97.9528 299.758 99.0283 297.15 100.414C294.542 101.799 291.967 103.554 289.026 103.752C286.491 103.924 283.745 102.892 281.527 104.242C279.902 105.215 279.008 107.237 277.465 108.424C275.921 109.611 274.036 109.835 272.184 109.938C270.332 110.042 268.422 110.067 266.741 110.885C265.059 111.702 263.661 113.587 264.011 115.505L327.958 114.843Z" fill="#F5F5F5"/>
<path d="M72.7205 152.065C73.2161 148.305 68.2033 145.181 64.4336 144.889C62.6381 144.734 60.7695 145.027 59.0715 144.398C55.383 143.039 53.9043 137.988 50.3133 136.388C47.616 135.183 44.5206 136.25 41.9126 137.644C39.3047 139.038 36.7292 140.785 33.7882 140.983C31.2615 141.155 28.5073 140.122 26.2893 141.464C24.6644 142.445 23.7707 144.459 22.2271 145.646C20.6834 146.833 18.7904 147.057 16.938 147.169C15.0857 147.281 13.1764 147.289 11.4947 148.107C9.8129 148.924 8.42361 150.809 8.77296 152.736L72.7205 152.065Z" fill="#F5F5F5"/>
<path d="M47.0081 112.425C47.3656 109.663 43.6771 107.383 40.9148 107.151C39.5905 107.039 38.2175 107.254 36.9663 106.789C34.2609 105.791 33.1803 102.083 30.5317 100.895C28.5575 100.035 26.2827 100.801 24.3653 101.825C22.4479 102.849 20.5549 104.131 18.4101 104.277C16.5496 104.406 14.5266 103.675 12.8936 104.638C11.683 105.352 11.0493 106.832 9.92813 107.71C8.76134 108.468 7.41299 108.853 6.04464 108.82C4.68273 108.784 3.32667 109.021 2.04741 109.517C0.804372 110.119 -0.21931 111.504 0.0406723 112.916L47.0081 112.425Z" fill="#EBEBEB"/>
<path d="M350.536 11.9019C350.902 9.13998 347.213 6.85986 344.443 6.62755C343.127 6.51569 341.754 6.7308 340.502 6.26617C337.797 5.26808 336.708 1.55966 334.068 0.372282C332.085 -0.48814 329.811 0.277637 327.893 1.30154C325.976 2.32544 324.083 3.60747 321.946 3.75374C320.086 3.8828 318.063 3.15145 316.43 4.11512C315.219 4.82927 314.577 6.30919 313.464 7.18682C312.302 7.94139 310.96 8.32664 309.597 8.29677C308.232 8.26192 306.874 8.49832 305.592 8.99371C304.357 9.596 303.333 10.9813 303.593 12.4354L350.536 11.9019Z" fill="#EBEBEB"/>
<path d="M343.949 147.874H276.338V374.811H343.949V147.874Z" fill="#F5F5F5"/>
<path d="M343.956 147.874H310.15V374.191H343.956V147.874Z" fill="#EBEBEB"/>
<path d="M307.942 125.598H284.064V147.874H307.942V125.598Z" fill="#F5F5F5"/>
<path d="M307.933 125.598H302.246V147.874H307.933V125.598Z" fill="#EBEBEB"/>
<path d="M270.707 147.874V146.575H345.931V147.874" fill="#E0E0E0"/>
<path d="M295.405 157.589H289.685V170.366H295.405V157.589Z" fill="#FAFAFA"/>
<path d="M310.152 175.391C310.152 175.52 302.58 175.632 293.245 175.632C283.91 175.632 276.338 175.52 276.338 175.391C276.338 175.262 283.91 175.141 293.245 175.141C302.58 175.141 310.152 175.253 310.152 175.391Z" fill="#E0E0E0"/>
<path d="M329.502 157.589H323.783V170.366H329.502V157.589Z" fill="#E0E0E0"/>
<path d="M344.251 175.391C344.251 175.52 336.679 175.632 327.344 175.632C318.009 175.632 310.445 175.52 310.445 175.391C310.445 175.262 318.009 175.141 327.344 175.141C336.679 175.141 344.251 175.253 344.251 175.391Z" fill="#E0E0E0"/>
<path d="M329.502 182.962H323.783V195.74H329.502V182.962Z" fill="#E0E0E0"/>
<path d="M344.251 200.764C344.251 200.894 336.679 201.005 327.344 201.005C318.009 201.005 310.445 200.894 310.445 200.764C310.445 200.635 318.009 200.515 327.344 200.515C336.679 200.515 344.251 200.627 344.251 200.764Z" fill="#E0E0E0"/>
<path d="M329.502 209.102H323.783V221.879H329.502V209.102Z" fill="#E0E0E0"/>
<path d="M344.251 226.904C344.251 227.033 336.679 227.145 327.344 227.145C318.009 227.145 310.445 227.033 310.445 226.904C310.445 226.775 318.009 226.655 327.344 226.655C336.679 226.655 344.251 226.758 344.251 226.904Z" fill="#E0E0E0"/>
<path d="M329.502 235.25H323.783V248.028H329.502V235.25Z" fill="#E0E0E0"/>
<path d="M344.251 253.044C344.251 253.181 336.679 253.285 327.344 253.285C318.009 253.285 310.445 253.181 310.445 253.044C310.445 252.906 318.009 252.803 327.344 252.803C336.679 252.803 344.251 252.906 344.251 253.044Z" fill="#E0E0E0"/>
<path d="M329.502 260.641H323.783V273.419H329.502V260.641Z" fill="#E0E0E0"/>
<path d="M344.251 278.435C344.251 278.572 336.679 278.676 327.344 278.676C318.009 278.676 310.445 278.572 310.445 278.435C310.445 278.297 318.009 278.194 327.344 278.194C336.679 278.194 344.251 278.297 344.251 278.435Z" fill="#E0E0E0"/>
<path d="M329.502 286.135H323.783V298.913H329.502V286.135Z" fill="#E0E0E0"/>
<path d="M329.502 311.965H323.783V324.743H329.502V311.965Z" fill="#E0E0E0"/>
<path d="M344.251 303.929C344.251 304.067 336.679 304.179 327.344 304.179C318.009 304.179 310.445 304.067 310.445 303.929C310.445 303.792 318.009 303.688 327.344 303.688C336.679 303.688 344.251 303.792 344.251 303.929Z" fill="#E0E0E0"/>
<path d="M295.405 183.35H289.685V196.127H295.405V183.35Z" fill="#FAFAFA"/>
<path d="M310.152 201.152C310.152 201.281 302.58 201.393 293.245 201.393C283.91 201.393 276.338 201.281 276.338 201.152C276.338 201.023 283.91 200.902 293.245 200.902C302.58 200.902 310.152 201.014 310.152 201.152Z" fill="#E0E0E0"/>
<path d="M295.405 209.11H289.685V221.888H295.405V209.11Z" fill="#FAFAFA"/>
<path d="M310.152 226.913C310.152 227.05 302.58 227.154 293.245 227.154C283.91 227.154 276.338 227.05 276.338 226.913C276.338 226.775 283.91 226.663 293.245 226.663C302.58 226.663 310.152 226.758 310.152 226.913Z" fill="#E0E0E0"/>
<path d="M295.405 234.88H289.685V247.658H295.405V234.88Z" fill="#FAFAFA"/>
<path d="M310.152 252.674C310.152 252.811 302.58 252.914 293.245 252.914C283.91 252.914 276.338 252.811 276.338 252.674C276.338 252.536 283.91 252.433 293.245 252.433C302.58 252.433 310.152 252.57 310.152 252.674Z" fill="#E0E0E0"/>
<path d="M295.405 260.641H289.685V273.419H295.405V260.641Z" fill="#FAFAFA"/>
<path d="M310.152 278.435C310.152 278.572 302.58 278.676 293.245 278.676C283.91 278.676 276.338 278.572 276.338 278.435C276.338 278.297 283.91 278.194 293.245 278.194C302.58 278.194 310.152 278.297 310.152 278.435Z" fill="#E0E0E0"/>
<path d="M295.405 286.402H289.685V299.179H295.405V286.402Z" fill="#FAFAFA"/>
<path d="M310.152 304.196C310.152 304.334 302.58 304.446 293.245 304.446C283.91 304.446 276.338 304.334 276.338 304.196C276.338 304.058 283.91 303.955 293.245 303.955C302.58 303.955 310.152 304.058 310.152 304.196Z" fill="#E0E0E0"/>
<path d="M295.405 312.163H289.685V324.941H295.405V312.163Z" fill="#FAFAFA"/>
<path d="M132.737 375H33.2454L32.8066 208.474H132.307L132.737 375Z" fill="#EBEBEB"/>
<path d="M132.308 208.465H82.5624V375H132.308V208.465Z" fill="#E0E0E0"/>
<path d="M79.3121 175.683H44.1738V208.465H79.3121V175.683Z" fill="#EBEBEB"/>
<path d="M79.3117 175.683H70.9354V208.465H79.3117V175.683Z" fill="#E0E0E0"/>
<path d="M135.215 206.555H24.5195V208.465H135.215V206.555Z" fill="#E0E0E0"/>
<path d="M60.8782 222.766H52.4531V241.574H60.8782V222.766Z" fill="white"/>
<path d="M82.5624 248.957C82.5624 249.155 71.4238 249.318 57.6854 249.318C43.9469 249.318 32.8164 249.155 32.8164 248.957C32.8164 248.759 43.9469 248.595 57.6854 248.595C71.4238 248.595 82.5624 248.759 82.5624 248.957Z" fill="#E0E0E0"/>
<path d="M111.052 222.766H102.627V241.574H111.052V222.766Z" fill="#F5F5F5"/>
<path d="M132.736 248.957C132.736 249.155 121.598 249.318 107.867 249.318C94.1369 249.318 82.9901 249.155 82.9901 248.957C82.9901 248.759 94.1287 248.595 107.867 248.595C121.606 248.595 132.736 248.759 132.736 248.957Z" fill="#EBEBEB"/>
<path d="M111.052 260.108H102.627V278.917H111.052V260.108Z" fill="#F5F5F5"/>
<path d="M132.736 286.299C132.736 286.497 121.598 286.652 107.867 286.652C94.1369 286.652 82.9901 286.497 82.9901 286.299C82.9901 286.101 94.1287 285.938 107.867 285.938C121.606 285.938 132.736 286.127 132.736 286.299Z" fill="#EBEBEB"/>
<path d="M111.052 298.577H102.627V317.386H111.052V298.577Z" fill="#F5F5F5"/>
<path d="M132.736 324.76C132.736 324.958 121.598 325.121 107.867 325.121C94.1369 325.121 82.9901 324.958 82.9901 324.76C82.9901 324.562 94.1287 324.399 107.867 324.399C121.606 324.399 132.736 324.562 132.736 324.76Z" fill="#EBEBEB"/>
<path d="M111.052 337.038H102.627V355.847H111.052V337.038Z" fill="#F5F5F5"/>
<path d="M132.736 363.229C132.736 363.427 121.598 363.582 107.867 363.582C94.1369 363.582 82.9901 363.427 82.9901 363.229C82.9901 363.031 94.1287 362.868 107.867 362.868C121.606 362.868 132.736 363.031 132.736 363.229Z" fill="#EBEBEB"/>
<path d="M60.8782 260.676H52.4531V279.484H60.8782V260.676Z" fill="white"/>
<path d="M82.5624 286.867C82.5624 287.065 71.4238 287.228 57.6854 287.228C43.9469 287.228 32.8164 287.065 32.8164 286.867C32.8164 286.669 43.9469 286.505 57.6854 286.505C71.4238 286.505 82.5624 286.669 82.5624 286.867Z" fill="#E0E0E0"/>
<path d="M60.8782 298.586H52.4531V317.395H60.8782V298.586Z" fill="white"/>
<path d="M82.5624 324.777C82.5624 324.975 71.4238 325.13 57.6854 325.13C43.9469 325.13 32.8164 324.975 32.8164 324.777C32.8164 324.579 43.9469 324.416 57.6854 324.416C71.4238 324.416 82.5624 324.579 82.5624 324.777Z" fill="#E0E0E0"/>
<path d="M60.8782 336.496H52.4531V355.305H60.8782V336.496Z" fill="white"/>
<path d="M82.5624 362.705C82.5624 362.902 71.4238 363.057 57.6854 363.057C43.9469 363.057 32.8164 362.902 32.8164 362.705C32.8164 362.507 43.9469 362.343 57.6854 362.343C71.4238 362.343 82.5624 362.489 82.5624 362.705Z" fill="#E0E0E0"/>
<path d="M375 63.7422H315.171V93.8484H339.496L348.595 103.485L357.695 93.8484H375V63.7422Z" fill="#F5F5F5"/>
<path d="M329.511 77.2767C329.502 76.1588 329.1 75.0845 328.384 74.263C327.668 73.4416 326.689 72.9318 325.637 72.833C324.586 72.7343 323.537 73.0535 322.696 73.7286C321.854 74.4037 321.28 75.3863 321.086 76.4851C320.914 77.5391 321.098 78.6236 321.606 79.5482C321.768 79.8407 321.971 80.0473 322.174 80.357L324.612 83.7987C324.688 83.8917 324.782 83.9662 324.888 84.0174C324.994 84.0685 325.109 84.0949 325.225 84.0949C325.341 84.0949 325.456 84.0685 325.562 84.0174C325.668 83.9662 325.762 83.8917 325.838 83.7987L328.276 80.4C328.497 80.1263 328.704 79.839 328.893 79.5396C329.286 78.8569 329.499 78.0757 329.511 77.2767ZM325.27 79.2385C324.9 79.2402 324.538 79.1255 324.229 78.9091C323.921 78.6927 323.68 78.3842 323.538 78.0228C323.395 77.6613 323.357 77.2632 323.428 76.8787C323.499 76.4943 323.676 76.1408 323.937 75.8632C324.198 75.5856 324.531 75.3962 324.894 75.3192C325.257 75.2421 325.633 75.2808 325.975 75.4303C326.317 75.5799 326.609 75.8335 326.815 76.1591C327.02 76.4848 327.13 76.8677 327.13 77.2595C327.13 77.7828 326.934 78.2849 326.586 78.6558C326.237 79.0267 325.764 79.2362 325.27 79.2385Z" fill="#E0E0E0"/>
<path d="M369.037 80.4862C369.037 80.6066 361.067 80.7099 351.228 80.7099C341.39 80.7099 333.419 80.6066 333.419 80.4862C333.419 80.3657 341.39 80.2625 351.228 80.2625C361.067 80.2625 369.037 80.3657 369.037 80.4862Z" fill="#E0E0E0"/>
<path d="M357.695 84.5474C357.695 84.6678 352.26 84.7711 345.557 84.7711C338.855 84.7711 333.419 84.6678 333.419 84.5474C333.419 84.4269 338.855 84.3151 345.557 84.3151C352.26 84.3151 357.695 84.4183 357.695 84.5474Z" fill="#E0E0E0"/>
<path d="M335.597 71.1332L336.409 72.8799L338.229 73.1638L336.913 74.5233L337.222 76.442L335.597 75.53L333.964 76.442L334.281 74.5233L332.957 73.1638L334.776 72.8799L335.597 71.1332Z" fill="#E0E0E0"/>
<path d="M343.298 71.1332L344.11 72.8799L345.93 73.1638L344.614 74.5233L344.923 76.442L343.298 75.53L341.665 76.442L341.982 74.5233L340.666 73.1638L342.485 72.8799L343.298 71.1332Z" fill="#E0E0E0"/>
<path d="M351.001 71.1332L351.813 72.8799L353.633 73.1638L352.317 74.5233L352.626 76.442L351.001 75.53L349.368 76.442L349.685 74.5233L348.369 73.1638L350.189 72.8799L351.001 71.1332Z" fill="#E0E0E0"/>
<path d="M358.702 71.1332L359.515 72.8799L361.334 73.1638L360.018 74.5233L360.327 76.442L358.702 75.53L357.077 76.442L357.386 74.5233L356.07 73.1638L357.89 72.8799L358.702 71.1332Z" fill="#EBEBEB"/>
<path d="M366.403 71.1332L367.216 72.8799L369.036 73.1638L367.719 74.5233L368.028 76.442L366.403 75.53L364.778 76.442L365.087 74.5233L363.771 73.1638L365.591 72.8799L366.403 71.1332Z" fill="#EBEBEB"/>
<path d="M113.654 0.312195H20.6289V47.1278H58.4482L72.601 62.1077L86.7457 47.1278H113.654V0.312195Z" fill="#F5F5F5"/>
<path d="M42.9207 21.3667C42.9226 20.2921 42.6904 19.2316 42.2422 18.2676C41.7941 17.3036 41.142 16.462 40.3367 15.8084C39.5314 15.1547 38.5946 14.7066 37.5991 14.4989C36.6036 14.2911 35.5763 14.3293 34.5971 14.6105C33.6178 14.8918 32.713 15.4084 31.953 16.1203C31.193 16.8322 30.5983 17.7201 30.2151 18.7151C29.8319 19.71 29.6706 20.7852 29.7437 21.8569C29.8168 22.9286 30.1223 23.9681 30.6365 24.8944C30.8883 25.3504 31.2052 25.6688 31.5302 26.142L35.3568 31.5196C35.4672 31.6763 35.6107 31.8035 35.7757 31.8912C35.9407 31.9788 36.1228 32.0244 36.3074 32.0244C36.492 32.0244 36.674 31.9788 36.839 31.8912C37.0041 31.8035 37.1475 31.6763 37.2579 31.5196L41.0439 26.2797C41.3848 25.8468 41.7048 25.3959 42.0026 24.9288C42.6092 23.8521 42.9267 22.6204 42.9207 21.3667ZM36.3236 24.404C35.75 24.404 35.1892 24.2238 34.7122 23.8863C34.2352 23.5488 33.8635 23.069 33.644 22.5077C33.4244 21.9465 33.367 21.3288 33.4789 20.733C33.5908 20.1371 33.8671 19.5898 34.2727 19.1602C34.6783 18.7306 35.1951 18.4381 35.7578 18.3196C36.3204 18.201 36.9036 18.2619 37.4336 18.4944C37.9635 18.7269 38.4165 19.1206 38.7352 19.6257C39.0539 20.1308 39.224 20.7247 39.224 21.3323C39.224 22.1469 38.9185 22.9282 38.3745 23.5043C37.8306 24.0803 37.0928 24.404 36.3236 24.404Z" fill="#E0E0E0"/>
<path d="M104.382 26.357C104.382 26.4775 91.9845 26.5807 76.6943 26.5807C61.4041 26.5807 48.998 26.4775 48.998 26.357C48.998 26.2365 61.396 26.1333 76.6943 26.1333C91.9927 26.1333 104.382 26.2796 104.382 26.357Z" fill="#E0E0E0"/>
<path d="M86.7524 32.6554C86.7524 32.7844 78.303 32.8791 67.8793 32.8791C57.4556 32.8791 48.998 32.7844 48.998 32.6554C48.998 32.5263 57.4475 32.4317 67.8793 32.4317C78.3111 32.4317 86.7524 32.5349 86.7524 32.6554Z" fill="#E0E0E0"/>
<path d="M52.3877 11.807L53.647 14.526L56.4743 14.9562L54.4269 17.0728L54.9144 20.0585L52.3877 18.6474L49.8529 20.0585L50.3403 17.0728L48.293 14.9562L51.1203 14.526L52.3877 11.807Z" fill="#E0E0E0"/>
<path d="M64.3622 11.807L65.6215 14.526L68.4569 14.9562L66.4095 17.0728L66.8889 20.0585L64.3622 18.6474L61.8273 20.0585L62.3148 17.0728L60.2675 14.9562L63.0948 14.526L64.3622 11.807Z" fill="#E0E0E0"/>
<path d="M76.3387 11.807L77.6062 14.526L80.4335 14.9562L78.3861 17.0728L78.8654 20.0585L76.3387 18.6474L73.812 20.0585L74.2914 17.0728L72.244 14.9562L75.0713 14.526L76.3387 11.807Z" fill="#E0E0E0"/>
<path d="M88.3134 11.807L89.5808 14.526L92.4081 14.9562L90.3607 17.0728L90.8482 20.0585L88.3134 18.6474L85.7866 20.0585L86.266 17.0728L84.2186 14.9562L87.0541 14.526L88.3134 11.807Z" fill="#EBEBEB"/>
<path d="M100.296 11.807L101.555 14.526L104.382 14.9562L102.343 17.0728L102.822 20.0585L100.296 18.6474L97.7609 20.0585L98.2484 17.0728L96.201 14.9562L99.0284 14.526L100.296 11.807Z" fill="#EBEBEB"/>
<path d="M327.958 114.843C328.446 111.074 323.433 107.959 319.671 107.658C317.876 107.512 316.007 107.796 314.301 107.168C310.621 105.808 309.142 100.766 305.543 99.1573C302.854 97.9528 299.758 99.0283 297.15 100.414C294.542 101.799 291.967 103.554 289.026 103.752C286.491 103.924 283.745 102.892 281.527 104.242C279.902 105.215 279.008 107.237 277.465 108.424C275.921 109.611 274.036 109.835 272.184 109.938C270.332 110.042 268.422 110.067 266.741 110.885C265.059 111.702 263.661 113.587 264.011 115.505L327.958 114.843Z" fill="#F5F5F5"/>
<path d="M72.7205 152.065C73.2161 148.305 68.2033 145.181 64.4336 144.889C62.6381 144.734 60.7695 145.027 59.0715 144.398C55.383 143.039 53.9043 137.988 50.3133 136.388C47.616 135.183 44.5206 136.25 41.9126 137.644C39.3047 139.038 36.7292 140.785 33.7882 140.983C31.2615 141.155 28.5073 140.122 26.2893 141.464C24.6644 142.445 23.7707 144.459 22.2271 145.646C20.6834 146.833 18.7904 147.057 16.938 147.169C15.0857 147.281 13.1764 147.289 11.4947 148.107C9.8129 148.924 8.42361 150.809 8.77296 152.736L72.7205 152.065Z" fill="#F5F5F5"/>
<path d="M47.0081 112.425C47.3656 109.663 43.6771 107.383 40.9148 107.151C39.5905 107.039 38.2175 107.254 36.9663 106.789C34.2609 105.791 33.1803 102.083 30.5317 100.895C28.5575 100.035 26.2827 100.801 24.3653 101.825C22.4479 102.849 20.5549 104.131 18.4101 104.277C16.5496 104.406 14.5266 103.675 12.8936 104.638C11.683 105.352 11.0493 106.832 9.92813 107.71C8.76134 108.468 7.41299 108.853 6.04464 108.82C4.68273 108.784 3.32667 109.021 2.04741 109.517C0.804372 110.119 -0.21931 111.504 0.0406723 112.916L47.0081 112.425Z" fill="#EBEBEB"/>
<path d="M350.536 11.9019C350.902 9.13998 347.213 6.85986 344.443 6.62755C343.127 6.51569 341.754 6.7308 340.502 6.26617C337.797 5.26808 336.708 1.55966 334.068 0.372282C332.085 -0.48814 329.811 0.277637 327.893 1.30154C325.976 2.32544 324.083 3.60747 321.946 3.75374C320.086 3.8828 318.063 3.15145 316.43 4.11512C315.219 4.82927 314.577 6.30919 313.464 7.18682C312.302 7.94139 310.96 8.32664 309.597 8.29677C308.232 8.26192 306.874 8.49832 305.592 8.99371C304.357 9.596 303.333 10.9813 303.593 12.4354L350.536 11.9019Z" fill="#EBEBEB"/>
<path d="M343.949 147.874H276.338V374.811H343.949V147.874Z" fill="#F5F5F5"/>
<path d="M343.956 147.874H310.15V374.191H343.956V147.874Z" fill="#EBEBEB"/>
<path d="M307.942 125.598H284.064V147.874H307.942V125.598Z" fill="#F5F5F5"/>
<path d="M307.933 125.598H302.246V147.874H307.933V125.598Z" fill="#EBEBEB"/>
<path d="M270.707 147.874V146.575H345.931V147.874" fill="#E0E0E0"/>
<path d="M295.405 157.589H289.685V170.366H295.405V157.589Z" fill="#FAFAFA"/>
<path d="M310.152 175.391C310.152 175.52 302.58 175.632 293.245 175.632C283.91 175.632 276.338 175.52 276.338 175.391C276.338 175.262 283.91 175.141 293.245 175.141C302.58 175.141 310.152 175.253 310.152 175.391Z" fill="#E0E0E0"/>
<path d="M329.502 157.589H323.783V170.366H329.502V157.589Z" fill="#E0E0E0"/>
<path d="M344.251 175.391C344.251 175.52 336.679 175.632 327.344 175.632C318.009 175.632 310.445 175.52 310.445 175.391C310.445 175.262 318.009 175.141 327.344 175.141C336.679 175.141 344.251 175.253 344.251 175.391Z" fill="#E0E0E0"/>
<path d="M329.502 182.962H323.783V195.74H329.502V182.962Z" fill="#E0E0E0"/>
<path d="M344.251 200.764C344.251 200.894 336.679 201.005 327.344 201.005C318.009 201.005 310.445 200.894 310.445 200.764C310.445 200.635 318.009 200.515 327.344 200.515C336.679 200.515 344.251 200.627 344.251 200.764Z" fill="#E0E0E0"/>
<path d="M329.502 209.102H323.783V221.879H329.502V209.102Z" fill="#E0E0E0"/>
<path d="M344.251 226.904C344.251 227.033 336.679 227.145 327.344 227.145C318.009 227.145 310.445 227.033 310.445 226.904C310.445 226.775 318.009 226.655 327.344 226.655C336.679 226.655 344.251 226.758 344.251 226.904Z" fill="#E0E0E0"/>
<path d="M329.502 235.25H323.783V248.028H329.502V235.25Z" fill="#E0E0E0"/>
<path d="M344.251 253.044C344.251 253.181 336.679 253.285 327.344 253.285C318.009 253.285 310.445 253.181 310.445 253.044C310.445 252.906 318.009 252.803 327.344 252.803C336.679 252.803 344.251 252.906 344.251 253.044Z" fill="#E0E0E0"/>
<path d="M329.502 260.641H323.783V273.419H329.502V260.641Z" fill="#E0E0E0"/>
<path d="M344.251 278.435C344.251 278.572 336.679 278.676 327.344 278.676C318.009 278.676 310.445 278.572 310.445 278.435C310.445 278.297 318.009 278.194 327.344 278.194C336.679 278.194 344.251 278.297 344.251 278.435Z" fill="#E0E0E0"/>
<path d="M329.502 286.135H323.783V298.913H329.502V286.135Z" fill="#E0E0E0"/>
<path d="M329.502 311.965H323.783V324.743H329.502V311.965Z" fill="#E0E0E0"/>
<path d="M344.251 303.929C344.251 304.067 336.679 304.179 327.344 304.179C318.009 304.179 310.445 304.067 310.445 303.929C310.445 303.792 318.009 303.688 327.344 303.688C336.679 303.688 344.251 303.792 344.251 303.929Z" fill="#E0E0E0"/>
<path d="M295.405 183.35H289.685V196.127H295.405V183.35Z" fill="#FAFAFA"/>
<path d="M310.152 201.152C310.152 201.281 302.58 201.393 293.245 201.393C283.91 201.393 276.338 201.281 276.338 201.152C276.338 201.023 283.91 200.902 293.245 200.902C302.58 200.902 310.152 201.014 310.152 201.152Z" fill="#E0E0E0"/>
<path d="M295.405 209.11H289.685V221.888H295.405V209.11Z" fill="#FAFAFA"/>
<path d="M310.152 226.913C310.152 227.05 302.58 227.154 293.245 227.154C283.91 227.154 276.338 227.05 276.338 226.913C276.338 226.775 283.91 226.663 293.245 226.663C302.58 226.663 310.152 226.758 310.152 226.913Z" fill="#E0E0E0"/>
<path d="M295.405 234.88H289.685V247.658H295.405V234.88Z" fill="#FAFAFA"/>
<path d="M310.152 252.674C310.152 252.811 302.58 252.914 293.245 252.914C283.91 252.914 276.338 252.811 276.338 252.674C276.338 252.536 283.91 252.433 293.245 252.433C302.58 252.433 310.152 252.57 310.152 252.674Z" fill="#E0E0E0"/>
<path d="M295.405 260.641H289.685V273.419H295.405V260.641Z" fill="#FAFAFA"/>
<path d="M310.152 278.435C310.152 278.572 302.58 278.676 293.245 278.676C283.91 278.676 276.338 278.572 276.338 278.435C276.338 278.297 283.91 278.194 293.245 278.194C302.58 278.194 310.152 278.297 310.152 278.435Z" fill="#E0E0E0"/>
<path d="M295.405 286.402H289.685V299.179H295.405V286.402Z" fill="#FAFAFA"/>
<path d="M310.152 304.196C310.152 304.334 302.58 304.446 293.245 304.446C283.91 304.446 276.338 304.334 276.338 304.196C276.338 304.058 283.91 303.955 293.245 303.955C302.58 303.955 310.152 304.058 310.152 304.196Z" fill="#E0E0E0"/>
<path d="M295.405 312.163H289.685V324.941H295.405V312.163Z" fill="#FAFAFA"/>
<path d="M132.737 375H33.2454L32.8066 208.474H132.307L132.737 375Z" fill="#EBEBEB"/>
<path d="M132.308 208.465H82.5624V375H132.308V208.465Z" fill="#E0E0E0"/>
<path d="M79.3121 175.683H44.1738V208.465H79.3121V175.683Z" fill="#EBEBEB"/>
<path d="M79.3117 175.683H70.9354V208.465H79.3117V175.683Z" fill="#E0E0E0"/>
<path d="M135.215 206.555H24.5195V208.465H135.215V206.555Z" fill="#E0E0E0"/>
<path d="M60.8782 222.766H52.4531V241.574H60.8782V222.766Z" fill="white"/>
<path d="M82.5624 248.957C82.5624 249.155 71.4238 249.318 57.6854 249.318C43.9469 249.318 32.8164 249.155 32.8164 248.957C32.8164 248.759 43.9469 248.595 57.6854 248.595C71.4238 248.595 82.5624 248.759 82.5624 248.957Z" fill="#E0E0E0"/>
<path d="M111.052 222.766H102.627V241.574H111.052V222.766Z" fill="#F5F5F5"/>
<path d="M132.736 248.957C132.736 249.155 121.598 249.318 107.867 249.318C94.1369 249.318 82.9901 249.155 82.9901 248.957C82.9901 248.759 94.1287 248.595 107.867 248.595C121.606 248.595 132.736 248.759 132.736 248.957Z" fill="#EBEBEB"/>
<path d="M111.052 260.108H102.627V278.917H111.052V260.108Z" fill="#F5F5F5"/>
<path d="M132.736 286.299C132.736 286.497 121.598 286.652 107.867 286.652C94.1369 286.652 82.9901 286.497 82.9901 286.299C82.9901 286.101 94.1287 285.938 107.867 285.938C121.606 285.938 132.736 286.127 132.736 286.299Z" fill="#EBEBEB"/>
<path d="M111.052 298.577H102.627V317.386H111.052V298.577Z" fill="#F5F5F5"/>
<path d="M132.736 324.76C132.736 324.958 121.598 325.121 107.867 325.121C94.1369 325.121 82.9901 324.958 82.9901 324.76C82.9901 324.562 94.1287 324.399 107.867 324.399C121.606 324.399 132.736 324.562 132.736 324.76Z" fill="#EBEBEB"/>
<path d="M111.052 337.038H102.627V355.847H111.052V337.038Z" fill="#F5F5F5"/>
<path d="M132.736 363.229C132.736 363.427 121.598 363.582 107.867 363.582C94.1369 363.582 82.9901 363.427 82.9901 363.229C82.9901 363.031 94.1287 362.868 107.867 362.868C121.606 362.868 132.736 363.031 132.736 363.229Z" fill="#EBEBEB"/>
<path d="M60.8782 260.676H52.4531V279.484H60.8782V260.676Z" fill="white"/>
<path d="M82.5624 286.867C82.5624 287.065 71.4238 287.228 57.6854 287.228C43.9469 287.228 32.8164 287.065 32.8164 286.867C32.8164 286.669 43.9469 286.505 57.6854 286.505C71.4238 286.505 82.5624 286.669 82.5624 286.867Z" fill="#E0E0E0"/>
<path d="M60.8782 298.586H52.4531V317.395H60.8782V298.586Z" fill="white"/>
<path d="M82.5624 324.777C82.5624 324.975 71.4238 325.13 57.6854 325.13C43.9469 325.13 32.8164 324.975 32.8164 324.777C32.8164 324.579 43.9469 324.416 57.6854 324.416C71.4238 324.416 82.5624 324.579 82.5624 324.777Z" fill="#E0E0E0"/>
<path d="M60.8782 336.496H52.4531V355.305H60.8782V336.496Z" fill="white"/>
<path d="M82.5624 362.705C82.5624 362.902 71.4238 363.057 57.6854 363.057C43.9469 363.057 32.8164 362.902 32.8164 362.705C32.8164 362.507 43.9469 362.343 57.6854 362.343C71.4238 362.343 82.5624 362.489 82.5624 362.705Z" fill="#E0E0E0"/>
<path d="M272.315 374.647L154.34 374.578C147.526 374.574 140.993 371.703 136.177 366.598C131.361 361.493 128.657 354.571 128.659 347.355L128.716 34.161C128.712 30.5846 129.375 27.0425 130.666 23.7376C131.956 20.4326 133.849 17.4296 136.237 14.9003C138.625 12.371 141.46 10.365 144.58 8.99712C147.7 7.62927 151.044 6.92636 154.421 6.92862L272.397 6.99746C279.211 7.00202 285.744 9.87252 290.56 14.9777C295.376 20.0829 298.08 27.0048 298.078 34.2212L298.021 347.415C298.022 350.991 297.358 354.532 296.067 357.836C294.775 361.139 292.882 364.142 290.495 366.67C288.108 369.199 285.274 371.205 282.154 372.574C279.035 373.943 275.692 374.647 272.315 374.647Z" fill="#455A64"/>
<path d="M273.137 16.3071L250.185 16.1953C249.438 16.2098 248.7 16.3803 248.015 16.6971C247.329 17.0138 246.71 17.4706 246.191 18.0412C245.673 18.6118 245.266 19.2851 244.994 20.0225C244.721 20.7599 244.589 21.547 244.604 22.3387V26.7526C244.619 27.5458 244.486 28.3342 244.212 29.0727C243.939 29.8113 243.53 30.4853 243.01 31.0561C242.49 31.627 241.868 32.0834 241.181 32.3991C240.494 32.7149 239.755 32.8838 239.006 32.8961L194.232 32.6723C193.483 32.6534 192.745 32.4779 192.06 32.1559C191.375 31.834 190.757 31.3719 190.242 30.7962C189.726 30.2206 189.323 29.5427 189.055 28.8015C188.788 28.0603 188.661 27.2705 188.683 26.4773V22.0633C188.705 21.2702 188.578 20.4804 188.311 19.7392C188.043 18.998 187.64 18.3201 187.124 17.7444C186.609 17.1688 185.991 16.7067 185.306 16.3847C184.621 16.0627 183.883 15.8872 183.134 15.8683H175.066L154.975 15.7737C152.602 15.7623 150.251 16.2462 148.055 17.1975C145.859 18.1488 143.862 19.549 142.177 21.318C140.492 23.0871 139.153 25.1903 138.236 27.5076C137.319 29.8249 136.842 32.3108 136.833 34.8234L135.606 341.615C135.597 346.684 137.489 351.549 140.864 355.141C144.24 358.734 148.824 360.761 153.61 360.777L271.756 361.353C274.128 361.366 276.479 360.883 278.675 359.933C280.87 358.982 282.868 357.583 284.553 355.815C286.237 354.046 287.577 351.944 288.494 349.627C289.411 347.31 289.888 344.824 289.897 342.312L291.124 35.5117C291.134 32.9999 290.676 30.5107 289.777 28.1862C288.879 25.8617 287.556 23.7474 285.886 21.9641C284.216 20.1807 282.23 18.7633 280.043 17.7927C277.855 16.8221 275.508 16.3173 273.137 16.3071Z" fill="#F5F5F5"/>
<path d="M222.999 303.378C222.861 307.087 222.731 310.563 222.625 313.445H239.597L237.518 302.406L222.999 303.378Z" fill="#F5F5F5"/>
<path d="M154.024 307.999L154.17 313.445H220.929C221.043 310.391 221.173 306.992 221.294 303.499L154.024 307.999Z" fill="#F5F5F5"/>
<path d="M238.372 302.354L240.46 313.445H271.747L271.373 300.143L238.372 302.354Z" fill="#F5F5F5"/>
<path d="M224.691 147.22L230.605 110.893L215.112 109.68V147.22H224.691Z" fill="#EBEBEB"/>
<path d="M152.627 287.839L135.809 294.817L135.76 307.431L153.13 306.261L152.627 287.839Z" fill="#F5F5F5"/>
<path d="M152.553 285L151.635 251.168H151.619V239.234L136.028 240.981L135.825 291.918L152.545 284.983L152.553 285Z" fill="#EBEBEB"/>
<path d="M151.618 212.595L136.149 210.436L136.036 238.279L151.618 236.532V212.595Z" fill="#F5F5F5"/>
<path d="M266.93 239.733L266.28 249.43L248.008 251.521L249.422 259.187L270.163 257.535L269.855 246.53L271.512 239.243L266.93 239.733Z" fill="#F5F5F5"/>
<path d="M234.001 260.426L248.568 259.256L245.399 242.039L232.676 243.398L234.001 260.426Z" fill="#F5F5F5"/>
<path d="M234.139 262.207L235.252 276.568L237.226 296.263L238.039 300.574L271.325 298.345L270.212 259.333L234.139 262.207Z" fill="#EBEBEB"/>
<path d="M176.854 194.414L178.138 196.738L152.464 212.595V250.204L179.56 248.174L231.767 242.589L229.858 217.938L179.974 211.055L180.307 208.388L229.647 215.211L226.397 173.489L177.569 178.462L177.407 176.681L226.267 171.691L224.585 149.922H177.61L136.362 157.872L136.159 207.725L151.782 209.911L176.854 194.414ZM155.097 246.616C155.097 246.616 155.292 215.598 155.097 214.445L176.042 202.666L178.796 245.033L155.097 246.616Z" fill="#F5F5F5"/>
<path d="M265.223 239.922L246.244 241.944L247.682 249.757L264.695 247.812L265.223 239.922Z" fill="#F5F5F5"/>
<path d="M223.234 296.736C223.177 298.362 223.12 299.988 223.063 301.58L237.183 300.634L236.46 296.779L223.234 296.736Z" fill="#F5F5F5"/>
<path d="M192.818 147.22L195.304 135.278H214.267V109.611L154.975 104.965V129.057L136.451 133.497L136.37 155.128L177.382 147.22H192.818Z" fill="#EBEBEB"/>
<path d="M232.417 75.8225L231.913 73.6198L254.556 64.1552L239.785 32.8272C239.516 32.8676 239.245 32.8906 238.973 32.8961L213.95 32.767L214.632 76.5883L232.417 75.8225Z" fill="#F5F5F5"/>
<path d="M266.692 59.0273V16.2729L250.216 16.1955C249.465 16.2055 248.724 16.3727 248.035 16.6875C247.346 17.0022 246.723 17.4583 246.201 18.0293C245.679 18.6004 245.269 19.2752 244.995 20.0148C244.72 20.7545 244.587 21.5443 244.602 22.3389V26.7528C244.602 27.7401 244.381 28.7134 243.957 29.5928C243.534 30.4722 242.919 31.2328 242.164 31.8121L256.902 63.1401L266.692 59.0273Z" fill="#EBEBEB"/>
<path d="M181.572 60.8599L179.663 15.8512H175.081L157.207 15.7652L149.545 55.9899L181.572 60.8599ZM177.51 20.4201L178.119 57.0741L154.314 53.3915L159.53 20.4201H177.51Z" fill="#F5F5F5"/>
<path d="M182.442 60.9977V61.3762C182.442 64.8868 182.556 71.2109 182.605 77.9738L213.786 76.6229L213.104 32.7414L194.231 32.6726C193.482 32.6536 192.744 32.4781 192.059 32.1562C191.374 31.8342 190.756 31.3721 190.241 30.7964C189.725 30.2208 189.322 29.5429 189.054 28.8017C188.787 28.0605 188.66 27.2707 188.682 26.4775V22.0636C188.703 21.2704 188.577 20.4806 188.309 19.7394C188.042 18.9982 187.639 18.3203 187.123 17.7447C186.607 17.169 185.989 16.7069 185.305 16.3849C184.62 16.063 183.882 15.8875 183.133 15.8685H180.5L182.41 61.0063L182.442 60.9977Z" fill="#F5F5F5"/>
<path d="M147.027 55.6113L154.583 15.748C149.865 15.8378 145.368 17.8797 142.053 21.4366C138.738 24.9936 136.87 29.7831 136.847 34.7805L136.766 54.6476L136.847 54.0625L147.027 55.6113Z" fill="#F5F5F5"/>
<path d="M152.43 104.767L136.571 103.52L136.465 130.735L152.43 126.915V104.767Z" fill="#F5F5F5"/>
<path d="M146.857 56.4888L136.767 54.9573L136.596 99.0281L138.765 99.2002L146.857 56.4888Z" fill="#F5F5F5"/>
<path d="M178.892 284.484L179.16 249.103L152.479 251.099L153.421 285.766L178.892 284.484Z" fill="#F5F5F5"/>
<path d="M183.8 276.318L221.587 295.488C222.042 282.96 222.44 271.25 222.399 270.536L223.211 270.484L223.61 269.624C224.154 269.908 224.154 269.908 223.87 278.452C223.715 283.219 223.488 289.56 223.26 295.901H236.332L234.407 276.662L231.84 243.493L182.467 248.776L183.8 276.318Z" fill="#F5F5F5"/>
<path d="M276.428 217.595L275.997 212.931L230.704 217.921L232.613 242.504L271.716 238.322L276.428 217.595Z" fill="#F5F5F5"/>
<path d="M214.265 137.971H197.342L195.417 147.22H214.265V137.971Z" fill="#F5F5F5"/>
<path d="M269.432 141.094L227.055 137.988L225.333 148.588L227.112 171.596L271.796 167.045L269.432 141.094ZM228.615 148.571L230.89 141.877L267.693 144.347L269.79 163.482L229.825 168.507L228.615 148.571Z" fill="#F5F5F5"/>
<path d="M273.826 189.183L271.966 168.834L227.249 173.386L228.93 195.043L273.826 189.183Z" fill="#F5F5F5"/>
<path d="M153.176 308.059L135.83 309.221L135.757 308.025L135.733 313.445H153.322L153.176 308.059Z" fill="#F5F5F5"/>
<path d="M290.807 48.9259L291.059 49.6056L291.115 35.5119C291.135 30.4405 289.252 25.5686 285.88 21.9672C282.509 18.3659 277.925 16.3301 273.136 16.3073H267.514V58.7003L290.807 48.9259Z" fill="#EBEBEB"/>
<path d="M221.553 296.452L182.979 276.877L181.622 248.836L179.997 249.008L179.721 285.318L153.438 286.643V287.452L153.95 306.175L221.342 301.657C221.423 299.962 221.488 298.173 221.553 296.452ZM155.095 288.949L191.891 286.213L215.834 297.975L155.095 301.417V288.949Z" fill="#F5F5F5"/>
<path d="M279.839 95.9737L281.415 86.0616C267.603 80.8303 266.628 65.5578 266.669 60.9287L257.643 64.7146L271.235 93.6161L279.839 95.9737Z" fill="#F5F5F5"/>
<path d="M230.498 215.245L249.298 213.172L245.593 195.576L229.133 197.727L230.498 215.245Z" fill="#F5F5F5"/>
<path d="M271.064 113.251L235.942 113.242L233.026 113.019L229.061 137.377L270.748 140.432L269.781 129.84L273.884 114.198L271.064 113.251Z" fill="#F5F5F5"/>
<path d="M268.636 106.712L269.075 95.0875L255.264 65.7385L233.864 74.7127L241.176 106.712H268.636ZM254.443 69.3006L267.085 94.7863L265.265 102.728L243.613 101.868L238.202 77.7758L254.443 69.3006Z" fill="#F5F5F5"/>
<path d="M274.102 246.995L274.744 269.839L289.961 268.927L290.01 269.822L274.776 270.734L275.548 298.061L289.936 297.097L290.042 298.887L275.597 299.859L275.987 313.445H290.001L290.31 237.238L275.97 238.769L274.102 246.995Z" fill="#F5F5F5"/>
<path d="M181.606 61.7719L149.376 56.8761L141.317 99.4154L181.744 102.59C181.907 96.0253 181.769 75.9431 181.606 61.7719Z" fill="#EBEBEB"/>
<path d="M234.603 106.72H239.485L232.58 76.7088L214.649 77.4832L215.08 105.18L234.603 106.72Z" fill="#F5F5F5"/>
<path d="M182.573 102.633L214.258 105.12L213.836 77.5178L182.646 78.8686C182.678 88.23 182.703 98.1593 182.573 102.633Z" fill="#F5F5F5"/>
<path d="M274.069 191.859L246.438 195.473L250.151 213.077L275.751 210.255L274.069 191.859Z" fill="#F5F5F5"/>
<path d="M281.561 85.1927L283.332 74.0674L290.961 74.6955L291.058 50.7414L267.497 60.6104C267.05 77.4575 277.043 83.3858 281.561 85.1927Z" fill="#EBEBEB"/>
<path d="M272.502 128.188L273.461 138.693L290.701 139.958L290.782 118.319L276.353 113.492L272.502 128.188Z" fill="#F5F5F5"/>
<path d="M280.709 217.912L276.184 237.848L290.312 236.334L290.402 215.434C286.063 214.221 282.277 213.24 280.238 212.853L280.709 217.912Z" fill="#F5F5F5"/>
<path d="M271.162 107.056L290.807 113.621L290.856 101.799L271.569 96.5157L271.162 107.056Z" fill="#F5F5F5"/>
<path d="M279.994 210.083C281.578 210.341 284.576 211.012 290.41 212.664L290.589 166.967L276.184 168.43L279.994 210.083Z" fill="#F5F5F5"/>
<path d="M276.019 166.623L290.594 165.134L290.683 142.651L273.711 141.404L276.019 166.623Z" fill="#F5F5F5"/>
<path d="M283.186 85.7605C285.956 86.621 288.524 87.3351 290.904 87.8428L290.953 76.4938L284.746 75.9861L283.186 85.7605Z" fill="#F5F5F5"/>
<path d="M281.487 96.4557L290.862 99.0369L290.903 88.7807C288.471 88.2759 285.852 87.5704 283.046 86.6641L281.487 96.4557Z" fill="#F5F5F5"/>
<path d="M290.041 298.887L289.935 297.097L275.547 298.061L274.775 270.734L290.008 269.822L289.968 268.962L274.742 269.874L274.1 247.038L275.969 238.804L290.309 237.272V236.369L276.18 237.883L280.706 217.947L280.234 212.862C282.274 213.275 286.06 214.256 290.398 215.443V212.647C284.565 211.021 281.567 210.35 279.983 210.066L276.172 168.387L290.577 166.924V165.117L276.002 166.606L273.694 141.387L290.666 142.634V139.933L273.426 138.677L272.467 128.171L276.318 113.475L290.78 118.345V113.647L271.135 107.082L271.533 96.5417L290.821 101.825V99.0455L281.445 96.4642L283.005 86.6554C285.816 87.5617 288.435 88.2673 290.861 88.7721V87.8514C288.481 87.3438 285.913 86.6554 283.143 85.7692L284.703 75.9948L290.91 76.5024V74.7042L283.281 74.0761L281.51 85.2013C276.993 83.3944 267 77.4575 267.479 60.6191L291.04 50.75V49.6057L290.788 48.9259L267.52 58.6745V16.2815H266.667V59.0359L256.86 63.1487L242.163 31.8121C241.463 32.345 240.652 32.6931 239.799 32.8274L254.512 64.1382L231.87 73.6028L232.373 75.8055L214.629 76.5713L213.947 32.75H213.135L213.817 76.6315L182.635 77.9824C182.587 71.2194 182.514 64.8954 182.473 61.3848V61.0062L180.564 15.8685H179.711L181.62 60.8772L149.544 55.99L157.173 15.7394H154.988H154.582L147.026 55.6028L136.846 54.054L136.765 54.6391V54.9489L146.855 56.4804L138.731 99.1918L136.553 99.0197V103.511L152.412 104.759V126.949L136.464 130.735V133.497L154.98 129.057V104.965L214.288 109.62V135.278H195.301L192.815 147.229H177.379L136.367 155.128V157.864L177.614 149.914H224.59L226.272 171.682L177.419 176.664L177.582 178.445L226.41 173.472L229.66 215.194L180.32 208.371L179.987 211.038L229.871 217.921L231.78 242.573L179.572 248.157L152.477 250.187V212.595L178.151 196.738L176.867 194.415L151.795 209.902L136.172 207.717V210.41L151.608 212.57V236.507L136.025 238.227V240.929L151.616 239.208V251.142L152.534 284.974L135.814 291.909V294.8L152.632 287.831L153.135 306.261L135.733 307.431V308.025L135.806 309.221L153.152 308.059L153.298 313.445H154.11L153.964 307.999L221.235 303.499C221.113 306.992 220.983 310.382 220.869 313.445H222.665C222.77 310.563 222.9 307.087 223.038 303.379L237.557 302.406L239.637 313.445H240.498L238.41 302.355L271.411 300.143L271.785 313.445H276.026M223.063 301.615C223.12 300.023 223.176 298.397 223.233 296.77L236.46 296.814L237.183 300.668L223.063 301.615ZM238.036 300.608L237.224 296.306L235.249 276.611L234.136 262.25L270.209 259.377L271.322 298.388L238.036 300.608ZM246.225 241.944L265.204 239.922L264.676 247.812L247.663 249.757L246.225 241.944ZM245.413 242.039L248.582 259.247L234.039 260.426L232.714 243.398L245.413 242.039ZM270.176 257.527L249.435 259.179L248.021 251.512L266.293 249.421L266.943 239.725L271.517 239.243L269.892 246.522L270.176 257.527ZM245.608 195.576L249.313 213.172L230.513 215.237L229.164 197.727L245.608 195.576ZM250.166 213.077L246.453 195.473L274.076 191.868L275.758 210.255L250.166 213.077ZM269.193 138.375L227.507 135.321L231.471 110.962L234.388 111.195H269.51L272.329 112.133L268.21 127.809L269.193 138.375ZM266.683 60.9374C266.642 65.5665 267.601 80.839 281.429 86.0703L279.836 95.9738L271.233 93.6162L257.64 64.7147L266.683 60.9374ZM255.309 65.7128L269.12 95.0617L268.681 106.686H241.221L233.909 74.687L255.309 65.7128ZM232.576 76.7089L239.482 106.712H234.608L215.109 105.18L214.678 77.4833L232.576 76.7089ZM213.801 77.5177L214.223 105.12L182.538 102.633C182.668 98.1593 182.643 88.2042 182.538 78.8686L213.801 77.5177ZM149.374 56.8676L181.604 61.7634C181.766 75.9346 181.904 96.0168 181.742 102.565L141.314 99.4155L149.374 56.8676ZM230.618 110.894L224.704 147.221H215.109V109.68L230.618 110.894ZM197.357 137.962H214.28V147.221H195.431L197.357 137.962ZM225.346 148.58L227.068 137.98L269.445 141.086L271.817 167.036L227.133 171.588L225.346 148.58ZM271.98 168.826L273.849 189.183L228.953 195.043L227.247 173.412L271.98 168.826ZM230.716 217.913L276.01 212.922L276.44 217.586L271.728 238.313L232.625 242.495L230.716 217.913ZM234.404 276.662L236.338 295.893H223.266C223.493 289.552 223.721 283.21 223.875 278.443C224.159 269.9 224.159 269.899 223.615 269.616L223.217 270.476L222.405 270.528C222.445 271.276 222.047 282.987 221.592 295.48L183.797 276.318L182.465 248.785L231.837 243.502L234.404 276.662ZM179.158 249.129L178.89 284.509L153.42 285.791L152.477 251.125L179.158 249.129ZM153.46 287.512V286.704L179.743 285.378L180.019 249.069L181.644 248.897L183.001 276.938L221.552 296.452C221.487 298.173 221.422 299.945 221.365 301.675L153.972 306.192L153.46 287.512Z" fill="white"/>
<path d="M191.892 286.23L155.096 288.966V301.477L215.826 297.992L191.892 286.23Z" fill="#E0E0E0"/>
<path d="M267.692 144.347L230.889 141.877L228.614 148.571L229.857 168.507L269.821 163.483L267.692 144.347Z" fill="#E0E0E0"/>
<path d="M135.734 271.096L135.645 335.283V342.166C135.767 347.133 137.711 351.853 141.065 355.328C144.418 358.802 148.917 360.757 153.608 360.777L271.754 361.354C274.126 361.366 276.477 360.883 278.673 359.933C280.869 358.983 282.866 357.583 284.551 355.815C286.236 354.047 287.575 351.944 288.492 349.627C289.409 347.31 289.886 344.825 289.896 342.313L290.01 271.096H135.734Z" fill="white"/>
<path d="M178.827 59.4146L178.217 22.752H160.238L155.022 55.7233L178.827 59.4146Z" fill="#E0E0E0"/>
<path d="M265.262 102.745L267.09 94.795L254.44 69.3093L238.2 77.7672L243.619 101.876L265.262 102.745Z" fill="#EBEBEB"/>
<path d="M155.096 214.445C155.291 215.598 155.096 246.616 155.096 246.616L178.795 245.033L176.041 202.666L155.096 214.445Z" fill="#E0E0E0"/>
<path d="M234 239.63L232.749 220.408L273.33 214.884V218.197L268.423 235.87L234 239.63Z" fill="#E0E0E0"/>
<path d="M271.834 288.596L271.322 276.06L235.664 277.893C234.734 277.937 233.808 277.73 232.975 277.29L182.375 250.222C181.8 249.913 181.311 249.449 180.959 248.876C180.607 248.304 180.403 247.643 180.369 246.961L173.487 105.516C173.467 105.18 173.516 104.844 173.631 104.53C173.746 104.217 173.925 103.933 174.154 103.7C174.38 103.467 174.651 103.287 174.947 103.171C175.244 103.056 175.56 103.007 175.876 103.029L197.56 104.75V79.6257H200.103V105.086C200.102 105.41 200.037 105.731 199.914 106.028C199.791 106.326 199.611 106.593 199.387 106.814C199.162 107.035 198.897 107.205 198.608 107.313C198.319 107.421 198.012 107.466 197.706 107.443L176.038 105.722L182.904 246.832C182.916 247.04 182.979 247.242 183.087 247.417C183.196 247.592 183.345 247.734 183.521 247.83L234.12 274.899C234.561 275.132 235.05 275.241 235.542 275.217L271.509 273.367C271.804 273.352 272.1 273.399 272.378 273.505C272.657 273.611 272.913 273.774 273.132 273.985C273.351 274.196 273.528 274.451 273.654 274.734C273.78 275.018 273.851 275.325 273.865 275.638L274.385 288.485L271.834 288.596Z" fill="white"/>
<path d="M268.773 128.128C268.792 124.943 268.116 121.798 266.797 118.937C265.478 116.075 263.552 113.576 261.169 111.633C258.787 109.691 256.013 108.358 253.064 107.739C250.114 107.121 247.07 107.233 244.168 108.066C241.267 108.9 238.586 110.433 236.337 112.546C234.088 114.659 232.33 117.294 231.202 120.245C230.073 123.196 229.604 126.384 229.832 129.559C230.059 132.734 230.977 135.81 232.513 138.547L232.57 138.625C233.318 139.95 234.252 140.905 235.195 142.307L246.504 158.165C246.831 158.626 247.255 159.001 247.742 159.258C248.229 159.516 248.766 159.651 249.311 159.651C249.855 159.651 250.393 159.516 250.88 159.258C251.367 159.001 251.791 158.626 252.118 158.165L263.232 142.565C264.244 141.3 265.188 139.976 266.059 138.599L266.1 138.547C267.854 135.389 268.777 131.791 268.773 128.128ZM249.274 137.102C247.579 137.102 245.922 136.569 244.512 135.572C243.103 134.574 242.004 133.157 241.355 131.498C240.707 129.839 240.537 128.014 240.868 126.253C241.198 124.493 242.015 122.875 243.213 121.606C244.412 120.336 245.939 119.472 247.602 119.121C249.265 118.771 250.988 118.951 252.554 119.638C254.12 120.325 255.459 121.488 256.401 122.981C257.343 124.474 257.845 126.229 257.845 128.024C257.848 130.428 256.949 132.734 255.346 134.436C253.743 136.139 251.568 137.097 249.299 137.102H249.274Z" fill="#E19C5B"/>
<path d="M163.927 298.328C163.927 296.89 163.615 295.473 163.014 294.184C162.413 292.895 161.54 291.771 160.462 290.897C159.385 290.024 158.131 289.425 156.8 289.148C155.468 288.871 154.094 288.922 152.785 289.298C151.475 289.674 150.265 290.365 149.248 291.316C148.231 292.268 147.435 293.455 146.921 294.785C146.407 296.116 146.19 297.553 146.286 298.987C146.382 300.42 146.789 301.811 147.475 303.051C147.816 303.662 148.238 304.092 148.669 304.772L153.796 311.965C153.948 312.169 154.141 312.334 154.362 312.448C154.583 312.561 154.826 312.62 155.071 312.62C155.317 312.62 155.559 312.561 155.78 312.448C156.001 312.334 156.195 312.169 156.347 311.965L161.384 304.884C161.843 304.311 162.272 303.71 162.667 303.086C163.486 301.649 163.921 300.005 163.927 298.328ZM155.095 302.397C154.325 302.399 153.572 302.159 152.93 301.706C152.289 301.254 151.789 300.611 151.494 299.857C151.198 299.104 151.12 298.274 151.27 297.474C151.42 296.674 151.791 295.939 152.336 295.362C152.88 294.785 153.574 294.392 154.33 294.233C155.086 294.075 155.869 294.157 156.58 294.47C157.292 294.783 157.899 295.313 158.326 295.992C158.753 296.671 158.981 297.469 158.979 298.285C158.979 299.375 158.57 300.422 157.841 301.193C157.113 301.964 156.125 302.397 155.095 302.397Z" fill="#E19C5B"/>
<path d="M270.529 305.056C270.529 305.177 248.487 305.28 221.303 305.28C194.119 305.28 172.069 305.177 172.069 305.056C172.069 304.936 194.11 304.833 221.303 304.833C248.496 304.833 270.529 304.884 270.529 305.056Z" fill="#263238"/>
<path d="M222.668 313.445C222.668 313.574 211.351 313.669 197.393 313.669C183.435 313.669 172.11 313.574 172.11 313.445C172.11 313.316 183.427 313.221 197.393 313.221C211.359 313.221 222.668 313.325 222.668 313.445Z" fill="#263238"/>
<path d="M176.6 285.525L178.29 289.164L182.076 289.749L179.338 292.571L179.988 296.572L176.6 294.688L173.212 296.572L173.854 292.571L171.116 289.749L174.902 289.164L176.6 285.525Z" fill="#E19C5B"/>
<path d="M192.639 285.525L194.337 289.164L198.123 289.749L195.377 292.571L196.027 296.572L192.639 294.688L189.251 296.572L189.901 292.571L187.155 289.749L190.949 289.164L192.639 285.525Z" fill="#E19C5B"/>
<path d="M208.678 285.525L210.376 289.164L214.162 289.749L211.424 292.571L212.065 296.572L208.678 294.688L205.29 296.572L205.94 292.571L203.202 289.749L206.988 289.164L208.678 285.525Z" fill="#E19C5B"/>
<path d="M224.723 285.525L226.413 289.164L230.199 289.749L227.461 292.571L228.111 296.572L224.723 294.688L221.335 296.572L221.977 292.571L219.239 289.749L223.025 289.164L224.723 285.525Z" fill="#E19C5B"/>
<path d="M240.762 285.525L242.46 289.164L246.246 289.749L243.508 292.571L244.15 296.572L240.762 294.688L237.374 296.572L238.024 292.571L235.278 289.749L239.072 289.164L240.762 285.525Z" fill="#E0E0E0"/>
<path d="M204.5 329.742C204.5 329.871 198.342 329.965 190.745 329.965C183.149 329.965 176.991 329.871 176.991 329.742C176.991 329.613 183.149 329.518 190.745 329.518C198.342 329.518 204.5 329.621 204.5 329.742Z" fill="#E0E0E0"/>
<path d="M275.183 337.081C275.183 337.202 253.198 337.305 226.087 337.305C198.975 337.305 176.991 337.202 176.991 337.081C176.991 336.961 198.927 336.849 226.087 336.849C253.247 336.849 275.183 336.952 275.183 337.081Z" fill="#E0E0E0"/>
<path d="M159.238 342.149C163.869 342.149 167.623 338.173 167.623 333.269C167.623 328.365 163.869 324.39 159.238 324.39C154.608 324.39 150.854 328.365 150.854 333.269C150.854 338.173 154.608 342.149 159.238 342.149Z" fill="#F5F5F5"/>
<path d="M160.222 333.02C160.705 332.81 161.117 332.452 161.407 331.992C161.696 331.532 161.85 330.991 161.847 330.439C161.853 330.097 161.794 329.757 161.676 329.44C161.557 329.122 161.381 328.831 161.156 328.586C160.932 328.34 160.664 328.144 160.368 328.008C160.072 327.872 159.753 327.799 159.43 327.793C159.108 327.787 158.787 327.849 158.487 327.975C158.187 328.1 157.913 328.287 157.681 328.525C157.449 328.763 157.263 329.046 157.135 329.36C157.006 329.674 156.937 330.011 156.932 330.353C156.923 330.896 157.065 331.43 157.339 331.888C157.613 332.347 158.008 332.711 158.476 332.934C154.682 333.493 154.812 337.847 154.812 337.847L163.748 337.993C163.748 337.993 163.96 333.665 160.222 333.02Z" fill="#E0E0E0"/>
<path d="M213.405 352.147C213.294 352.144 213.189 352.094 213.113 352.009L209.05 347.518C209.012 347.478 208.982 347.43 208.961 347.378C208.941 347.326 208.93 347.269 208.93 347.213C208.93 347.156 208.941 347.1 208.961 347.047C208.982 346.995 209.012 346.947 209.05 346.907C209.087 346.867 209.132 346.835 209.18 346.814C209.229 346.792 209.282 346.781 209.335 346.781C209.388 346.781 209.44 346.792 209.489 346.814C209.538 346.835 209.582 346.867 209.619 346.907L213.397 351.072L217.102 346.985C217.179 346.905 217.282 346.861 217.39 346.861C217.498 346.861 217.601 346.905 217.678 346.985C217.717 347.025 217.747 347.072 217.767 347.125C217.788 347.177 217.799 347.233 217.799 347.29C217.799 347.347 217.788 347.403 217.767 347.455C217.747 347.508 217.717 347.555 217.678 347.595L213.73 352.009C213.69 352.058 213.639 352.095 213.583 352.119C213.527 352.143 213.466 352.153 213.405 352.147Z" fill="#263238"/>
</svg>
