<svg width="850" height="680" viewBox="0 0 850 680" fill="none" xmlns="http://www.w3.org/2000/svg">
<path d="M483.456 551.574L464.353 561.891L453.3 555.566L454.219 539.906C455.875 540.608 457.593 541.147 459.35 541.517C461.105 541.921 462.892 542.167 464.69 542.251C466.501 542.346 468.316 542.226 470.1 541.896C471.879 541.557 473.579 540.882 475.114 539.906C473.459 540.526 471.736 540.943 469.983 541.149C468.24 541.317 466.486 541.361 464.737 541.28C462.98 541.22 461.234 540.995 459.478 540.782C457.721 540.545 455.976 540.249 454.219 539.906C454.219 539.906 448.251 539.657 446.75 538.472C448.193 547.013 444.086 555.791 444.086 555.791V570.101L424.517 576.663L413.93 570.326L415.081 553.919C416.527 555.302 418.156 556.47 419.921 557.39C421.69 558.335 423.577 559.032 425.529 559.463C427.482 559.914 429.495 560.03 431.486 559.807C433.468 559.596 435.398 559.03 437.187 558.136C436.198 558.314 435.29 558.681 434.313 558.764L432.882 558.989L431.439 559.06C429.52 559.122 427.601 558.939 425.727 558.515C423.847 558.086 422.009 557.483 420.236 556.715C419.34 556.324 418.467 555.898 417.618 555.424C416.747 554.968 415.9 554.466 415.081 553.919C415.081 553.919 412.545 551.574 397.816 551.574L397.84 546.468C397.84 546.468 424.75 555.566 444.086 531.649C444.346 532.028 444.586 532.419 444.807 532.822C458.856 531.607 472.006 525.283 481.851 515.006C482.083 521.568 483.002 531.732 480.931 535.914L483.456 551.574Z" fill="#37474F"/>
<path d="M636.397 549.843C635.652 549.978 634.888 549.962 634.149 549.794C633.41 549.627 632.712 549.312 632.093 548.868C631.474 548.424 630.948 547.86 630.545 547.208C630.141 546.556 629.868 545.83 629.742 545.07L601.646 379.572C601.595 379.243 601.568 378.91 601.564 378.577C601.564 367.643 613.873 322.215 618.48 309.09C621.342 300.928 626.671 285.73 622.006 276.241C620.086 272.32 616.526 269.596 611.151 267.902C591.512 261.718 567.918 275.507 550.688 285.576C547.988 287.151 545.452 288.632 543.079 289.947C532.62 295.763 515.401 301.165 495.471 307.42C480.265 312.193 463.023 317.607 446.107 324.051C411.763 337.129 402.316 382.368 401.664 385.685L387.331 525.643V525.654C386.42 529.639 385.759 533.679 385.353 537.749C384.878 541.912 384.675 546.103 384.748 550.294C385.698 546.214 386.378 542.075 386.784 537.903C387.215 534.061 387.425 530.197 387.412 526.33C392.409 527.133 397.346 528.285 402.188 529.777C402.188 529.777 398.349 533.686 397.837 546.468C397.779 548.031 397.767 549.725 397.814 551.573C393.444 551.568 389.085 551.144 384.795 550.306L382.352 574.222C382.201 575.661 381.533 576.993 380.476 577.962C379.42 578.93 378.049 579.467 376.628 579.47C376.425 579.469 376.223 579.457 376.023 579.434C375.271 579.355 374.543 579.126 373.878 578.76C373.214 578.393 372.628 577.897 372.152 577.3C371.677 576.702 371.321 576.015 371.107 575.277C370.893 574.54 370.824 573.767 370.903 573.002L373.568 546.846C373.579 547 373.579 547.143 373.579 547.297C374.6 543.231 375.347 539.099 375.813 534.93C376.359 530.771 376.631 526.58 376.628 522.385C375.614 526.452 374.868 530.584 374.394 534.752C373.88 538.743 373.604 542.762 373.568 546.787C367.413 543.909 362.887 539.644 362.352 533.757C361.794 527.609 367.809 525.453 375.778 525.358L390.24 384.216C390.263 384.062 390.275 383.919 390.298 383.777C390.705 381.538 400.536 328.896 442.07 313.07C459.301 306.507 476.717 301.034 492.086 296.213C511.422 290.148 528.117 284.9 537.564 279.653C539.821 278.409 542.323 276.952 544.952 275.412C564.021 264.265 590.128 249.02 614.548 256.696C622.971 259.349 628.94 264.158 632.302 270.994C639.166 284.96 632.767 303.214 629.324 313.034C624.309 327.32 613.454 368.875 613.082 378.127L641.086 543.079C641.345 544.609 640.996 546.182 640.117 547.45C639.238 548.719 637.9 549.579 636.397 549.843Z" fill="#37474F"/>
<path d="M455.14 93.2812C453.215 95.0632 451.561 97.126 450.232 99.4023C448.9 101.645 447.846 104.046 447.093 106.552C446.883 107.167 446.774 107.814 446.602 108.44C446.426 109.066 446.294 109.704 446.205 110.348L445.897 112.273L445.756 114.218C445.671 115.515 445.65 116.815 445.693 118.114C445.744 119.412 445.917 120.707 446.02 122.001L446.047 122.341L445.866 122.638C443.738 125.883 442.757 129.768 443.086 133.656C443.394 135.613 443.912 137.531 444.631 139.373C445.472 141.359 445.935 143.489 445.994 145.651C445.833 147.599 446.034 149.56 446.587 151.432C447.198 153.232 448.403 154.76 449.997 155.756C451.663 156.774 453.499 157.473 455.413 157.816C456.377 158.028 457.372 158.118 458.356 158.275L461.352 158.45L461.499 158.459L461.555 158.567C462.296 159.971 463.009 161.391 463.721 162.812C462.856 161.482 461.994 160.15 461.157 158.803L461.361 158.919C457.351 159.157 453.101 158.973 449.312 156.897C447.401 155.801 445.919 154.068 445.115 151.99C444.421 149.952 444.127 147.795 444.249 145.642C444.122 143.699 443.66 141.794 442.884 140.015C442.101 138.049 441.534 136 441.192 133.907C440.926 131.735 441.111 129.53 441.737 127.436C442.322 125.363 443.215 123.392 444.383 121.592L444.23 122.229C444.152 120.871 444.009 119.518 443.99 118.159L444.028 116.119C444.025 115.438 444.071 114.758 444.168 114.084L444.401 112.058L444.805 110.059C444.927 109.391 445.093 108.732 445.302 108.086C445.505 107.438 445.659 106.776 445.915 106.148C446.822 103.6 448.075 101.194 449.637 98.9998C451.145 96.7945 453.005 94.8616 455.14 93.2812Z" fill="#37474F"/>
<path d="M460.664 154.465C461.397 153.748 462.024 152.926 462.527 152.027C463.023 151.147 463.435 150.221 463.757 149.261C464.087 148.294 464.357 147.306 464.566 146.305L464.868 144.775C464.965 144.259 465.028 143.738 465.154 143.213C465.246 143.739 465.276 144.27 465.338 144.807C465.337 145.339 465.349 145.879 465.307 146.415C465.226 147.495 465.009 148.561 464.661 149.585C464.309 150.619 463.796 151.589 463.141 152.456C462.501 153.334 461.647 154.026 460.664 154.465Z" fill="#37474F"/>
<path d="M444.828 117.544C445.646 116.865 446.621 116.41 447.66 116.222C448.699 116.034 449.768 116.118 450.766 116.467C451.43 116.695 452.039 117.061 452.554 117.544C451.289 117.253 449.996 117.104 448.7 117.1C447.399 117.129 446.103 117.277 444.828 117.544Z" fill="#37474F"/>
<path d="M446.16 125.338C446.533 125.325 446.886 125.165 447.145 124.892C447.405 124.619 447.55 124.253 447.55 123.873C447.55 123.493 447.405 123.128 447.145 122.855C446.886 122.581 446.533 122.421 446.16 122.408C445.787 122.421 445.433 122.581 445.174 122.855C444.914 123.128 444.77 123.493 444.77 123.873C444.77 124.253 444.914 124.619 445.174 124.892C445.433 125.165 445.787 125.325 446.16 125.338Z" fill="#37474F"/>
<path d="M419.473 231.142C421.551 224.097 424.044 217.185 426.938 210.445C429.784 203.687 433.09 197.14 436.832 190.851C438.712 187.71 440.699 184.629 442.87 181.679C445.011 178.697 447.336 175.859 449.833 173.181C452.314 170.467 455.032 167.989 457.953 165.775C460.862 163.512 464.025 161.611 467.375 160.11C470.747 158.744 474.188 157.561 477.683 156.564C481.136 155.509 484.595 154.473 488.078 153.507C491.566 152.552 495.07 151.643 498.646 150.947C500.448 150.592 502.271 150.353 504.102 150.231C505.976 150.106 507.858 150.25 509.692 150.659C511.518 151.101 513.14 151.515 514.955 151.871C516.766 152.257 518.538 152.816 520.246 153.538C523.607 155.054 526.757 157.013 529.617 159.365C535.182 164.098 540.291 169.361 544.872 175.084C549.529 180.708 553.788 186.64 557.989 192.601C560.049 195.612 562.085 198.638 564.099 201.68C565.051 203.244 566.06 204.772 566.974 206.357C567.848 207.966 568.775 209.545 569.605 211.177C572.917 217.706 575.755 224.473 578.095 231.424C580.492 238.348 582.493 245.407 584.22 252.53C587.605 266.8 590.138 281.265 591.805 295.846C593.531 310.429 594.52 325.092 594.77 339.778L594.778 340.3L594.309 340.513C585.526 344.45 576.375 347.474 566.994 349.536C557.621 351.68 548.041 352.744 538.435 352.708C533.621 352.634 528.819 352.208 524.065 351.434C519.305 350.627 514.626 349.382 510.086 347.717C505.538 346.054 501.169 343.918 497.05 341.345L494.002 339.351C493.006 338.656 492.062 337.886 491.091 337.157L489.643 336.048L488.275 334.84L485.551 332.411L485.293 332.18L485.25 331.796L482.351 305.561L480.797 292.46C480.239 288.105 479.691 283.729 478.928 279.444L479.267 279.939C476.706 278.196 474.304 276.223 472.09 274.043C469.87 271.879 467.851 269.511 466.058 266.97C464.286 264.397 462.84 261.607 461.756 258.665C460.729 255.688 460.182 252.561 460.136 249.406L460.693 249.943C456.791 249.981 452.896 249.583 449.078 248.757C445.269 247.963 441.555 246.754 438 245.15C436.196 244.414 434.513 243.418 432.792 242.512C431.123 241.509 429.508 240.415 427.953 239.236C424.831 236.879 421.985 234.162 419.473 231.142ZM419.66 231.101C422.224 234.001 425.093 236.605 428.216 238.866C429.78 239.998 431.402 241.044 433.075 241.999C434.797 242.857 436.478 243.803 438.276 244.488C441.817 245.977 445.497 247.1 449.259 247.84C453.003 248.603 456.817 248.948 460.634 248.869L461.169 248.854L461.192 249.406C461.274 252.428 461.834 255.417 462.849 258.258C463.93 261.083 465.356 263.758 467.094 266.219C468.867 268.668 470.857 270.945 473.039 273.023C475.207 275.107 477.553 276.99 480.049 278.651L480.328 278.833L480.387 279.147C481.217 283.516 481.813 287.872 482.425 292.238L484.134 305.34C485.243 314.077 486.235 322.824 487.189 331.58L486.888 330.965L489.543 333.322L490.875 334.495L492.285 335.568C493.231 336.275 494.148 337.023 495.117 337.695L498.083 339.626C502.092 342.12 506.343 344.187 510.768 345.794C519.68 348.941 529.033 350.599 538.464 350.704C547.926 350.789 557.367 349.79 566.609 347.727C571.235 346.713 575.811 345.483 580.336 344.036C584.852 342.613 589.29 340.945 593.63 339.038L593.169 339.772C593.083 325.14 592.259 310.521 590.702 295.974C589.244 281.405 586.861 266.948 583.569 252.693C581.877 245.58 579.914 238.53 577.551 231.619C575.181 224.712 572.316 217.992 568.981 211.513C568.147 209.896 567.217 208.333 566.34 206.741C565.421 205.174 564.418 203.66 563.455 202.121C561.399 199.122 559.323 196.134 557.227 193.158C552.95 187.277 548.616 181.434 543.912 175.916C539.313 170.337 534.202 165.218 528.648 160.628C525.889 158.384 522.856 156.515 519.623 155.069C518.003 154.393 516.324 153.873 514.609 153.516C512.887 153.19 511.014 152.727 509.337 152.328C505.89 151.727 502.359 151.845 498.958 152.676C495.459 153.335 491.977 154.215 488.51 155.144C485.043 156.084 481.591 157.095 478.143 158.128C474.702 159.087 471.313 160.229 467.989 161.549C464.736 162.984 461.663 164.809 458.835 166.984C457.385 168.03 456.045 169.223 454.686 170.391C453.391 171.634 452.056 172.836 450.838 174.165C448.342 176.768 446.012 179.532 443.863 182.439C441.677 185.323 439.667 188.347 437.76 191.436C430.237 203.898 424.163 217.209 419.66 231.101Z" fill="#37474F"/>
<path d="M471.715 197.364C471.725 201.667 471.626 205.962 471.453 210.252C471.274 214.54 471.051 218.826 470.749 223.105C470.471 227.386 470.134 231.663 469.739 235.935C469.362 240.208 468.899 244.475 468.389 248.739L468.337 249.171L467.961 249.182C465.529 249.254 463.102 249.394 460.664 249.406C463.061 248.949 465.469 248.62 467.872 248.223L467.444 248.666C467.567 244.373 467.737 240.084 467.993 235.801C468.238 231.517 468.534 227.237 468.882 222.962C469.214 218.685 469.624 214.414 470.078 210.146C470.538 205.879 471.072 201.617 471.715 197.364Z" fill="#37474F"/>
<path d="M471.145 134.463C471.145 134.463 469.3 160.092 477.934 170.992C486.568 181.893 495.547 191.035 498.655 199.826C501.764 208.617 528.01 214.595 530.773 199.826C533.536 185.057 521.794 178.728 519.722 169.586C517.65 160.443 516.614 142.158 513.851 133.016C511.088 123.873 520.067 108.05 493.475 89.7652C466.883 71.4803 452.551 95.7577 452.551 95.7577C452.551 95.7577 459.631 128.796 465.156 119.302C465.156 119.302 472.754 113.325 472.063 128.093" fill="#37474F"/>
<path d="M431.298 315.39L431.148 314.425C457.527 310.174 483.262 307.647 483.519 307.623L483.609 308.595C483.353 308.62 457.647 311.144 431.298 315.39Z" fill="#37474F"/>
<path d="M448.469 397.482L456.107 416.616L463.685 435.774L478.691 474.149L479.59 476.449L477.47 475.138C475.831 474.174 474.073 473.436 472.242 472.944L470.849 472.571L469.428 472.31C468.48 472.138 467.523 472.019 466.562 471.952C462.696 471.7 458.816 472.071 455.064 473.052L452.255 473.829L449.52 474.863L448.153 475.379L446.833 476.018L444.191 477.292C442.47 478.223 440.804 479.268 439.111 480.257L434.284 483.656L433.683 484.078L433.113 483.613C432.277 483.006 431.359 482.523 430.389 482.18L428.852 481.752L427.268 481.527C426.736 481.479 426.196 481.521 425.661 481.51C425.393 481.519 425.124 481.49 424.857 481.526L424.055 481.649C423.522 481.737 422.984 481.797 422.453 481.903L420.887 482.389C416.711 483.958 412.884 486.359 409.631 489.453C406.335 492.602 403.321 496.043 400.623 499.735L398.609 502.528L397.602 503.924L396.68 505.384L393.005 511.235L391.951 512.913L391.468 511.012C389.582 503.591 387.719 496.164 385.88 488.731L380.355 466.433L374.889 444.12L369.508 421.784L375.514 443.954L381.435 466.147L387.297 488.355C389.265 495.754 391.198 503.162 393.096 510.579L391.56 510.357L395.249 504.416L396.175 502.934L397.191 501.509L399.224 498.66C401.971 494.862 405.044 491.32 408.408 488.077C411.84 484.783 415.888 482.225 420.309 480.553L422.024 480.016C422.612 479.894 423.213 479.819 423.808 479.72L424.702 479.582C425.002 479.544 425.308 479.567 425.611 479.558C426.218 479.57 426.827 479.533 427.432 479.59C429.926 479.765 432.321 480.659 434.336 482.167L433.165 482.124L438.126 478.67C439.87 477.66 441.586 476.598 443.363 475.649L446.095 474.347L447.461 473.696L448.88 473.168L451.719 472.112L454.646 471.318C458.58 470.312 462.647 469.946 466.694 470.233C470.804 470.493 474.803 471.7 478.389 473.763L477.169 474.753L462.714 436.159L455.562 416.833L448.469 397.482Z" fill="#37474F"/>
<path d="M359.149 380.966C358.259 378.255 357.486 375.51 356.65 372.778C355.914 369.972 355.536 367.081 355.524 364.176C355.404 358.332 356.51 352.53 358.769 347.156C361.069 341.776 364.621 337.048 369.117 333.379C370.277 332.531 371.376 331.601 372.578 330.83L376.274 328.684C378.829 327.473 381.464 326.444 384.159 325.604L382.256 326.518L381.302 326.958L380.382 327.471C379.16 328.159 377.93 328.821 376.729 329.523L373.289 331.886C372.181 332.721 371.155 333.663 370.088 334.54C369.561 334.988 369.067 335.475 368.61 335.996L367.171 337.488C366.693 337.986 366.252 338.519 365.849 339.082L364.582 340.721C363.781 341.844 363.091 343.048 362.338 344.204C361.734 345.449 361.062 346.663 360.526 347.938C359.976 349.212 359.495 350.514 359.083 351.84L358.484 353.837L358.029 355.876C357.674 357.226 357.545 358.621 357.318 360C357.237 360.694 357.203 361.393 357.136 362.089C357.059 362.785 357.019 363.485 357.016 364.185C356.891 366.99 357.074 369.8 357.561 372.563C358.087 375.361 358.677 378.147 359.149 380.966Z" fill="#37474F"/>
<path d="M584.273 369.898H584.004L583.999 369.408L583.594 369.155C588.874 360.16 592.246 350.138 593.493 339.735L594.45 339.814C593.188 350.368 589.769 360.537 584.414 369.664L584.273 369.898Z" fill="#37474F"/>
<path d="M412.316 361.928C417.54 362.883 422.753 363.87 427.986 364.75C433.206 365.687 438.433 366.587 443.669 367.412C454.14 369.064 464.621 370.639 475.144 371.748C480.402 372.32 485.671 372.767 490.942 373.003C496.194 373.306 501.461 373.204 506.698 372.697C509.281 372.459 511.819 371.864 514.244 370.928C515.406 370.463 516.461 369.757 517.341 368.856C517.526 368.616 517.72 368.38 517.885 368.127C518.02 367.847 518.176 367.624 518.303 367.298L519.095 365.44C521.265 360.51 523.373 355.553 525.596 350.646C523.775 355.722 521.84 360.751 519.965 365.805L519.24 367.692C519.134 367.998 518.934 368.352 518.781 368.678C518.592 368.993 518.369 369.287 518.152 369.582C517.195 370.64 516.031 371.483 514.735 372.056C512.228 373.127 509.589 373.844 506.891 374.187C501.58 374.873 496.222 375.095 490.874 374.851C485.544 374.669 480.236 374.233 474.944 373.689C464.367 372.525 453.856 370.894 443.42 368.887C438.202 367.879 432.998 366.812 427.807 365.684C422.629 364.488 417.448 363.312 412.316 361.928Z" fill="#37474F"/>
<path d="M486.223 331.688C475.114 332.456 464.005 332.633 452.897 332.664C441.788 332.637 430.679 332.461 419.57 331.688C430.679 330.915 441.788 330.739 452.897 330.712C464.005 330.744 475.114 330.92 486.223 331.688Z" fill="#37474F"/>
<path d="M433.73 482.89C432.961 479.081 432.315 475.255 431.604 471.438L429.676 459.956C428.394 452.301 427.26 444.624 426.127 436.946C425.04 429.262 423.956 421.577 423.019 413.871L421.62 402.31C421.223 398.446 420.761 394.591 420.422 390.719C421.191 394.527 421.838 398.354 422.551 402.171L424.479 413.652C425.76 421.307 426.894 428.985 428.024 436.662C429.11 444.347 430.194 452.031 431.129 459.738L432.529 471.299C432.927 475.163 433.389 479.017 433.73 482.89Z" fill="#37474F"/>
<path d="M491.87 336.559C492.471 340.028 493.063 343.465 493.73 346.88C494.409 350.291 495.138 353.681 496.077 356.996C496.943 360.31 498.154 363.519 499.69 366.571C501.256 369.525 503.416 372.358 506.77 373.446C504.994 373.277 503.308 372.571 501.929 371.418C500.542 370.271 499.351 368.897 498.405 367.354C497.454 365.839 496.633 364.242 495.952 362.583C495.289 360.927 494.734 359.235 494.234 357.532C493.305 354.119 492.644 350.636 492.256 347.116C491.835 343.614 491.705 340.082 491.87 336.559Z" fill="#37474F"/>
<path d="M400.316 498.696C401.682 501.368 402.909 504.107 404.065 506.882C405.218 509.658 406.299 512.473 407.182 515.372C408.154 518.292 408.77 521.322 409.014 524.395C409.05 525.21 409.017 526.026 408.916 526.835C408.86 527.251 408.736 527.679 408.64 528.101C408.488 528.544 408.286 528.968 408.038 529.364C407.491 530.226 406.65 530.851 405.677 531.119C404.798 531.306 403.892 531.315 403.01 531.145L401.808 530.865L400.758 530.562L398.646 529.989C397.236 529.613 395.81 529.298 394.389 528.967C391.54 528.337 388.67 527.794 385.787 527.405C382.92 526.995 380.032 526.748 377.138 526.665C374.31 526.534 371.477 526.795 368.718 527.443C367.433 527.748 366.22 528.312 365.153 529.101C364.176 529.866 363.536 530.991 363.369 532.234C363.225 533.586 363.366 534.954 363.783 536.247C364.2 537.588 364.842 538.847 365.679 539.967C367.46 542.25 369.694 544.124 372.235 545.469C374.805 546.869 377.52 547.973 380.33 548.762C385.983 550.353 391.827 551.127 397.692 551.06C400.647 551.049 403.613 551.056 406.584 551.266C408.069 551.385 409.556 551.524 411.044 551.784C411.788 551.92 412.532 552.068 413.278 552.28C413.651 552.382 414.026 552.504 414.402 552.644C414.592 552.724 414.778 552.79 414.974 552.891C415.075 552.937 415.174 552.989 415.27 553.046C415.401 553.117 415.523 553.201 415.637 553.297L415.927 553.537L415.905 553.98C415.634 559.458 415.399 564.938 415.075 570.413L414.511 569.321L425.186 575.505L424.11 575.388L443.626 568.658L442.605 570.095C442.551 565.328 442.558 560.562 442.553 555.795L442.552 555.462L442.702 555.123C443.48 553.294 444.113 551.404 444.594 549.471C445.085 547.536 445.402 545.559 445.54 543.564C445.644 541.607 445.504 539.644 445.125 537.722C444.706 535.849 443.979 534.061 442.976 532.433L442.83 532.191L442.787 532.024L439.634 519.632C438.587 515.501 437.597 511.355 436.663 507.193C435.719 503.035 434.781 498.875 433.958 494.685C433.544 492.592 433.162 490.491 432.812 488.382C432.663 487.32 432.463 486.273 432.357 485.203L432.198 483.601C432.173 483.059 432.193 482.508 432.19 481.97L432.476 481.995C432.525 482.52 432.547 483.037 432.614 483.555L432.898 485.118C433.086 486.158 433.343 487.193 433.561 488.229C434.051 490.296 434.563 492.358 435.111 494.412C436.192 498.524 437.281 502.634 438.435 506.728L441.885 519.012L445.394 531.276L445.205 530.867C446.462 532.754 447.386 534.85 447.936 537.06C448.404 539.246 448.595 541.484 448.506 543.719C448.385 545.912 448.068 548.089 447.557 550.224C447.057 552.366 446.361 554.456 445.48 556.467L445.629 555.795C445.623 560.562 445.631 565.328 445.577 570.095L445.564 571.203L444.556 571.532L424.932 577.929L424.352 578.118L423.856 577.812L413.349 571.337L412.727 570.954L412.785 570.246C413.229 564.781 413.761 559.322 414.257 553.86L414.525 554.543C414.434 554.48 414.339 554.423 414.242 554.372C414.112 554.295 413.952 554.23 413.805 554.159C413.495 554.028 413.171 553.906 412.835 553.801C412.169 553.581 411.47 553.413 410.769 553.257C409.36 552.952 407.914 552.759 406.467 552.585C403.563 552.269 400.629 552.121 397.69 552.089C391.747 552.01 385.835 551.196 380.084 549.664C377.195 548.894 374.388 547.831 371.707 546.492C368.939 545.177 366.472 543.287 364.463 540.944C362.352 538.468 361.261 535.257 361.417 531.982C361.587 530.208 362.425 528.569 363.754 527.409C365.022 526.353 366.489 525.574 368.065 525.119C369.556 524.682 371.084 524.39 372.629 524.249C374.14 524.088 375.66 524.024 377.179 524.06C380.18 524.112 383.175 524.368 386.143 524.828C389.101 525.264 392.027 525.854 394.931 526.532C396.381 526.879 397.823 527.26 399.257 527.674L401.404 528.316L402.472 528.655L403.42 528.902C403.719 528.963 404.021 529.002 404.325 529.018C404.598 529.02 404.871 529.001 405.141 528.962C405.606 528.843 406.013 528.556 406.286 528.155C406.898 527.024 407.171 525.735 407.069 524.447C406.928 521.523 406.468 518.624 405.698 515.803C404.164 510.029 402.279 504.357 400.055 498.82L400.316 498.696Z" fill="#37474F"/>
<path d="M416.693 526.961C416.732 527.615 416.794 528.236 416.855 528.833C416.91 529.409 417.032 529.977 417.218 530.524C417.393 531.036 417.683 531.5 418.065 531.878C418.514 532.273 419.023 532.591 419.571 532.822C418.905 532.95 418.216 532.835 417.626 532.496C417.017 532.119 416.554 531.54 416.316 530.856C416.109 530.216 416.036 529.539 416.101 528.868C416.166 528.197 416.367 527.548 416.693 526.961Z" fill="#37474F"/>
<path d="M372.433 546.485C372.135 539.176 373.418 531.889 376.192 525.141L377.058 525.562C374.35 532.166 373.098 539.295 373.392 546.446L372.433 546.485Z" fill="#37474F"/>
<path d="M437.18 480.415C438.727 483.492 440.102 486.655 441.3 489.89C442.519 493.098 443.638 496.338 444.659 499.61C445.163 501.248 445.657 502.889 446.113 504.542L446.78 507.028C446.915 507.494 447.017 507.968 447.086 508.448C447.144 508.947 447.157 509.451 447.123 509.952C447.009 511.925 446.147 513.775 444.718 515.113C444.039 515.674 443.327 516.192 442.586 516.664C441.874 517.139 441.158 517.609 440.417 518.049C440.947 517.362 441.502 516.705 442.062 516.052C442.599 515.398 443.257 514.76 443.672 514.145C444.542 512.925 444.968 511.435 444.877 509.931C444.815 509.2 444.646 508.483 444.376 507.804L443.515 505.38C442.954 503.761 442.43 502.129 441.916 500.494C440.896 497.222 439.98 493.917 439.167 490.577C438.318 487.231 437.655 483.838 437.18 480.415Z" fill="#37474F"/>
<path d="M456.522 516.412C456.704 517.487 457.247 518.464 458.058 519.177C458.479 519.467 458.946 519.681 459.438 519.809C459.963 519.943 460.523 520.04 461.127 520.163C460.845 520.283 460.557 520.387 460.264 520.475C459.958 520.53 459.649 520.561 459.339 520.565C458.678 520.554 458.034 520.344 457.49 519.963C456.946 519.552 456.563 518.959 456.407 518.289C456.255 517.666 456.295 517.011 456.522 516.412Z" fill="#37474F"/>
<path d="M466.561 471.006C469.161 476.03 471.443 481.192 473.638 486.394C474.714 489.004 475.776 491.621 476.771 494.266C477.781 496.905 478.747 499.564 479.6 502.269C480.463 504.97 481.221 507.709 481.844 510.508C482.187 511.937 482.415 513.393 482.526 514.86C482.532 516.282 482.513 517.684 482.555 519.1C482.597 521.93 482.705 524.76 482.685 527.607C482.656 529.03 482.625 530.457 482.486 531.892C482.38 533.374 482.054 534.832 481.518 536.214L481.58 535.799C482.605 540.991 483.754 546.162 484.698 551.367L484.858 552.25L484.046 552.707L474.581 558.037C471.434 559.829 468.255 561.558 465.069 563.276L464.314 563.684L463.592 563.258L458.106 560.021C456.273 558.949 454.47 557.824 452.651 556.728L451.913 556.284L451.983 555.48C452.436 550.272 452.934 545.065 453.539 539.866L454.189 540.598C452.885 540.461 451.614 540.245 450.338 539.98C449.703 539.84 449.069 539.682 448.443 539.485C447.799 539.297 447.194 538.992 446.656 538.584L446.833 538.353C447.383 538.634 447.976 538.815 448.587 538.89C449.205 538.996 449.832 539.064 450.46 539.115C451.717 539.208 452.995 539.229 454.244 539.216L454.896 539.209L454.895 539.948C454.886 545.184 454.77 550.414 454.609 555.641L453.941 554.393C455.805 555.407 457.686 556.392 459.537 557.43L465.103 560.522L463.625 560.503C466.81 558.783 470 557.075 473.223 555.428L482.868 550.444L482.216 551.783C481.471 546.545 480.932 541.271 480.269 536.019L480.239 535.782L480.331 535.604C480.912 534.395 481.293 533.096 481.457 531.76C481.647 530.378 481.757 528.985 481.786 527.59C481.839 524.774 481.744 521.957 481.501 519.152C481.4 517.747 481.275 516.325 481.134 514.927C480.894 513.591 480.553 512.277 480.113 510.995C479.244 508.35 478.208 505.737 477.261 503.098C475.334 497.828 473.464 492.519 471.598 487.203C469.757 481.877 467.915 476.547 466.295 471.118L466.561 471.006Z" fill="#37474F"/>
<path d="M458.372 249.352C458.23 249.881 458.062 250.402 457.868 250.914L457.35 252.386L456.31 255.329L454.21 261.207L449.928 272.933C446.99 280.72 443.991 288.484 440.823 296.185C440.037 298.113 439.233 300.033 438.388 301.938C437.57 303.853 436.698 305.747 435.825 307.642C434.15 311.507 432.081 315.182 429.652 318.608C427.151 321.976 424.408 325.093 421.661 328.199C418.908 331.299 416.09 334.328 413.27 337.35C407.648 343.403 402.01 349.45 396.872 355.87C395.609 357.489 394.376 359.133 393.272 360.849C392.135 362.495 391.265 364.316 390.698 366.244L390.564 366.943C390.543 367.173 390.559 367.395 390.55 367.621C390.543 368.077 390.603 368.671 390.625 369.188C390.659 369.721 390.663 370.255 390.637 370.788C390.623 371.319 390.626 371.853 390.567 372.378C390.402 374.479 390.106 376.568 389.681 378.631C388.81 382.722 387.731 386.765 386.45 390.742C385.841 392.734 385.187 394.716 384.605 396.698C384.082 398.677 383.942 400.74 384.195 402.772C384.523 406.908 384.975 411.081 384.984 415.268C384.987 416.315 385.004 417.356 384.935 418.418C384.925 419.521 384.649 420.604 384.131 421.572C383.956 421.838 383.712 422.05 383.427 422.184C383.129 422.305 382.801 422.33 382.488 422.256C381.944 422.108 381.441 421.834 381.017 421.456C380.212 420.761 379.498 419.963 378.893 419.082L379.481 418.96C379.285 420.081 378.931 421.167 378.43 422.185C378.161 422.72 377.785 423.192 377.327 423.57C376.834 423.964 376.219 424.165 375.593 424.137C374.434 423.987 373.352 423.464 372.506 422.643C371.661 421.904 370.896 421.075 370.225 420.169L370.873 420.089C370.666 420.637 370.402 421.161 370.085 421.651C369.759 422.195 369.285 422.631 368.721 422.906C368.417 423.029 368.091 423.09 367.764 423.083C367.436 423.077 367.113 423.004 366.814 422.869C366.267 422.625 365.765 422.289 365.329 421.874C364.504 421.084 363.775 420.197 363.156 419.232C362.533 418.288 361.968 417.305 361.465 416.289L362.292 416.345C361.998 416.822 361.654 417.264 361.265 417.663C361.046 417.885 360.794 418.071 360.518 418.214C360.181 418.384 359.797 418.427 359.432 418.338C359.126 418.224 358.846 418.048 358.607 417.822C358.369 417.595 358.178 417.322 358.046 417.019C357.79 416.526 357.582 416.008 357.425 415.474C356.862 413.422 356.478 411.324 356.278 409.203C355.832 405.005 355.608 400.825 355.53 396.606C355.5 394.487 355.576 392.369 355.758 390.258C355.923 388.11 356.34 385.991 356.999 383.944C357.726 381.918 358.694 379.991 359.881 378.205C361 376.482 362.015 374.692 362.921 372.844C366.447 365.347 369.706 357.629 372.979 349.964C376.229 342.277 379.442 334.571 382.556 326.833L384.873 321.031L387.087 315.157C388.686 311.267 390.349 307.44 392.031 303.614C395.399 295.968 398.784 288.334 402.242 280.735C409.18 265.546 416.105 250.354 423.196 235.24L423.55 234.485L424.138 235.08C426.381 237.294 428.855 239.251 431.517 240.915C434.177 242.62 436.98 244.081 439.893 245.283C442.807 246.503 445.825 247.447 448.91 248.103C450.443 248.489 452.011 248.673 453.573 248.909C455.141 249.126 456.811 249.196 458.372 249.352ZM458.214 249.462C456.618 249.384 455.112 249.427 453.538 249.242C451.962 249.051 450.375 248.911 448.819 248.568C445.682 247.996 442.604 247.131 439.623 245.984C436.627 244.857 433.742 243.441 431.01 241.755C428.237 240.097 425.652 238.132 423.304 235.896L424.245 235.736L403.941 281.524L393.833 304.43C392.165 308.252 390.51 312.087 388.944 315.926L386.753 321.784L384.439 327.623C381.277 335.367 378.002 343.051 374.699 350.726C371.353 358.39 368.094 366.056 364.423 373.62C363.465 375.505 362.396 377.329 361.222 379.083C360.074 380.749 359.132 382.552 358.417 384.452C357.254 388.389 356.725 392.491 356.85 396.6C356.867 400.753 357.031 404.947 357.41 409.08C357.574 411.132 357.914 413.166 358.426 415.158C358.555 415.629 358.729 416.087 358.946 416.524C359.152 416.932 359.445 417.302 359.689 417.355C359.906 417.438 360.269 417.266 360.597 416.941C360.936 416.6 361.237 416.223 361.496 415.815L361.963 415.114L362.323 415.872C362.792 416.855 363.32 417.808 363.905 418.725C364.47 419.639 365.139 420.481 365.898 421.235C366.639 421.944 367.599 422.509 368.411 422.159C369.258 421.615 369.886 420.781 370.182 419.808L370.442 419.189L370.83 419.728C371.45 420.596 372.166 421.389 372.963 422.092C373.69 422.812 374.62 423.282 375.623 423.435C376.104 423.42 376.569 423.262 376.963 422.981C377.357 422.701 377.663 422.31 377.842 421.856C378.316 420.9 378.652 419.88 378.842 418.827L378.999 418.093L379.43 418.705C379.996 419.538 380.663 420.293 381.417 420.953C382.144 421.593 383.155 422.03 383.629 421.207C384.082 420.332 384.324 419.361 384.338 418.373C384.41 417.355 384.4 416.309 384.403 415.273C384.39 411.114 383.891 406.99 383.534 402.822C383.26 400.708 383.392 398.561 383.922 396.499C384.498 394.483 385.133 392.507 385.726 390.514C386.935 386.547 387.933 382.517 388.714 378.44C389.091 376.414 389.342 374.366 389.464 372.308C389.513 371.795 389.499 371.285 389.503 370.775C389.518 370.267 389.505 369.758 389.462 369.251C389.428 368.728 389.372 368.283 389.358 367.698C389.358 367.404 389.339 367.102 389.362 366.814L389.504 365.975C390.064 363.888 390.955 361.909 392.144 360.115C393.251 358.321 394.476 356.625 395.728 354.955C398.25 351.632 400.938 348.463 403.696 345.368C406.446 342.267 409.243 339.216 412.042 336.172C417.584 330.047 423.394 324.132 428.383 317.627C430.772 314.304 432.813 310.735 434.471 306.979C436.25 303.243 437.904 299.437 439.557 295.63C442.852 288.01 445.987 280.31 449.06 272.586L453.679 260.999L455.954 255.191L457.082 252.284L457.644 250.829C457.806 250.361 457.996 249.905 458.214 249.462Z" fill="#37474F"/>
<path d="M373.867 395.919L379.629 418.781L378.695 419.004L373.867 395.919Z" fill="#37474F"/>
<path d="M366.961 395.919L371.003 419.875L370.055 420.021L366.961 395.919Z" fill="#37474F"/>
<path d="M360.859 395.919L362.375 416.054L361.417 416.105L360.859 395.919Z" fill="#37474F"/>
<path d="M528.817 597.054C528.771 597.054 528.724 597.054 528.677 597.053C527.151 597.016 525.702 596.363 524.649 595.238C523.596 594.113 523.024 592.608 523.06 591.054L527.434 404.688C527.44 404.45 527.46 404.212 527.495 403.976L545.37 280.113C545.598 278.581 546.413 277.203 547.636 276.281C548.86 275.359 550.392 274.968 551.898 275.193C553.404 275.419 554.761 276.242 555.672 277.484C556.583 278.726 556.973 280.284 556.759 281.818L538.935 405.326L534.57 591.334C534.533 592.863 533.912 594.317 532.837 595.386C531.762 596.455 530.32 597.054 528.817 597.054Z" fill="#37474F"/>
<path d="M607.323 378.573L605.941 388.419C592.588 405.297 540.324 416.081 540.324 416.081H525.599L398.242 385.372L402.193 374.039C402.193 374.039 488.982 402.015 539.403 397.092C562.887 394.797 576.337 382.207 583.992 369.411H584.002C609.021 372.429 607.323 378.573 607.323 378.573Z" fill="#37474F"/>
<path d="M485.304 508.036C485.214 508.036 485.123 508.034 485.032 508.03C483.507 507.958 482.073 507.272 481.045 506.123C480.016 504.974 479.478 503.457 479.549 501.904L484.022 403.927C484.095 402.376 484.769 400.917 485.897 399.871C487.025 398.826 488.515 398.279 490.039 398.351C491.563 398.423 492.996 399.108 494.025 400.256C495.053 401.403 495.592 402.919 495.522 404.471L491.049 502.448C490.981 503.952 490.345 505.372 489.275 506.413C488.206 507.454 486.783 508.035 485.304 508.036Z" fill="#37474F"/>
<path d="M402.849 281.833C385.422 283.688 367.891 284.548 350.361 284.753C332.831 284.855 315.276 284.518 297.789 283.027C289.049 282.267 280.332 281.284 271.638 280.078C267.293 279.472 262.959 278.793 258.636 278.042C254.31 277.315 249.992 276.529 245.697 275.627C241.399 274.732 237.135 273.679 232.891 272.537C228.629 271.419 224.446 270.01 220.37 268.32C218.319 267.457 216.34 266.429 214.45 265.244C212.446 264.09 210.76 262.441 209.548 260.448C208.948 259.343 208.72 258.068 208.9 256.818C209.122 255.601 209.643 254.461 210.415 253.505C211.904 251.738 213.696 250.261 215.704 249.146C219.589 246.953 223.684 245.169 227.926 243.822C232.118 242.408 236.38 241.255 240.667 240.242C249.242 238.215 257.908 236.68 266.609 235.463C284.01 233.012 301.524 231.571 319.056 230.878C336.591 230.205 354.142 230.31 371.664 231.003C389.184 231.754 406.681 233.148 424.041 235.643L424.02 235.642L424.059 235.643V235.936L424.02 235.937L424.017 235.937L424 235.936C406.563 234.403 389.079 233.579 371.6 233.294C354.12 232.971 336.634 233.246 319.179 234.001C301.728 234.769 284.283 235.96 266.966 238.195C258.314 239.335 249.685 240.679 241.164 242.51C236.908 243.441 232.676 244.48 228.514 245.729C224.354 246.913 220.323 248.525 216.484 250.54C214.613 251.513 212.929 252.821 211.513 254.401C210.866 255.154 210.415 256.061 210.204 257.039C210.042 258.008 210.199 259.005 210.651 259.875C211.723 261.707 213.229 263.236 215.031 264.324C216.861 265.494 218.779 266.514 220.768 267.372C228.871 270.677 237.292 273.11 245.892 274.632C250.183 275.466 254.49 276.223 258.817 276.851C263.146 277.459 267.484 277.995 271.831 278.458C280.523 279.391 289.239 280.069 297.962 280.594C332.875 282.828 367.881 283.144 402.828 281.541L402.849 281.833Z" fill="#37474F"/>
<path d="M448.28 276.601L448.109 275.641C455.467 274.348 462.745 272.624 469.908 270.477L470.187 271.411C462.989 273.57 455.674 275.302 448.28 276.601Z" fill="#37474F"/>
<path d="M293.688 216.353C293.753 215.838 294.306 215.602 294.706 215.401C295.143 215.205 295.592 215.039 296.051 214.904C296.968 214.662 297.898 214.471 298.835 214.332C302.58 213.798 306.38 213.797 310.125 214.329C311.063 214.47 311.992 214.661 312.909 214.902C313.368 215.037 313.817 215.204 314.254 215.4C314.654 215.601 315.207 215.838 315.272 216.353C315.107 215.891 314.579 215.788 314.166 215.643C313.72 215.521 313.267 215.43 312.81 215.37C311.894 215.225 310.972 215.127 310.046 215.076C308.195 214.959 306.339 214.903 304.48 214.907C302.623 214.903 300.768 214.959 298.914 215.075C297.988 215.132 297.063 215.219 296.15 215.369C295.693 215.429 295.24 215.521 294.794 215.642C294.381 215.788 293.852 215.891 293.688 216.353Z" fill="#37474F"/>
<path d="M315.272 216.353V258.724C308.261 261.069 300.698 261.069 293.688 258.724V216.353C293.688 217.417 298.522 218.287 304.48 218.287C310.447 218.287 315.272 217.417 315.272 216.353Z" fill="#37474F"/>
<path d="M319.242 205.979C319.308 205.464 319.86 205.228 320.261 205.027C320.698 204.831 321.147 204.665 321.606 204.53C322.523 204.288 323.452 204.097 324.39 203.957C328.135 203.424 331.934 203.423 335.68 203.955C336.617 204.096 337.547 204.287 338.464 204.528C338.923 204.663 339.372 204.83 339.809 205.026C340.209 205.227 340.762 205.463 340.827 205.979C340.662 205.517 340.133 205.414 339.72 205.269C339.275 205.147 338.822 205.056 338.364 204.996C337.448 204.851 336.526 204.753 335.601 204.702C333.749 204.585 331.894 204.529 330.035 204.533C328.177 204.529 326.322 204.585 324.468 204.701C323.543 204.758 322.617 204.845 321.705 204.995C321.247 205.055 320.794 205.147 320.349 205.268C319.936 205.414 319.407 205.517 319.242 205.979Z" fill="#37474F"/>
<path d="M340.827 205.979V248.35C333.816 250.695 326.253 250.695 319.242 248.35V205.979C319.242 207.043 324.077 207.912 330.034 207.912C336.001 207.912 340.827 207.043 340.827 205.979Z" fill="#37474F"/>
<path d="M346.582 284.694H335.07V473.143H346.582V284.694Z" fill="#37474F"/>
<path d="M291.442 542.981C290.643 542.98 289.856 542.776 289.153 542.387C288.45 541.997 287.855 541.435 287.42 540.752C286.985 540.068 286.725 539.285 286.663 538.473C286.601 537.661 286.74 536.846 287.066 536.103C288.051 533.861 311.498 481.022 338.444 465.291C338.991 464.972 339.594 464.766 340.218 464.684C340.843 464.603 341.478 464.647 342.086 464.815C342.694 464.983 343.263 465.271 343.762 465.663C344.261 466.055 344.679 466.543 344.992 467.1C345.305 467.656 345.508 468.27 345.588 468.906C345.668 469.542 345.625 470.188 345.46 470.807C345.295 471.426 345.012 472.006 344.627 472.514C344.242 473.022 343.763 473.447 343.216 473.766C318.977 487.915 296.052 539.572 295.822 540.092C295.444 540.953 294.829 541.683 294.052 542.196C293.275 542.709 292.368 542.981 291.442 542.981Z" fill="#37474F"/>
<path d="M306.642 574.276C306.335 574.276 306.028 574.246 305.725 574.186C305.107 574.064 304.518 573.82 303.993 573.466C303.467 573.113 303.015 572.657 302.662 572.126C302.309 571.594 302.063 570.997 301.937 570.369C301.811 569.741 301.808 569.093 301.927 568.463C302.528 565.301 316.871 490.693 336.981 463.241C337.743 462.205 338.877 461.52 340.134 461.334C341.392 461.149 342.67 461.48 343.688 462.253C344.707 463.027 345.382 464.18 345.566 465.46C345.75 466.74 345.428 468.042 344.671 469.08C325.859 494.76 311.489 569.566 311.346 570.319C311.135 571.432 310.55 572.435 309.692 573.157C308.833 573.879 307.755 574.275 306.642 574.276Z" fill="#37474F"/>
<path d="M372.872 529.07C371.818 529.069 370.795 528.715 369.959 528.062C369.123 527.41 368.52 526.496 368.245 525.461C368.145 525.086 358.01 487.789 336.182 470.108C335.186 469.302 334.546 468.126 334.402 466.839C334.258 465.552 334.622 464.26 335.414 463.246C336.206 462.232 337.361 461.58 338.625 461.434C339.889 461.287 341.158 461.658 342.153 462.464C366.473 482.162 377.067 521.256 377.506 522.911C377.698 523.635 377.723 524.395 377.58 525.131C377.437 525.867 377.13 526.559 376.682 527.155C376.233 527.75 375.657 528.233 374.996 528.565C374.335 528.897 373.609 529.07 372.872 529.07Z" fill="#37474F"/>
<path d="M358.165 575.144C356.927 575.142 355.736 574.654 354.844 573.779C353.951 572.905 353.425 571.713 353.376 570.453C353.346 569.687 350.217 493.516 335.433 465.255C335.136 464.689 334.951 464.069 334.89 463.43C334.829 462.791 334.891 462.147 335.075 461.533C335.258 460.919 335.559 460.347 335.959 459.852C336.36 459.356 336.852 458.946 337.409 458.644C337.965 458.342 338.574 458.155 339.202 458.093C339.829 458.031 340.462 458.096 341.065 458.283C341.668 458.471 342.229 458.778 342.715 459.186C343.201 459.594 343.604 460.096 343.9 460.663C359.712 490.89 362.836 566.848 362.961 570.066C362.986 570.707 362.887 571.347 362.669 571.948C362.451 572.55 362.119 573.102 361.692 573.574C361.265 574.045 360.75 574.425 360.178 574.694C359.606 574.963 358.988 575.114 358.358 575.139C358.294 575.142 358.229 575.144 358.165 575.144Z" fill="#37474F"/>
<path d="M571.487 241.057C574.674 241.057 574.68 236.013 571.487 236.013C568.299 236.013 568.294 241.057 571.487 241.057Z" fill="#37474F"/>
<path d="M578.674 262.383C581.862 262.383 581.867 257.339 578.674 257.339C575.486 257.339 575.481 262.383 578.674 262.383Z" fill="#37474F"/>
<path d="M585.662 284.739C588.85 284.739 588.855 279.694 585.662 279.694C582.475 279.694 582.469 284.739 585.662 284.739Z" fill="#37474F"/>
<path d="M553.971 209.012C557.159 209.012 557.164 203.968 553.971 203.968C550.783 203.968 550.778 209.012 553.971 209.012Z" fill="#37474F"/>
<path d="M547.697 222.923C550.885 222.923 550.89 217.879 547.697 217.879C544.51 217.879 544.504 222.923 547.697 222.923Z" fill="#37474F"/>
<path d="M543.69 238.146C546.877 238.146 546.883 233.102 543.69 233.102C540.502 233.102 540.497 238.146 543.69 238.146Z" fill="#37474F"/>
<path d="M558.639 242.227C561.827 242.227 561.832 237.183 558.639 237.183C555.451 237.183 555.446 242.227 558.639 242.227Z" fill="#37474F"/>
<path d="M552.065 267.406C555.252 267.406 555.258 262.361 552.065 262.361C548.877 262.361 548.872 267.406 552.065 267.406Z" fill="#37474F"/>
<path d="M565.045 273.013C568.233 273.013 568.238 267.969 565.045 267.969C561.857 267.969 561.852 273.013 565.045 273.013Z" fill="#37474F"/>
<path d="M566.787 256.479C569.975 256.479 569.98 251.435 566.787 251.435C563.6 251.435 563.594 256.479 566.787 256.479Z" fill="#37474F"/>
<path d="M562.604 225.072C565.791 225.072 565.797 220.028 562.604 220.028C559.416 220.028 559.411 225.072 562.604 225.072Z" fill="#37474F"/>
<path d="M538.197 256.702C541.385 256.702 541.39 251.658 538.197 251.658C535.01 251.658 535.004 256.702 538.197 256.702Z" fill="#37474F"/>
<path d="M543.651 280.458C546.838 280.458 546.844 275.414 543.651 275.414C540.463 275.414 540.458 280.458 543.651 280.458Z" fill="#37474F"/>
<path d="M568.358 295.91C571.545 295.91 571.551 290.866 568.358 290.866C565.17 290.866 565.165 295.91 568.358 295.91Z" fill="#37474F"/>
<path d="M581.944 303.779C585.131 303.779 585.137 298.734 581.944 298.734C578.756 298.734 578.751 303.779 581.944 303.779Z" fill="#37474F"/>
<path d="M527.881 269.8C531.069 269.8 531.074 264.756 527.881 264.756C524.693 264.756 524.688 269.8 527.881 269.8Z" fill="#37474F"/>
<path d="M535.869 203.866C539.057 203.866 539.062 198.822 535.869 198.822C532.682 198.822 532.676 203.866 535.869 203.866Z" fill="#37474F"/>
<path d="M528.221 216.218C531.409 216.218 531.414 211.174 528.221 211.174C525.033 211.174 525.028 216.218 528.221 216.218Z" fill="#37474F"/>
<path d="M522.756 231.363C525.944 231.363 525.949 226.318 522.756 226.318C519.568 226.318 519.563 231.363 522.756 231.363Z" fill="#37474F"/>
<path d="M517.83 250.246C521.018 250.246 521.023 245.202 517.83 245.202C514.643 245.202 514.637 250.246 517.83 250.246Z" fill="#37474F"/>
<path d="M483.565 256.479C486.752 256.479 486.758 251.435 483.565 251.435C480.377 251.435 480.372 256.479 483.565 256.479Z" fill="#37474F"/>
<path d="M510.889 274.07C514.077 274.07 514.082 269.025 510.889 269.025C507.701 269.025 507.696 274.07 510.889 274.07Z" fill="#37474F"/>
<path d="M523.475 287.079C526.663 287.079 526.668 282.035 523.475 282.035C520.287 282.035 520.282 287.079 523.475 287.079Z" fill="#37474F"/>
<path d="M560.444 316.116C563.631 316.116 563.637 311.072 560.444 311.072C557.256 311.072 557.251 316.116 560.444 316.116Z" fill="#37474F"/>
<path d="M531.182 243.106C534.37 243.106 534.375 238.062 531.182 238.062C527.994 238.062 527.989 243.106 531.182 243.106Z" fill="#37474F"/>
<path d="M501.897 261.999C505.084 261.999 505.09 256.955 501.897 256.955C498.709 256.955 498.704 261.999 501.897 261.999Z" fill="#37474F"/>
<path d="M525.6 329.411C528.788 329.411 528.793 324.367 525.6 324.367C522.412 324.367 522.407 329.411 525.6 329.411Z" fill="#37474F"/>
<path d="M505.287 239.17C508.475 239.17 508.48 234.126 505.287 234.126C502.1 234.126 502.094 239.17 505.287 239.17Z" fill="#37474F"/>
<path d="M512.268 217.28C515.456 217.28 515.461 212.235 512.268 212.235C509.08 212.235 509.075 217.28 512.268 217.28Z" fill="#37474F"/>
<path d="M493.99 223.855C497.178 223.855 497.183 218.811 493.99 218.811C490.803 218.811 490.797 223.855 493.99 223.855Z" fill="#37474F"/>
<path d="M486.994 240.4C490.182 240.4 490.187 235.355 486.994 235.355C483.807 235.355 483.801 240.4 486.994 240.4Z" fill="#37474F"/>
<path d="M514.17 300.379C517.358 300.379 517.363 295.335 514.17 295.335C510.982 295.335 510.977 300.379 514.17 300.379Z" fill="#37474F"/>
<path d="M528.131 314.948C531.319 314.948 531.324 309.904 528.131 309.904C524.943 309.904 524.938 314.948 528.131 314.948Z" fill="#37474F"/>
<path d="M543.69 322.557C546.877 322.557 546.883 317.513 543.69 317.513C540.502 317.513 540.497 322.557 543.69 322.557Z" fill="#37474F"/>
<path d="M551.065 303.779C554.252 303.779 554.258 298.734 551.065 298.734C547.877 298.734 547.872 303.779 551.065 303.779Z" fill="#37474F"/>
<path d="M535.869 298.503C539.057 298.503 539.062 293.459 535.869 293.459C532.682 293.459 532.676 298.503 535.869 298.503Z" fill="#37474F"/>
<path d="M547.608 191.425C550.795 191.425 550.801 186.381 547.608 186.381C544.42 186.381 544.415 191.425 547.608 191.425Z" fill="#37474F"/>
<path d="M526.983 179.699C530.17 179.699 530.176 174.655 526.983 174.655C523.795 174.655 523.79 179.699 526.983 179.699Z" fill="#37474F"/>
<path d="M536.971 186.628C540.159 186.628 540.164 181.584 536.971 181.584C533.783 181.584 533.778 186.628 536.971 186.628Z" fill="#37474F"/>
<path d="M485.412 193.766C488.6 193.766 488.605 188.722 485.412 188.722C482.225 188.722 482.219 193.766 485.412 193.766Z" fill="#37474F"/>
<path d="M498.401 204.718C501.588 204.718 501.594 199.674 498.401 199.674C495.213 199.674 495.208 204.718 498.401 204.718Z" fill="#37474F"/>
<path d="M580.369 322.557C583.557 322.557 583.562 317.513 580.369 317.513C577.182 317.513 577.176 322.557 580.369 322.557Z" fill="#37474F"/>
<path d="M578.197 337.984C581.385 337.984 581.39 332.939 578.197 332.939C575.01 332.939 575.004 337.984 578.197 337.984Z" fill="#37474F"/>
<path d="M538.283 342.882C541.471 342.882 541.476 337.838 538.283 337.838C535.096 337.838 535.09 342.882 538.283 342.882Z" fill="#37474F"/>
<path d="M558.639 336.115C561.827 336.115 561.832 331.071 558.639 331.071C555.451 331.071 555.446 336.115 558.639 336.115Z" fill="#37474F"/>
<path d="M592.01 328.676C595.198 328.676 595.203 323.632 592.01 323.632C588.822 323.632 588.817 328.676 592.01 328.676Z" fill="#37474F"/>
<path d="M463.19 171.695C466.377 171.695 466.383 166.65 463.19 166.65C460.002 166.65 459.997 171.695 463.19 171.695Z" fill="#37474F"/>
<path d="M470.928 182.657C474.116 182.657 474.121 177.613 470.928 177.613C467.74 177.613 467.735 182.657 470.928 182.657Z" fill="#37474F"/>
<path d="M474.608 206.912C477.795 206.912 477.801 201.868 474.608 201.868C471.42 201.868 471.415 206.912 474.608 206.912Z" fill="#37474F"/>
<path d="M458.85 201.598C462.038 201.598 462.043 196.554 458.85 196.554C455.662 196.554 455.657 201.598 458.85 201.598Z" fill="#37474F"/>
<path d="M451.346 186.194C454.534 186.194 454.539 181.149 451.346 181.149C448.158 181.149 448.153 186.194 451.346 186.194Z" fill="#37474F"/>
<path d="M438.213 202.997C441.401 202.997 441.406 197.953 438.213 197.953C435.025 197.953 435.02 202.997 438.213 202.997Z" fill="#37474F"/>
<path d="M427.744 219.056C430.932 219.056 430.937 214.012 427.744 214.012C424.557 214.012 424.551 219.056 427.744 219.056Z" fill="#37474F"/>
<path d="M448.99 219.916C452.178 219.916 452.183 214.872 448.99 214.872C445.803 214.872 445.797 219.916 448.99 219.916Z" fill="#37474F"/>
<path d="M471.721 225.072C474.909 225.072 474.914 220.028 471.721 220.028C468.533 220.028 468.528 225.072 471.721 225.072Z" fill="#37474F"/>
<path d="M462.912 245.006C466.1 245.006 466.105 239.962 462.912 239.962C459.725 239.962 459.719 245.006 462.912 245.006Z" fill="#37474F"/>
<path d="M449.264 236.859C452.452 236.859 452.457 231.814 449.264 231.814C446.076 231.814 446.071 236.859 449.264 236.859Z" fill="#37474F"/>
<path d="M430.533 234.346C433.721 234.346 433.726 229.302 430.533 229.302C427.346 229.302 427.34 234.346 430.533 234.346Z" fill="#37474F"/>
<path d="M478.92 273.013C482.108 273.013 482.113 267.969 478.92 267.969C475.732 267.969 475.727 273.013 478.92 273.013Z" fill="#37474F"/>
<path d="M492.487 280.193C495.674 280.193 495.68 275.148 492.487 275.148C489.299 275.148 489.294 280.193 492.487 280.193Z" fill="#37474F"/>
<path d="M490.971 311.735C494.159 311.735 494.164 306.69 490.971 306.69C487.783 306.69 487.778 311.735 490.971 311.735Z" fill="#37474F"/>
<path d="M501.151 292.84C504.338 292.84 504.344 287.796 501.151 287.796C497.963 287.796 497.958 292.84 501.151 292.84Z" fill="#37474F"/>
<path d="M509.596 315.275C512.784 315.275 512.789 310.23 509.596 310.23C506.408 310.23 506.403 315.275 509.596 315.275Z" fill="#37474F"/>
<path d="M493.834 329.411C497.022 329.411 497.027 324.367 493.834 324.367C490.646 324.367 490.641 329.411 493.834 329.411Z" fill="#37474F"/>
<path d="M513.315 336.115C516.502 336.115 516.508 331.071 513.315 331.071C510.127 331.071 510.122 336.115 513.315 336.115Z" fill="#37474F"/>
<path d="M387.412 526.33C387.366 526.318 387.308 526.318 387.262 526.306L387.331 525.655V525.643C387.354 525.548 387.377 525.442 387.4 525.347C387.412 525.678 387.412 525.998 387.412 526.33Z" fill="white"/>
<path d="M373.582 546.788L373.57 546.846V546.788H373.582Z" fill="white"/>
</svg>
