<svg width="80" height="80" viewBox="0 0 80 80" fill="none" xmlns="http://www.w3.org/2000/svg">
<path d="M40 0C29.7455 0.0292488 19.894 3.99565 12.48 11.08V4C12.48 2.93913 12.0586 1.92172 11.3084 1.17157C10.5583 0.421427 9.54086 0 8.48 0C7.41913 0 6.40172 0.421427 5.65157 1.17157C4.90143 1.92172 4.48 2.93913 4.48 4V22C4.48 23.0609 4.90143 24.0783 5.65157 24.8284C6.40172 25.5786 7.41913 26 8.48 26H26.48C27.5409 26 28.5583 25.5786 29.3084 24.8284C30.0586 24.0783 30.48 23.0609 30.48 22C30.48 20.9391 30.0586 19.9217 29.3084 19.1716C28.5583 18.4214 27.5409 18 26.48 18H16.88C22.0231 12.6254 28.878 9.21062 36.2661 8.34268C43.6542 7.47473 51.1139 9.2079 57.3626 13.2442C63.6113 17.2805 68.2585 23.3676 70.5053 30.4592C72.7521 37.5507 72.458 45.2034 69.6736 52.1016C66.8893 58.9997 61.7886 64.7124 55.2486 68.2572C48.7086 71.8021 41.1379 72.9576 33.8382 71.5253C26.5385 70.093 19.9659 66.1622 15.2504 60.4088C10.5349 54.6554 7.97114 47.4389 8 40C8 38.9391 7.57857 37.9217 6.82843 37.1716C6.07828 36.4214 5.06086 36 4 36C2.93913 36 1.92172 36.4214 1.17157 37.1716C0.421427 37.9217 0 38.9391 0 40C0 47.9112 2.34596 55.6448 6.74121 62.2228C11.1365 68.8008 17.3836 73.9277 24.6927 76.9552C32.0017 79.9827 40.0444 80.7748 47.8036 79.2314C55.5628 77.688 62.6902 73.8783 68.2843 68.2843C73.8783 62.6902 77.688 55.5628 79.2314 47.8036C80.7748 40.0444 79.9827 32.0017 76.9552 24.6927C73.9277 17.3836 68.8008 11.1365 62.2228 6.74121C55.6448 2.34596 47.9112 0 40 0ZM40 24C38.9391 24 37.9217 24.4214 37.1716 25.1716C36.4214 25.9217 36 26.9391 36 28V40C36 41.0609 36.4214 42.0783 37.1716 42.8284C37.9217 43.5786 38.9391 44 40 44H48C49.0609 44 50.0783 43.5786 50.8284 42.8284C51.5786 42.0783 52 41.0609 52 40C52 38.9391 51.5786 37.9217 50.8284 37.1716C50.0783 36.4214 49.0609 36 48 36H44V28C44 26.9391 43.5786 25.9217 42.8284 25.1716C42.0783 24.4214 41.0609 24 40 24Z" fill="black"/>
</svg>
