<svg width="32" height="32" viewBox="0 0 32 32" fill="none" xmlns="http://www.w3.org/2000/svg">
<path d="M16.0002 7.99992V5.33325M16.0002 7.99992C14.5274 7.99992 13.3335 9.19383 13.3335 10.6666C13.3335 12.1393 14.5274 13.3333 16.0002 13.3333M16.0002 7.99992C17.4729 7.99992 18.6668 9.19383 18.6668 10.6666C18.6668 12.1393 17.4729 13.3333 16.0002 13.3333M8.00016 23.9999C9.47292 23.9999 10.6668 22.806 10.6668 21.3333C10.6668 19.8605 9.47292 18.6666 8.00016 18.6666M8.00016 23.9999C6.5274 23.9999 5.3335 22.806 5.3335 21.3333C5.3335 19.8605 6.5274 18.6666 8.00016 18.6666M8.00016 23.9999V26.6666M8.00016 18.6666V5.33325M16.0002 13.3333V26.6666M24.0002 23.9999C25.4729 23.9999 26.6668 22.806 26.6668 21.3333C26.6668 19.8605 25.4729 18.6666 24.0002 18.6666M24.0002 23.9999C22.5274 23.9999 21.3335 22.806 21.3335 21.3333C21.3335 19.8605 22.5274 18.6666 24.0002 18.6666M24.0002 23.9999V26.6666M24.0002 18.6666V5.33325" stroke="white" stroke-width="2" stroke-linecap="round" stroke-linejoin="round"/>
</svg>
