<svg width="45" height="45" viewBox="0 0 45 45" fill="none" xmlns="http://www.w3.org/2000/svg">
<circle cx="22.5014" cy="22.5005" r="17.7632" fill="white"/>
<path d="M4.21875 22.5C4.21875 32.596 12.404 40.7813 22.5 40.7813C32.596 40.7813 40.7813 32.596 40.7813 22.5C40.7813 12.404 32.596 4.21875 22.5 4.21875C12.404 4.21875 4.21875 12.404 4.21875 22.5ZM22.9087 14.4703C23.0398 14.6004 23.1441 14.755 23.2154 14.9254C23.2868 15.0957 23.3239 15.2785 23.3246 15.4632C23.3254 15.6479 23.2897 15.8309 23.2197 16.0018C23.1497 16.1727 23.0467 16.3282 22.9166 16.4593L18.3182 21.0938H30.0586C30.4316 21.0938 30.7892 21.2419 31.053 21.5056C31.3167 21.7694 31.4648 22.127 31.4648 22.5C31.4648 22.873 31.3167 23.2306 31.053 23.4944C30.7892 23.7581 30.4316 23.9063 30.0586 23.9063H18.3182L22.9166 28.5407C23.0467 28.672 23.1496 28.8275 23.2196 28.9985C23.2895 29.1696 23.3251 29.3527 23.3243 29.5375C23.3235 29.7222 23.2863 29.905 23.2148 30.0754C23.1434 30.2458 23.039 30.4005 22.9078 30.5306C22.7766 30.6606 22.621 30.7636 22.45 30.8336C22.279 30.9035 22.0958 30.9391 21.9111 30.9383C21.7263 30.9375 21.5435 30.9003 21.3731 30.8288C21.2027 30.7573 21.048 30.653 20.918 30.5218L13.9403 23.4905C13.679 23.2271 13.5323 22.8711 13.5323 22.5C13.5323 22.1289 13.679 21.7729 13.9403 21.5095L20.918 14.4782C21.0481 14.3468 21.2028 14.2424 21.3733 14.1708C21.5438 14.0993 21.7268 14.0621 21.9117 14.0614C22.0966 14.0607 22.2798 14.0964 22.4509 14.1666C22.622 14.2367 22.7776 14.34 22.9087 14.4703Z" fill="#E19C5B"/>
</svg>
