<svg width="22" height="22" viewBox="0 0 22 22" fill="none" xmlns="http://www.w3.org/2000/svg">
<path d="M10.9989 11.7692C14.0672 11.7692 16.5545 9.35846 16.5545 6.38462C16.5545 3.41077 14.0672 1 10.9989 1C7.93067 1 5.44336 3.41077 5.44336 6.38462C5.44336 9.35846 7.93067 11.7692 10.9989 11.7692Z" stroke="white" stroke-width="2" stroke-linecap="round" stroke-linejoin="round"/>
<path d="M5.57443 10.231L1 17.5838L5.15405 17.5659C5.28715 17.5653 5.41812 17.5957 5.53403 17.6541C5.64994 17.7125 5.74678 17.7969 5.81499 17.899L7.88676 21.0002L12.1111 12.7018" stroke="white" stroke-width="2" stroke-linecap="round" stroke-linejoin="round"/>
<path d="M16.4887 10.231L21.0007 17.6348L16.9794 17.6171C16.8506 17.6165 16.7238 17.6465 16.6116 17.704C16.4994 17.7616 16.4056 17.8447 16.3396 17.9453L14.3341 21.0002L11.3711 15.0771" stroke="white" stroke-width="2" stroke-linecap="round" stroke-linejoin="round"/>
<path d="M11.0001 9.46195C12.841 9.46195 14.3334 8.08437 14.3334 6.38503C14.3334 4.68569 12.841 3.30811 11.0001 3.30811C9.15913 3.30811 7.66675 4.68569 7.66675 6.38503C7.66675 8.08437 9.15913 9.46195 11.0001 9.46195Z" stroke="white" stroke-width="2" stroke-linecap="round" stroke-linejoin="round"/>
</svg>
