<svg width="26" height="26" viewBox="0 0 26 26" fill="none" xmlns="http://www.w3.org/2000/svg">
<path d="M12.9987 13.9231C16.6806 13.9231 19.6654 11.0301 19.6654 7.46154C19.6654 3.89293 16.6806 1 12.9987 1C9.3168 1 6.33203 3.89293 6.33203 7.46154C6.33203 11.0301 9.3168 13.9231 12.9987 13.9231Z" stroke="#E19C5B" stroke-width="2" stroke-linecap="round" stroke-linejoin="round"/>
<path d="M6.48932 12.0769L1 20.9003L5.98486 20.8788C6.14458 20.8781 6.30174 20.9146 6.44083 20.9847C6.57993 21.0548 6.69614 21.1561 6.77799 21.2785L9.26411 25L14.3333 15.042" stroke="#E19C5B" stroke-width="2" stroke-linecap="round" stroke-linejoin="round"/>
<path d="M19.5864 12.0771L25.0009 20.9618L20.1753 20.9406C20.0207 20.9399 19.8686 20.9758 19.7339 21.0449C19.5993 21.1139 19.4868 21.2137 19.4075 21.3343L17.0009 25.0002L13.4453 17.8925" stroke="#E19C5B" stroke-width="2" stroke-linecap="round" stroke-linejoin="round"/>
<path d="M13 11.1541C15.2091 11.1541 17 9.50104 17 7.46184C17 5.42263 15.2091 3.76953 13 3.76953C10.7909 3.76953 9 5.42263 9 7.46184C9 9.50104 10.7909 11.1541 13 11.1541Z" stroke="#E19C5B" stroke-width="2" stroke-linecap="round" stroke-linejoin="round"/>
</svg>
