<svg width="24" height="24" viewBox="0 0 24 24" fill="none" xmlns="http://www.w3.org/2000/svg">
<path d="M3.75 21C3.5375 21 3.35938 20.9277 3.21563 20.7831C3.07188 20.6385 3 20.4594 3 20.2456C3 20.0319 3.07188 19.8542 3.21563 19.7125C3.35938 19.5708 3.5375 19.5 3.75 19.5H5.3V3.75C5.3 3.5375 5.37188 3.35938 5.51563 3.21563C5.65938 3.07188 5.8375 3 6.05 3H13.55C13.7625 3 13.9406 3.07188 14.0844 3.21563C14.2281 3.35938 14.3 3.5375 14.3 3.75V4.125H17.975C18.1875 4.125 18.3656 4.19688 18.5094 4.34063C18.6531 4.48438 18.725 4.6625 18.725 4.875V19.5H20.25C20.4625 19.5 20.6406 19.5723 20.7844 19.7169C20.9281 19.8615 21 20.0406 21 20.2544C21 20.4681 20.9281 20.6458 20.7844 20.7875C20.6406 20.9292 20.4625 21 20.25 21H17.975C17.7625 21 17.5844 20.9281 17.4406 20.7844C17.2969 20.6406 17.225 20.4625 17.225 20.25V5.625H14.3V20.25C14.3 20.4625 14.2281 20.6406 14.0844 20.7844C13.9406 20.9281 13.7625 21 13.55 21H3.75ZM12.275 12C12.275 11.7167 12.1792 11.4792 11.9875 11.2875C11.7958 11.0958 11.5583 11 11.275 11C10.9917 11 10.7542 11.0958 10.5625 11.2875C10.3708 11.4792 10.275 11.7167 10.275 12C10.275 12.2833 10.3708 12.5208 10.5625 12.7125C10.7542 12.9042 10.9917 13 11.275 13C11.5583 13 11.7958 12.9042 11.9875 12.7125C12.1792 12.5208 12.275 12.2833 12.275 12Z" fill="#455A64"/>
</svg>
