<svg width="24" height="24" viewBox="0 0 24 24" fill="none" xmlns="http://www.w3.org/2000/svg">
<path d="M3.75 10.5L5.52094 6.36797C5.80922 5.69531 6.54375 5.25 7.36453 5.25H16.6355C17.4563 5.25 18.1908 5.69531 18.4791 6.36797L20.25 10.5M3.75 10.5H20.25M3.75 10.5V17.25M20.25 10.5V17.25M20.25 17.25H3.75M20.25 17.25V18.75H18.75V17.25M3.75 17.25V18.75H5.25V17.25" stroke="white" stroke-width="2" stroke-linecap="round" stroke-linejoin="round"/>
<path d="M6.75 14.25C7.16421 14.25 7.5 13.9142 7.5 13.5C7.5 13.0858 7.16421 12.75 6.75 12.75C6.33579 12.75 6 13.0858 6 13.5C6 13.9142 6.33579 14.25 6.75 14.25Z" stroke="white" stroke-linecap="round" stroke-linejoin="round"/>
<path d="M17.25 14.25C17.6642 14.25 18 13.9142 18 13.5C18 13.0858 17.6642 12.75 17.25 12.75C16.8358 12.75 16.5 13.0858 16.5 13.5C16.5 13.9142 16.8358 14.25 17.25 14.25Z" stroke="white" stroke-linecap="round" stroke-linejoin="round"/>
</svg>
