<svg width="30" height="30" viewBox="0 0 30 30" fill="none" xmlns="http://www.w3.org/2000/svg">
<path d="M15 16.0769C19.2956 16.0769 22.7778 12.7018 22.7778 8.53846C22.7778 4.37508 19.2956 1 15 1C10.7045 1 7.22223 4.37508 7.22223 8.53846C7.22223 12.7018 10.7045 16.0769 15 16.0769Z" stroke="#E19C5B" stroke-width="2" stroke-linecap="round" stroke-linejoin="round"/>
<path d="M7.4042 13.9231L1 24.2171L6.81567 24.192C7.00201 24.1911 7.18537 24.2337 7.34764 24.3155C7.50991 24.3973 7.64549 24.5154 7.74099 24.6583L10.6415 29L16.5556 17.3823" stroke="#E19C5B" stroke-width="2" stroke-linecap="round" stroke-linejoin="round"/>
<path d="M22.6832 13.9231L29 24.2885L23.3702 24.2637C23.1898 24.2629 23.0123 24.3048 22.8552 24.3854C22.6981 24.466 22.5669 24.5824 22.4745 24.7231L19.6667 29L15.5185 20.7077" stroke="#E19C5B" stroke-width="2" stroke-linecap="round" stroke-linejoin="round"/>
<path d="M15 12.8462C17.5773 12.8462 19.6667 10.9175 19.6667 8.53846C19.6667 6.15939 17.5773 4.23077 15 4.23077C12.4227 4.23077 10.3333 6.15939 10.3333 8.53846C10.3333 10.9175 12.4227 12.8462 15 12.8462Z" stroke="#E19C5B" stroke-width="2" stroke-linecap="round" stroke-linejoin="round"/>
</svg>
