<svg width="330" height="320" viewBox="0 0 330 320" fill="none" xmlns="http://www.w3.org/2000/svg">
<path d="M121.324 67.6725C126.425 67.855 135.121 69.4726 135.843 78.2987C133.24 81.0712 130.113 82.9899 126.751 83.8779C126.751 83.8779 123.103 79.4399 122.281 85.3995C121.459 91.3591 124.747 92.2467 124.747 92.2467C124.747 92.2467 124.85 100.869 127.521 106.448C129.121 109.818 129.838 113.715 129.576 117.607C129.576 117.607 122.898 108.477 110.569 111.14C98.2398 113.803 104.61 104.419 104.404 101.376C104.199 98.3331 105.124 95.1631 106.973 90.5983C108.822 86.0335 106.811 78.3464 110.98 72.8463C111.104 72.6826 111.229 72.5236 111.356 72.3694C112.674 70.7961 114.237 69.5688 115.95 68.7616C117.664 67.9543 119.492 67.5839 121.324 67.6725Z" fill="#A54729"/>
<path d="M135.886 78.291C136.155 79.6073 136.302 80.9573 136.323 82.3148C136.335 82.9997 136.314 83.685 136.258 84.3667L136.206 84.8743L136.18 85.3097L136.211 85.7298C136.246 85.8616 136.261 85.9992 136.298 86.1294C136.488 86.6766 136.771 87.1664 137.13 87.565C137.553 88.0238 137.938 88.5356 138.276 89.0922C138.452 89.4247 138.528 89.8223 138.492 90.2166C138.467 90.597 138.345 90.9578 138.144 91.2477C137.719 91.7523 137.152 92.033 136.563 92.0301L136.695 91.8623C136.725 93.4836 136.782 95.1014 136.754 96.734C136.753 98.3992 136.548 100.055 136.148 101.645C136.027 102.09 135.844 102.505 135.608 102.872C135.537 102.978 135.457 103.073 135.368 103.155L135.226 103.282L135.055 103.381C134.963 103.431 134.866 103.469 134.767 103.495L134.504 103.578C133.831 103.732 133.147 103.796 132.463 103.771C131.135 103.733 129.813 103.549 128.511 103.221L128.686 103.177C128.305 103.431 127.946 103.733 127.614 104.078C127.452 104.246 127.309 104.442 127.192 104.66C127.131 104.761 127.091 104.88 127.076 105.004C127.06 105.129 127.068 105.257 127.101 105.377L127.026 105.427C126.96 105.294 126.923 105.144 126.917 104.989C126.911 104.834 126.937 104.68 126.992 104.54C127.087 104.267 127.214 104.013 127.368 103.785C127.675 103.344 128.026 102.953 128.411 102.619L128.47 102.567L128.586 102.575C129.877 102.666 131.18 102.748 132.456 102.699C133.08 102.684 133.702 102.609 134.317 102.474L134.529 102.408C134.591 102.394 134.65 102.372 134.708 102.341C134.725 102.331 134.742 102.323 134.76 102.316L134.815 102.263C134.858 102.225 134.897 102.181 134.932 102.132C135.109 101.873 135.249 101.578 135.346 101.26C135.749 99.7731 136.016 98.2348 136.142 96.6742C136.33 95.0834 136.426 93.478 136.43 91.8704L136.429 91.7057L136.563 91.7023C136.814 91.7115 137.065 91.6545 137.297 91.5351C137.53 91.4158 137.739 91.2368 137.911 91.01C138.055 90.7749 138.127 90.484 138.113 90.1896C138.111 89.9098 138.027 89.6401 137.878 89.43C137.509 88.9726 137.106 88.5592 136.674 88.1954C136.186 87.7478 135.806 87.1442 135.576 86.4498C135.526 86.2634 135.486 86.073 135.456 85.8799C135.442 85.6864 135.435 85.492 135.428 85.2989L135.475 84.7342L135.538 84.2477C135.625 83.6064 135.673 82.9532 135.716 82.2964C135.786 80.9818 135.815 79.6484 135.801 78.3064L135.886 78.291Z" fill="#A54729"/>
<path d="M133.686 87.7136C133.852 87.7065 134.01 87.6199 134.126 87.472C134.241 87.3242 134.306 87.1267 134.306 86.9211C134.306 86.7156 134.241 86.518 134.126 86.3702C134.01 86.2223 133.852 86.1357 133.686 86.1286C133.519 86.1357 133.362 86.2223 133.246 86.3702C133.13 86.518 133.065 86.7156 133.065 86.9211C133.065 87.1267 133.13 87.3242 133.246 87.472C133.362 87.6199 133.519 87.7065 133.686 87.7136Z" fill="#A54729"/>
<path d="M135.843 89.8375C135.889 90.0201 135.922 90.2069 135.943 90.3961C135.955 90.4952 135.959 90.5953 135.955 90.6952C135.952 90.7603 135.924 90.7742 135.884 90.8553C135.833 91.0155 135.819 91.1897 135.843 91.3591C135.754 91.4152 135.653 91.4351 135.554 91.4161C135.455 91.3971 135.364 91.3401 135.293 91.2532C135.194 91.1313 135.129 90.9746 135.105 90.8047C135.082 90.6349 135.102 90.4603 135.162 90.3049C135.222 90.1496 135.32 90.0212 135.442 89.9375C135.564 89.8538 135.704 89.8188 135.843 89.8375Z" fill="#A54729"/>
<path d="M130.912 84.5119C131.076 84.115 131.342 83.7963 131.668 83.6053C131.991 83.4033 132.349 83.3021 132.71 83.3106C133.07 83.3155 133.423 83.4263 133.741 83.6338C134.058 83.8333 134.323 84.1372 134.508 84.5119C134.139 84.5109 133.838 84.448 133.54 84.4268C133.249 84.382 132.972 84.383 132.699 84.3669C132.101 84.3654 131.504 84.4138 130.912 84.5119Z" fill="#A54729"/>
<path d="M133.686 94.6559C133.943 94.594 134.206 94.5704 134.468 94.5857C134.701 94.5998 134.932 94.6371 135.16 94.6972C135.386 94.758 135.609 94.8416 135.825 94.947C136.07 95.0653 136.302 95.2222 136.514 95.4137C136.289 95.5944 136.037 95.7157 135.772 95.77C135.508 95.8243 135.237 95.8104 134.977 95.7293C134.724 95.6622 134.482 95.5419 134.262 95.3736C134.024 95.1984 133.825 94.9515 133.686 94.6559Z" fill="#A54729"/>
<path d="M124.645 90.8836C124.811 90.8765 124.969 90.7898 125.085 90.642C125.2 90.4942 125.265 90.2966 125.265 90.0911C125.265 89.8855 125.2 89.688 125.085 89.5402C124.969 89.3923 124.811 89.3057 124.645 89.2986C124.478 89.3057 124.321 89.3923 124.205 89.5402C124.089 89.688 124.024 89.8855 124.024 90.0911C124.024 90.2966 124.089 90.4942 124.205 90.642C124.321 90.7898 124.478 90.8765 124.645 90.8836Z" fill="#A54729"/>
<path d="M118.583 143.601L125.385 152.9L124.726 153.574L118.583 143.601Z" fill="#A54729"/>
<path d="M162.623 175.27C164.312 171.711 165.601 167.886 166.457 163.899C167.317 159.921 167.93 155.867 168.291 151.774C168.49 149.728 168.633 147.677 168.784 145.614C168.838 144.557 168.97 143.508 169.179 142.481C169.408 141.462 169.702 140.467 170.056 139.505C171.433 135.686 173.252 132.197 174.218 128.29C174.469 127.321 174.677 126.336 174.841 125.34C174.917 124.842 174.987 124.342 175.032 123.84C175.085 123.354 175.102 122.863 175.085 122.373C174.959 121.38 174.747 120.407 174.453 119.469C174.172 118.508 173.858 117.554 173.51 116.627C173.423 116.392 173.333 116.176 173.238 115.94C173.184 115.792 173.15 115.635 173.138 115.474C173.121 115.331 173.118 115.187 173.127 115.044C173.157 114.511 173.225 113.983 173.33 113.465C173.521 112.447 173.753 111.456 173.953 110.456C174.165 109.467 174.313 108.458 174.396 107.44C174.435 106.938 174.437 106.417 174.435 105.911C174.441 105.411 174.392 104.913 174.289 104.43C174.241 104.204 174.148 103.997 174.018 103.827C173.888 103.658 173.725 103.531 173.545 103.46C173.451 103.417 173.357 103.374 173.258 103.337C173.241 103.331 173.194 103.309 173.201 103.317C173.204 103.315 173.198 103.318 173.191 103.319C173.16 103.336 173.132 103.358 173.108 103.386C172.973 103.56 172.857 103.755 172.763 103.967C172.365 104.868 172.018 105.801 171.724 106.761C171.106 108.677 170.542 110.623 169.967 112.564C169.384 114.503 168.825 116.452 168.167 118.368C168.001 118.852 167.816 119.326 167.611 119.786C167.402 120.297 167.068 120.713 166.656 120.976C166.222 121.219 165.732 121.256 165.278 121.08C164.847 120.915 164.447 120.65 164.098 120.298L164.013 120.214L164.011 120.072V120.067L164.099 120.293C163.578 119.787 163.163 119.134 162.888 118.39C162.819 118.194 162.766 117.991 162.731 117.782C162.697 117.562 162.686 117.382 162.667 117.182L162.591 116.031C162.556 115.282 162.483 114.536 162.372 113.799C162.301 113.113 162.067 112.468 161.7 111.946C161.658 111.893 161.609 111.847 161.556 111.812C161.51 111.766 161.457 111.731 161.4 111.71C161.346 111.689 161.285 111.653 161.239 111.639C161.206 111.631 161.172 111.631 161.139 111.64C161.028 111.657 160.86 111.912 160.76 112.227C160.559 112.909 160.431 113.622 160.38 114.345C160.255 115.844 160.215 117.352 160.261 118.858L160.264 118.981L160.204 119.119C159.769 120.021 159.436 120.992 159.213 122.005C158.997 123.021 158.901 124.07 158.926 125.12C158.956 126.175 159.087 127.223 159.314 128.241C159.533 129.256 159.849 130.235 160.253 131.159L160.339 131.351L160.301 131.547C159.954 133.314 159.592 135.077 159.157 136.813C158.74 138.556 158.264 140.276 157.749 141.978C157.24 143.682 156.691 145.366 156.101 147.031C155.512 148.699 154.897 150.339 154.208 151.968L154.044 152.355L153.712 152.234C152.926 151.902 152.196 151.4 151.554 150.751C150.94 150.14 150.356 149.487 149.803 148.793C148.707 147.417 147.706 145.954 146.731 144.471C144.79 141.498 142.973 138.421 141.133 135.377L139.753 133.096L138.312 130.874L135.425 126.431C133.535 123.432 131.519 120.558 129.544 117.64L129.608 117.57C131.664 120.4 133.779 123.17 135.743 126.105L138.727 130.467L140.218 132.65L141.647 134.896C143.528 137.91 145.379 140.944 147.34 143.854C148.323 145.305 149.334 146.726 150.41 148.046C150.939 148.706 151.498 149.328 152.085 149.908C152.637 150.464 153.263 150.899 153.935 151.193L153.439 151.46C154.1 149.884 154.712 148.242 155.287 146.596C155.863 144.947 156.402 143.279 156.904 141.592C157.404 139.906 157.871 138.206 158.304 136.491C158.745 134.78 159.115 133.045 159.47 131.305L159.517 131.693C159.08 130.685 158.742 129.616 158.512 128.508C158.274 127.409 158.142 126.28 158.118 125.144C158.074 122.843 158.578 120.577 159.567 118.626L159.51 118.887C159.486 117.334 159.551 115.781 159.703 114.239C159.773 113.439 159.93 112.654 160.169 111.905C160.242 111.696 160.336 111.501 160.45 111.323C160.591 111.101 160.788 110.944 161.011 110.88C161.13 110.85 161.253 110.852 161.372 110.885C161.465 110.919 161.557 110.96 161.647 111.007C161.737 111.047 161.821 111.105 161.896 111.178C161.977 111.238 162.052 111.311 162.118 111.394C162.572 112.029 162.859 112.821 162.939 113.662C163.043 114.431 163.107 115.207 163.132 115.986L163.19 117.124C163.196 117.474 163.252 117.821 163.355 118.148C163.589 118.806 163.946 119.386 164.396 119.84L164.485 119.932L164.484 120.067L164.483 120.072L164.397 119.846C164.987 120.46 165.805 120.892 166.477 120.505C167.152 120.13 167.466 119.083 167.827 118.181C168.514 116.31 169.097 114.369 169.683 112.435C170.27 110.5 170.846 108.558 171.478 106.638C171.785 105.668 172.136 104.72 172.53 103.799C172.635 103.555 172.767 103.331 172.923 103.133C172.975 103.072 173.037 103.025 173.103 102.993C173.15 102.973 173.199 102.968 173.247 102.978C173.279 102.984 173.311 102.994 173.341 103.007C173.443 103.044 173.546 103.089 173.649 103.135C173.866 103.23 174.064 103.382 174.229 103.581C174.387 103.791 174.504 104.043 174.57 104.318C174.953 106.431 174.67 108.537 174.293 110.555C174.111 111.568 173.898 112.571 173.732 113.572C173.643 114.06 173.589 114.557 173.57 115.056C173.557 115.267 173.582 115.48 173.644 115.677C173.739 115.9 173.846 116.141 173.937 116.373C174.312 117.311 174.649 118.264 174.955 119.238C175.285 120.221 175.528 121.245 175.678 122.292C175.711 122.834 175.703 123.378 175.655 123.918C175.619 124.446 175.556 124.967 175.487 125.486C175.341 126.521 175.143 127.544 174.895 128.549C174.382 130.543 173.735 132.48 172.96 134.34C172.224 136.205 171.434 138.031 170.743 139.883C170.397 140.799 170.109 141.747 169.881 142.718C169.676 143.695 169.543 144.692 169.485 145.698C169.319 147.75 169.16 149.817 168.943 151.873C168.722 153.93 168.465 155.982 168.116 158.014C167.963 159.034 167.745 160.04 167.563 161.052C167.341 162.054 167.141 163.063 166.888 164.054C165.945 168.044 164.532 171.843 162.695 175.327L162.623 175.27Z" fill="#A54729"/>
<path d="M156.392 153.998L153.573 152.144L154.073 151.287L156.392 153.998Z" fill="#A54729"/>
<path d="M141.305 135.026C141.833 133.976 142.407 132.965 142.998 131.966C143.587 130.957 144.231 129.999 144.925 129.096C145.281 128.621 145.682 128.2 146.12 127.843C146.24 127.765 146.39 127.662 146.489 127.61C146.595 127.555 146.7 127.493 146.801 127.424C147.006 127.293 147.202 127.139 147.385 126.966C148.131 126.179 148.84 125.339 149.507 124.451C150.211 123.574 150.922 122.699 151.657 121.859C152.387 121.011 153.161 120.215 153.878 119.395C154.604 118.586 155.271 117.7 155.871 116.746C156.163 116.275 156.416 115.768 156.624 115.233C156.837 114.732 156.934 114.168 156.905 113.603L156.901 113.57L156.902 113.558L156.902 113.553L156.905 113.599C156.89 113.454 156.849 113.315 156.785 113.191C156.757 113.138 156.722 113.092 156.681 113.054C156.671 113.043 156.659 113.035 156.647 113.029C156.631 113.025 156.615 113.024 156.598 113.027C156.339 113.114 156.094 113.258 155.876 113.453C155.39 113.852 154.921 114.285 154.473 114.748L153.12 116.152C153.007 116.27 152.894 116.388 152.773 116.503C152.707 116.58 152.628 116.639 152.543 116.678C152.457 116.717 152.367 116.734 152.276 116.729C152.18 116.708 152.09 116.658 152.015 116.582C151.94 116.507 151.881 116.409 151.844 116.298C151.781 116.11 151.744 115.91 151.736 115.707C151.73 114.953 151.842 114.204 152.064 113.501C152.259 112.804 152.491 112.123 152.759 111.463C153.293 110.147 153.908 108.897 154.509 107.645C155.126 106.432 155.681 105.172 156.171 103.873C156.273 103.587 156.338 103.283 156.362 102.972C156.374 102.894 156.361 102.815 156.327 102.748C156.298 102.72 156.262 102.702 156.225 102.698C156.007 102.738 155.799 102.837 155.616 102.987C155.38 103.164 155.154 103.361 154.94 103.576C154.053 104.495 153.223 105.493 152.455 106.562C151.67 107.626 150.91 108.735 150.172 109.843L150.019 110.072L149.773 110.05C148.154 109.972 146.555 110.515 145.198 111.606C143.788 112.713 142.502 114.042 141.372 115.561C140.228 117.106 139.163 118.738 138.186 120.448C137.636 121.304 136.941 122 136.148 122.486C135.378 122.974 134.549 123.307 133.693 123.474L133.679 123.37C135.322 122.91 136.784 121.756 137.811 120.108C138.712 118.301 139.727 116.585 140.846 114.974C141.978 113.333 143.289 111.893 144.741 110.694C146.247 109.435 148.044 108.816 149.86 108.929L149.461 109.136C150.215 107.992 151.001 106.901 151.82 105.833C152.634 104.742 153.512 103.728 154.448 102.797C154.695 102.559 154.955 102.342 155.226 102.149C155.54 101.902 155.902 101.767 156.274 101.758C156.402 101.77 156.527 101.816 156.64 101.892C156.753 101.969 156.851 102.074 156.929 102.2C157.061 102.439 157.12 102.728 157.094 103.015C157.058 103.429 156.965 103.832 156.82 104.208C156.288 105.533 155.673 106.804 154.98 108.011C154.326 109.222 153.67 110.426 153.103 111.685C152.819 112.311 152.571 112.962 152.363 113.632C152.146 114.283 152.031 114.979 152.024 115.683C152.03 116.01 152.131 116.373 152.31 116.394C152.481 116.432 152.731 116.114 152.954 115.906L154.297 114.487C154.753 114.021 155.202 113.544 155.696 113.12C155.951 112.879 156.241 112.698 156.549 112.586C156.606 112.574 156.664 112.573 156.72 112.585C156.78 112.6 156.836 112.628 156.887 112.669C156.968 112.734 157.039 112.816 157.097 112.912C157.202 113.088 157.274 113.291 157.308 113.506L157.311 113.522L157.311 113.553L157.312 113.558L157.308 113.513C157.381 114.18 157.301 114.858 157.077 115.472C156.879 116.062 156.631 116.626 156.339 117.154C155.762 118.19 155.105 119.155 154.377 120.034C153.655 120.922 152.902 121.713 152.179 122.555C151.452 123.389 150.724 124.221 150.012 125.079C149.307 125.979 148.56 126.826 147.774 127.616C147.558 127.812 147.328 127.983 147.087 128.127C146.966 128.199 146.843 128.263 146.717 128.319C146.583 128.379 146.518 128.433 146.413 128.488C146.006 128.789 145.63 129.148 145.291 129.557C143.891 131.294 142.583 133.141 141.375 135.086L141.305 135.026Z" fill="#A54729"/>
<path d="M147.864 112.027L149.506 109.128L150.127 109.855L147.864 112.027Z" fill="#A54729"/>
<path d="M155.57 113.474C155.992 111.953 156.47 110.466 156.945 108.976L157.681 106.756L158.444 104.552C158.955 103.084 159.491 101.63 160.022 100.174C160.574 98.7301 161.105 97.2739 161.674 95.8399L161.937 95.1769L162.484 95.4482C164.33 96.3648 166.166 97.3157 167.991 98.3009C168.899 98.806 169.814 99.2917 170.715 99.8193C171.62 100.332 172.519 100.867 173.415 101.41L173.599 101.521L173.523 101.715C173.232 102.458 172.933 103.196 172.625 103.931C172.795 103.131 172.977 102.336 173.166 101.545L173.273 101.85C172.32 101.484 171.37 101.11 170.426 100.714C169.478 100.333 168.543 99.9101 167.602 99.5065C165.728 98.6752 163.865 97.8086 162.013 96.9068L162.822 96.5152C162.278 97.9639 161.697 99.3903 161.135 100.829C160.554 102.255 159.977 103.685 159.374 105.099L158.468 107.219L157.534 109.323C156.896 110.716 156.262 112.112 155.57 113.474Z" fill="#A54729"/>
<path d="M153.921 119.836L153.726 120.306L158.525 123.326L158.719 122.856L153.921 119.836Z" fill="#A54729"/>
<path d="M170.57 103.144L164.247 120.067C163.6 119.457 163.147 118.586 162.967 117.605C162.762 115.703 162.967 111.772 161.324 111.265C159.68 110.758 159.885 118.873 159.885 118.873C159.689 119.258 159.513 119.659 159.359 120.072L155.707 117.605C156.979 115.634 157.218 114.313 157.107 113.558V113.553L157.133 113.473L162.967 99.0921L170.57 103.144Z" fill="#A54729"/>
<path d="M147.847 175.377C145.456 174.613 143.166 173.427 141.048 171.857C138.923 170.309 136.893 168.57 134.976 166.652C133.046 164.755 131.207 162.722 129.467 160.564C129.03 160.025 128.599 159.48 128.175 158.919C127.746 158.338 127.353 157.781 126.948 157.202L125.752 155.465C125.354 154.865 124.971 154.322 124.577 153.606L125.036 153.933C123.954 153.818 122.896 153.482 121.903 152.941C120.924 152.422 120.009 151.739 119.181 150.913C117.544 149.261 116.232 147.172 115.345 144.803L115.019 143.925L114.856 143.486C114.81 143.337 114.772 143.183 114.73 143.032L114.234 141.212C114.079 140.603 113.992 139.973 113.868 139.355C113.739 138.74 113.639 138.116 113.571 137.486C113.446 136.226 113.26 134.981 113.225 133.708C113.172 132.44 113.191 131.169 113.282 129.904C113.46 127.375 113.945 124.895 114.723 122.545C115.108 121.37 115.583 120.242 116.14 119.177C116.708 118.11 117.393 117.146 118.177 116.312C118.989 115.498 119.932 114.907 120.943 114.576L121.712 114.382C121.97 114.347 122.232 114.342 122.492 114.321L122.883 114.299L123.272 114.342L124.049 114.428C126.075 114.934 128.005 115.905 129.741 117.29L129.35 117.859C127.708 115.942 125.79 114.423 123.694 113.38C121.611 112.308 119.404 111.649 117.154 111.427C114.902 111.24 112.64 111.4 110.421 111.904C109.257 112.17 108.077 112.323 106.893 112.361C106.275 112.375 105.658 112.314 105.05 112.179C104.368 112.039 103.728 111.681 103.194 111.141L102.411 110.298L103.396 109.834L103.398 109.833L104.583 109.274L104.218 110.807C103.579 113.564 103.108 116.376 102.809 119.22C102.718 119.931 102.653 120.646 102.591 121.363C102.531 122.079 102.452 122.793 102.407 123.511L102.288 125.667L102.23 126.745L102.211 127.825C102.057 133.59 102.409 139.359 103.261 145.031C103.495 146.443 103.67 147.873 104.005 149.257L104.455 151.349C104.608 152.045 104.739 152.751 104.947 153.426L106.082 157.526C106.522 158.862 106.987 160.188 107.438 161.523C107.894 162.858 108.405 164.163 108.968 165.434C109.512 166.721 110.076 167.995 110.65 169.263C111.229 170.526 111.826 171.778 112.478 172.982C112.803 173.584 113.144 174.174 113.512 174.733C113.693 175.014 113.889 175.279 114.099 175.528C114.294 175.783 114.533 175.982 114.797 176.111L114.766 176.265C114.472 176.151 114.202 175.957 113.977 175.699C113.748 175.46 113.532 175.202 113.331 174.928C112.931 174.384 112.555 173.814 112.203 173.222C111.494 172.046 110.841 170.824 110.206 169.59C109.57 168.357 108.97 167.097 108.382 165.829C107.774 164.571 107.218 163.275 106.716 161.948C106.216 160.617 105.703 159.29 105.214 157.951L103.972 153.82C103.748 153.138 103.601 152.425 103.432 151.721L102.934 149.603C102.567 148.201 102.36 146.751 102.095 145.317C101.115 139.55 100.693 133.66 100.838 127.771L100.859 126.667L100.919 125.566L101.043 123.363C101.091 122.629 101.172 121.899 101.234 121.167C101.297 120.435 101.367 119.704 101.47 118.978C101.809 116.047 102.327 113.152 103.02 110.318L103.84 111.292L103.839 111.293L104.041 109.986C104.405 110.344 104.838 110.583 105.297 110.679C105.822 110.802 106.355 110.862 106.889 110.858C108.008 110.838 109.124 110.71 110.227 110.475C112.548 109.997 114.909 109.891 117.251 110.16C119.598 110.449 121.888 111.219 124.029 112.44C126.183 113.622 128.141 115.289 129.803 117.354L131.61 119.675L129.411 117.924C127.774 116.511 125.927 115.515 123.975 114.991L123.239 114.9L122.871 114.854L122.504 114.871C122.259 114.888 122.012 114.887 121.768 114.917L121.046 115.09C120.091 115.389 119.198 115.935 118.426 116.691C116.934 118.338 115.799 120.418 115.124 122.744C114.399 125.05 113.981 127.486 113.885 129.957C113.834 131.187 113.852 132.421 113.94 133.648C114.01 134.875 114.23 136.088 114.385 137.304C114.468 137.91 114.582 138.51 114.725 139.099C114.862 139.688 114.962 140.293 115.128 140.869L115.65 142.583C115.694 142.725 115.735 142.869 115.782 143.009L115.948 143.416L116.28 144.229C117.144 146.387 118.376 148.288 119.89 149.805C120.641 150.55 121.471 151.164 122.358 151.63C123.218 152.11 124.136 152.418 125.075 152.542L125.376 152.576L125.534 152.869C125.824 153.408 126.234 154.021 126.609 154.593L127.78 156.325L128.962 158.033C129.365 158.587 129.781 159.135 130.203 159.675C131.045 160.756 131.91 161.811 132.798 162.84C133.239 163.357 133.68 163.876 134.135 164.374C134.585 164.88 135.039 165.381 135.505 165.863C137.348 167.826 139.297 169.632 141.338 171.268C143.367 172.941 145.567 174.271 147.881 175.224L147.847 175.377Z" fill="#A54729"/>
<path d="M168.298 154.415C169.426 153.668 170.57 152.971 171.723 152.302C172.297 151.959 172.88 151.643 173.458 151.313C174.035 150.981 174.622 150.677 175.203 150.358L175.459 150.217L175.704 150.432C176.315 150.972 176.9 151.555 177.457 152.179C178.026 152.773 178.543 153.43 179.068 154.077C180.08 155.413 181.009 156.84 181.849 158.347C183.511 161.364 185.073 164.424 186.485 167.611C186.874 168.386 187.186 169.209 187.516 170.023L188.014 171.245L188.261 171.858L188.475 172.489C188.754 173.333 189.037 174.178 189.303 175.032C189.579 175.882 189.75 176.773 189.974 177.645C190.405 179.397 190.757 181.177 191.029 182.977C191.317 184.774 191.404 186.61 191.565 188.427L191.626 189.11L191.069 189.272C190.126 189.546 189.175 189.782 188.227 190.038L185.376 190.753C184.423 190.983 183.469 191.203 182.513 191.413C181.553 191.607 180.598 191.822 179.633 191.988L179.602 191.834C180.52 191.43 181.447 191.075 182.37 190.698C183.297 190.337 184.225 189.986 185.155 189.646L187.951 188.649C188.887 188.335 189.818 188 190.757 187.704L190.261 188.549L189.978 185.903C189.916 185.018 189.817 184.137 189.683 183.263C189.414 181.519 189.22 179.75 188.811 178.041L188.541 176.747C188.448 176.316 188.375 175.879 188.25 175.46C188.021 174.616 187.808 173.763 187.592 172.91L187.435 172.267L187.243 171.64L186.855 170.386C186.594 169.55 186.342 168.707 186.016 167.904C184.82 164.622 183.207 161.597 181.238 158.942C180.274 157.603 179.258 156.334 178.251 155.062C177.73 154.449 177.229 153.809 176.7 153.21C176.184 152.599 175.624 152.021 175.094 151.478L175.595 151.552C174.997 151.822 174.404 152.107 173.802 152.364C173.201 152.623 172.604 152.896 171.998 153.141C170.793 153.65 169.578 154.132 168.347 154.562L168.298 154.415Z" fill="#A54729"/>
<path d="M102.99 113.553C96.9645 114.261 90.952 115.097 84.9526 116.061C81.9548 116.547 78.9632 117.086 75.9874 117.716C73.0149 118.356 70.0483 119.07 67.1577 120.037C65.7298 120.478 64.3469 121.118 63.0359 121.944C62.7453 122.14 62.4771 122.383 62.2383 122.667C62.1476 122.782 62.0705 122.913 62.0091 123.055C61.9938 123.119 61.9793 123.162 61.9665 123.231L61.9549 123.474C61.9978 124.369 62.0902 125.259 62.2313 126.138C62.7789 129.774 63.5029 133.405 64.2243 137.024C65.6958 144.26 67.1895 151.498 68.7499 158.714L73.3792 180.383L75.7328 191.206L78.1566 202.006C78.9743 205.602 79.7744 209.205 80.6146 212.794L83.1396 223.558C84.8133 230.738 86.5687 237.889 88.3008 245.046L87.9591 244.736L108.607 244.046L129.256 243.45L149.906 242.897L160.232 242.655L170.558 242.455L170.173 242.619L184.255 229.589C188.956 225.257 193.642 220.9 198.36 216.597L198.195 216.945C198.51 214.123 198.701 211.249 198.787 208.388C198.883 205.526 198.815 202.659 198.584 199.808C198.468 198.388 198.271 196.98 197.995 195.594C197.731 194.211 197.312 192.88 196.75 191.64C196.206 190.393 195.349 189.397 194.309 188.799C193.23 188.281 192.047 188.199 190.928 188.565L190.898 188.411C192.045 187.943 193.289 187.988 194.412 188.538C195.536 189.089 196.466 190.109 197.041 191.421C197.653 192.677 198.119 194.034 198.427 195.45C198.743 196.853 198.979 198.281 199.133 199.725C199.426 202.605 199.547 205.508 199.495 208.41C199.456 211.31 199.316 214.194 199.042 217.09L199.022 217.299L198.877 217.438C194.246 221.884 189.582 226.277 184.933 230.693L170.967 243.911L170.799 244.07L170.582 244.076L160.257 244.351L149.932 244.585L129.279 244.982L108.626 245.337L87.9721 245.598L87.7018 245.602L87.6302 245.288L82.7069 223.712L80.2348 212.928L77.7271 202.156L72.6869 180.621C71.0093 173.441 69.3366 166.258 67.7215 159.055L65.3663 148.226C64.5911 144.613 63.8301 140.994 63.1299 137.354C62.4287 133.712 61.727 130.078 61.1915 126.362C61.044 125.407 60.9523 124.44 60.917 123.469C60.9213 123.323 60.9339 123.164 60.9459 123.014C60.9745 122.845 61.016 122.681 61.0699 122.523C61.1814 122.249 61.327 121.998 61.5013 121.78C61.808 121.415 62.1535 121.102 62.5284 120.851C63.9184 119.984 65.3847 119.318 66.8983 118.865C69.8489 117.941 72.8377 117.213 75.8516 116.685C78.852 116.122 81.8598 115.653 84.8712 115.236C87.8818 114.811 90.8994 114.476 93.9178 114.169C96.9364 113.863 99.9565 113.59 102.981 113.395L102.99 113.553Z" fill="#A54729"/>
<path d="M170.57 243.265C170.57 243.265 169.954 194.574 168.322 186.966C166.691 179.358 118.984 186.526 104.61 184.303C100.098 183.606 96.7543 180.273 94.4817 176.949C92.499 174.008 91.0015 170.618 90.0734 166.968C83.1543 140.366 80.1754 129.386 77.4861 124.961C74.7121 120.396 61.4584 123.091 61.4584 123.091C60.5337 129.145 87.9658 245.167 87.9658 245.167L170.57 243.265Z" fill="#A54729"/>
<path d="M76.5591 119.992C78.4323 119.991 80.2814 120.514 81.967 121.523C83.6526 122.531 85.1308 123.998 86.2905 125.814C86.8753 126.722 87.3964 127.689 87.848 128.706C88.2772 129.735 88.6459 130.8 88.9513 131.894C89.2784 132.985 89.5338 134.08 89.768 135.179C90.0133 136.277 90.2262 137.381 90.4442 138.484C91.3097 142.893 92.0896 147.31 93.0446 151.658C93.9383 156.004 95.1495 160.242 96.6633 164.318C97.4272 166.324 98.3813 168.212 99.5055 169.94C100.614 171.663 102.025 173.052 103.632 174.003C103.829 174.128 104.033 174.234 104.244 174.319L104.869 174.601C105.304 174.719 105.719 174.895 106.173 174.969C107.074 175.124 107.966 175.341 108.877 175.446C109.787 175.554 110.696 175.666 111.608 175.755L114.35 175.954C118.011 176.149 121.679 176.194 125.345 176.14C129.012 176.129 132.678 175.947 136.342 175.791C140.007 175.619 143.669 175.372 147.332 175.167L152.824 174.813L155.569 174.626C156.466 174.579 157.383 174.45 158.307 174.384C161.995 174.044 165.698 173.995 169.391 174.239C171.29 174.334 173.17 174.74 174.982 175.446C175.473 175.656 175.939 175.946 176.369 176.306C176.894 176.725 177.28 177.363 177.456 178.104C177.656 179.345 177.763 180.423 177.87 181.574C178.648 190.625 179.061 199.656 179.442 208.716L179.501 210.419C179.511 210.7 179.519 210.99 179.521 211.287L179.523 211.504C179.529 211.534 179.523 211.568 179.53 211.596C179.538 211.654 179.556 211.71 179.585 211.758C179.697 211.892 179.832 211.994 179.981 212.056C180.129 212.118 180.286 212.139 180.442 212.116C180.858 212.099 181.27 212.01 181.665 211.851C182.506 211.503 183.311 211.036 184.065 210.461C184.839 209.884 185.585 209.252 186.301 208.569C189.161 205.756 191.822 202.647 194.255 199.277L194.352 199.381C193.194 201.14 191.985 202.848 190.724 204.505C189.465 206.172 188.122 207.739 186.704 209.198C185.987 209.932 185.238 210.614 184.458 211.241C183.667 211.892 182.818 212.427 181.928 212.836C181.455 213.047 180.961 213.173 180.459 213.212C180.182 213.228 179.903 213.189 179.635 213.096C179.318 212.99 179.036 212.761 178.832 212.443C178.721 212.264 178.643 212.059 178.603 211.84C178.585 211.731 178.574 211.621 178.57 211.51L178.562 211.303L178.527 210.475L178.439 208.787C178.184 204.277 177.894 199.768 177.569 195.259C177.239 190.756 176.947 186.24 176.51 181.772C176.46 181.211 176.391 180.663 176.335 180.107C176.309 179.827 176.273 179.557 176.235 179.29L176.181 178.886L176.153 178.684L176.14 178.583L176.126 178.526C176.029 178.174 175.834 177.877 175.575 177.687C175.244 177.413 174.886 177.192 174.509 177.032C172.815 176.387 171.063 176.002 169.293 175.886C165.659 175.595 162.014 175.59 158.381 175.873C157.472 175.923 156.564 176.038 155.627 176.074L152.875 176.21L147.371 176.424C143.701 176.559 140.03 176.614 136.359 176.658C129.017 176.731 121.676 176.757 114.333 176.467L111.579 176.329L108.825 176.095C107.906 176.027 106.99 175.845 106.07 175.725C105.611 175.67 105.147 175.502 104.684 175.393L104.008 175.121C103.78 175.039 103.558 174.935 103.344 174.81C101.602 173.869 100.056 172.451 98.8243 170.663C97.598 168.909 96.5511 166.977 95.707 164.908C94.0873 160.788 92.8265 156.468 91.9459 152.021C91.0027 147.62 90.2601 143.174 89.4747 138.761L88.8618 135.463C88.6576 134.363 88.4323 133.273 88.1478 132.228C87.8828 131.17 87.5566 130.136 87.1717 129.136C86.7661 128.151 86.2936 127.211 85.7591 126.325C84.6842 124.545 83.3155 123.066 81.7432 121.987C81.5501 121.843 81.3489 121.716 81.1411 121.608L80.5254 121.259C80.0991 121.077 79.6817 120.851 79.2411 120.718C78.3712 120.393 77.472 120.202 76.564 120.15L76.5591 119.992Z" fill="#A54729"/>
<path d="M179.688 211.502L179.046 230.332L178.404 211.502H179.688Z" fill="#A54729"/>
<path d="M172.069 243.265H169.072V278.262H172.069V243.265Z" fill="#A54729"/>
<path d="M199.933 210.9H196.936V245.897H199.933V210.9Z" fill="#A54729"/>
<path d="M90.7869 243.265H87.79V278.262H90.7869V243.265Z" fill="#A54729"/>
<path d="M222.741 224.202L224.2 234.643L225.437 252.219C225.437 252.219 217.397 254.07 214.312 253.312C214.312 253.312 207.456 239.827 201.597 226.761C197.698 218.047 194.782 208.716 192.929 199.028L190.915 188.486C190.707 185.053 190.243 181.652 189.528 178.324C190.919 176.758 192.252 175.13 193.566 173.48C194.885 171.835 196.168 170.146 197.455 168.468C198.02 167.716 198.58 166.958 199.145 166.2C201.705 165.575 204.35 165.712 206.859 166.601C208.204 167.094 209.462 167.894 210.568 168.959C211.658 170.033 212.575 171.351 213.269 172.844C213.922 174.379 214.459 175.986 214.872 177.644C215.324 179.305 215.712 180.994 216.078 182.7C216.801 186.1 217.429 189.54 218.011 192.991C219.231 199.875 220.243 206.826 221.259 213.772C221.774 217.245 222.262 220.724 222.741 224.202Z" fill="#A54729"/>
<path d="M233.179 243.852L224.199 234.643C223.91 231.126 223.535 227.625 223.178 224.119C222.785 220.618 222.374 217.121 221.945 213.627C221.525 210.132 221.019 206.654 220.522 203.175C220.012 199.697 219.479 196.218 218.892 192.756C218.282 189.3 217.627 185.855 216.868 182.432C216.489 180.721 216.082 179.021 215.613 177.337C215.173 175.621 214.587 173.968 213.865 172.404C213.092 170.854 212.092 169.497 210.915 168.401C209.736 167.324 208.4 166.535 206.981 166.077C205.575 165.637 204.125 165.453 202.676 165.531C201.508 165.577 200.347 165.773 199.212 166.116C199.894 165.202 200.581 164.293 201.254 163.373C202.527 161.679 203.743 159.923 205.093 158.312L204.501 158.785C204.303 158.953 204.122 159.137 203.932 159.315C203.557 159.666 203.2 160.045 202.839 160.419C202.125 161.177 201.43 161.959 200.752 162.766C199.384 164.354 198.083 166.027 196.796 167.71C195.517 169.405 194.262 171.127 193.047 172.894C191.832 174.656 190.644 176.451 189.528 178.324C185.598 160.023 175.399 150.953 175.399 150.953C175.399 150.953 198.106 135.233 205.296 142.335C212.487 149.431 215.775 152.732 225.432 186.714C235.094 220.696 240.378 234.035 240.378 234.035L233.179 243.852Z" fill="#A54729"/>
<path d="M214.376 249.402C214.463 251.826 214.315 254.254 213.934 256.635C213.817 257.235 213.655 257.821 213.451 258.384C213.276 258.927 213.128 259.481 213.005 260.045C212.75 261.143 212.705 262.3 212.875 263.423C213.074 264.513 213.546 265.496 214.226 266.234C214.396 266.422 214.574 266.598 214.76 266.762L215.048 266.999C215.156 267.086 215.266 267.175 215.367 267.269C215.723 267.638 216.11 267.959 216.521 268.226C217.391 268.653 218.315 268.89 219.251 268.928C220.21 269.011 221.181 269.028 222.152 269.015C226.043 268.863 229.923 268.423 233.771 267.696L245.333 265.632L244.98 266.073C244.97 265.982 244.953 265.891 244.931 265.803C244.897 265.679 244.853 265.559 244.8 265.446C244.686 265.197 244.547 264.966 244.386 264.76C244.042 264.319 243.656 263.932 243.236 263.608C242.359 262.935 241.431 262.371 240.464 261.924C239.483 261.464 238.496 261.081 237.465 260.708C236.441 260.325 235.427 259.9 234.42 259.447C232.387 258.579 230.436 257.439 228.603 256.047C227.679 255.344 226.844 254.476 226.126 253.472C225.383 252.472 224.965 251.168 224.954 249.811C224.954 249.798 224.959 249.786 224.966 249.777C224.974 249.768 224.984 249.762 224.995 249.762C225.005 249.762 225.016 249.767 225.023 249.776C225.031 249.785 225.036 249.797 225.036 249.81C225.133 251.104 225.604 252.311 226.363 253.211C227.106 254.12 227.946 254.9 228.86 255.528C230.712 256.773 232.655 257.797 234.664 258.587C236.662 259.437 238.727 259.99 240.777 260.911C241.806 261.38 242.792 261.981 243.72 262.704C244.2 263.08 244.638 263.534 245.021 264.054C245.225 264.327 245.4 264.63 245.541 264.958C245.72 265.334 245.809 265.764 245.799 266.2C245.796 266.308 245.762 266.411 245.704 266.491C245.645 266.571 245.565 266.622 245.479 266.636L245.445 266.641C241.579 267.252 237.707 267.816 233.823 268.24C229.937 268.649 226.065 269.17 222.166 269.482C221.191 269.56 220.212 269.611 219.225 269.589C218.21 269.612 217.198 269.412 216.24 268.996C215.781 268.722 215.347 268.387 214.946 267.999L214.338 267.504C214.127 267.32 213.924 267.122 213.73 266.91C212.936 266.045 212.395 264.88 212.192 263.596C212.022 262.342 212.09 261.056 212.392 259.84C212.527 259.244 212.701 258.662 212.912 258.101C213.13 257.58 213.307 257.035 213.441 256.474C213.894 254.152 214.179 251.785 214.293 249.4C214.293 249.393 214.295 249.387 214.297 249.381C214.299 249.375 214.303 249.369 214.307 249.365C214.311 249.36 214.315 249.357 214.32 249.355C214.326 249.352 214.331 249.351 214.336 249.352C214.347 249.353 214.356 249.358 214.364 249.368C214.371 249.377 214.375 249.389 214.376 249.402Z" fill="#A54729"/>
<path d="M217.362 255.904C217.355 256.707 217.5 257.501 217.784 258.224C217.929 258.566 218.122 258.873 218.356 259.129C218.605 259.402 218.871 259.649 219.153 259.868C218.799 259.825 218.459 259.68 218.16 259.445C217.847 259.205 217.592 258.866 217.42 258.464C217.253 258.071 217.161 257.636 217.15 257.192C217.14 256.749 217.212 256.308 217.362 255.904Z" fill="white"/>
<path d="M220.019 260.276L219.125 260.13C218.738 260.083 218.365 259.922 218.038 259.662C217.697 259.4 217.419 259.03 217.233 258.59C217.05 258.161 216.949 257.685 216.938 257.2C216.927 256.715 217.006 256.233 217.168 255.792L217.543 254.808L217.576 255.894C217.566 256.657 217.701 257.411 217.972 258.097C218.105 258.412 218.283 258.695 218.498 258.931C218.709 259.167 218.936 259.38 219.176 259.568L220.019 260.276Z" fill="#A54729"/>
<path d="M213.634 266.549C213.634 266.549 211.316 267.65 212.753 272.851C212.753 272.851 212.615 274.814 218.249 274.217L246.667 273.103C246.667 273.103 248.616 267.279 244.217 266.332L237.106 267.438C237.106 267.438 238.74 262.126 238.199 260.436C237.398 258.936 236.217 257.807 234.84 257.225C233.463 256.643 231.968 256.641 230.59 257.219C230.59 257.219 231.109 265.614 225.935 268.702C225.935 268.702 218.199 268.538 213.634 266.549Z" fill="#A54729"/>
<path d="M232.152 242.417C233.514 244.167 234.702 246.111 235.69 248.209C235.923 248.755 236.115 249.327 236.263 249.917C236.423 250.466 236.607 251.004 236.816 251.527C237.213 252.56 237.798 253.465 238.527 254.171C239.259 254.826 240.14 255.18 241.045 255.18C241.273 255.183 241.502 255.17 241.729 255.141L242.071 255.085C242.2 255.062 242.33 255.039 242.456 255.028C242.92 255.014 243.383 254.94 243.834 254.806C244.716 254.417 245.537 253.843 246.26 253.109C247.026 252.389 247.764 251.611 248.485 250.809C251.326 247.524 254.005 244.032 256.506 240.35L264.085 229.378L264.055 229.997C263.998 229.937 263.938 229.882 263.874 229.834C263.782 229.768 263.685 229.714 263.584 229.673C263.366 229.578 263.138 229.518 262.907 229.495C262.413 229.444 261.916 229.468 261.426 229.567C260.408 229.776 259.409 230.109 258.444 230.561C257.461 231.015 256.515 231.532 255.541 232.091C254.567 232.638 253.578 233.146 252.579 233.626C250.588 234.631 248.513 235.365 246.392 235.813C245.322 236.038 244.231 236.067 243.154 235.898C242.061 235.753 241.05 235.114 240.315 234.104C240.308 234.094 240.305 234.081 240.306 234.068C240.307 234.055 240.312 234.043 240.32 234.034C240.328 234.025 240.338 234.021 240.349 234.021C240.359 234.022 240.369 234.027 240.377 234.036C241.141 234.929 242.141 235.452 243.192 235.509C244.237 235.586 245.285 235.487 246.308 235.214C248.364 234.64 250.371 233.825 252.302 232.781C254.258 231.792 256.105 230.525 258.137 229.545C259.161 229.059 260.223 228.706 261.306 228.493C261.869 228.385 262.44 228.369 263.006 228.446C263.305 228.486 263.598 228.572 263.88 228.702C264.215 228.839 264.513 229.09 264.738 229.425C264.794 229.508 264.823 229.613 264.822 229.721C264.821 229.828 264.788 229.932 264.731 230.013L264.708 230.044C262.132 233.654 259.526 237.232 256.836 240.717C254.136 244.191 251.507 247.736 248.746 251.149C248.055 252.002 247.347 252.838 246.595 253.625C245.844 254.471 244.978 255.144 244.035 255.613C243.544 255.781 243.039 255.883 242.53 255.918L241.809 256.042C241.552 256.076 241.294 256.093 241.035 256.092C239.975 256.089 238.946 255.655 238.107 254.856C237.307 254.053 236.671 253.032 236.247 251.873C236.03 251.315 235.849 250.736 235.707 250.142C235.592 249.574 235.434 249.021 235.234 248.49C234.332 246.377 233.279 244.366 232.089 242.483C232.082 242.473 232.079 242.459 232.08 242.446C232.082 242.432 232.087 242.42 232.096 242.412C232.104 242.404 232.114 242.4 232.125 242.401C232.135 242.402 232.145 242.408 232.152 242.417Z" fill="#A54729"/>
<path d="M237.874 244.867C238.299 245.475 238.832 245.954 239.432 246.264C239.724 246.404 240.033 246.477 240.346 246.479C240.679 246.481 241.011 246.449 241.339 246.384C241.051 246.64 240.718 246.808 240.367 246.875C240.004 246.95 239.631 246.904 239.287 246.741C238.951 246.583 238.649 246.331 238.404 246.006C238.159 245.682 237.978 245.292 237.874 244.867Z" fill="white"/>
<path d="M240.04 247.178C239.758 247.174 239.478 247.111 239.214 246.99C238.847 246.816 238.517 246.541 238.249 246.186C237.981 245.831 237.782 245.405 237.668 244.94L237.423 243.898L238.028 244.685C238.429 245.266 238.935 245.722 239.505 246.016C239.774 246.145 240.059 246.212 240.346 246.215C240.631 246.22 240.914 246.195 241.195 246.14L242.207 245.985L241.458 246.604C241.143 246.884 240.777 247.067 240.392 247.138C240.276 247.165 240.158 247.178 240.04 247.178Z" fill="#A54729"/>
<path d="M240.769 255.899C240.769 255.899 239.617 258.614 243.479 261.35C243.479 261.35 244.426 262.936 248.338 257.897L269.083 233.902C269.083 233.902 267.431 227.94 263.621 230.813L258.872 237.439C258.872 237.439 257.257 232.118 255.947 231.289C254.543 230.816 253.051 230.931 251.706 231.616C250.36 232.301 249.237 233.517 248.511 235.074C248.511 235.074 253.393 240.956 251.159 247.492C251.159 247.492 245.261 253.673 240.769 255.899Z" fill="#A54729"/>
<path d="M223.766 68.54V44.7983C223.764 43.9873 223.502 43.2102 223.037 42.6368C222.573 42.0633 221.943 41.7401 221.286 41.7378H187.021C186.364 41.7401 185.734 42.0633 185.27 42.6367C184.805 43.2102 184.543 43.9873 184.542 44.7983V121.213C184.542 122.025 184.803 122.804 185.268 123.379C185.733 123.954 186.363 124.278 187.021 124.279H221.286C221.944 124.278 222.575 123.954 223.039 123.379C223.504 122.804 223.765 122.025 223.766 121.213V100.605H219.56V116.475C219.56 117.148 219.343 117.792 218.958 118.268C218.573 118.744 218.05 119.011 217.505 119.011H190.802C190.257 119.011 189.735 118.743 189.351 118.267C188.966 117.792 188.751 117.147 188.751 116.475V49.5421C188.75 49.2093 188.803 48.8796 188.906 48.5718C189.009 48.2641 189.16 47.9844 189.35 47.7488C189.541 47.5132 189.767 47.3263 190.016 47.1988C190.265 47.0712 190.532 47.0057 190.802 47.0058H217.505C217.775 47.0056 218.043 47.071 218.292 47.1984C218.541 47.3258 218.768 47.5126 218.959 47.7482C219.15 47.9838 219.301 48.2634 219.404 48.5713C219.508 48.8791 219.561 49.209 219.56 49.5421V68.54H223.766Z" fill="#A54729"/>
<path d="M196.755 116.818C196.67 116.818 196.586 116.792 196.511 116.742C196.436 116.693 196.372 116.621 196.325 116.533L194.034 112.266C193.983 112.171 193.953 112.059 193.949 111.944C193.945 111.829 193.966 111.715 194.01 111.614C194.054 111.513 194.119 111.428 194.199 111.369C194.279 111.31 194.371 111.279 194.464 111.279C194.935 111.279 195.386 111.048 195.719 110.637C196.052 110.226 196.239 109.669 196.239 109.088C196.239 108.507 196.052 107.949 195.719 107.538C195.386 107.127 194.935 106.897 194.464 106.897C194.396 106.897 194.329 106.881 194.266 106.849C194.203 106.817 194.146 106.77 194.098 106.711C194.05 106.652 194.012 106.582 193.986 106.504C193.96 106.427 193.947 106.344 193.947 106.26C193.947 106.177 193.96 106.094 193.986 106.016C194.012 105.939 194.05 105.869 194.098 105.81C194.146 105.75 194.203 105.704 194.266 105.672C194.329 105.64 194.396 105.624 194.464 105.624C195.132 105.624 195.778 105.918 196.286 106.454C196.794 106.989 197.131 107.731 197.236 108.545C197.34 109.359 197.206 110.193 196.857 110.896C196.509 111.599 195.968 112.126 195.333 112.381L197.184 115.83C197.236 115.926 197.265 116.037 197.27 116.152C197.274 116.267 197.253 116.381 197.209 116.483C197.165 116.584 197.1 116.669 197.02 116.728C196.94 116.787 196.848 116.818 196.755 116.818Z" fill="#A54729"/>
<path d="M198.532 106.897H191.784C191.716 106.897 191.649 106.881 191.586 106.849C191.524 106.817 191.467 106.77 191.419 106.711C191.371 106.652 191.332 106.582 191.306 106.504C191.28 106.427 191.267 106.344 191.267 106.26C191.267 106.177 191.28 106.094 191.306 106.016C191.332 105.939 191.371 105.869 191.419 105.81C191.467 105.75 191.524 105.704 191.586 105.672C191.649 105.64 191.716 105.624 191.784 105.624H198.532C198.6 105.624 198.667 105.64 198.73 105.672C198.792 105.704 198.849 105.75 198.897 105.81C198.945 105.869 198.984 105.939 199.01 106.016C199.036 106.094 199.049 106.177 199.049 106.26C199.049 106.344 199.036 106.427 199.01 106.504C198.984 106.582 198.945 106.652 198.897 106.711C198.849 106.77 198.792 106.817 198.73 106.849C198.667 106.881 198.6 106.897 198.532 106.897Z" fill="#A54729"/>
<path d="M198.532 112.551H191.784C191.716 112.552 191.649 112.535 191.586 112.504C191.524 112.472 191.467 112.425 191.419 112.366C191.371 112.307 191.332 112.236 191.306 112.159C191.28 112.082 191.267 111.999 191.267 111.915C191.267 111.831 191.28 111.748 191.306 111.671C191.332 111.594 191.371 111.524 191.419 111.464C191.467 111.405 191.524 111.358 191.586 111.327C191.649 111.295 191.716 111.278 191.784 111.279H198.532C198.6 111.278 198.667 111.295 198.73 111.327C198.792 111.358 198.849 111.405 198.897 111.464C198.945 111.524 198.984 111.594 199.01 111.671C199.036 111.748 199.049 111.831 199.049 111.915C199.049 111.999 199.036 112.082 199.01 112.159C198.984 112.236 198.945 112.307 198.897 112.366C198.849 112.425 198.792 112.472 198.73 112.504C198.667 112.535 198.6 112.552 198.532 112.551Z" fill="#A54729"/>
<path d="M205.854 116.818C205.769 116.818 205.685 116.792 205.61 116.742C205.535 116.693 205.471 116.621 205.424 116.533L203.133 112.266C203.081 112.171 203.052 112.059 203.047 111.944C203.043 111.829 203.064 111.715 203.108 111.614C203.152 111.513 203.218 111.428 203.298 111.369C203.378 111.31 203.469 111.279 203.562 111.279C204.033 111.279 204.485 111.048 204.818 110.637C205.151 110.226 205.338 109.669 205.338 109.088C205.338 108.507 205.151 107.949 204.818 107.538C204.485 107.127 204.033 106.897 203.562 106.897C203.426 106.896 203.295 106.829 203.199 106.71C203.102 106.59 203.048 106.429 203.048 106.26C203.048 106.092 203.102 105.93 203.199 105.811C203.295 105.692 203.426 105.624 203.562 105.624C204.231 105.624 204.877 105.918 205.385 106.453C205.893 106.989 206.23 107.731 206.334 108.545C206.439 109.359 206.305 110.193 205.956 110.896C205.607 111.6 205.067 112.126 204.431 112.382L206.283 115.83C206.335 115.926 206.364 116.037 206.368 116.152C206.373 116.267 206.352 116.381 206.308 116.482C206.264 116.584 206.198 116.668 206.118 116.728C206.038 116.787 205.947 116.818 205.854 116.818Z" fill="#A54729"/>
<path d="M207.631 106.897H200.883C200.815 106.897 200.748 106.881 200.685 106.849C200.622 106.817 200.565 106.77 200.517 106.711C200.469 106.652 200.431 106.582 200.405 106.504C200.379 106.427 200.366 106.344 200.366 106.26C200.366 106.177 200.379 106.094 200.405 106.016C200.431 105.939 200.469 105.869 200.517 105.81C200.565 105.75 200.622 105.704 200.685 105.672C200.748 105.64 200.815 105.624 200.883 105.624H207.631C207.699 105.624 207.766 105.64 207.829 105.672C207.891 105.704 207.948 105.75 207.996 105.81C208.045 105.869 208.083 105.939 208.109 106.016C208.135 106.094 208.148 106.177 208.148 106.26C208.148 106.344 208.135 106.427 208.109 106.504C208.083 106.582 208.045 106.652 207.996 106.711C207.948 106.77 207.891 106.817 207.829 106.849C207.766 106.881 207.699 106.897 207.631 106.897Z" fill="#A54729"/>
<path d="M207.631 112.551H200.883C200.815 112.552 200.748 112.535 200.685 112.504C200.622 112.472 200.565 112.425 200.517 112.366C200.469 112.307 200.431 112.236 200.405 112.159C200.379 112.082 200.366 111.999 200.366 111.915C200.366 111.831 200.379 111.748 200.405 111.671C200.431 111.594 200.469 111.524 200.517 111.464C200.565 111.405 200.622 111.358 200.685 111.327C200.748 111.295 200.815 111.278 200.883 111.279H207.631C207.699 111.278 207.766 111.295 207.829 111.327C207.891 111.358 207.948 111.405 207.996 111.464C208.045 111.524 208.083 111.594 208.109 111.671C208.135 111.748 208.148 111.831 208.148 111.915C208.148 111.999 208.135 112.082 208.109 112.159C208.083 112.236 208.045 112.307 207.996 112.366C207.948 112.425 207.891 112.472 207.829 112.504C207.766 112.535 207.699 112.552 207.631 112.551Z" fill="#A54729"/>
<path d="M214.747 116.818C214.662 116.818 214.578 116.792 214.503 116.742C214.428 116.693 214.364 116.621 214.317 116.533L212.026 112.266C211.975 112.171 211.945 112.059 211.941 111.944C211.936 111.829 211.957 111.715 212.001 111.614C212.045 111.513 212.111 111.428 212.191 111.369C212.271 111.31 212.362 111.279 212.456 111.279C212.927 111.279 213.378 111.048 213.711 110.637C214.044 110.226 214.231 109.669 214.231 109.088C214.231 108.507 214.044 107.949 213.711 107.538C213.378 107.127 212.927 106.897 212.456 106.897C212.388 106.897 212.321 106.881 212.258 106.849C212.195 106.817 212.138 106.77 212.09 106.711C212.042 106.652 212.004 106.582 211.978 106.504C211.952 106.427 211.938 106.344 211.938 106.26C211.938 106.177 211.952 106.094 211.978 106.016C212.004 105.939 212.042 105.869 212.09 105.81C212.138 105.75 212.195 105.704 212.258 105.672C212.321 105.64 212.388 105.624 212.456 105.624C213.124 105.624 213.77 105.918 214.278 106.453C214.786 106.989 215.123 107.731 215.228 108.545C215.332 109.359 215.198 110.193 214.849 110.896C214.501 111.6 213.96 112.126 213.325 112.382L215.176 115.83C215.228 115.926 215.257 116.037 215.262 116.152C215.266 116.267 215.245 116.381 215.201 116.482C215.157 116.584 215.091 116.668 215.012 116.728C214.932 116.787 214.84 116.818 214.747 116.818Z" fill="#A54729"/>
<path d="M216.524 106.897H209.776C209.708 106.897 209.641 106.881 209.578 106.849C209.515 106.817 209.458 106.77 209.41 106.711C209.362 106.652 209.324 106.582 209.298 106.504C209.272 106.427 209.259 106.344 209.259 106.26C209.259 106.177 209.272 106.094 209.298 106.016C209.324 105.939 209.362 105.869 209.41 105.81C209.458 105.75 209.515 105.704 209.578 105.672C209.641 105.64 209.708 105.624 209.776 105.624H216.524C216.592 105.624 216.659 105.64 216.722 105.672C216.784 105.704 216.841 105.75 216.89 105.81C216.938 105.869 216.976 105.939 217.002 106.016C217.028 106.094 217.041 106.177 217.041 106.26C217.041 106.344 217.028 106.427 217.002 106.504C216.976 106.582 216.938 106.652 216.89 106.711C216.841 106.77 216.784 106.817 216.722 106.849C216.659 106.881 216.592 106.897 216.524 106.897Z" fill="#A54729"/>
<path d="M216.524 112.551H209.776C209.708 112.552 209.641 112.535 209.578 112.504C209.515 112.472 209.458 112.425 209.41 112.366C209.362 112.307 209.324 112.236 209.298 112.159C209.272 112.082 209.259 111.999 209.259 111.915C209.259 111.831 209.272 111.748 209.298 111.671C209.324 111.594 209.362 111.524 209.41 111.464C209.458 111.405 209.515 111.358 209.578 111.327C209.641 111.295 209.708 111.278 209.776 111.279H216.524C216.592 111.278 216.659 111.295 216.722 111.327C216.784 111.358 216.841 111.405 216.89 111.464C216.938 111.524 216.976 111.594 217.002 111.671C217.028 111.748 217.041 111.831 217.041 111.915C217.041 111.999 217.028 112.082 217.002 112.159C216.976 112.236 216.938 112.307 216.89 112.366C216.841 112.425 216.784 112.472 216.722 112.504C216.659 112.535 216.592 112.552 216.524 112.551Z" fill="#A54729"/>
<path d="M249.81 68.4843C250.197 68.4852 250.571 68.659 250.863 68.9736C251.154 69.2882 251.344 69.7223 251.396 70.1959C251.429 71.1288 251.406 72.0364 251.421 72.9579C251.439 74.7943 251.444 76.6308 251.477 78.4672L251.642 89.4858L251.717 94.9951L251.744 97.7498L251.747 98.4384C251.757 98.704 251.741 98.9702 251.7 99.2311C251.597 99.7996 251.328 100.302 250.945 100.642C250.755 100.812 250.542 100.938 250.316 101.014C250.101 101.082 249.88 101.112 249.659 101.102L248.543 101.104L246.311 101.091L241.847 101.066L232.919 100.915L228.455 100.834L223.991 100.797C218.039 100.74 212.087 100.819 206.135 100.91C205.695 100.913 205.27 100.72 204.937 100.366C204.604 100.012 204.387 99.5206 204.325 98.9836C204.307 98.7406 204.299 98.4966 204.302 98.2526L204.294 97.5639L204.279 96.1866L204.229 90.6773L204.162 79.6587L204.139 74.1494L204.128 71.3947L204.125 70.706C204.115 70.4338 204.131 70.1611 204.173 69.8937C204.254 69.453 204.43 69.0477 204.683 68.7214C204.936 68.3951 205.257 68.1602 205.61 68.0419C205.727 68.0021 205.847 67.9758 205.968 67.9634L206.146 67.9528L206.285 67.9519L207.401 67.9488L209.633 67.9542L214.097 67.9651C220.049 67.9636 226.001 68.0177 231.953 68.1731C237.905 68.3181 243.857 68.4885 249.81 68.4843ZM249.81 68.5958C243.857 68.5916 237.905 68.7619 231.953 68.9069C226.001 69.0623 220.049 69.1163 214.097 69.1149L209.633 69.1258L207.401 69.1312L206.285 69.128L206.146 69.1272L206.045 69.1322C205.98 69.1378 205.917 69.1509 205.854 69.1714C205.666 69.232 205.494 69.3551 205.357 69.5273C205.221 69.6995 205.125 69.9143 205.08 70.1486C205.052 70.3322 205.041 70.5194 205.049 70.706L205.046 71.3947L205.035 74.1494L205.012 79.6587L204.945 90.6773L204.895 96.1866L204.88 97.5639L204.872 98.2526C204.871 98.4796 204.862 98.7272 204.876 98.8973C204.913 99.2794 205.061 99.6321 205.292 99.8899C205.524 100.148 205.823 100.293 206.135 100.299C212.087 100.389 218.039 100.469 223.991 100.411L228.455 100.375L232.919 100.294L241.847 100.143L246.311 100.118L248.543 100.105L249.659 100.107C249.81 100.12 249.961 100.104 250.108 100.06C250.242 100.017 250.368 99.9443 250.481 99.8458C250.711 99.6476 250.873 99.352 250.937 99.0155C250.967 98.8255 250.978 98.6317 250.97 98.4385L250.973 97.7498L251 94.9951L251.075 89.4858L251.241 78.4672C251.273 76.6308 251.279 74.7944 251.297 72.9579C251.299 72.0437 251.317 71.1126 251.293 70.2122C251.246 69.7671 251.069 69.3584 250.796 69.0613C250.524 68.7643 250.173 68.5989 249.81 68.5958Z" fill="#A54729"/>
<path d="M251.357 75.1939H204.587V78.3753H251.357V75.1939Z" fill="#A54729"/>
<path d="M245.294 97.1321C246.678 97.1321 247.8 95.7476 247.8 94.0399C247.8 92.3321 246.678 90.9476 245.294 90.9476C243.91 90.9476 242.789 92.3321 242.789 94.0399C242.789 95.7476 243.91 97.1321 245.294 97.1321Z" fill="#A54729"/>
<path d="M211.596 48.2801H196.711C196.576 48.2805 196.442 48.2478 196.316 48.184C196.191 48.1202 196.077 48.0266 195.981 47.9084C195.885 47.7902 195.809 47.6498 195.757 47.4952C195.705 47.3406 195.678 47.175 195.678 47.0076C195.678 46.8403 195.705 46.6746 195.757 46.52C195.809 46.3655 195.885 46.2251 195.981 46.1069C196.077 45.9887 196.191 45.895 196.316 45.8312C196.442 45.7674 196.576 45.7348 196.711 45.7351H211.596C211.732 45.7348 211.866 45.7674 211.992 45.8312C212.117 45.895 212.231 45.9887 212.327 46.1069C212.423 46.2251 212.499 46.3655 212.551 46.52C212.603 46.6746 212.63 46.8403 212.63 47.0076C212.63 47.175 212.603 47.3406 212.551 47.4952C212.499 47.6498 212.423 47.7902 212.327 47.9084C212.231 48.0266 212.117 48.1202 211.992 48.184C211.866 48.2478 211.732 48.2805 211.596 48.2801Z" fill="#A54729"/>
<path d="M204.587 81.7537V92.7737C203.424 92.735 202.319 92.1376 201.507 91.1085C200.695 90.0793 200.241 88.6999 200.241 87.2637C200.241 85.8275 200.695 84.448 201.507 83.4189C202.319 82.3898 203.424 81.7923 204.587 81.7537Z" fill="#A54729"/>
<path d="M219.558 53.3829H188.75V55.2915H219.558V53.3829Z" fill="#A54729"/>
<path d="M171.203 137.637C171.68 137.945 172.12 138.333 172.511 138.79C172.719 139.03 172.898 139.305 173.044 139.607C173.223 139.954 173.301 140.367 173.263 140.776C173.23 141.003 173.155 141.217 173.045 141.403C172.939 141.571 172.81 141.715 172.664 141.828C172.403 142.021 172.117 142.158 171.819 142.233C171.275 142.371 170.717 142.405 170.165 142.334C169.109 142.155 168.067 141.87 167.049 141.483C166.034 141.142 165.016 140.826 164 140.462C162.976 140.116 161.979 139.659 161.02 139.097C160.041 138.551 159.113 137.875 158.253 137.081C157.813 136.663 157.413 136.183 157.062 135.652C156.875 135.365 156.72 135.049 156.602 134.711C156.457 134.317 156.434 133.871 156.535 133.457C156.595 133.258 156.689 133.076 156.81 132.923C156.93 132.771 157.075 132.651 157.235 132.571C157.501 132.429 157.784 132.343 158.072 132.315C158.609 132.264 159.149 132.303 159.678 132.432L159.674 132.537C159.16 132.582 158.651 132.685 158.153 132.846C157.924 132.922 157.706 133.037 157.504 133.188C157.424 133.241 157.355 133.314 157.299 133.401C157.244 133.489 157.203 133.59 157.181 133.697C157.12 134.053 157.379 134.574 157.697 134.993C158.035 135.434 158.407 135.833 158.808 136.186C159.627 136.933 160.488 137.61 161.384 138.21C162.293 138.804 163.217 139.38 164.161 139.919C166.039 141.036 168.111 141.564 170.194 141.455C170.686 141.457 171.178 141.411 171.664 141.318C172.125 141.214 172.546 140.974 172.611 140.623C172.643 140.386 172.615 140.143 172.53 139.926C172.432 139.656 172.31 139.399 172.168 139.159C171.854 138.654 171.514 138.174 171.151 137.721L171.203 137.637Z" fill="#A54729"/>
<path d="M169.994 141.343C170.483 141.638 170.941 142.004 171.36 142.433C171.578 142.653 171.777 142.901 171.953 143.173C172.154 143.465 172.3 143.809 172.381 144.179C172.428 144.402 172.431 144.635 172.391 144.86C172.351 145.084 172.268 145.294 172.15 145.472C171.924 145.776 171.637 146 171.318 146.12C170.769 146.329 170.194 146.408 169.622 146.352C168.545 146.21 167.48 145.947 166.441 145.567C165.406 145.237 164.371 144.923 163.337 144.564C162.296 144.221 161.281 143.766 160.305 143.202C159.309 142.657 158.363 141.981 157.484 141.186C157.035 140.768 156.625 140.291 156.261 139.763C156.069 139.479 155.906 139.168 155.775 138.836C155.619 138.453 155.569 138.017 155.634 137.596C155.68 137.384 155.764 137.187 155.878 137.019C155.992 136.851 156.135 136.716 156.296 136.623C156.563 136.467 156.851 136.37 157.145 136.336C157.69 136.275 158.24 136.309 158.777 136.438L158.773 136.544C158.252 136.588 157.736 136.696 157.232 136.866C157.002 136.945 156.784 137.067 156.584 137.227C156.508 137.285 156.443 137.362 156.393 137.453C156.344 137.545 156.31 137.648 156.296 137.757C156.351 138.275 156.561 138.75 156.884 139.087C157.237 139.528 157.62 139.928 158.031 140.283C158.87 141.033 159.75 141.711 160.664 142.312C161.59 142.907 162.532 143.484 163.496 144.019C164.458 144.56 165.466 144.967 166.502 145.232C167.532 145.464 168.582 145.545 169.627 145.473C170.118 145.461 170.606 145.38 171.081 145.231C171.276 145.172 171.454 145.052 171.6 144.883C171.657 144.813 171.698 144.726 171.721 144.631C171.744 144.536 171.747 144.436 171.73 144.339C171.604 143.774 171.367 143.256 171.039 142.831C170.706 142.348 170.328 141.892 169.945 141.43L169.994 141.343Z" fill="#A54729"/>
</svg>
