<svg width="538" height="467" viewBox="0 0 538 467" fill="none" xmlns="http://www.w3.org/2000/svg">
<path d="M354.836 178.557C354.002 178.582 353.669 178.358 353.539 177.985C353.402 177.592 353.634 177.254 354.03 177.069C354.393 176.9 354.81 176.822 355.197 176.689C356.17 176.356 357.159 176.049 358.107 175.668C359.294 175.19 360.161 174.423 360.601 173.326C360.715 173.04 360.88 172.77 361.011 172.489C361.738 170.934 363.115 170.123 364.978 169.856C365.805 169.738 366.63 169.605 367.454 169.469C368.27 169.334 368.851 168.981 369.085 168.235C369.524 166.825 370.501 165.753 371.901 164.949C372.669 164.507 373.249 163.902 373.75 163.229C375.564 160.795 378.372 159.609 381.385 158.687C381.517 158.647 381.653 158.619 381.792 158.604C382.272 158.555 382.808 158.858 382.921 159.242C383.037 159.636 382.905 159.984 382.525 160.2C382.179 160.397 381.773 160.515 381.395 160.672C380.513 161.037 379.622 161.385 378.755 161.775C377.425 162.373 376.329 163.207 375.531 164.318C374.893 165.207 374.09 165.962 373.083 166.539C372.104 167.101 371.459 167.863 371.155 168.841C370.725 170.221 369.638 170.982 368.084 171.284C367.267 171.442 366.441 171.576 365.612 171.677C364.246 171.844 363.24 172.406 362.828 173.584C362.013 175.915 360.001 177.109 357.511 177.849C356.524 178.143 355.513 178.379 354.836 178.557ZM336.022 186.664C335.57 186.629 335.118 186.234 335.048 185.833C334.982 185.453 335.112 185.113 335.286 184.777C335.976 183.448 337.052 182.425 338.619 181.889C339.916 181.446 341.273 181.133 342.598 180.75C343.99 180.347 345.387 179.953 346.762 179.51C347.883 179.148 348.63 178.483 348.818 177.398C348.89 176.983 349.072 176.579 349.239 176.181C349.802 174.833 350.887 173.953 352.462 173.527C352.662 173.473 352.868 173.435 353.075 173.401C354.589 173.151 355.728 172.415 356.74 171.428C357.622 170.569 358.631 169.806 359.601 169.016C360.118 168.595 360.737 168.307 361.417 168.131C361.908 168.004 362.453 168.203 362.677 168.568C362.905 168.938 362.808 169.464 362.342 169.691C360.472 170.604 359.102 171.994 357.66 173.316C356.721 174.177 355.642 174.814 354.282 175.046C354.214 175.058 354.152 175.098 354.085 175.107C352.147 175.353 351.185 176.382 350.876 178.011C350.575 179.591 349.413 180.56 347.761 181.194C345.833 181.933 343.805 182.395 341.799 182.921C341.063 183.114 340.302 183.252 339.594 183.503C338.319 183.955 337.301 184.631 337.019 185.925C336.898 186.483 336.498 186.702 336.022 186.664Z" fill="#A54729"/>
<path d="M349.746 186.682C349.539 186.671 349.326 186.684 349.127 186.645C348.762 186.572 348.488 186.368 348.414 186.049C348.327 185.675 348.429 185.335 348.821 185.09C349.186 184.862 349.595 184.831 350.018 184.832C351.471 184.836 352.566 184.289 353.342 183.23C353.529 182.975 353.754 182.74 353.963 182.496C355.521 180.672 357.561 179.633 360.224 179.703C361.164 179.728 361.812 179.438 362.341 178.781C363.403 177.463 364.814 176.474 366.418 175.689C366.843 175.482 367.287 175.295 367.743 175.149C368.434 174.928 369.083 175.168 369.3 175.682C369.451 176.042 369.245 176.455 368.728 176.746C368.436 176.911 368.112 177.032 367.806 177.179C366.32 177.893 364.968 178.754 364.014 179.996C363.16 181.106 362.015 181.641 360.476 181.582C358.417 181.503 356.829 182.262 355.632 183.69C355.467 183.886 355.265 184.06 355.113 184.263C353.849 185.95 351.971 186.596 349.746 186.682Z" fill="#A54729"/>
<path d="M323.266 185.404C323.34 185.266 323.488 185.166 323.657 185.123C324.378 184.939 325.099 184.756 325.82 184.572C327.456 184.157 328.127 184.42 328.771 185.731C329.827 187.883 329.666 188.275 327.275 189.428C326.974 189.573 326.69 189.743 326.398 189.901C325.296 190.45 324.878 189.741 324.63 189.067C324.315 188.212 323.857 187.416 323.485 186.587C323.291 186.196 323.05 185.806 323.266 185.404Z" fill="#A54729"/>
<path d="M176.404 294.5C176.352 293.412 176.291 292.324 176.249 291.235C176.217 290.394 175.639 289.875 174.829 289.596C173.956 289.296 173.066 289.3 172.283 289.9C171.451 290.539 171.04 291.322 170.97 292.282C170.825 294.28 170.883 296.275 171.044 298.269C171.063 298.507 171.123 298.748 171.204 298.977C171.373 299.451 171.778 299.713 172.267 299.699C172.749 299.685 173.116 299.361 173.162 298.856C173.194 298.496 173.176 298.131 173.163 297.768C173.123 296.619 173.065 295.469 173.035 294.32C173.027 294.023 173.077 293.722 173.135 293.429C173.187 293.161 173.715 293.098 173.966 293.359C174.077 293.474 174.036 293.698 174.064 293.873L176.404 294.5Z" fill="#A54729"/>
<path d="M307.944 126.45C303.769 124.776 299.369 124.477 294.858 124.817C293.68 124.906 292.494 124.922 291.312 124.972C291.207 124.871 291.165 124.766 291.185 124.656C291.205 124.544 291.23 124.487 291.261 124.487C291.455 124.423 291.661 124.391 291.869 124.394C292.666 124.29 293.52 124.624 294.272 124.162C295.775 123.791 297.319 123.858 298.845 123.91C301.218 123.989 303.581 124.187 305.845 124.887C307.097 125.273 308.328 125.689 309.36 126.447C309.486 126.547 309.624 126.635 309.772 126.71C310.143 126.793 310.402 127.008 310.63 127.26C310.785 127.274 310.881 127.346 310.92 127.477L311.034 127.555C311.166 127.633 311.285 127.727 311.389 127.834L311.456 127.885C311.579 127.99 311.705 128.093 311.834 128.194L311.875 128.229C311.884 128.571 311.769 128.782 311.312 128.634C310.842 128.44 310.488 128.129 310.166 127.785C310.025 127.71 309.897 127.619 309.785 127.514L309.72 127.481C309.598 127.34 309.464 127.213 309.252 127.175L308.897 126.994C308.749 126.959 308.62 126.881 308.533 126.772L308.457 126.737C308.322 126.593 308.172 126.469 307.944 126.45Z" fill="#D5E6E6"/>
<path d="M315.239 131.851C316.885 133.97 318.056 136.302 319.248 138.623C319.325 138.774 319.297 138.971 319.295 139.146C319.294 139.191 319.214 139.262 319.157 139.274C319.033 139.3 318.857 139.344 318.781 139.293C318.618 139.181 318.486 139.039 318.393 138.878C317.162 136.707 315.94 134.532 314.716 132.357C314.56 131.931 314.788 131.804 315.239 131.851Z" fill="#D7D8D8"/>
<path d="M284.94 125.975L283.844 126.082C283.58 126.146 283.316 126.212 283.038 126.204C282.683 126.225 282.306 126.137 281.994 126.367C281.653 126.461 281.31 126.519 280.956 126.416C279.145 126.663 277.3 126.663 275.488 126.415C275.135 126.528 274.795 126.458 274.459 126.355C274.267 126.246 274.036 126.19 273.881 126.031C273.83 125.891 273.876 125.777 274.006 125.686L274.963 125.773C275.403 125.893 275.876 125.839 276.315 125.966L279.373 125.967C279.917 125.755 280.523 125.945 281.073 125.772L283.111 125.589C283.426 125.53 283.751 125.505 284.052 125.392L286.617 125.017C286.876 125.125 287.155 125.123 287.433 125.121C287.788 125.127 288.2 124.974 288.409 125.385C287.757 125.746 287.019 125.694 286.296 125.715C286.077 125.795 285.85 125.844 285.611 125.84C285.374 125.837 285.143 125.855 284.94 125.975Z" fill="#D1E8E8"/>
<path d="M311.312 128.634L311.874 128.229C312.771 128.781 313.49 129.472 314.023 130.307C314.144 130.708 313.939 130.845 313.501 130.792L311.312 128.634Z" fill="#D1DCDC"/>
<path d="M288.409 125.384L287.053 125.277C286.962 125.211 286.931 125.146 286.962 125.081C286.992 125.015 287.023 124.983 287.053 124.983C288.147 124.688 289.263 124.519 290.409 124.499C290.718 124.381 291.014 124.351 291.269 124.597L291.312 124.972L291.26 124.972C290.717 125.272 290.029 124.941 289.494 125.277L288.409 125.384Z" fill="#C7FEFE"/>
<path d="M275.488 126.415C277.31 126.415 279.133 126.416 280.956 126.416C279.134 126.85 277.311 126.903 275.488 126.415Z" fill="#CDD6D6"/>
<path d="M313.501 130.792L314.022 130.307C314.609 130.714 314.995 131.241 315.239 131.851L314.717 132.357C314.176 131.915 313.819 131.365 313.501 130.792Z" fill="#CCD1D1"/>
<path d="M233.319 319.062C233.114 318.822 233.311 318.379 232.806 318.289C232.774 318.037 232.891 317.831 233.072 317.645C233.204 317.511 233.326 317.365 233.596 317.406C233.763 317.974 233.758 318.542 233.319 319.062Z" fill="#879C9C"/>
<path d="M272.708 125.978C272.411 126.01 272.195 125.874 272.012 125.703C271.869 125.57 271.828 125.389 271.957 125.235C272.021 125.158 272.19 125.072 272.274 125.095C272.775 125.23 273.345 125.223 273.732 125.604C273.514 125.984 273.013 125.778 272.708 125.978Z" fill="#8FB9B9"/>
<path d="M294.272 124.162C293.994 124.453 293.618 124.537 293.206 124.544C292.674 124.553 292.142 124.56 291.611 124.567L291.48 124.438L291.603 124.304C292.486 124.168 293.374 124.098 294.272 124.162Z" fill="#BFFEFE"/>
<path d="M174.866 343.88L174.837 343.421C175.521 343.386 176.205 343.35 176.889 343.314C176.892 343.498 176.894 343.683 176.896 343.868C176.223 344.322 175.546 344.322 174.866 343.88Z" fill="#D8FFFF"/>
<path d="M281.073 125.772C280.562 126.202 279.956 126.016 279.373 125.967C279.92 125.77 280.485 125.7 281.073 125.772Z" fill="#CDD6D6"/>
<path d="M289.494 125.277C290.007 124.844 290.617 124.835 291.26 124.972C290.743 125.387 290.116 125.324 289.494 125.277Z" fill="#BAC1C1"/>
<path d="M272.708 125.978C272.929 125.607 273.395 125.738 273.731 125.603C273.842 125.584 273.933 125.611 274.006 125.685C274 125.781 273.993 125.877 273.985 125.973C273.764 126.259 273.499 126.225 273.214 126.053L272.708 125.978Z" fill="#EFFBFB"/>
<path d="M291.603 124.304C291.66 124.39 291.663 124.478 291.612 124.567C291.496 124.562 291.381 124.572 291.268 124.597C290.981 124.564 290.694 124.532 290.408 124.499C290.765 124.243 291.17 124.208 291.603 124.304Z" fill="#BAC1C1"/>
<path d="M273.214 126.053C273.471 126.027 273.729 126 273.986 125.974L274.458 126.355C273.989 126.423 273.566 126.347 273.214 126.053ZM276.315 125.966C275.842 126.013 275.351 126.156 274.961 125.772C275.437 125.711 275.891 125.76 276.315 125.966Z" fill="#CDD6D6"/>
<path d="M284.052 125.392C283.799 125.678 283.464 125.667 283.11 125.589C283.384 125.379 283.702 125.329 284.052 125.392ZM282.855 126.035L283.843 126.082C283.556 126.298 283.224 126.36 282.855 126.296C282.718 126.238 282.672 126.18 282.718 126.122C282.763 126.064 282.809 126.035 282.855 126.035Z" fill="#C5D2D2"/>
<path d="M282.855 126.035C282.85 126.122 282.85 126.209 282.855 126.296L281.994 126.367C282.2 126.098 282.509 126.029 282.855 126.035Z" fill="#CDD6D6"/>
<path d="M285.377 125.675L286.296 125.715C286.027 125.906 285.725 125.988 285.379 125.929L285.377 125.675Z" fill="#C5D2D2"/>
<path d="M210.211 333.999C209.994 334.292 209.722 334.476 209.293 334.355C209.507 334.059 209.814 333.941 210.211 333.999Z" fill="#A1D1D1"/>
<path d="M209.298 334.354C209.311 334.465 209.293 334.578 209.244 334.683C208.973 334.78 208.74 334.754 208.567 334.529C208.745 334.465 208.92 334.394 209.101 334.339C209.158 334.322 209.232 334.347 209.298 334.354Z" fill="#A1D1D1"/>
<path d="M285.377 125.675C285.372 125.76 285.372 125.844 285.378 125.929L284.94 125.975L285.377 125.675Z" fill="#CDD6D6"/>
<path d="M287.054 124.982V125.277C286.908 125.19 286.763 125.103 286.617 125.016L287.054 124.982Z" fill="#C6FEFE"/>
<path d="M309.784 127.514L310.165 127.784C309.955 127.782 309.838 127.681 309.784 127.514Z" fill="#D1DCDC"/>
<path d="M309.772 126.71C309.558 126.711 309.427 126.616 309.359 126.446C309.588 126.426 309.714 126.529 309.772 126.71ZM308.532 126.772C308.722 126.761 308.845 126.834 308.897 126.994L308.532 126.772ZM309.252 127.175C309.491 127.18 309.641 127.289 309.72 127.48C309.481 127.474 309.33 127.366 309.252 127.175Z" fill="#CCD2D2"/>
<path d="M310.92 127.478C310.773 127.455 310.676 127.382 310.629 127.259C310.8 127.257 310.896 127.332 310.92 127.478Z" fill="#D1DCDC"/>
<path d="M256.851 117.519C256.903 117.4 257.002 117.334 257.146 117.324C257.104 117.457 257.006 117.522 256.851 117.519Z" fill="#C6D5D5"/>
<path d="M311.833 128.194L311.455 127.884C311.678 127.899 311.799 128.006 311.833 128.194ZM311.388 127.833L311.033 127.554C311.243 127.56 311.353 127.661 311.388 127.833Z" fill="#D1DCDC"/>
<path d="M261.049 115.346L261.405 115.145C261.344 115.291 261.24 115.377 261.049 115.346Z" fill="#CAD8D8"/>
<path d="M306.159 108.54C306.436 108.558 306.653 108.659 306.784 108.879C306.493 108.881 306.284 108.769 306.159 108.54Z" fill="#D2D6D6"/>
<path d="M307.943 126.45C308.191 126.444 308.36 126.541 308.457 126.737C308.21 126.743 308.044 126.641 307.943 126.45Z" fill="#CCD2D2"/>
<path d="M283.777 282.931C283.179 282.913 282.7 282.311 282.967 281.887C283.198 281.519 283.515 281.189 283.812 280.855C287.935 276.232 292.543 271.992 297.407 267.96C303.177 263.177 308.929 258.375 315.122 253.996C318.27 251.771 321.502 249.643 324.869 247.673C325.447 247.334 326.05 247.029 326.675 246.759C327.192 246.537 327.683 246.659 327.991 246.996C328.284 247.318 328.228 247.79 327.797 248.137C327.437 248.425 327.052 248.688 326.644 248.923C320.101 252.701 314.071 257.037 308.307 261.659C305.377 264.009 302.478 266.389 299.581 268.77C294.697 272.784 290.119 277.049 285.801 281.525C285.441 281.896 285.071 282.26 284.691 282.615C284.442 282.848 284.122 282.958 283.777 282.931Z" fill="#A54729"/>
<path d="M355.959 286.274C355.794 286.79 355.584 287.622 355.264 288.421C353.617 292.536 351.252 296.301 347.946 299.599C344.108 303.427 339.758 306.751 334.886 309.557C333.253 310.498 331.606 311.419 329.973 312.359C328.04 313.472 325.943 314.305 323.815 315.082C323.433 315.221 323.02 315.327 322.61 315.371C322.154 315.421 321.783 315.211 321.607 314.843C321.427 314.466 321.564 314.114 321.952 313.889C322.237 313.724 322.568 313.618 322.885 313.498C325.008 312.702 327.049 311.776 328.973 310.654C332.168 308.792 335.471 307.07 338.455 304.94C340.949 303.16 343.286 301.242 345.466 299.177C349.265 295.578 351.955 291.435 353.566 286.761C353.707 286.354 353.845 285.943 354.036 285.553C354.301 285.011 354.895 284.738 355.354 284.902C355.812 285.067 356.016 285.411 355.959 286.274Z" fill="#A54729"/>
<path d="M280.833 183.633C279.221 183.581 277.715 183.367 276.313 182.765C275.876 182.578 275.439 182.374 275.21 181.966C275.05 181.683 274.998 181.403 275.186 181.104C275.417 180.736 275.787 180.612 276.229 180.638C276.43 180.65 276.651 180.704 276.819 180.798C278.855 181.938 281.072 181.821 283.301 181.479C285.525 181.138 287.589 180.421 289.434 179.278C290.701 178.493 291.773 177.581 292.239 176.213C292.491 175.474 293.054 175.198 293.596 175.335C294.215 175.492 294.474 176.083 294.282 176.851C294.068 177.705 293.533 178.41 292.913 179.071C291.975 180.069 290.808 180.835 289.533 181.479C286.825 182.848 283.891 183.526 280.833 183.633ZM296.014 143.565C299.516 143.549 302.575 144.549 305.19 146.575C306.711 147.754 307.98 149.12 309.113 150.583C309.342 150.878 309.506 151.224 309.626 151.566C309.751 151.919 309.391 152.459 308.963 152.6C308.531 152.742 308.123 152.655 307.837 152.335C307.582 152.05 307.387 151.723 307.145 151.427C306.215 150.289 305.243 149.176 304.041 148.239C300.53 145.5 296.521 144.719 292.008 145.968C291.876 146.005 291.75 146.062 291.617 146.091C290.959 146.237 290.38 146.037 290.203 145.612C290.042 145.222 290.347 144.72 290.923 144.432C291.907 143.939 294.133 143.559 296.014 143.565Z" fill="#A54729"/>
<path d="M272.047 146.483C272.537 146.483 273.03 146.455 273.516 146.494C273.78 146.515 274.058 146.614 274.282 146.742C274.579 146.912 274.783 147.17 274.724 147.507C274.669 147.831 274.43 148.082 274.1 148.183C273.784 148.28 273.414 148.308 273.077 148.28C270.636 148.08 268.362 148.629 266.137 149.414C264.126 150.124 262.537 151.264 261.445 152.904C260.99 153.587 260.576 154.292 260.096 154.962C259.727 155.476 259.137 155.596 258.669 155.323C258.14 155.014 257.962 154.599 258.249 154.059C259.69 151.346 261.601 149.018 264.928 147.802C267.213 146.967 269.557 146.439 272.047 146.483Z" fill="#A54729"/>
<path d="M282.965 166.248C282.932 167.133 282.747 167.776 282.404 168.382C282.158 168.817 281.863 169.233 281.65 169.679C281.121 170.787 281.375 171.615 282.467 172.415C282.73 172.608 283.062 172.733 283.317 172.933C283.826 173.334 283.629 174.005 282.986 174.268C282.484 174.473 282.021 174.374 281.577 174.192C280.082 173.58 278.938 171.636 279.269 170.232C279.379 169.763 279.572 169.296 279.816 168.866C280.341 167.943 280.934 167.05 281.136 166.013C281.168 165.85 281.302 165.678 281.444 165.561C281.716 165.337 282.061 165.309 282.418 165.398C282.722 165.474 282.865 165.676 282.928 165.92C282.972 166.094 282.968 166.277 282.965 166.248Z" fill="#A54729"/>
<path d="M176.606 344.509C176.465 344.899 176.234 345.24 175.873 345.507C175.432 345.289 175.262 344.917 175.117 344.53C175.6 343.806 176.096 343.776 176.606 344.509Z" fill="#192929"/>
<path d="M176.606 344.509C175.943 344.054 175.792 344.056 175.118 344.531C174.771 344.39 174.873 344.119 174.866 343.88L176.896 343.868C176.916 344.121 176.916 344.368 176.606 344.509Z" fill="#9C6969"/>
<path d="M272.808 157.524C271.326 156.068 268.956 156.126 267.543 157.639C266.187 159.093 266.122 161.593 267.428 163.069C268.308 164.064 269.497 164.498 270.921 164.296C272.258 164.106 273.175 163.427 273.666 162.31C273.905 161.762 274.019 161.178 274 160.591C274.034 159.402 273.68 158.38 272.808 157.524ZM269.771 161.336C269.737 161.405 269.649 161.625 269.527 161.831C269.36 162.109 268.874 162.149 268.665 161.915C268.116 161.299 267.992 160.625 268.355 159.913C268.425 159.776 268.649 159.634 268.817 159.618C268.988 159.603 269.255 159.698 269.345 159.819C269.642 160.224 269.822 160.676 269.771 161.336ZM271.161 161.753C271.06 161.721 270.932 161.622 270.918 161.541C270.887 161.354 271.011 161.204 271.236 161.188C271.495 161.169 271.527 161.359 271.563 161.525C271.516 161.718 271.385 161.825 271.161 161.753Z" fill="#A54729"/>
<path d="M302.824 155.469C301.192 154.125 299.057 154.279 297.813 155.892C296.882 157.1 296.55 158.423 297.099 159.856C297.546 161.024 298.444 161.762 299.756 162.226C301.048 162.682 302.965 162.272 303.721 160.724C304.019 160.113 304.162 159.456 304.193 158.708C304.081 157.572 303.929 156.378 302.824 155.469ZM300.879 159.477C300.803 159.728 300.59 159.914 300.31 159.951C300.027 159.988 299.775 159.857 299.623 159.628C299.105 158.846 299.06 158.017 299.361 157.178C299.437 156.968 299.671 156.749 299.978 156.781C300.158 156.799 300.378 156.91 300.484 157.04C300.902 157.552 301.017 158.147 301 158.925C300.983 159.005 300.948 159.245 300.879 159.477ZM302.547 159.69C302.393 159.92 302.168 160.065 301.88 159.913C301.648 159.79 301.437 159.579 301.612 159.319C301.704 159.183 301.901 159.035 302.069 159.016C302.362 158.984 302.645 159.42 302.547 159.69Z" fill="#A54729"/>
<path d="M303.459 107.014H303.459L303.461 107.016L303.459 107.014ZM259.189 115.727H259.184C259.186 115.729 259.188 115.729 259.191 115.731L259.189 115.727Z" fill="#A54729"/>
<path d="M424.311 333.247C424.265 333.089 424.134 332.918 423.984 332.82C423.628 332.588 423.194 332.622 422.772 332.631C417.52 332.736 412.268 332.828 407.016 332.943C397.984 333.139 388.951 333.351 379.919 333.547C379.367 333.559 378.799 333.652 378.208 333.416C378.038 332.676 377.82 331.912 377.695 331.137C377.57 330.356 377.495 329.565 377.472 328.777C377.364 325.13 377.33 321.482 377.18 317.837C376.842 309.632 376.059 301.454 375.147 293.285C374.485 287.357 373.801 281.431 373.202 275.498C372.732 270.834 372.092 266.189 371.328 261.557C370.466 256.326 369.525 251.103 368.543 245.888C367.619 240.973 366.55 236.08 365.163 231.244C363.807 226.514 362.038 221.922 359.393 217.602C357.903 215.167 356.081 212.949 353.823 211.014C348.382 206.35 342.026 203.046 334.57 201.446C329.256 200.305 323.809 199.895 318.385 199.376C318.118 199.351 317.82 199.39 317.568 199.471C317.222 199.583 316.978 199.854 316.989 200.165C316.996 200.377 317.166 200.628 317.352 200.779C317.541 200.933 317.829 201.04 318.09 201.075C319.265 201.232 320.449 201.339 321.624 201.493C325.291 201.974 328.961 202.442 332.618 202.973C333.558 203.11 334.557 203.205 335.345 203.717C335.288 204.031 335.037 204.161 334.807 204.291C331.288 206.278 327.781 208.282 324.241 210.241C318.93 213.182 313.391 215.785 307.897 218.454C303.05 220.808 297.949 222.594 292.489 223.592C288.177 224.379 284.151 223.943 280.43 221.815C279.548 221.311 278.725 220.751 278.031 220.056C277.544 219.568 277.51 219.402 277.938 218.964C280.329 216.515 283.098 214.532 286.674 213.49C289.39 212.699 292.068 211.812 294.775 210.997C298.463 209.887 301.432 207.958 303.732 205.225C305.898 202.649 307.437 199.806 308.68 196.82C309.105 195.799 309.255 194.697 309.91 193.747C311.14 193.519 312.375 193.313 313.597 193.058C317.335 192.277 320.106 191.652 323.779 190.66C322.371 189.167 321.338 186.067 321.338 185.542C321.001 185.623 314.17 186.886 310.677 187.771C310.61 187.788 310.548 187.823 310.48 187.834C310.19 187.882 309.918 187.869 309.807 187.578C309.693 187.279 309.939 187.108 310.18 187.011C311.916 186.305 313.001 185.048 313.933 183.674C314.394 182.995 314.802 182.287 315.183 181.572C316.483 179.138 317.34 176.575 318.098 173.983C318.28 173.361 318.491 172.746 318.686 172.133C321.382 172.773 322.672 172.436 324.331 170.669C324.775 170.198 325.167 169.694 325.504 169.161C325.906 168.524 326.249 167.856 326.561 167.181C327.884 164.321 328.394 161.326 328.376 158.265C328.367 156.809 328.226 155.348 327.717 153.942C327.55 153.479 327.35 153.025 327.116 152.584C326.867 152.117 326.56 151.673 326.225 151.134C327.631 150.638 328.854 150.06 329.98 149.337C332.104 147.972 333.25 146.254 332.891 143.862C332.385 140.487 331.684 137.146 330.841 133.825C330.33 131.81 329.513 129.86 329.161 127.811C328.58 124.43 327.382 121.197 326.055 117.993C325.158 115.829 323.712 114.017 321.718 112.496C318.981 110.409 316.155 108.417 313.295 106.461C311.256 105.067 309.086 103.845 306.688 102.956C304.052 101.979 301.354 101.648 298.487 102.091C294.96 102.635 291.4 102.812 287.827 102.303C286.032 102.047 284.221 101.879 282.414 101.693C278.624 101.302 275.017 101.844 271.641 103.396C270.221 104.049 268.814 104.739 267.482 105.517C262.775 108.266 257.758 110.545 252.782 112.904C248.004 117.265 243.847 122.028 240.048 127.018C239.278 128.029 238.602 129.098 237.956 130.174C237.439 131.035 237.116 131.962 236.896 132.926C236.302 135.535 236.952 137.998 237.967 140.422C238.325 141.276 238.781 142.099 239.177 142.942C239.772 144.207 239.968 145.485 239.634 146.86C239.275 148.342 238.996 149.847 239.098 151.382C239.318 154.704 240.67 157.52 243.858 159.534C244.077 159.672 244.269 159.844 244.529 160.042C243.465 161.374 243.15 162.841 243.155 164.381C243.158 165.724 243.318 167.049 243.694 168.354C244.36 170.671 245.378 172.854 246.967 174.818C247.78 175.821 248.719 176.725 249.966 177.329C251.124 177.89 252.33 178.051 253.562 177.462C253.799 177.348 254.055 177.266 254.375 177.141C254.969 178.082 255.52 178.99 256.112 179.878C256.382 180.283 256.337 180.69 256.283 181.113C255.985 183.407 255.721 185.705 255.378 187.994C255.179 189.317 254.844 190.621 254.273 191.875C253.415 193.763 252.024 195.215 249.892 196.099C249.387 196.308 248.883 196.518 248.385 196.739C243.575 198.867 239.995 201.955 238.298 206.505C237.996 207.314 237.669 208.116 237.412 208.936C236.624 211.453 235.92 213.992 235.077 216.496C234.136 219.291 233.108 222.065 232.065 224.833C230.018 230.263 228.316 235.775 227.059 241.379C226.044 245.907 225.188 250.464 224.347 255.02C223.451 259.878 222.653 264.749 221.818 269.615C221.158 273.459 220.554 277.311 219.837 281.148C219.038 285.424 218.691 289.714 218.974 294.042C219.021 294.768 219.04 295.507 218.939 296.226C218.492 299.416 217.106 302.171 214.054 304.18C212.651 305.104 211.186 305.915 209.607 306.577C206.313 307.956 203.285 309.687 200.434 311.672C198.566 312.973 196.982 314.51 195.328 315.996C192.523 318.517 191.804 318.943 187.102 318.021C187.034 318.007 186.969 317.985 186.901 317.969C184.549 317.389 182.192 316.828 179.849 316.222C178.99 316 177.891 316.051 177.348 315.436C176.812 314.826 177.074 313.915 177 313.135C176.995 313.074 176.996 313.013 176.994 312.953L176.413 296.73C176.4 296.366 176.365 295.637 176.365 295.637L174.151 295.177C174.151 295.177 174.247 296.667 174.26 297.032C174.45 302.5 174.645 307.967 174.823 313.436C174.838 313.904 175.029 314.401 174.584 314.921C172.401 314.413 170.164 313.939 167.963 313.365C166.205 312.906 164.415 312.664 162.599 312.56C159.724 312.396 157.41 313.308 155.734 315.38C154.463 316.951 153.706 318.694 153.365 320.581C153.278 321.06 153.204 321.542 153.108 322.02C152.89 323.109 152.246 323.928 151.068 324.4C148.306 325.507 147.019 327.522 146.762 330.206C145.908 333.341 145.713 333.922 143.255 333.872C138.285 333.771 133.315 333.65 128.346 333.542C123.516 333.437 118.686 333.338 113.856 333.236C113.624 333.819 113.658 334.42 113.699 335.021C113.976 335.051 114.253 335.102 114.531 335.108C119.012 335.21 123.493 335.305 127.975 335.402C128.815 335.42 129.656 335.425 130.495 335.461C131.075 335.485 131.248 335.671 131.158 336.138C131.077 336.557 130.969 336.973 130.856 337.386C128.559 345.775 126.259 354.163 123.961 362.551C123.816 363.082 123.651 363.612 123.545 364.149C123.386 364.956 123.855 365.419 124.819 365.43C125.168 365.434 125.517 365.386 125.866 365.359C127.749 365.212 129.632 365.069 131.514 364.914C134.999 364.628 138.484 364.337 141.968 364.043C145.661 363.732 149.354 363.411 153.047 363.1C156.531 362.807 160.017 362.528 163.501 362.233C167.125 361.926 170.746 361.6 174.369 361.295C177.923 360.996 181.48 360.72 185.034 360.422C190.4 359.973 195.765 359.517 201.13 359.059C203.708 358.839 206.283 358.589 208.863 358.391C209.753 358.323 210.286 357.978 210.52 357.24C210.613 356.948 210.762 356.67 210.876 356.383C212.018 353.515 213.158 350.646 214.299 347.777C215.714 344.22 217.149 340.668 218.529 337.101C218.838 336.302 219.327 335.956 220.313 335.914C223.88 335.76 227.445 335.569 231.004 335.323C231.954 335.258 232.621 335.463 233.167 336.118C233.411 336.411 233.725 336.664 234.033 336.912C236.781 339.118 239.765 340.961 243.426 341.911C246.675 342.754 249.648 342.346 252.453 340.787C253.926 339.969 255.381 339.122 256.807 338.244C257.512 337.809 258.205 337.566 259.103 337.55C268.137 337.382 277.169 337.17 286.202 336.974C297.475 336.729 308.748 336.488 320.022 336.245C331.365 336.001 342.709 335.752 354.052 335.514C363.575 335.313 373.099 335.133 382.622 334.929C391.795 334.732 400.967 334.515 410.14 334.309C414.201 334.218 418.262 334.134 422.323 334.039C422.877 334.026 423.451 334.085 423.969 333.848C424.237 333.724 424.386 333.505 424.311 333.247ZM307.31 194.865C306.266 197.316 305.096 199.719 303.578 201.979C303.015 202.816 302.364 203.612 301.706 204.396C299.839 206.622 297.366 208.164 294.405 209.11C291.717 209.969 289.034 210.846 286.308 211.604C281.716 212.882 278.283 215.46 275.398 218.692C274.614 219.57 274.189 220.599 273.779 221.849C273.354 221.608 273.055 221.456 272.778 221.278C270.265 219.667 266.156 219.871 263.701 222.801C263.163 223.444 262.742 224.14 262.497 224.91C262.342 225.396 261.972 225.568 261.4 225.533C259.865 225.439 258.326 225.383 256.79 225.283C256.204 225.245 255.996 225.04 256.061 224.598C256.415 222.186 256.297 219.746 256.712 217.334C257.137 214.861 257.732 212.441 258.764 210.103C259.269 208.959 259.93 207.895 260.789 206.929C264.817 202.398 270.196 199.653 277.296 199.308C279.87 197.186 282.382 195.068 284.495 192.627C285.504 191.462 286.553 190.322 287.632 189.205C288.353 188.458 289.185 187.801 290.238 187.404C290.812 187.188 291.404 187.444 291.52 187.973C291.665 188.64 291.63 189.308 291.387 189.954C290.845 191.396 290.328 192.846 289.722 194.267C288.995 195.974 288.233 197.67 287.685 199.43C287.596 199.718 287.487 200.023 287.515 200.311C287.553 200.69 287.824 200.984 288.283 201.08C288.737 201.175 289.151 201.062 289.371 200.713C289.603 200.346 289.774 199.939 289.903 199.533C290.782 196.769 292.239 194.21 293.593 191.614C293.972 190.888 294.445 190.216 295.113 189.665C295.375 189.448 295.716 189.342 296.073 189.472C296.354 189.574 296.487 189.817 296.495 190.059C296.508 190.48 296.525 190.915 296.419 191.32C296.172 192.265 295.901 193.209 295.552 194.129C294.787 196.146 293.965 198.146 293.174 200.156C293.04 200.498 292.908 200.847 292.846 201.203C292.767 201.654 293.113 202.073 293.579 202.181C294.043 202.29 294.561 202.093 294.802 201.673C294.987 201.349 295.135 201.006 295.268 200.662C296.048 198.65 296.822 196.636 297.589 194.62C298.493 192.242 299.887 190.068 301.28 187.895C301.613 187.376 301.977 186.803 302.743 186.671C303.139 186.603 303.394 187.478 303.225 188.469C302.916 190.283 302.242 192.006 301.425 193.688C300.148 196.315 298.847 198.934 297.57 201.561C297.326 202.063 297.144 202.587 296.94 203.103C296.816 203.413 296.917 203.705 297.078 203.98C297.25 204.274 297.551 204.414 297.925 204.431C298.301 204.448 298.613 204.341 298.794 204.037C298.89 203.876 298.97 203.707 299.051 203.539C300.747 199.999 302.397 196.441 304.218 192.947C304.567 191.468 305.222 190.065 305.876 188.67C306.032 188.338 306.262 188.024 306.513 187.739C306.822 187.388 307.466 187.501 307.74 187.901C308.078 188.394 308.129 188.941 308.149 189.483C308.214 191.316 308.052 193.124 307.31 194.865ZM270.068 226.853C270.116 227.249 269.739 227.645 269.247 227.719C268.676 227.805 268.165 227.5 268.051 227.005C267.958 226.598 268.314 226.225 268.852 226.167C269.476 226.1 270.014 226.404 270.068 226.853ZM324.385 166.833C323.881 167.905 323.265 168.925 322.349 169.784C321.966 170.144 321.545 170.453 320.96 170.55C320.095 170.694 319.212 170.097 319.301 169.344C319.4 168.501 319.603 167.667 319.761 166.828C320.551 162.63 320.992 158.398 321.291 154.155C321.355 153.249 321.852 152.688 322.676 152.266C323.357 151.916 324.006 152.031 324.547 152.567C325.113 153.129 325.396 153.813 325.638 154.513C326.128 155.927 326.17 157.384 326.179 158.161C326.17 161.606 325.59 164.274 324.385 166.833ZM314.41 115.044C314.47 114.966 314.645 114.891 314.746 114.91C315.404 115.033 315.892 115.355 316.26 115.806C316.36 115.929 316.431 116.055 316.581 116.13C316.654 116.166 316.712 116.217 316.753 116.281C316.852 116.435 317.039 116.556 317.192 116.672C318.602 117.749 319.726 119.027 320.616 120.469C322.262 122.362 323.404 124.498 324.477 126.657C326.192 130.106 327.499 133.661 327.998 137.419C328.263 139.423 328.203 141.407 327.702 143.368C327.432 144.423 327.06 145.484 325.802 146.037C325.687 146.093 325.569 146.125 325.448 146.128L324.909 146.198C324.68 146.253 324.459 146.23 324.228 146.155C324.18 146.139 324.141 146.108 324.12 146.067C324.099 146.027 324.097 145.981 324.114 145.939C324.154 145.844 324.231 145.775 324.378 145.761C324.642 145.738 324.862 145.704 325.126 145.69C325.164 145.669 325.218 145.654 325.251 145.625C326.248 144.951 326.661 144.016 326.905 142.975C327.515 140.368 327.299 137.774 326.687 135.207C325.618 130.724 323.721 126.504 321.097 122.532C320.752 122.01 320.442 121.47 320.117 120.937L316.387 116.85L316.383 116.846C316.138 116.63 315.864 116.442 315.573 116.274C315.134 116.02 314.745 115.712 314.401 115.361C314.339 115.297 314.35 115.12 314.41 115.044ZM277.616 107.742C278.025 107.454 278.304 107.239 278.824 107.089C278.867 107.058 278.922 107.049 278.981 107.017C281.458 106.026 284.015 105.605 286.722 106.157C288.218 106.462 289.719 106.744 291.218 107.037C292.876 107.247 294.535 107.234 296.195 107.047C296.684 106.946 297.174 106.857 297.679 106.962C297.796 106.922 297.917 106.89 298.04 106.866C299.686 106.456 301.351 106.454 303.031 106.776L303.021 106.82L303.41 106.93L303.39 106.934C303.883 106.879 304.342 106.82 304.655 107.246L304.718 107.273C304.872 107.35 304.925 107.328 305.13 107.442C305.308 107.433 305.479 107.554 305.675 107.631C306.415 107.746 307.021 108.088 307.594 108.485L307.594 108.486L307.595 108.485C308.942 108.995 310.013 109.823 311.006 110.735C311.232 110.942 311.527 111.202 311.171 111.49C310.92 111.693 310.645 111.524 310.462 111.358C309.363 110.36 308.015 109.639 306.754 108.82V108.82H306.753L306.714 108.799C306.554 108.618 306.364 108.48 306.088 108.46C305.686 108.508 305.403 108.324 305.144 108.094C303.323 107.493 301.437 107.257 299.495 107.335L298.798 107.396C298.266 107.663 297.617 107.356 297.091 107.657L295.522 107.762C294.299 107.966 293.076 107.946 291.854 107.759C290.649 107.89 289.548 107.432 288.391 107.291C287.983 107.241 287.588 107.117 287.187 107.026C284.986 106.523 282.81 106.609 280.653 107.226C280.394 107.3 280.115 107.32 279.845 107.365C279.824 107.375 279.802 107.383 279.781 107.392L279.565 107.51C278.969 107.801 278.723 108.028 278.128 108.319C277.86 108.45 277.607 108.464 277.445 108.202C277.334 108.02 277.452 107.857 277.616 107.742ZM245.042 145.419C244.997 145.882 244.999 146.356 244.798 146.787C244.678 147.043 244.506 147.868 244.493 147.858C244.453 149.41 244.192 150.97 244.741 152.5C244.771 152.581 244.67 152.749 244.575 152.801C244.388 152.904 244.17 152.865 244.049 152.694C243.906 152.491 243.742 152.278 243.688 152.052C243.257 150.252 243.258 148.467 244.027 146.722C244.053 145.972 244.281 145.261 244.572 144.562C244.59 144.539 244.64 143.837 244.754 143.521C244.771 143.337 244.813 143.155 244.902 142.977C244.914 140.617 244.868 138.255 244.951 135.897C245.113 131.334 246.53 127.073 249.233 123.147C249.444 122.84 252.989 119.452 252.989 119.452L253.319 118.997C253.805 118.335 254.507 117.894 255.287 117.53L255.37 117.504C255.583 117.455 255.737 117.336 255.856 117.176L255.867 117.171C256.01 117.069 256.158 116.971 256.309 116.878C256.339 116.775 256.411 116.743 256.525 116.779C256.712 116.738 256.901 116.7 257.09 116.666C257.091 116.658 257.091 116.65 257.094 116.641C257.122 116.556 257.15 116.513 257.18 116.513C257.539 116.166 258.234 115.826 258.425 115.728C258.689 115.576 258.894 115.497 259.303 115.374L259.363 115.351C259.471 115.299 259.592 115.247 259.726 115.178C259.84 115.128 259.957 115.083 260.076 115.045C260.249 114.968 260.415 114.88 260.574 114.783C260.68 114.731 260.763 114.714 260.882 114.673C261.097 114.634 261.25 114.503 261.421 114.401C261.523 114.35 261.558 114.358 261.687 114.306C261.927 114.282 262.091 114.141 262.267 114.018C262.61 113.861 262.983 113.728 263.279 113.588C263.526 113.512 263.753 113.442 263.911 113.256L263.935 113.243C263.912 113.22 267.37 111.256 269.128 110.317C269.208 110.274 269.397 110.335 269.505 110.391C269.735 110.511 269.695 110.726 269.561 110.847C269.231 111.147 268.889 111.456 268.49 111.678C267.276 112.355 264.76 113.558 264.78 113.588C264.263 113.936 263.72 114.242 263.08 114.389C263.042 114.397 263.007 114.411 262.975 114.429C262.923 114.457 262.886 114.476 262.83 114.507L262.233 114.768C262.094 114.812 261.993 114.853 261.882 114.935C261.722 114.997 261.582 115.073 261.424 115.137L261.384 115.156C261.289 115.209 261.194 115.262 261.1 115.316L260.713 115.48C260.534 115.531 260.379 115.614 260.237 115.715L260.26 115.728H260.217C260.21 115.733 260.202 115.737 260.195 115.743C260.129 115.827 260.044 115.873 259.94 115.88C259.861 115.886 259.787 115.914 259.727 115.96C259.135 116.41 258.433 116.702 257.72 116.979L257.611 116.961C257.492 117.13 257.302 117.211 257.075 117.246C256.997 117.333 256.899 117.398 256.78 117.439C255.79 118.097 253.802 119.561 253.88 119.494C253.802 119.561 253.755 119.61 253.7 119.686C253.58 119.85 253.381 119.956 253.252 120.115C253.093 120.311 252.872 120.457 252.627 120.584C252.674 120.496 251.276 122.086 250.49 122.776C249.28 124.683 248.08 126.588 247.333 128.689C246.4 131.314 245.822 133.977 245.824 136.729C245.825 137.151 245.782 137.573 245.759 137.996C245.72 138.151 245.782 141.763 245.819 141.901C245.707 142.039 245.848 143.407 245.491 144.019C245.491 143.95 245.468 144.983 245.042 145.419ZM264.305 135.109C263.927 135.845 263.402 136.484 262.666 136.982C262.42 137.27 262.204 137.582 261.923 137.841C259.017 140.519 256.07 143.162 252.979 145.681C252.685 146.015 252.404 146.357 252.095 146.68C249.892 148.984 248.382 151.512 248.647 154.623C248.652 154.68 248.634 154.755 248.593 154.794C248.508 154.875 248.408 154.982 248.3 154.995C248.189 155.009 247.993 154.954 247.951 154.88C247.631 154.317 247.616 153.715 247.697 153.103C247.915 151.454 248.51 149.909 249.48 148.487C250.297 147.291 251.191 146.136 252.463 145.25C252.724 144.972 252.961 144.675 253.248 144.419C256.215 141.778 259.191 139.144 262.165 136.507C262.612 135.81 263.174 135.189 263.816 134.621L264.011 134.318C264.062 134.188 264.153 134.072 264.274 133.983C264.822 132.894 265.523 131.857 265.741 130.653C265.761 130.543 266.054 130.391 266.211 130.399C266.397 130.408 266.5 130.597 266.483 130.796C266.353 132.279 265.612 133.542 264.626 134.718C264.523 134.84 264.421 134.962 264.318 135.085L264.305 135.109ZM252.767 175.586C252.4 175.958 251.922 176.033 251.441 175.838C251.005 175.661 250.567 175.44 250.217 175.158C249.708 174.749 249.216 174.303 248.822 173.81C246.62 171.05 245.481 167.978 245.323 164.63C245.314 163.648 245.366 162.681 245.882 161.784C246.312 161.036 246.897 160.86 247.77 161.189C248.567 161.49 249.079 161.855 249.219 162.75C249.775 166.301 250.879 169.741 252.396 173.078C252.626 173.585 252.838 174.098 253.072 174.604C253.258 175.004 253.047 175.302 252.767 175.586ZM250.971 159.711C250.808 158.142 250.865 156.553 250.883 154.974C250.9 153.536 251.458 152.224 252.436 151.074C253.34 150.012 254.449 149.066 255.513 148.156C260.545 144.642 264.343 140.296 267.078 135.296C267.779 134.015 268.551 133.558 270.205 133.562C272.793 133.569 275.314 132.923 277.802 132.294C281.559 131.346 285.299 130.345 289.071 129.441C291.703 128.81 294.381 128.299 297.145 128.485C302.619 128.854 307.5 130.388 311.391 133.923C312.944 135.334 314.363 136.805 315.583 138.457C317.85 141.527 318.729 144.906 318.947 148.472C318.961 148.715 318.94 148.96 318.971 149.201C319.462 153.097 319.088 156.962 318.514 160.829C317.88 165.108 317.182 169.375 315.972 173.566C315.222 176.16 314.33 178.713 313.028 181.145C312.466 182.194 311.826 183.205 310.97 184.099C310.179 184.925 309.248 185.567 307.924 185.435C306.896 185.333 306.238 185.896 305.373 186.454C305.143 186.093 305.04 185.86 304.87 185.674C303.84 184.548 302.519 184.366 301.183 185.158C300.476 185.577 299.958 186.15 299.512 186.775C299.151 187.281 298.803 187.795 298.448 188.307C296.466 187.207 296.341 187.209 293.849 188.368C293.778 188.06 293.723 187.763 293.64 187.472C293.132 185.705 291.006 184.844 288.987 185.825C288.321 186.149 287.672 186.536 287.122 186.991C286.315 187.66 285.563 188.388 284.858 189.14C283.71 190.364 282.614 191.626 281.505 192.878C281.141 193.289 280.704 193.471 280.085 193.503C277.941 193.611 275.904 193.251 273.936 192.558C271.38 191.659 269.123 190.342 267.055 188.772C263.053 185.732 259.96 182.078 257.432 178.041C253.844 172.311 251.646 166.207 250.971 159.711ZM255.011 194.678C256.606 192.683 257.23 190.384 257.553 188.017C257.742 186.633 257.833 185.239 257.979 183.85C258.003 183.63 257.91 183.368 258.2 183.209C258.738 183.189 258.839 183.618 259.063 183.885C260.549 185.652 262.158 187.327 263.955 188.862C266.007 190.614 268.254 192.147 270.781 193.353C273.108 194.463 275.584 195.196 278.183 195.398C278.315 195.801 278.072 195.943 277.86 196.096C276.65 196.968 275.237 197.519 273.724 197.773C268.684 198.618 264.448 200.69 260.913 203.891C260.724 204.063 260.494 204.201 260.154 204.449C260.189 203.583 259.605 203.191 258.988 202.769C256.768 201.253 255.438 199.226 254.633 196.905C254.352 196.095 254.434 195.399 255.011 194.678ZM223.777 271.119C223.955 270.037 224.164 268.959 224.348 267.878C225.045 263.793 225.69 259.702 226.443 255.625C227.284 251.071 228.132 246.514 229.141 241.986C230.39 236.383 232.083 230.871 234.123 225.441C235.142 222.73 236.138 220.012 237.061 217.276C237.925 214.716 238.669 212.125 239.484 209.552C239.725 208.792 240.044 208.051 240.305 207.296C241.724 203.197 244.902 200.436 249.177 198.514C250.228 198.041 251.292 197.592 252.349 197.133C252.769 197.342 252.803 197.722 252.926 198.066C253.725 200.315 255.017 202.295 257.088 203.861C257.822 204.417 258.548 204.948 259.631 204.838C259.554 205.053 259.548 205.19 259.469 205.277C256.462 208.597 255.348 212.523 254.645 216.582C254.322 218.448 254.152 220.322 254.19 222.211C254.224 223.919 253.88 225.568 253.409 227.234C252.375 230.887 251.46 234.567 250.622 238.258C249.567 242.906 248.1 247.468 246.915 252.087C245.245 258.603 243.646 265.133 242.018 271.658C241.841 272.368 241.67 273.08 241.48 273.855C241.229 273.834 241.145 273.848 241.092 273.819C237.948 272.144 234.468 271.626 230.853 271.56C228.683 271.52 226.514 271.419 224.351 271.669C223.913 271.72 223.711 271.52 223.777 271.119ZM216.188 337.307C213.755 343.382 211.304 349.451 208.921 355.54C208.617 356.318 208.177 356.553 207.291 356.62C203.179 356.93 199.072 357.3 194.963 357.652C191.412 357.956 187.862 358.271 184.31 358.573C180.827 358.869 177.344 359.152 173.861 359.447C170.101 359.764 166.341 360.091 162.58 360.409C159.167 360.697 155.753 360.975 152.34 361.263C148.51 361.586 144.68 361.92 140.85 362.241C137.297 362.538 133.743 362.824 130.191 363.116C128.877 363.224 127.563 363.337 126.325 363.441C125.949 363.065 126.169 362.788 126.242 362.517C128.555 354.012 130.87 345.508 133.186 337.003C133.202 336.944 133.213 336.884 133.23 336.825C133.595 335.568 133.595 335.563 135.027 335.592C137.614 335.643 140.2 335.701 142.752 335.755C143.133 336.148 142.811 336.471 142.708 336.781C142.36 337.832 142.002 338.872 141.989 339.985C141.974 341.256 142.572 342.221 143.783 342.889C144.309 343.179 144.884 343.436 145.476 343.594C149.615 344.7 153.755 345.805 157.917 346.843C159.117 347.142 160.388 347.243 161.633 347.392C162.979 347.552 164.186 347.266 164.905 346.198C165.701 345.015 165.73 343.763 164.926 342.555C164.657 342.15 164.275 341.802 163.825 341.291C164.489 341.131 165.019 341.209 165.534 341.229C166.092 341.251 166.651 341.296 167.205 341.36C167.69 341.415 168.167 341.518 168.65 341.587C171.473 341.992 171.899 341.966 174.504 341.223L174.767 343.341C174.876 343.448 174.978 343.56 175.073 343.677C175.224 343.92 175.315 344.189 175.471 344.426C175.74 344.699 175.945 344.563 176.136 344.342C176.301 344.102 176.412 343.841 176.584 343.608C176.681 343.491 176.759 343.366 176.82 343.233C176.798 341.896 176.762 340.56 176.759 339.223C176.758 338.641 176.939 338.464 177.617 338.422C180.41 338.248 183.204 338.102 185.998 337.937C191.444 337.616 196.89 337.283 202.336 336.964C205.479 336.78 208.623 336.618 211.766 336.44C213.295 336.353 214.822 336.252 216.322 336.159C216.486 336.628 216.325 336.964 216.188 337.307ZM172.725 336.827C172.229 336.827 171.777 336.758 171.317 336.571C168.167 335.287 164.883 334.291 161.646 333.192C161.003 332.973 160.389 332.681 159.782 332.391C159.484 332.249 159.599 331.835 159.912 331.663C160.348 331.423 160.823 331.335 161.311 331.385C165.395 331.802 169.525 331.592 173.605 332.071C174.107 332.13 174.357 332.322 174.359 332.755C174.361 333.36 174.359 333.965 174.359 334.569H174.407C174.407 334.811 174.405 335.053 174.408 335.295C174.426 336.808 174.395 336.83 172.725 336.827ZM233.249 318.982C232.862 321.811 232.481 324.641 232.087 327.47C231.869 329.041 231.854 330.615 231.883 332.194C231.903 333.325 231.75 333.467 230.507 333.527C228.624 333.617 226.739 333.674 224.857 333.779C220.047 334.049 215.238 334.339 210.427 334.614C210.011 334.638 209.591 334.608 209.173 334.603C209.074 334.516 209.049 334.438 209.098 334.369C209.142 334.307 209.184 334.276 209.224 334.274C209.481 334.062 209.872 334.11 210.14 333.919C212.787 332.838 215.325 331.578 217.904 330.383C224.139 327.495 229.237 323.594 232.736 318.209C233.546 318.147 233.387 318.569 233.249 318.982ZM227.791 321.169C225.105 324.026 221.829 326.287 218.141 328.104C215.952 329.182 213.761 330.258 211.568 331.331C209.188 332.496 206.684 333.429 204.162 334.328C202.333 334.979 200.424 335.269 198.442 335.35C194.946 335.494 191.455 335.735 187.963 335.933C184.539 336.126 181.117 336.326 177.692 336.5C176.627 336.555 176.644 336.425 176.579 335.264C176.593 334.403 176.612 333.542 176.63 332.681C177.452 332.144 178.376 332.602 179.243 332.482C179.448 332.454 179.663 332.475 179.871 332.451C181.862 332.224 182.88 330.75 182.133 329.114C181.904 328.611 181.518 328.164 181.221 327.683C180.996 327.318 180.553 327.049 180.561 326.575C180.746 326.174 181.262 326.244 181.587 326.033C182.474 325.458 182.801 324.701 182.575 323.794C182.25 322.494 181.502 321.429 180.101 320.78C177.594 319.62 174.923 318.963 172.089 318.818C171.747 318.8 171.392 318.848 171.054 318.912C170.682 318.982 170.468 319.218 170.419 319.549C170.364 319.919 170.641 320.32 171.041 320.385C171.864 320.518 172.693 320.633 173.523 320.734C175.349 320.956 177.024 321.557 178.659 322.256C178.97 322.39 179.279 322.548 179.542 322.742C180.129 323.176 180.553 324.083 180.279 324.32C179.847 324.693 179.256 324.711 178.703 324.665C177.729 324.585 176.726 324.547 175.799 324.308C174.178 323.891 172.526 323.682 170.865 323.472C169.343 323.279 167.834 323.014 166.317 322.789C166.047 322.749 165.75 322.683 165.5 322.742C165.083 322.839 164.76 323.079 164.692 323.491C164.637 323.821 164.768 324.111 165.062 324.295C165.521 324.582 166.062 324.712 166.621 324.8C168.891 325.155 171.157 325.538 173.43 325.881C174.399 326.027 175.326 326.26 176.256 326.543C177.955 327.058 179.075 328.066 179.883 329.406C180.398 330.262 180.156 330.611 178.98 330.602C178.282 330.597 177.576 330.569 176.887 330.478C171.96 329.825 166.969 329.94 162.024 329.512C160.775 329.403 159.679 329.719 158.647 330.27C158.349 330.429 158.08 330.624 157.846 330.85C157.061 331.614 157.057 332.53 157.822 333.322C158.374 333.893 159.098 334.279 159.864 334.575C160.948 334.994 162.055 335.372 163.171 335.725C165.533 336.47 167.828 337.374 170.261 337.955C170.859 338.098 171.423 338.371 171.978 338.625C172.548 338.885 172.873 339.329 172.729 339.605C172.526 339.995 172.095 340.049 171.67 340.056C171.181 340.065 170.685 340.081 170.203 340.023C166.945 339.635 163.69 339.228 160.435 338.827C158.288 338.563 156.143 338.287 153.993 338.045C153.666 338.008 153.304 338.096 152.98 338.185C152.614 338.286 152.44 338.564 152.419 338.886C152.398 339.207 152.534 339.537 152.871 339.649C153.453 339.842 154.068 340.013 154.684 340.071C157.099 340.298 159.242 341.205 161.403 342.055C161.961 342.275 162.47 342.646 162.911 343.027C163.934 343.911 163.663 344.868 162.324 345.26C161.788 345.416 161.25 345.506 160.676 345.39C159.384 345.129 158.063 344.956 156.793 344.632C153.442 343.775 150.106 342.871 146.774 341.959C143.511 341.066 143.854 340.589 144.972 336.478C147.233 334.935 148.553 333.033 148.802 330.661C148.859 330.12 149.027 329.586 149.179 329.055C149.533 327.813 150.33 326.858 151.657 326.261C152.029 326.093 152.413 325.939 152.764 325.742C154.492 324.768 155.203 323.288 155.415 321.59C155.591 320.186 155.973 318.838 156.737 317.589C157.031 317.106 157.37 316.645 157.749 316.21C158.738 315.077 160.046 314.479 161.71 314.467C163.546 314.453 165.335 314.685 167.099 315.109C173.833 316.729 180.567 318.351 187.304 319.964C188.868 320.339 190.433 320.568 192.065 320.191C193.033 319.968 193.901 319.637 194.681 319.096C195.779 318.333 196.771 317.479 197.7 316.567C200.843 313.481 204.59 311.065 208.74 309.102C209.599 308.696 210.494 308.346 211.347 307.931C212.322 307.457 213.304 306.982 214.221 306.43C218.094 304.104 220.065 300.82 220.619 296.811C220.945 294.451 221.064 292.087 221.042 289.716C221.018 287.09 221.511 284.51 221.93 281.924C222.319 279.519 222.756 277.119 223.178 274.718C223.383 273.545 223.462 273.47 224.939 273.39C227.884 273.23 230.816 273.418 233.747 273.658C235.082 273.767 236.37 274.018 237.614 274.444C238.004 274.578 238.398 274.709 238.769 274.876C240.949 275.857 241.056 276.046 240.603 278.111C239.794 281.809 238.986 285.507 238.164 289.203C237.447 292.427 237.082 295.694 236.565 298.942C236.106 301.83 235.798 304.751 235.061 307.586C233.772 312.544 231.538 317.183 227.791 321.169ZM256.424 336.143C254.727 337.212 252.994 338.244 251.227 339.224C248.992 340.464 246.618 340.792 244.011 340.09C240.288 339.088 237.332 337.107 234.556 334.848C234.168 334.532 234.074 334.166 234.065 333.711C234.024 331.462 234.024 329.226 234.374 326.982C235.306 321.025 236.109 315.052 237.027 309.092C237.583 305.482 238.266 301.886 238.873 298.281C239.378 295.277 239.721 292.247 240.372 289.268C242.182 280.979 243.899 272.673 245.99 264.431C247.719 257.615 249.538 250.819 251.39 244.027C252.773 238.951 254.092 233.854 255.101 228.705C255.193 228.233 255.258 227.746 255.663 227.228L261.979 227.44C262.21 228.215 262.359 228.871 262.604 229.499C263.139 230.869 264.111 231.975 265.554 232.706C267.74 233.814 269.938 233.747 272.125 232.647C272.651 232.383 273.027 231.892 273.607 231.804C273.926 231.957 273.863 232.146 273.849 232.307C273.518 236.306 273.179 240.305 272.846 244.305C272.67 246.426 272.501 248.547 272.33 250.669C271.788 257.396 271.24 264.124 270.706 270.852C270.36 275.216 270.036 279.582 269.7 283.947C269.551 285.887 269.374 287.825 269.252 289.766C269.201 290.582 269.534 290.972 270.266 291.159C270.689 291.267 271.089 291.235 271.464 291.013C271.868 290.773 272.287 290.552 272.689 290.31C275.28 288.746 278.118 287.554 280.863 286.222C281.898 285.72 281.672 286.039 283.844 287.759C287.77 291.788 292.008 295.585 295.737 299.76C297.323 301.535 298.836 303.36 300.369 305.171C300.656 305.51 300.88 305.889 301.235 306.395C300.139 307.201 299.192 307.919 298.218 308.609C296.322 309.954 294.388 311.26 292.511 312.625C289.502 314.814 286.265 316.738 283.068 318.7C279.749 320.738 276.591 322.947 273.419 325.143C271.394 326.546 269.35 327.919 267.25 329.236C263.62 331.512 260.048 333.858 256.424 336.143ZM374.194 333.634C362.024 334.103 262.87 336.151 260.822 335.979C260.661 335.64 261.043 335.569 261.222 335.454C264.547 333.327 267.913 331.249 271.208 329.089C273.61 327.514 275.948 325.864 278.268 324.199C281.51 321.872 285.023 319.866 288.407 317.708C290.834 316.159 293.22 314.573 295.528 312.89C297.768 311.258 300.081 309.701 302.422 308.068C303.754 309.632 304.763 311.291 305.729 312.968C306.26 313.89 306.706 314.85 307.188 315.793C307.33 316.07 307.443 316.36 307.61 316.625C307.869 317.034 308.429 317.214 308.859 317.059C309.302 316.898 309.676 316.421 309.55 316.04C309.358 315.46 309.107 314.891 308.837 314.334C306.927 310.392 304.318 306.795 301.523 303.297C298.767 299.847 295.707 296.601 292.504 293.457C289.628 290.635 286.729 287.831 283.851 285.01C282.626 283.809 281.756 283.623 279.967 284.482C277.582 285.626 275.134 286.684 272.901 288.059C272.517 288.296 272.167 288.629 271.637 288.59C271.396 288.208 271.535 287.849 271.562 287.501C271.954 282.529 272.349 277.556 272.757 272.585C273.25 266.583 273.767 260.582 274.253 254.58C274.606 250.214 274.921 245.846 275.262 241.48C275.556 237.72 275.877 233.963 276.159 230.203C276.309 228.202 276.4 226.199 276.521 224.197C276.567 223.425 276.586 222.649 276.939 221.933C277.574 221.973 277.833 222.386 278.201 222.642C280.084 223.953 282.213 224.859 284.491 225.493C286.537 226.061 288.655 225.959 290.742 225.72C295.281 225.198 299.609 224.018 303.761 222.359C305.411 221.7 307.052 221.013 308.64 220.248C314.452 217.451 320.279 214.675 325.893 211.584C329.438 209.632 332.927 207.604 336.442 205.611C336.794 205.411 337.18 205.247 337.492 205.01C338.106 204.543 338.751 204.567 339.435 204.829C340.33 205.172 341.251 205.475 342.109 205.878C349.371 209.292 355.256 213.856 358.689 220.562C360.774 224.634 362.302 228.848 363.462 233.17C364.828 238.259 365.934 243.394 366.854 248.557C367.828 254.02 368.801 259.483 369.657 264.961C370.714 271.713 371.198 278.536 372.261 285.272C372.833 293.583 373.962 301.843 374.552 310.151C375.036 316.952 374.931 323.766 375.354 330.565C375.413 331.517 375.306 332.478 375.498 333.364C375.042 333.703 374.604 333.618 374.194 333.634Z" fill="#A54729"/>
</svg>
