<svg width="80" height="81" viewBox="0 0 80 81" fill="none" xmlns="http://www.w3.org/2000/svg">
<path d="M63.9961 46.125C63.9961 45.005 63.1161 44.125 61.9961 44.125H55.9961V48.125H61.9961C63.1161 48.125 63.9961 47.245 63.9961 46.125Z" fill="#A54729"/>
<path d="M61.9961 56.125H55.9961V60.125H61.9961C63.1161 60.125 63.9961 59.245 63.9961 58.125C63.9961 57.005 63.1161 56.125 61.9961 56.125Z" fill="#A54729"/>
<path d="M49.9961 40.125H39.9961C37.7961 40.125 35.9961 41.925 35.9961 44.125V48.125H33.9961C32.8761 48.125 31.9961 49.005 31.9961 50.125V54.125C31.9961 55.205 32.9161 56.125 33.9961 56.125H35.9961V60.125C35.9961 62.325 37.7961 64.125 39.9961 64.125H49.9961C51.1161 64.125 51.9961 63.245 51.9961 62.125V42.125C51.9961 41.005 51.1161 40.125 49.9961 40.125Z" fill="#E19C5B"/>
<path d="M27 36.125H30C35.52 36.125 40 31.645 40 26.125C40 20.605 35.52 16.125 30 16.125H22C20.88 16.125 20 17.005 20 18.125C20 19.245 20.88 20.125 22 20.125H30C33.32 20.125 36 22.805 36 26.125C36 29.445 33.32 32.125 30 32.125H27C20.92 32.125 16 37.045 16 43.125C16 49.205 20.92 54.125 27 54.125H28V50.125H27C23.12 50.125 20 47.005 20 43.125C20 39.245 23.12 36.125 27 36.125Z" fill="#A54729"/>
</svg>
