<svg width="20" height="20" viewBox="0 0 20 20" fill="none" xmlns="http://www.w3.org/2000/svg">
<path d="M16.6922 16.6629H3.30469C2.60046 16.6621 1.92531 16.3819 1.42735 15.884C0.929384 15.386 0.649265 14.7109 0.648438 14.0066V5.99414C0.649265 5.28991 0.929384 4.61477 1.42735 4.1168C1.92531 3.61884 2.60046 3.33872 3.30469 3.33789H16.6922C17.3964 3.33872 18.0716 3.61884 18.5695 4.1168C19.0675 4.61477 19.3476 5.28991 19.3484 5.99414V14.0066C19.3476 14.7109 19.0675 15.386 18.5695 15.884C18.0716 16.3819 17.3964 16.6621 16.6922 16.6629ZM3.30469 4.27539C2.84885 4.27539 2.41168 4.45647 2.08935 4.7788C1.76702 5.10113 1.58594 5.5383 1.58594 5.99414V14.0066C1.58594 14.4625 1.76702 14.8997 2.08935 15.222C2.41168 15.5443 2.84885 15.7254 3.30469 15.7254H16.6922C17.148 15.7254 17.5852 15.5443 17.9075 15.222C18.2299 14.8997 18.4109 14.4625 18.4109 14.0066V5.99414C18.4109 5.5383 18.2299 5.10113 17.9075 4.7788C17.5852 4.45647 17.148 4.27539 16.6922 4.27539H3.30469Z" fill="#FACCAD"/>
<path d="M9.99791 11.8997C9.41964 11.9006 8.85685 11.713 8.39478 11.3653L1.09791 5.84657C1.04635 5.81039 1.00262 5.76419 0.969314 5.71073C0.936012 5.65726 0.913826 5.59764 0.904081 5.53541C0.894337 5.47318 0.897233 5.40963 0.912597 5.34855C0.927961 5.28746 0.955479 5.2301 0.993505 5.17989C1.03153 5.12968 1.07929 5.08765 1.13392 5.0563C1.18855 5.02496 1.24894 5.00495 1.31148 4.99746C1.37402 4.98998 1.43743 4.99517 1.49792 5.01274C1.5584 5.0303 1.61473 5.05988 1.66353 5.0997L8.96041 10.6247C9.26006 10.8484 9.62397 10.9692 9.99791 10.9692C10.3718 10.9692 10.7358 10.8484 11.0354 10.6247L18.3323 5.0997C18.3811 5.05988 18.4374 5.0303 18.4979 5.01274C18.5584 4.99517 18.6218 4.98998 18.6843 4.99746C18.7469 5.00495 18.8073 5.02496 18.8619 5.0563C18.9165 5.08765 18.9643 5.12968 19.0023 5.17989C19.0403 5.2301 19.0679 5.28746 19.0832 5.34855C19.0986 5.40963 19.1015 5.47318 19.0917 5.53541C19.082 5.59764 19.0598 5.65726 19.0265 5.71073C18.9932 5.76419 18.9495 5.81039 18.8979 5.84657L11.601 11.3653C11.139 11.713 10.5762 11.9006 9.99791 11.8997Z" fill="#FACCAD"/>
<path d="M1.30538 15.3561C1.21031 15.3563 1.11744 15.3275 1.0391 15.2736C0.960762 15.2198 0.900654 15.1433 0.866753 15.0545C0.832851 14.9657 0.826759 14.8687 0.849285 14.7763C0.871811 14.6839 0.92189 14.6006 0.992876 14.5374L6.74288 9.40925C6.8357 9.32637 6.95765 9.28376 7.08189 9.29079C7.20614 9.29782 7.3225 9.35392 7.40538 9.44675C7.48826 9.53957 7.53087 9.66152 7.52383 9.78576C7.5168 9.91001 7.4607 10.0264 7.36788 10.1092L1.61788 15.2374C1.53249 15.3151 1.42082 15.3575 1.30538 15.3561ZM18.6991 15.3561C18.5837 15.3575 18.472 15.3151 18.3866 15.2374L12.6366 10.1092C12.5438 10.0264 12.4877 9.91001 12.4807 9.78576C12.4736 9.66152 12.5162 9.53957 12.5991 9.44675C12.682 9.35392 12.7984 9.29782 12.9226 9.29079C13.0469 9.28376 13.1688 9.32637 13.2616 9.40925L19.0085 14.5374C19.0795 14.6006 19.1296 14.6839 19.1521 14.7763C19.1746 14.8687 19.1685 14.9657 19.1346 15.0545C19.1007 15.1433 19.0406 15.2198 18.9623 15.2736C18.8839 15.3275 18.7911 15.3563 18.696 15.3561H18.6991Z" fill="#FACCAD"/>
</svg>
