<svg width="15" height="15" viewBox="0 0 15 15" fill="none" xmlns="http://www.w3.org/2000/svg">
<path d="M12.4782 12.5092H2.47337C1.94708 12.5086 1.44253 12.2982 1.07038 11.9243C0.698241 11.5503 0.488899 11.0433 0.488281 10.5145V4.49761C0.488899 3.96878 0.698241 3.46178 1.07038 3.08784C1.44253 2.7139 1.94708 2.50355 2.47337 2.50293H12.4782C13.0045 2.50355 13.5091 2.7139 13.8812 3.08784C14.2534 3.46178 14.4627 3.96878 14.4633 4.49761V10.5145C14.4627 11.0433 14.2534 11.5503 13.8812 11.9243C13.5091 12.2982 13.0045 12.5086 12.4782 12.5092ZM2.47337 3.20693C2.13271 3.20693 1.806 3.34292 1.56511 3.58496C1.32423 3.82701 1.1889 4.1553 1.1889 4.49761V10.5145C1.1889 10.8568 1.32423 11.1851 1.56511 11.4271C1.806 11.6692 2.13271 11.8052 2.47337 11.8052H12.4782C12.8189 11.8052 13.1456 11.6692 13.3865 11.4271C13.6274 11.1851 13.7627 10.8568 13.7627 10.5145V4.49761C13.7627 4.1553 13.6274 3.82701 13.3865 3.58496C13.1456 3.34292 12.8189 3.20693 12.4782 3.20693H2.47337Z" fill="#FACCAD"/>
<path d="M7.66306 8.74995C7.21901 8.75061 6.78683 8.61469 6.43201 8.36279L0.82871 4.36442C0.78912 4.33821 0.755536 4.30473 0.729963 4.266C0.704391 4.22726 0.687354 4.18407 0.679871 4.13898C0.672388 4.0939 0.674612 4.04785 0.68641 4.0036C0.698209 3.95934 0.719339 3.91778 0.74854 3.8814C0.777741 3.84503 0.814412 3.81457 0.856365 3.79186C0.898318 3.76915 0.944692 3.75466 0.992716 3.74923C1.04074 3.74381 1.08943 3.74757 1.13588 3.7603C1.18233 3.77303 1.22558 3.79446 1.26306 3.8233L6.86636 7.8262C7.09646 7.98827 7.37592 8.07582 7.66306 8.07582C7.9502 8.07582 8.22966 7.98827 8.45976 7.8262L14.0631 3.8233C14.1005 3.79446 14.1438 3.77303 14.1902 3.7603C14.2367 3.74757 14.2854 3.74381 14.3334 3.74923C14.3814 3.75466 14.4278 3.76915 14.4698 3.79186C14.5117 3.81457 14.5484 3.84503 14.5776 3.8814C14.6068 3.91778 14.6279 3.95934 14.6397 4.0036C14.6515 4.04785 14.6537 4.0939 14.6462 4.13898C14.6388 4.18407 14.6217 4.22726 14.5962 4.266C14.5706 4.30473 14.537 4.33821 14.4974 4.36442L8.89411 8.36279C8.53928 8.61469 8.10711 8.75061 7.66306 8.74995Z" fill="#FACCAD"/>
<path d="M0.982916 11.9736C0.910431 11.9737 0.839627 11.9499 0.779898 11.9055C0.72017 11.8611 0.674342 11.7981 0.648494 11.7248C0.622647 11.6516 0.618002 11.5715 0.635177 11.4953C0.652351 11.4192 0.690533 11.3504 0.744656 11.2983L5.12865 7.06878C5.19943 7.00042 5.2924 6.96528 5.38713 6.97108C5.48186 6.97688 5.57058 7.02315 5.63377 7.09971C5.69696 7.17627 5.72945 7.27685 5.72408 7.37932C5.71872 7.48179 5.67595 7.57776 5.60518 7.64611L1.22118 11.8756C1.15607 11.9397 1.07093 11.9747 0.982916 11.9736ZM14.2445 11.9736C14.1565 11.9747 14.0714 11.9397 14.0063 11.8756L9.62225 7.64611C9.55148 7.57776 9.50871 7.48179 9.50334 7.37932C9.49798 7.27685 9.53047 7.17627 9.59366 7.09971C9.65685 7.02315 9.74557 6.97688 9.8403 6.97108C9.93502 6.96528 10.028 7.00042 10.0988 7.06878L14.4804 11.2983C14.5345 11.3504 14.5727 11.4192 14.5899 11.4953C14.607 11.5715 14.6024 11.6516 14.5766 11.7248C14.5507 11.7981 14.5049 11.8611 14.4451 11.9055C14.3854 11.9499 14.3146 11.9737 14.2421 11.9736H14.2445Z" fill="#FACCAD"/>
</svg>
