<svg width="512" height="512" viewBox="0 0 512 512" fill="none" xmlns="http://www.w3.org/2000/svg">
<g clip-path="url(#clip0_694_4212)">
<path d="M100.481 70.187C98.4923 68.198 96.1309 66.6201 93.532 65.5436C90.9331 64.4671 88.1477 63.9131 85.3347 63.9131C82.5217 63.9131 79.7362 64.4671 77.1374 65.5436C74.5385 66.6201 72.1771 68.198 70.188 70.187C66.1709 74.2042 63.9141 79.6526 63.9141 85.3337C63.9141 91.0148 66.1709 96.4632 70.188 100.48L190.295 220.587C182.696 234.723 179.854 250.931 182.19 266.809C184.526 282.687 191.916 297.389 203.264 308.738C214.612 320.086 229.315 327.476 245.193 329.812C261.071 332.148 277.279 329.306 291.415 321.707L411.521 441.814C413.505 443.813 415.864 445.4 418.464 446.483C421.063 447.566 423.852 448.124 426.668 448.124C429.484 448.124 432.273 447.566 434.872 446.483C437.472 445.4 439.831 443.813 441.815 441.814C443.814 439.83 445.401 437.471 446.484 434.871C447.567 432.272 448.125 429.483 448.125 426.667C448.125 423.851 447.567 421.062 446.484 418.463C445.401 415.863 443.814 413.504 441.815 411.52L100.481 70.187ZM256.001 288C247.514 288 239.375 284.629 233.374 278.628C227.373 272.627 224.001 264.487 224.001 256V254.507L257.281 287.787L256.001 288Z" fill="#A54729"/>
<path d="M260.694 362.666C168.96 364.8 108.8 286.08 90.0268 256C103.392 234.681 119.453 215.177 137.813 197.973L106.667 167.893C82.5884 190.58 61.9609 216.67 45.4402 245.333C43.5678 248.576 42.582 252.255 42.582 256C42.582 259.744 43.5678 263.423 45.4402 266.666C58.8802 289.92 130.774 405.333 256.427 405.333H261.76C285.388 404.632 308.71 399.794 330.667 391.04L296.96 357.333C285.107 360.451 272.943 362.24 260.694 362.666ZM466.56 245.333C452.907 221.653 377.6 102.826 250.24 106.666C226.612 107.367 203.291 112.205 181.333 120.96L215.04 154.666C226.894 151.548 239.057 149.759 251.307 149.333C342.827 146.986 402.987 225.92 421.974 256C408.279 277.382 391.856 296.888 373.12 314.026L405.334 344.106C429.714 321.478 450.632 295.386 467.414 266.666C469.158 263.349 469.997 259.63 469.848 255.885C469.698 252.14 468.564 248.5 466.56 245.333Z" fill="#A54729"/>
</g>
<defs>
<clipPath id="clip0_694_4212">
<rect width="512" height="512" fill="white"/>
</clipPath>
</defs>
</svg>
