<svg width="14" height="15" viewBox="0 0 14 15" fill="none" xmlns="http://www.w3.org/2000/svg">
<g clip-path="url(#clip0_468_4065)">
<path fill-rule="evenodd" clip-rule="evenodd" d="M11.375 0H2.625C1.17526 0 0 1.19412 0 2.66711V11.5575C0 13.0305 1.17526 14.2246 2.625 14.2246H11.375C12.8247 14.2246 14 13.0305 14 11.5575V2.66711C14 1.19412 12.8247 0 11.375 0ZM11.0195 7.6607H9.70974V12.5869H7.52132V7.6607H6.67211V6.00053H7.52132V4.94305C7.52132 3.55802 8.08868 2.73449 9.695 2.73449H11.3234V4.38717H10.3766C9.75026 4.38717 9.70974 4.62487 9.70974 5.06658L9.70789 5.99866H11.1963L11.0176 7.65882L11.0195 7.6607Z" fill="white"/>
</g>
<defs>
<clipPath id="clip0_468_4065">
<rect width="14" height="14.2246" fill="white"/>
</clipPath>
</defs>
</svg>
