<svg width="461" height="413" viewBox="0 0 461 413" fill="none" xmlns="http://www.w3.org/2000/svg">
<path d="M277.935 341.97C277.961 341.081 278.147 340.207 278.482 339.402C278.612 339.073 278.851 338.817 279.147 338.689C279.281 338.641 279.421 338.616 279.562 338.614C279.72 338.644 279.878 338.659 280.036 338.704C280.737 339.004 281.404 339.397 282.025 339.875C282.716 340.333 283.414 340.806 284.178 341.234C284.977 341.678 285.846 341.936 286.734 341.993C287.622 342.006 288.501 341.784 289.302 341.347C289.342 341.325 289.388 341.302 289.427 341.28C285.851 343.757 281.485 345.282 277.935 341.97Z" fill="#A54729"/>
<path d="M305.944 312.122C305.252 311.844 304.357 311.1 303.31 309.388C300.695 305.116 298.976 309.651 298.976 309.651C295.341 316.056 291.468 312.535 290.698 312.092C290.543 312.02 290.374 312.002 290.21 312.039C289.994 312.067 289.782 312.125 289.578 312.212C288.274 312.722 286.417 314.262 286.312 316.424C286.212 317.432 285.948 318.41 285.535 319.308C286.129 318.917 286.777 318.643 287.451 318.497C288.113 318.34 288.79 318.277 289.466 318.309C290.161 318.337 290.846 318.497 291.495 318.782C291.84 318.911 292.159 319.117 292.433 319.39C292.707 319.662 292.93 319.994 293.088 320.367C292.501 320.1 291.877 319.953 291.244 319.931C290.639 319.879 290.026 319.841 289.4 319.811C288.781 319.781 288.149 319.736 287.51 319.668C286.845 319.608 286.184 319.487 285.535 319.308C284.935 320.717 284.246 322.075 283.473 323.37C284.007 322.92 284.621 322.61 285.271 322.462C285.922 322.297 286.592 322.258 287.254 322.349C287.928 322.432 288.581 322.664 289.177 323.032C289.781 323.392 290.289 323.932 290.645 324.594C289.967 324.444 289.407 324.241 288.821 324.144C288.241 324.024 287.675 323.911 287.102 323.836C285.943 323.671 284.791 323.611 283.46 323.385C282.874 324.392 282.42 325.067 282.42 325.067C281.867 325.743 281.373 326.389 280.912 327.02C281.538 326.708 282.206 326.52 282.887 326.464C283.568 326.4 284.253 326.446 284.922 326.599C285.614 326.745 286.275 327.038 286.872 327.463C287.498 327.874 287.978 328.522 288.228 329.295C287.659 328.969 287.061 328.715 286.444 328.537C285.864 328.349 285.265 328.214 284.665 328.071C283.392 327.823 282.136 327.474 280.905 327.027H280.898C280.879 327.057 280.859 327.08 280.839 327.11C280.642 331.69 280.543 335.385 280.543 335.385C279.409 337.002 277.952 338.287 276.295 339.132C276.385 339.837 276.65 340.499 277.059 341.039C277.331 341.373 277.624 341.684 277.935 341.97C277.688 341.042 277.672 340.055 277.889 339.117C278.02 338.566 278.337 338.096 278.771 337.81C278.998 337.662 279.249 337.568 279.509 337.532C279.75 337.52 279.993 337.53 280.233 337.562C280.457 337.615 280.688 337.668 280.905 337.735L281.517 338.021C281.913 338.216 282.268 338.426 282.63 338.629C283.355 339.057 284.04 339.522 284.731 339.875C285.371 340.269 286.076 340.505 286.801 340.57C287.525 340.635 288.254 340.526 288.939 340.251C290.427 339.631 291.868 338.872 293.247 337.983C294.972 336.047 296.385 333.779 297.422 331.285C300.115 324.955 305.226 321.756 307.557 317.596C307.61 317.506 307.656 317.423 307.702 317.333C307.952 316.873 308.105 316.354 308.149 315.815C308.194 315.277 308.128 314.734 307.958 314.229C307.788 313.725 307.517 313.272 307.168 312.906C306.818 312.54 306.399 312.272 305.944 312.122ZM300.063 317.055C299.78 317.873 299.45 318.668 299.075 319.436C298.707 320.209 298.296 320.954 297.843 321.666C297.384 322.402 296.859 323.082 296.276 323.693C296.418 322.806 296.638 321.938 296.934 321.103C297.224 320.286 297.553 319.489 297.922 318.715C298.291 317.943 298.703 317.198 299.154 316.484C299.613 315.748 300.138 315.068 300.721 314.457C300.581 315.347 300.36 316.217 300.063 317.055Z" fill="#A54729"/>
<path d="M282.262 160.055C281.801 159.353 281.179 158.81 280.464 158.486L280.457 158.478C280.399 158.445 280.344 158.405 280.293 158.358C280.802 159.942 281.574 161.4 282.565 162.653C282.585 162.571 282.598 162.496 282.611 162.413C282.694 162.013 282.706 161.599 282.647 161.194C282.587 160.789 282.456 160.401 282.262 160.055ZM282.262 160.055C281.801 159.353 281.179 158.81 280.464 158.486L280.457 158.478C280.399 158.445 280.344 158.405 280.293 158.358C280.802 159.942 281.574 161.4 282.565 162.653C282.585 162.571 282.598 162.496 282.611 162.413C282.694 162.013 282.706 161.599 282.647 161.194C282.587 160.789 282.456 160.401 282.262 160.055ZM282.262 160.055C281.801 159.353 281.179 158.81 280.464 158.486L280.457 158.478C280.399 158.445 280.344 158.405 280.293 158.358C280.802 159.942 281.574 161.4 282.565 162.653C282.585 162.571 282.598 162.496 282.611 162.413C282.694 162.013 282.706 161.599 282.647 161.194C282.587 160.789 282.456 160.401 282.262 160.055ZM282.262 160.055C281.801 159.353 281.179 158.81 280.464 158.486L280.457 158.478C280.399 158.445 280.344 158.405 280.293 158.358C280.802 159.942 281.574 161.4 282.565 162.653C282.585 162.571 282.598 162.496 282.611 162.413C282.694 162.013 282.706 161.599 282.647 161.194C282.587 160.789 282.456 160.401 282.262 160.055ZM282.262 160.055C281.801 159.353 281.179 158.81 280.464 158.486L280.457 158.478C280.399 158.445 280.344 158.405 280.293 158.358C280.802 159.942 281.574 161.4 282.565 162.653C282.585 162.571 282.598 162.496 282.611 162.413C282.694 162.013 282.706 161.599 282.647 161.194C282.587 160.789 282.456 160.401 282.262 160.055ZM282.262 160.055C281.801 159.353 281.179 158.81 280.464 158.486L280.457 158.478C280.399 158.445 280.344 158.405 280.293 158.358C280.802 159.942 281.574 161.4 282.565 162.653C282.585 162.571 282.598 162.496 282.611 162.413C282.694 162.013 282.706 161.599 282.647 161.194C282.587 160.789 282.456 160.401 282.262 160.055ZM282.262 160.055C281.801 159.353 281.179 158.81 280.464 158.486L280.457 158.478C280.399 158.445 280.344 158.405 280.293 158.358C280.802 159.942 281.574 161.4 282.565 162.653C282.585 162.571 282.598 162.496 282.611 162.413C282.694 162.013 282.706 161.599 282.647 161.194C282.587 160.789 282.456 160.401 282.262 160.055ZM282.262 160.055C281.801 159.353 281.179 158.81 280.464 158.486L280.457 158.478C280.399 158.445 280.344 158.405 280.293 158.358C280.802 159.942 281.574 161.4 282.565 162.653C282.585 162.571 282.598 162.496 282.611 162.413C282.694 162.013 282.706 161.599 282.647 161.194C282.587 160.789 282.456 160.401 282.262 160.055ZM310.455 158.809C309.474 142.702 308.888 135.545 303.587 125.934C298.292 116.315 280.029 119.416 280.029 119.416C271.422 133.255 265.969 123.741 265.969 123.741C263.21 125.393 261.892 122.705 261.892 122.705C246.284 130.214 246.706 139.57 246.706 142.927C246.706 146.283 245.725 158.358 245.725 158.358C243.176 174.015 245.725 193.478 245.725 194.815C245.725 196.159 248.866 213.377 248.866 213.377C250.822 215.84 254.945 213.159 254.945 213.159C254.181 207.64 253.629 202.091 253.291 196.512C253.114 193.726 253.022 190.932 252.962 188.132C252.923 185.338 252.988 182.507 253.134 179.721C253.265 176.965 253.272 174.203 253.153 171.446C253.081 168.676 252.883 165.905 252.705 163.134C252.508 160.363 252.271 157.592 252.021 154.821C251.79 152.043 251.487 149.28 251.217 146.509C252.298 151.958 253.133 157.467 253.72 163.014C254.383 168.579 254.625 174.199 254.444 179.812C254.108 185.338 254.194 190.888 254.319 196.452C254.483 202.016 254.692 207.585 254.945 213.159C280.833 220.533 303 209.578 303 209.578L301.235 187.659C300.501 187.931 299.725 188.026 298.957 187.936C298.192 187.86 297.431 187.734 296.678 187.561C295.187 187.186 293.716 186.714 292.272 186.149C289.396 185.025 286.571 183.734 283.81 182.282C281.057 180.833 278.339 179.306 275.657 177.702L274.649 177.116L274.148 176.823L273.628 176.478C272.919 176.01 272.318 175.356 271.876 174.57C271.454 173.777 271.258 172.853 271.317 171.927C271.372 171.046 271.609 170.192 272.008 169.434C271.718 170.196 271.603 171.029 271.673 171.855C271.744 172.681 271.997 173.473 272.41 174.157C273.253 175.464 274.708 175.914 276.098 176.65C278.877 178.039 281.604 179.504 284.356 180.915C287.096 182.35 289.849 183.746 292.628 185.053C294.024 185.691 295.42 186.322 296.843 186.848C297.555 187.114 298.278 187.34 299.009 187.523C299.738 187.726 300.493 187.772 301.235 187.659C310.844 186.54 311.437 174.908 310.455 158.809ZM272.943 140.787C273.502 140.14 274.147 139.598 274.853 139.18C274.474 139.977 273.984 140.699 273.404 141.32C272.844 141.965 272.2 142.507 271.494 142.927C271.876 142.131 272.365 141.409 272.943 140.787ZM266.042 139.127C266.144 138.234 266.371 137.364 266.713 136.552C266.832 137.443 266.825 138.351 266.693 139.24C266.59 140.13 266.365 140.996 266.028 141.808C265.911 140.919 265.915 140.015 266.042 139.127ZM259.89 139.615C260.317 140.438 260.632 141.329 260.825 142.259C259.645 140.892 258.8 139.196 258.376 137.34C258.976 138.009 259.487 138.776 259.89 139.615ZM295.479 164.868C293.84 164.102 292.18 163.382 290.521 162.668C288.216 161.685 285.904 160.716 283.586 159.762C283.952 160.685 284.037 161.721 283.829 162.706C283.59 163.769 283.184 164.774 282.631 165.672C282.11 166.541 281.507 167.342 280.833 168.06C279.601 169.568 278.199 170.883 276.664 171.972C276.248 172.24 275.797 172.431 275.327 172.535C275.072 172.585 274.811 172.567 274.563 172.483C274.308 172.389 274.091 172.195 273.951 171.934C273.714 171.465 273.597 170.929 273.615 170.388C273.621 169.877 273.674 169.369 273.773 168.871C273.74 169.372 273.753 169.875 273.813 170.373C273.85 170.849 273.998 171.305 274.241 171.694C274.363 171.849 274.523 171.957 274.701 172.005C274.878 172.054 275.065 172.039 275.235 171.964C275.628 171.829 275.997 171.618 276.328 171.341C276.68 171.064 277.019 170.766 277.342 170.448C271.896 166.798 271.705 170.005 267.694 169.434C263.598 168.841 262.887 159.034 262.887 159.034C261.751 158.943 260.631 158.683 259.554 158.26C258.598 157.938 257.749 157.294 257.118 156.413C256.367 155.332 256.176 154.108 259.943 154.784L260.417 154.874L257.901 146.509H269.782L272.344 155.159C272.481 154.786 272.548 154.384 272.541 153.979C272.534 153.575 272.454 153.176 272.304 152.809L271.666 150.646C271.666 150.646 277.105 148.183 279.266 155.339C279.542 156.263 279.819 157.081 280.076 157.795C280.076 157.686 280.096 157.579 280.135 157.479C280.205 157.312 280.328 157.18 280.479 157.109C280.629 157.038 280.798 157.034 280.951 157.096C284.317 158.471 287.643 159.935 290.909 161.579C292.002 162.128 293.087 162.703 294.162 163.307C294.097 161.437 293.84 159.634 293.622 157.81L292.885 152.148C292.654 150.256 292.417 148.363 292.239 146.456C292.048 144.549 291.884 142.634 291.818 140.689C292.4 142.506 292.877 144.365 293.247 146.253C293.636 148.131 293.932 150.03 294.189 151.938C294.428 153.85 294.582 155.775 294.65 157.705C294.749 159.596 294.602 161.494 294.215 163.337C294.729 163.622 295.242 163.9 295.75 164.2C297.351 165.108 298.889 166.152 300.353 167.324C298.759 166.408 297.126 165.619 295.479 164.868ZM280.464 158.486L280.457 158.478C280.399 158.445 280.344 158.405 280.293 158.358C280.802 159.942 281.574 161.4 282.565 162.653C282.585 162.571 282.598 162.496 282.611 162.413C282.694 162.013 282.706 161.599 282.647 161.194C282.587 160.789 282.456 160.401 282.262 160.055C281.801 159.353 281.179 158.81 280.464 158.486ZM282.262 160.055C281.801 159.353 281.179 158.81 280.464 158.486L280.457 158.478C280.399 158.445 280.344 158.405 280.293 158.358C280.802 159.942 281.574 161.4 282.565 162.653C282.585 162.571 282.598 162.496 282.611 162.413C282.694 162.013 282.706 161.599 282.647 161.194C282.587 160.789 282.456 160.401 282.262 160.055ZM282.262 160.055C281.801 159.353 281.179 158.81 280.464 158.486L280.457 158.478C280.399 158.445 280.344 158.405 280.293 158.358C280.802 159.942 281.574 161.4 282.565 162.653C282.585 162.571 282.598 162.496 282.611 162.413C282.694 162.013 282.706 161.599 282.647 161.194C282.587 160.789 282.456 160.401 282.262 160.055ZM282.262 160.055C281.801 159.353 281.179 158.81 280.464 158.486L280.457 158.478C280.399 158.445 280.344 158.405 280.293 158.358C280.802 159.942 281.574 161.4 282.565 162.653C282.585 162.571 282.598 162.496 282.611 162.413C282.694 162.013 282.706 161.599 282.647 161.194C282.587 160.789 282.456 160.401 282.262 160.055ZM282.262 160.055C281.801 159.353 281.179 158.81 280.464 158.486L280.457 158.478C280.399 158.445 280.344 158.405 280.293 158.358C280.802 159.942 281.574 161.4 282.565 162.653C282.585 162.571 282.598 162.496 282.611 162.413C282.694 162.013 282.706 161.599 282.647 161.194C282.587 160.789 282.456 160.401 282.262 160.055ZM282.262 160.055C281.801 159.353 281.179 158.81 280.464 158.486L280.457 158.478C280.399 158.445 280.344 158.405 280.293 158.358C280.802 159.942 281.574 161.4 282.565 162.653C282.585 162.571 282.598 162.496 282.611 162.413C282.694 162.013 282.706 161.599 282.647 161.194C282.587 160.789 282.456 160.401 282.262 160.055ZM282.262 160.055C281.801 159.353 281.179 158.81 280.464 158.486L280.457 158.478C280.399 158.445 280.344 158.405 280.293 158.358C280.802 159.942 281.574 161.4 282.565 162.653C282.585 162.571 282.598 162.496 282.611 162.413C282.694 162.013 282.706 161.599 282.647 161.194C282.587 160.789 282.456 160.401 282.262 160.055Z" fill="#A54729"/>
<path d="M257.591 103.901C257.859 107.271 258.318 110.619 258.965 113.922C259.289 115.539 259.736 117.121 260.3 118.65C260.791 120.125 261.603 121.434 262.661 122.451C263.16 122.897 263.76 123.173 264.39 123.247C265.021 123.32 265.657 123.188 266.225 122.866C267.538 122.155 268.8 121.328 269.999 120.393C270.597 119.924 271.168 119.413 271.711 118.865C272.244 118.347 272.681 117.712 272.994 116.997C273.319 116.269 273.521 115.478 273.588 114.665C273.646 113.826 273.703 112.968 273.774 112.12C273.842 112.972 273.909 113.815 273.953 114.676C273.988 115.576 273.861 116.474 273.579 117.316C273.297 118.158 272.866 118.924 272.314 119.569C271.785 120.203 271.216 120.792 270.613 121.333C269.408 122.412 268.115 123.357 266.753 124.155C265.98 124.585 265.122 124.776 264.264 124.709C263.393 124.631 262.561 124.264 261.871 123.651C260.637 122.466 259.699 120.93 259.153 119.198C258.604 117.569 258.204 115.879 257.961 114.156C257.468 110.768 257.344 107.323 257.591 103.901Z" fill="#A54729"/>
<path d="M265.017 152.154C265.335 152.142 265.636 151.989 265.857 151.728C266.078 151.467 266.201 151.119 266.201 150.756C266.201 150.394 266.078 150.045 265.857 149.785C265.636 149.524 265.335 149.371 265.017 149.359C264.699 149.371 264.398 149.524 264.177 149.785C263.956 150.045 263.833 150.394 263.833 150.756C263.833 151.119 263.956 151.467 264.177 151.728C264.398 151.989 264.699 152.142 265.017 152.154Z" fill="#A54729"/>
<path d="M273.774 107.093C273.774 107.093 274.726 102.004 276.685 103.412C277.009 103.662 277.275 103.997 277.462 104.389C277.648 104.781 277.749 105.218 277.757 105.664C277.827 107.379 277.823 110.535 276.863 110.778C276.863 110.778 279 116.789 279.208 101.149C279.217 100.549 279.185 99.9489 279.113 99.3542C278.772 96.6137 277.436 89.3903 272.891 90.4812C272.891 90.4812 265.878 84.6102 259.602 92.6618C258.901 93.5286 258.159 94.35 257.378 95.1221C256.927 95.5481 256.562 96.0819 256.311 96.6859C256.06 97.2898 255.927 97.9493 255.924 98.6177V98.6703C255.924 100.563 255.52 102.428 254.748 104.103L253.913 105.913C253.913 105.913 256.463 107.835 259.602 100.164C259.602 100.164 260.926 96.0167 264.407 98.0296C264.407 98.0296 268.919 94.1715 270.684 97.8618C270.684 97.8618 271.187 98.6907 271.765 99.6899C272.502 100.972 272.946 102.444 273.055 103.972L273.774 107.093Z" fill="#A54729"/>
<path d="M277.693 111.909C277.62 112.573 277.675 113.247 277.856 113.885C278.017 114.52 278.218 115.141 278.46 115.743C278.693 116.354 278.962 116.951 279.228 117.559C279.498 118.165 279.783 118.766 280.026 119.417C279.565 118.953 279.151 118.433 278.79 117.866C278.6 117.59 278.452 117.281 278.281 116.988C278.133 116.68 277.989 116.368 277.858 116.046C277.6 115.394 277.429 114.701 277.353 113.99C277.243 113.272 277.364 112.533 277.693 111.909Z" fill="#A54729"/>
<path d="M257.589 107.959C257.937 107.497 258.392 107.158 258.902 106.981C259.41 106.791 259.942 106.705 260.475 106.727C261.002 106.752 261.522 106.865 262.02 107.061C262.264 107.163 262.504 107.279 262.738 107.409C262.964 107.554 263.184 107.714 263.394 107.888C263.13 107.864 262.882 107.808 262.635 107.759L261.898 107.63C261.419 107.55 260.937 107.499 260.453 107.477C259.48 107.415 258.505 107.579 257.589 107.959Z" fill="#A54729"/>
<path d="M264.408 107.702C264.88 107.31 265.407 107.011 265.966 106.818C266.53 106.606 267.119 106.498 267.712 106.499C268.322 106.498 268.924 106.656 269.472 106.962C270.007 107.286 270.433 107.802 270.685 108.43C270.264 108.028 269.785 107.714 269.269 107.501C268.762 107.331 268.236 107.246 267.707 107.25C267.163 107.246 266.619 107.292 266.081 107.387C265.533 107.476 264.981 107.587 264.408 107.702Z" fill="#A54729"/>
<path d="M260.533 111.153C260.789 111.143 261.032 111.02 261.21 110.81C261.388 110.6 261.488 110.319 261.488 110.027C261.488 109.735 261.388 109.454 261.21 109.244C261.032 109.034 260.789 108.911 260.533 108.901C260.277 108.911 260.035 109.034 259.857 109.244C259.679 109.454 259.579 109.735 259.579 110.027C259.579 110.319 259.679 110.6 259.857 110.81C260.035 111.02 260.277 111.143 260.533 111.153Z" fill="#A54729"/>
<path d="M265.83 111.153C266.086 111.143 266.328 111.02 266.506 110.81C266.684 110.6 266.784 110.319 266.784 110.027C266.784 109.735 266.684 109.454 266.506 109.244C266.328 109.034 266.086 108.911 265.83 108.901C265.574 108.911 265.331 109.034 265.153 109.244C264.975 109.454 264.875 109.735 264.875 110.027C264.875 110.319 264.975 110.6 265.153 110.81C265.331 111.02 265.574 111.143 265.83 111.153Z" fill="#A54729"/>
<path d="M260.828 112.959C260.865 113.264 260.965 113.556 261.118 113.81C261.186 113.89 261.267 113.952 261.358 113.993C261.448 114.033 261.545 114.051 261.643 114.045C261.905 114.049 262.167 114.033 262.427 113.997C262.726 113.954 263.028 113.937 263.329 113.947C263.107 114.216 262.84 114.43 262.543 114.576C262.245 114.721 261.925 114.796 261.602 114.794C261.41 114.774 261.223 114.712 261.052 114.611C260.873 114.489 260.736 114.301 260.664 114.078C260.606 113.891 260.591 113.69 260.62 113.494C260.648 113.299 260.72 113.114 260.828 112.959Z" fill="#A54729"/>
<path d="M260.783 116.229C261.056 116.71 261.393 117.138 261.783 117.499C262.133 117.806 262.57 117.956 263.01 117.918C263.476 117.857 263.927 117.693 264.338 117.435C264.549 117.286 264.782 117.17 264.999 117.014C265.218 116.86 265.438 116.702 265.683 116.565C265.535 116.819 265.376 117.064 265.205 117.299C265.02 117.524 264.823 117.735 264.613 117.929C264.167 118.342 263.625 118.598 263.053 118.667C262.753 118.69 262.451 118.636 262.171 118.508C261.892 118.38 261.641 118.182 261.437 117.929C261.063 117.458 260.834 116.862 260.783 116.229Z" fill="#A54729"/>
<path d="M265.903 159.675C266.239 160.738 266.444 161.785 266.688 162.813C266.801 163.33 266.937 163.831 267.083 164.326C267.217 164.835 267.441 165.307 267.742 165.713C267.255 165.512 266.854 165.107 266.62 164.581C266.368 164.088 266.177 163.558 266.052 163.006C265.794 161.92 265.743 160.784 265.903 159.675Z" fill="#A54729"/>
<path d="M262.887 159.032C263.485 159.082 264.067 159.273 264.598 159.592C265.139 159.886 265.621 160.305 266.013 160.823C265.414 160.773 264.832 160.583 264.302 160.262C263.761 159.967 263.28 159.548 262.887 159.032Z" fill="#A54729"/>
<path d="M263.436 162.694C263.971 162.568 264.524 162.582 265.053 162.734C265.588 162.86 266.09 163.123 266.522 163.505C265.988 163.632 265.435 163.619 264.905 163.465C264.371 163.337 263.869 163.074 263.436 162.694Z" fill="#A54729"/>
<path d="M264.307 165.713C264.85 165.652 265.398 165.731 265.911 165.946C266.431 166.135 266.907 166.457 267.301 166.888C266.758 166.95 266.209 166.871 265.697 166.655C265.177 166.465 264.702 166.143 264.307 165.713Z" fill="#A54729"/>
<path d="M255.603 213.318L257.196 229.23C257.722 234.533 258.279 239.832 258.867 245.125C259.452 250.418 260.037 255.711 260.743 260.978C261.096 263.611 261.471 266.24 261.911 268.847C262.132 270.15 262.373 271.448 262.641 272.727C262.861 273.969 263.208 275.178 263.675 276.328L263.696 276.372C263.748 276.484 263.769 276.612 263.757 276.739C263.29 281.628 262.867 286.523 262.36 291.408L260.888 306.069C260.393 310.956 259.898 315.842 259.449 320.734C258.992 325.625 258.51 330.513 258.099 335.41L258.005 335.183C259.752 336.412 261.601 337.442 263.526 338.257C265.436 339.1 267.438 339.645 269.476 339.878C271.493 340.126 273.534 339.853 275.446 339.079C277.343 338.302 279.006 336.921 280.237 335.1L280.148 335.371C280.272 331.156 280.329 326.936 280.545 322.723C280.646 320.615 280.76 318.508 280.917 316.398C280.994 315.344 281.086 314.288 281.2 313.229C281.294 312.126 281.482 311.035 281.761 309.973C281.803 309.831 281.888 309.711 282 309.634C282.113 309.557 282.246 309.529 282.375 309.555L282.428 309.565C284.063 309.877 285.722 309.984 287.377 309.884C289.029 309.797 290.665 309.469 292.244 308.907C293.802 308.35 295.26 307.477 296.548 306.332C297.817 305.177 298.876 303.75 299.666 302.132L299.644 302.838C295.573 293.135 291.61 283.374 287.588 273.645C287.522 273.484 287.507 273.302 287.546 273.129C288.703 268.033 289.864 262.925 290.956 257.804C292.061 252.685 293.094 247.546 294.1 242.401C295.116 237.258 296.055 232.096 296.879 226.911C297.778 221.74 298.424 216.516 298.812 211.264C298.813 211.244 298.821 211.226 298.834 211.213C298.847 211.2 298.863 211.193 298.881 211.194C298.898 211.195 298.914 211.204 298.925 211.218C298.937 211.232 298.944 211.251 298.943 211.27C298.719 216.55 298.23 221.81 297.481 227.026C296.765 232.246 295.933 237.445 295.024 242.623C294.115 247.803 293.124 252.962 292.091 258.11C291.048 263.256 290.005 268.399 288.832 273.515L288.79 272.999C292.811 282.729 296.892 292.426 300.864 302.182L300.869 302.194C300.913 302.304 300.934 302.424 300.929 302.545C300.924 302.665 300.894 302.783 300.842 302.888C299.954 304.671 298.77 306.239 297.355 307.504C295.937 308.746 294.336 309.687 292.627 310.282C290.94 310.866 289.195 311.2 287.434 311.276C285.678 311.369 283.918 311.235 282.188 310.879L282.854 310.471C282.602 311.427 282.425 312.407 282.327 313.4C282.202 314.43 282.099 315.47 282.009 316.513C281.827 318.599 281.687 320.696 281.559 322.794C281.437 324.892 281.312 326.992 281.225 329.093L280.938 335.398L280.937 335.413C280.933 335.508 280.902 335.598 280.849 335.67C279.499 337.573 277.704 339.001 275.672 339.789C273.662 340.557 271.526 340.798 269.423 340.496C267.346 340.208 265.309 339.624 263.361 338.756C261.41 337.913 259.538 336.851 257.771 335.587C257.739 335.563 257.712 335.529 257.696 335.489C257.679 335.449 257.673 335.404 257.677 335.36C258.149 330.471 258.549 325.573 258.975 320.679C259.408 315.785 259.795 310.886 260.183 305.987L261.358 291.291C261.734 286.39 262.194 281.5 262.609 276.604L262.691 277.015C262.148 275.754 261.746 274.421 261.496 273.046C261.203 271.733 260.989 270.412 260.769 269.093C260.346 266.453 259.991 263.808 259.657 261.161C258.998 255.865 258.42 250.562 257.92 245.251C257.429 239.938 256.974 234.622 256.556 229.304C256.163 223.982 255.773 218.661 255.471 213.331C255.47 213.311 255.476 213.292 255.487 213.277C255.498 213.262 255.514 213.253 255.531 213.251C255.549 213.25 255.566 213.256 255.579 213.268C255.592 213.281 255.601 213.299 255.603 213.318Z" fill="#A54729"/>
<path d="M269.348 215.586C268.942 222.142 268.453 228.688 267.881 235.223C267.327 241.76 266.696 248.287 266.051 254.812C265.381 261.334 264.695 267.854 263.932 274.364C263.188 280.876 262.36 287.377 261.446 293.867C261.85 287.31 262.339 280.764 262.911 274.229C263.466 267.692 264.096 261.165 264.743 254.64C265.415 248.119 266.101 241.599 266.864 235.089C267.608 228.577 268.437 222.076 269.348 215.586Z" fill="#A54729"/>
<path d="M280.903 325.713C281.012 320.577 281.312 315.448 281.754 310.336C282.177 305.221 282.767 300.125 283.471 295.046C283.825 292.508 284.242 289.98 284.663 287.453C285.149 284.94 285.574 282.413 286.172 279.927C287.202 274.908 288.702 270.03 290.648 265.377C290.301 266.603 289.944 267.818 289.576 269.023L288.686 272.723C288.145 275.205 287.613 277.685 287.173 280.193C286.256 285.195 285.455 290.225 284.77 295.285C284.044 300.334 283.401 305.402 282.771 310.474L280.903 325.713Z" fill="#A54729"/>
<path d="M263.182 222.326C264.113 222.397 265.037 222.568 265.94 222.838C266.832 223.088 267.711 223.393 268.573 223.754C269.437 224.113 270.281 224.529 271.103 224.999C271.947 225.46 272.745 226.026 273.48 226.687C272.555 226.57 271.639 226.372 270.741 226.096C269.854 225.835 268.979 225.524 268.12 225.163C267.259 224.803 266.416 224.393 265.592 223.935C264.747 223.483 263.941 222.945 263.182 222.326Z" fill="#A54729"/>
<path d="M285.249 285.353C286.34 287.115 287.302 288.977 288.124 290.92C288.963 292.849 289.709 294.829 290.36 296.851C290.684 297.862 290.975 298.887 291.267 299.911C291.518 300.95 291.812 301.973 292.012 303.028C292.475 305.12 292.79 307.251 292.952 309.4C292.255 307.387 291.668 305.366 291.027 303.364C290.398 301.36 289.778 299.357 289.124 297.368C288.498 295.367 287.832 293.383 287.185 291.384C286.53 289.388 285.876 287.39 285.249 285.353Z" fill="#A54729"/>
<path d="M277.693 338.284C276.671 327.648 277.159 316.896 277.968 306.254C278.817 295.591 280.249 285 282.257 274.541C283.297 269.32 284.469 264.139 285.776 258.997C287.085 253.874 288.313 248.73 289.564 243.591C290.796 238.446 291.967 233.283 293.023 228.089C294.158 222.915 295.009 217.665 295.572 212.369C295.464 215.04 295.225 217.702 294.856 220.342C294.519 222.989 294.087 225.616 293.654 228.244C292.724 233.484 291.66 238.691 290.545 243.881C289.446 249.077 288.18 254.223 286.929 259.37C285.67 264.499 284.54 269.664 283.542 274.867C282.506 280.058 281.612 285.281 280.86 290.539C280.48 293.164 280.172 295.805 279.84 298.442C279.554 301.085 279.229 303.724 278.971 306.371C278.431 311.663 278.024 316.974 277.787 322.296C277.483 327.618 277.452 332.957 277.693 338.284Z" fill="#A54729"/>
<path d="M248.863 213.38C249.277 215.972 249.632 218.561 250.015 221.139C250.395 223.714 250.79 226.287 251.308 228.789C251.446 229.409 251.588 230.029 251.767 230.618C251.913 231.18 252.118 231.72 252.377 232.227C252.426 232.32 252.485 232.405 252.551 232.483C252.622 232.571 252.764 232.702 252.863 232.811L253.499 233.493C253.884 233.936 254.288 234.356 254.71 234.751C254.791 234.823 254.877 234.886 254.968 234.94C254.991 234.953 255.03 234.97 254.999 234.961C254.941 234.967 254.885 234.988 254.835 235.022C254.702 235.147 254.771 235.158 254.774 235.043C254.791 234.922 254.798 234.8 254.794 234.677C254.776 234.059 254.712 233.443 254.603 232.837C254.385 231.575 254.137 230.298 253.865 229.027L253.858 228.992C253.841 228.914 253.849 228.832 253.88 228.759C253.91 228.687 253.962 228.629 254.026 228.595C254.09 228.562 254.163 228.555 254.231 228.575C254.299 228.596 254.359 228.642 254.4 228.708C254.698 229.249 255.136 229.672 255.653 229.919C255.78 229.958 255.913 229.956 256.039 229.912C256.164 229.868 256.276 229.784 256.362 229.67C256.466 229.552 256.558 229.42 256.634 229.277L256.836 228.809L256.719 229.321C256.665 229.493 256.593 229.657 256.504 229.808C256.409 229.979 256.274 230.117 256.115 230.205C255.955 230.293 255.777 230.329 255.6 230.308C255.26 230.257 254.937 230.108 254.662 229.875C254.391 229.662 254.141 229.416 253.917 229.14L254.452 228.821C254.855 230.056 255.247 231.299 255.551 232.591C255.72 233.257 255.837 233.939 255.902 234.628C255.917 234.833 255.913 235.039 255.891 235.243C255.88 235.415 255.836 235.583 255.763 235.734C255.689 235.885 255.588 236.017 255.466 236.119C255.298 236.248 255.094 236.305 254.893 236.28C254.821 236.275 254.75 236.261 254.681 236.236C254.623 236.219 254.566 236.197 254.511 236.17C254.341 236.088 254.178 235.985 254.026 235.864C253.537 235.46 253.072 235.02 252.635 234.546L252.006 233.893C251.895 233.776 251.81 233.705 251.679 233.56C251.539 233.41 251.415 233.241 251.309 233.057C250.7 231.837 250.277 230.509 250.056 229.128C249.79 227.825 249.597 226.517 249.444 225.206C249.278 223.898 249.167 222.585 249.071 221.272C248.877 218.648 248.807 216.013 248.863 213.38Z" fill="#A54729"/>
<path d="M253.874 229.113C253.598 228.479 253.356 227.825 253.15 227.157C252.945 226.495 252.773 225.821 252.634 225.137C252.345 223.779 252.264 222.374 252.393 220.984C252.373 222.362 252.562 223.733 252.952 225.038C253.139 225.687 253.358 226.324 253.608 226.945C253.854 227.56 254.133 228.158 254.443 228.735L254.449 228.745C254.495 228.83 254.51 228.932 254.49 229.029C254.47 229.126 254.417 229.211 254.343 229.263C254.269 229.316 254.179 229.333 254.094 229.31C254.009 229.288 253.935 229.228 253.889 229.143C253.884 229.133 253.879 229.123 253.874 229.113Z" fill="#A54729"/>
<path d="M286.463 214.559C287.187 216.921 288.098 219.204 289.182 221.38C289.733 222.415 290.372 223.384 291.092 224.275C291.862 225.17 292.707 225.978 293.615 226.687C292.451 226.491 291.35 225.963 290.412 225.154C289.468 224.333 288.669 223.317 288.056 222.158C287.46 221.011 287.016 219.769 286.739 218.474C286.446 217.198 286.352 215.872 286.463 214.559Z" fill="#A54729"/>
<path d="M240.304 367.636C240.632 366.758 241.096 365.954 241.674 365.264C241.909 364.981 242.229 364.809 242.57 364.783C242.887 364.801 243.191 364.938 243.432 365.173C244.005 365.811 244.51 366.524 244.934 367.299C245.421 368.095 245.922 368.905 246.482 369.701C247.068 370.541 247.79 371.245 248.609 371.774C249.457 372.269 250.403 372.504 251.355 372.457C251.668 372.458 251.98 372.435 252.29 372.39C247.799 373.396 242.682 373.065 240.304 367.636Z" fill="#A54729"/>
<path d="M277.711 350.403C277.138 349.78 276.539 348.571 276.13 346.288C275.096 340.581 271.863 344.441 271.863 344.441C266.77 349.656 265.75 344.926 263.031 342.931C262.239 342.35 258.474 342.263 257.295 345.282C256.85 346.259 256.257 347.138 255.543 347.88C256.265 347.811 256.992 347.872 257.697 348.06C258.399 348.243 259.08 348.52 259.725 348.886C260.388 349.26 260.991 349.757 261.51 350.358C262.075 350.957 262.41 351.785 262.445 352.663C261.988 352.099 261.449 351.629 260.851 351.274C260.292 350.906 259.719 350.561 259.126 350.223C258.533 349.885 257.941 349.532 257.335 349.164C256.713 348.782 256.114 348.353 255.543 347.88L255.537 347.88C254.471 349.049 253.329 350.124 252.119 351.094C252.811 350.92 253.528 350.922 254.22 351.101C254.915 351.272 255.581 351.574 256.189 351.995C256.807 352.416 257.348 352.969 257.783 353.624C258.223 354.272 258.51 355.037 258.619 355.847C258.033 355.359 257.572 354.863 257.045 354.458C256.549 354.035 256.035 353.642 255.504 353.279C254.45 352.528 253.344 351.905 252.119 351.094L252.112 351.094C251.197 351.845 250.532 352.325 250.532 352.325C249.761 352.761 249.05 353.189 248.385 353.617C249.118 353.631 249.842 353.794 250.525 354.098C251.215 354.379 251.865 354.774 252.455 355.269C253.07 355.758 253.599 356.374 254.015 357.086C254.458 357.803 254.68 358.666 254.648 359.542C254.229 358.926 253.754 358.362 253.232 357.86C252.744 357.364 252.211 356.928 251.678 356.478C250.617 355.577 249.491 354.751 248.385 353.617L248.378 353.617C237.709 360.45 239.79 366.247 239.79 366.247C239.934 366.723 240.106 367.187 240.304 367.636C240.389 366.616 240.695 365.636 241.193 364.783C241.494 364.286 241.948 363.938 242.464 363.807C242.603 363.776 242.744 363.763 242.886 363.769L243.294 363.852C243.546 363.945 243.789 364.069 244.018 364.22L244.598 364.723C244.769 364.911 244.921 365.106 245.085 365.301C245.408 365.692 245.652 366.067 245.935 366.457C246.468 367.238 246.962 368.027 247.496 368.74C247.94 369.469 248.521 370.075 249.196 370.516C249.872 370.956 250.625 371.219 251.401 371.286C253.087 371.382 254.778 371.279 256.446 370.978H256.452C258.812 369.792 260.967 368.134 262.814 366.082C267.615 360.841 273.654 360.015 277.355 356.853C277.434 356.786 277.507 356.718 277.586 356.651C277.99 356.276 278.318 355.805 278.548 355.272C278.777 354.738 278.902 354.154 278.914 353.56C278.926 352.966 278.824 352.376 278.617 351.831C278.409 351.286 278.1 350.798 277.711 350.403ZM270.322 352.566C269.201 353.96 267.941 355.2 266.568 356.26C265.874 356.813 265.133 357.284 264.355 357.664C264.8 356.844 265.317 356.077 265.896 355.374C266.458 354.678 267.054 354.019 267.681 353.399C268.306 352.781 268.963 352.206 269.65 351.68C270.342 351.124 271.084 350.653 271.863 350.275C271.417 351.095 270.901 351.863 270.322 352.566Z" fill="#A54729"/>
<path d="M262.446 338.063C262.54 339.126 262.509 340.199 262.356 341.253C262.23 342.312 261.981 343.347 261.614 344.331C261.52 343.268 261.55 342.195 261.705 341.141C261.832 340.082 262.081 339.047 262.446 338.063Z" fill="#A54729"/>
<path d="M273.98 346.068C273.938 344.963 274.02 343.857 274.224 342.776C274.4 341.688 274.699 340.631 275.113 339.631C275.156 340.736 275.074 341.843 274.869 342.924C274.691 344.011 274.393 345.067 273.98 346.068Z" fill="#A54729"/>
<path d="M290.981 315.336C290.426 314.349 289.956 313.303 289.578 312.212C289.519 312.032 289.453 311.844 289.387 311.656C289.256 311.251 289.124 310.845 289.005 310.432C289.21 310.402 289.414 310.372 289.618 310.335C289.75 310.68 289.875 311.033 290 311.386C290.072 311.604 290.145 311.821 290.211 312.039C290.562 313.106 290.82 314.211 290.981 315.336Z" fill="#A54729"/>
<path d="M298.938 304.695C299.518 305.409 300.004 306.215 300.38 307.089C300.781 307.948 301.069 308.869 301.235 309.824C300.655 309.111 300.169 308.304 299.794 307.43C299.394 306.57 299.106 305.649 298.938 304.695Z" fill="#A54729"/>
<path d="M259.945 154.782C262.136 155.049 264.29 155.431 266.45 155.692C267.522 155.84 268.601 155.922 269.681 155.939C270.213 155.948 270.744 155.896 271.266 155.781C271.524 155.73 271.771 155.628 271.998 155.481C272.223 155.318 272.39 155.071 272.472 154.782C272.463 154.945 272.426 155.105 272.363 155.252C272.3 155.399 272.212 155.53 272.105 155.638C271.884 155.851 271.632 156.019 271.36 156.133C270.826 156.347 270.27 156.478 269.705 156.524C268.597 156.617 267.483 156.589 266.379 156.438C264.186 156.166 262.028 155.61 259.945 154.782Z" fill="#A54729"/>
<path d="M228.914 98.506L225.488 96.5033C225.383 96.4416 225.294 96.3485 225.231 96.234C225.168 96.1194 225.133 95.9876 225.131 95.8524C225.128 95.7172 225.157 95.5837 225.215 95.4659C225.274 95.3481 225.359 95.2505 225.462 95.1834L228.814 92.9961C228.913 92.9314 229.025 92.8972 229.139 92.897C229.254 92.8967 229.366 92.9303 229.465 92.9945C229.565 93.0587 229.648 93.1513 229.706 93.2632C229.765 93.3751 229.797 93.5025 229.799 93.6327L229.178 95.7429L229.873 97.8226C229.876 97.9525 229.848 98.0809 229.794 98.1951C229.74 98.3094 229.66 98.4057 229.564 98.4745C229.467 98.5434 229.357 98.5825 229.243 98.588C229.129 98.5935 229.016 98.5652 228.914 98.506Z" fill="#A54729"/>
<path d="M189.464 45.4252C188.809 45.4251 188.16 45.5722 187.555 45.8579C186.95 46.1437 186.4 46.5625 185.937 47.0906C185.474 47.6186 185.107 48.2455 184.856 48.9354C184.605 49.6253 184.477 50.3647 184.477 51.1115C184.477 53.6157 187.647 59.1151 188.932 61.2418C188.984 61.3506 189.061 61.4415 189.155 61.5048C189.248 61.5681 189.355 61.6015 189.464 61.6015C189.572 61.6015 189.679 61.5681 189.773 61.5048C189.866 61.4415 189.943 61.3506 189.995 61.2418C191.279 59.1151 194.451 53.6157 194.451 51.1115C194.451 50.3647 194.322 49.6253 194.071 48.9354C193.821 48.2455 193.453 47.6186 192.99 47.0906C192.527 46.5625 191.977 46.1437 191.372 45.8579C190.767 45.5722 190.119 45.4251 189.464 45.4252ZM189.464 48.0788C189.99 48.0788 190.504 48.2567 190.941 48.5899C191.379 48.9231 191.72 49.3968 191.921 49.9509C192.122 50.5051 192.175 51.1148 192.072 51.7031C191.97 52.2914 191.716 52.8318 191.344 53.2559C190.972 53.68 190.498 53.9689 189.983 54.0859C189.467 54.2029 188.932 54.1429 188.446 53.9133C187.96 53.6838 187.544 53.2951 187.252 52.7964C186.96 52.2976 186.804 51.7113 186.804 51.1115C186.804 50.3072 187.084 49.5358 187.583 48.9671C188.082 48.3984 188.758 48.0788 189.464 48.0788Z" fill="#A54729"/>
<path d="M183.947 65.5438C184.034 67.7475 184.087 69.9511 184.124 72.1548C184.178 74.3585 184.174 76.5623 184.197 78.766C184.224 80.9697 184.195 83.1734 184.167 85.377L184.04 91.9882V91.9934C184.04 92.0311 184.026 92.0668 184.002 92.0929C183.978 92.119 183.947 92.1334 183.914 92.1329C181.459 92.0939 179.004 92.0985 176.549 92.1465L169.184 92.3036L161.82 92.3818L154.455 92.3598L154.781 91.9884L154.678 99.3228C154.634 101.768 154.571 104.212 154.488 106.657C154.488 106.667 154.484 106.676 154.478 106.683C154.472 106.69 154.464 106.693 154.455 106.693C154.447 106.693 154.438 106.69 154.432 106.683C154.426 106.676 154.423 106.667 154.422 106.657C154.342 104.212 154.279 101.768 154.233 99.3228L154.129 91.9884C154.129 91.9404 154.136 91.8927 154.152 91.848C154.167 91.8034 154.19 91.7626 154.22 91.7281C154.249 91.6936 154.284 91.666 154.323 91.6469C154.361 91.6279 154.403 91.6177 154.445 91.6169L154.447 91.6168H154.455L161.82 91.5947L169.184 91.673L176.549 91.83C179.004 91.8761 181.459 91.8807 183.914 91.8438L183.787 91.9882L183.66 85.3771C183.632 83.1734 183.604 80.9697 183.631 78.766C183.654 76.5623 183.65 74.3585 183.704 72.1549C183.741 69.9512 183.794 67.7475 183.881 65.5438C183.881 65.5341 183.885 65.525 183.891 65.5183C183.897 65.5116 183.905 65.5079 183.914 65.5079C183.922 65.5079 183.93 65.5116 183.937 65.5183C183.943 65.525 183.946 65.5341 183.947 65.5438Z" fill="#A54729"/>
<path d="M242.018 100.415C235.611 100.664 229.204 100.723 222.798 100.697C219.594 100.681 216.391 100.575 213.188 100.525C209.985 100.485 206.781 100.488 203.578 100.536C197.171 100.672 190.765 100.752 184.358 100.776C177.952 100.769 171.545 100.734 165.138 100.575L165.312 100.377L165.171 106.657C165.171 106.667 165.167 106.676 165.161 106.683C165.155 106.69 165.147 106.694 165.138 106.694C165.13 106.694 165.121 106.69 165.115 106.683C165.109 106.676 165.106 106.667 165.105 106.657L164.965 100.377C164.964 100.326 164.981 100.277 165.011 100.24C165.042 100.203 165.085 100.181 165.13 100.18H165.13L165.138 100.18C171.545 100.02 177.952 99.9855 184.358 99.9784C190.765 100.013 197.171 100.093 203.578 100.219C206.781 100.269 209.985 100.272 213.188 100.23C216.391 100.179 219.594 100.074 222.798 100.057C229.204 100.032 235.611 100.09 242.018 100.34C242.026 100.34 242.035 100.344 242.041 100.351C242.047 100.358 242.05 100.367 242.05 100.377C242.05 100.387 242.047 100.397 242.041 100.404C242.035 100.411 242.026 100.415 242.018 100.415Z" fill="#A54729"/>
<path d="M200.236 54.8698C200.281 55.5054 200.329 56.1228 200.36 56.7168C200.39 57.311 200.436 57.9042 200.454 58.4759C200.515 59.6096 200.519 60.7463 200.466 61.8804L200.213 61.5912C201.121 61.6481 202.03 61.7483 202.939 61.7615C203.393 61.7768 203.848 61.7528 204.302 61.7465C204.757 61.741 205.211 61.6976 205.666 61.6749L205.485 61.8804C205.419 60.7076 205.368 59.5348 205.352 58.3619C205.326 57.1891 205.297 56.0163 205.321 54.8433L205.666 55.236C203.929 55.1983 202.195 55.0461 200.236 54.8698ZM200.189 54.8167C201.866 54.6405 203.766 54.4882 205.666 54.4505C205.755 54.4488 205.841 54.4874 205.906 54.558C205.97 54.6286 206.008 54.7255 206.01 54.8274L206.01 54.8433C206.034 56.0162 206.005 57.1891 205.979 58.3619C205.963 59.5347 205.912 60.7076 205.846 61.8804L205.844 61.9028C205.842 61.9539 205.821 62.0018 205.788 62.036C205.754 62.0702 205.71 62.0882 205.665 62.086C205.211 62.0635 204.757 62.02 204.302 62.0145C203.848 62.0081 203.393 61.9842 202.939 61.9994C202.03 62.0127 201.121 62.1129 200.213 62.1697C200.15 62.1737 200.088 62.1492 200.041 62.1016C199.994 62.0541 199.965 61.9872 199.961 61.9156L199.959 61.8804C199.906 60.6701 199.91 59.4575 199.971 58.2477C199.989 57.6466 200.035 57.067 200.065 56.4883C200.096 55.9094 200.144 55.354 200.189 54.8167Z" fill="#A54729"/>
<path d="M214.556 50.6521C214.624 52.2417 214.672 53.7861 214.712 55.3146C214.765 56.8507 214.769 58.3431 214.799 59.8517C214.812 61.3511 214.813 62.8382 214.762 64.3258C214.727 65.8153 214.653 67.3159 214.648 68.8263L214.533 68.6948C215.442 68.7194 216.351 68.7096 217.259 68.695C218.168 68.6931 219.077 68.6456 219.986 68.6208L219.806 68.8263C219.756 67.3096 219.72 65.7928 219.696 64.2761L219.643 59.726C219.629 58.2092 219.631 56.6925 219.648 55.1758C219.656 53.6591 219.701 52.1423 219.726 50.6256L219.986 50.9217C218.234 50.8702 216.447 50.7433 214.556 50.6521ZM214.51 50.599C216.254 50.5078 218.103 50.3808 219.986 50.3294C220.053 50.3276 220.118 50.3563 220.167 50.4092C220.216 50.4621 220.244 50.5349 220.245 50.6116V50.613L220.246 50.6256C220.271 52.1424 220.316 53.6591 220.324 55.1758C220.342 56.6925 220.343 58.2093 220.328 59.726L220.276 64.2762C220.252 65.7928 220.215 67.3095 220.166 68.8263L220.166 68.8389C220.164 68.8916 220.144 68.9414 220.111 68.9775C220.077 69.0136 220.032 69.0332 219.986 69.0319C219.077 69.0072 218.168 68.9596 217.259 68.9578C216.351 68.9431 215.442 68.9334 214.533 68.958C214.503 68.9587 214.474 68.946 214.453 68.9224C214.431 68.8989 214.418 68.8666 214.418 68.8325V68.8263C214.413 67.3033 214.339 65.7704 214.304 64.2264C214.253 62.6805 214.254 61.1343 214.267 59.6001C214.297 58.0753 214.301 56.5342 214.354 55.037C214.394 53.532 214.442 52.0428 214.51 50.599Z" fill="#A54729"/>
<path d="M174.549 83.1854C174.702 85.0835 174.822 86.7122 174.821 88.3725L174.526 88.0362C175.593 88.0324 176.66 88.1685 177.727 88.231C178.794 88.2797 179.863 88.2583 180.928 88.167L180.747 88.3725C180.629 86.6346 180.609 84.8967 180.577 83.1589L180.928 83.5584C180.415 83.5641 179.905 83.5584 179.39 83.5368C178.879 83.527 178.357 83.4794 177.833 83.451C176.786 83.3904 175.7 83.2851 174.549 83.1854ZM174.503 83.1322C175.486 83.0325 176.534 82.9272 177.621 82.8666C178.164 82.8381 178.709 82.7906 179.264 82.7808C179.817 82.7592 180.373 82.7535 180.928 82.7592L180.938 82.7593C181.029 82.7603 181.116 82.8024 181.18 82.8765C181.244 82.9506 181.279 83.0506 181.278 83.1544L181.278 83.1589C181.247 84.8967 181.226 86.6346 181.108 88.3725L181.106 88.402C181.102 88.4522 181.082 88.4988 181.048 88.5318C181.015 88.5648 180.972 88.5814 180.928 88.5781C179.863 88.4869 178.794 88.4655 177.727 88.5142C176.66 88.5767 175.593 88.7128 174.526 88.7089C174.448 88.7089 174.373 88.6735 174.317 88.6104C174.262 88.5473 174.231 88.4618 174.231 88.3725C174.239 86.6215 174.329 84.8721 174.503 83.1322Z" fill="#A54729"/>
<path d="M197.035 101.906C197.188 103.805 197.308 105.433 197.307 107.093L197.012 106.757C198.079 106.753 199.146 106.889 200.213 106.952C201.28 107.001 202.348 106.979 203.413 106.888L203.233 107.093C203.115 105.356 203.094 103.618 203.063 101.88L203.413 102.279C202.901 102.285 202.39 102.279 201.876 102.258C201.364 102.248 200.843 102.2 200.319 102.172C199.272 102.111 198.186 102.006 197.035 101.906ZM196.989 101.853C197.972 101.753 199.02 101.648 200.106 101.587C200.649 101.559 201.194 101.511 201.75 101.502C202.303 101.48 202.859 101.474 203.413 101.48L203.424 101.48C203.515 101.481 203.602 101.523 203.666 101.597C203.729 101.672 203.765 101.771 203.764 101.875L203.764 101.88C203.732 103.618 203.712 105.356 203.594 107.093L203.592 107.123C203.588 107.173 203.568 107.22 203.534 107.253C203.501 107.286 203.457 107.302 203.413 107.299C202.348 107.208 201.28 107.186 200.213 107.235C199.146 107.298 198.079 107.434 197.012 107.43C196.973 107.43 196.935 107.421 196.899 107.404C196.863 107.387 196.831 107.363 196.803 107.331C196.776 107.3 196.754 107.263 196.739 107.222C196.724 107.181 196.717 107.138 196.717 107.093C196.724 105.342 196.815 103.593 196.989 101.853Z" fill="#A54729"/>
<path d="M169.576 102.339C169.634 104.136 169.718 105.844 169.747 107.526L169.553 107.305C171.628 107.233 173.703 107.226 175.778 107.2C177.852 107.183 179.927 107.208 182.002 107.276C184.077 107.345 186.152 107.399 188.226 107.41C190.301 107.41 192.376 107.381 194.451 107.321L194.27 107.526C194.233 105.788 194.195 104.05 194.175 102.313L194.451 102.627L188.29 102.694C186.242 102.709 184.184 102.673 182.129 102.662L175.909 102.533L169.576 102.339ZM169.53 102.286L175.646 102.092L181.875 101.963C183.969 101.952 186.061 101.916 188.162 101.931L194.451 101.999L194.457 101.999C194.529 101.999 194.598 102.033 194.648 102.092C194.699 102.15 194.727 102.229 194.726 102.312V102.313C194.707 104.05 194.669 105.788 194.631 107.526L194.631 107.536C194.63 107.563 194.625 107.589 194.616 107.613C194.606 107.637 194.593 107.659 194.576 107.677C194.559 107.695 194.54 107.709 194.518 107.718C194.497 107.728 194.474 107.732 194.451 107.732C192.376 107.674 190.301 107.644 188.226 107.643C186.152 107.653 184.077 107.708 182.002 107.776C179.927 107.845 177.852 107.87 175.778 107.853C173.703 107.827 171.628 107.82 169.553 107.748L169.543 107.747C169.493 107.746 169.446 107.721 169.411 107.68C169.377 107.639 169.358 107.583 169.359 107.526C169.388 105.733 169.472 103.965 169.53 102.286Z" fill="#A54729"/>
<path d="M222.506 44.3533L222.628 50.3077L222.701 56.262L222.768 68.1708L222.744 74.1251L222.67 80.0794C222.608 84.049 222.576 88.0186 222.574 91.9882C222.574 92.0187 222.563 92.048 222.544 92.0696C222.525 92.0912 222.5 92.1034 222.473 92.1035C220.181 92.1206 217.889 92.1132 215.597 92.1541L208.722 92.2447C204.138 92.315 199.555 92.3567 194.971 92.37C194.927 92.3702 194.884 92.3605 194.843 92.3416C194.803 92.3226 194.766 92.2948 194.735 92.2596C194.704 92.2244 194.679 92.1826 194.662 92.1365C194.645 92.0904 194.636 92.041 194.636 91.991V91.9882L194.632 82.3398C194.633 79.1236 194.642 75.9076 194.685 72.6914L194.785 63.0431C194.806 59.8269 194.876 56.6108 194.938 53.3947C194.938 53.3848 194.942 53.3754 194.948 53.3686C194.954 53.3617 194.962 53.3578 194.971 53.3578C194.98 53.3578 194.988 53.3617 194.994 53.3686C195 53.3754 195.004 53.3848 195.004 53.3947C195.066 56.6108 195.136 59.8269 195.157 63.0431L195.257 72.6914C195.3 75.9075 195.309 79.1236 195.31 82.3398L195.306 91.9882L194.971 91.6066C199.555 91.6263 204.138 91.668 208.722 91.7318L215.597 91.8225C217.889 91.8633 220.181 91.8559 222.473 91.873L222.372 91.9882C222.366 88.0186 222.334 84.049 222.276 80.0794L222.202 74.1251L222.178 68.1708L222.245 56.262L222.318 50.3077L222.44 44.3533C222.44 44.3435 222.444 44.3341 222.45 44.3272C222.456 44.3203 222.464 44.3165 222.473 44.3165C222.482 44.3165 222.49 44.3203 222.496 44.3272C222.502 44.3341 222.506 44.3435 222.506 44.3533Z" fill="#A54729"/>
<path d="M170.814 87.066C171.07 87.0559 171.313 86.9328 171.491 86.7226C171.669 86.5125 171.768 86.2318 171.768 85.9396C171.768 85.6475 171.669 85.3667 171.491 85.1566C171.313 84.9465 171.07 84.8234 170.814 84.8133C170.558 84.8234 170.315 84.9465 170.137 85.1566C169.959 85.3667 169.86 85.6475 169.86 85.9396C169.86 86.2318 169.959 86.5125 170.137 86.7226C170.315 86.9328 170.558 87.0559 170.814 87.066Z" fill="#A54729"/>
<path d="M202.82 67.3321C203.077 67.322 203.319 67.1989 203.497 66.9887C203.675 66.7786 203.775 66.4979 203.775 66.2057C203.775 65.9136 203.675 65.6328 203.497 65.4227C203.319 65.2126 203.077 65.0895 202.82 65.0794C202.564 65.0895 202.322 65.2126 202.144 65.4227C201.966 65.6328 201.866 65.9136 201.866 66.2057C201.866 66.4979 201.966 66.7786 202.144 66.9887C202.322 67.1989 202.564 67.322 202.82 67.3321Z" fill="#A54729"/>
<path d="M219.963 88.1568C219.917 87.5212 219.869 86.9038 219.838 86.3099C219.809 85.7157 219.762 85.1225 219.744 84.5507C219.683 83.4171 219.679 82.2804 219.732 81.1462L219.986 81.4354C219.077 81.3786 218.168 81.2784 217.259 81.2651C216.805 81.2499 216.351 81.2738 215.896 81.2802C215.442 81.2857 214.987 81.3292 214.533 81.3517L214.713 81.1463C214.78 82.3191 214.83 83.492 214.847 84.6648C214.873 85.8377 214.901 87.0105 214.877 88.1833L214.533 87.7907C216.269 87.8284 218.004 87.9807 219.963 88.1568ZM220.009 88.21C218.333 88.3862 216.432 88.5384 214.533 88.5761C214.444 88.5779 214.357 88.5392 214.293 88.4686C214.228 88.398 214.191 88.3012 214.189 88.1993L214.189 88.1833C214.165 87.0105 214.193 85.8377 214.219 84.6648C214.236 83.492 214.286 82.3191 214.353 81.1463L214.354 81.1238C214.357 81.0727 214.377 81.0249 214.411 80.9907C214.444 80.9564 214.488 80.9385 214.533 80.9406C214.987 80.9633 215.442 81.0067 215.896 81.0121C216.351 81.0185 216.805 81.0425 217.259 81.0273C218.168 81.014 219.077 80.9139 219.986 80.8569C220.049 80.853 220.11 80.8775 220.158 80.9251C220.205 80.9727 220.233 81.0395 220.238 81.1111L220.24 81.1463C220.293 82.3566 220.289 83.5692 220.228 84.7789C220.21 85.3801 220.163 85.9598 220.133 86.5383C220.102 87.1173 220.054 87.6726 220.009 88.21Z" fill="#A54729"/>
<path d="M217.378 77.9473C217.634 77.9372 217.877 77.8141 218.055 77.604C218.233 77.3938 218.332 77.1131 218.332 76.821C218.332 76.5288 218.233 76.2481 218.055 76.0379C217.877 75.8278 217.634 75.7047 217.378 75.6946C217.122 75.7047 216.879 75.8278 216.701 76.0379C216.523 76.2481 216.424 76.5288 216.424 76.821C216.424 77.1131 216.523 77.3938 216.701 77.604C216.879 77.8141 217.122 77.9372 217.378 77.9473Z" fill="#A54729"/>
<path d="M151.235 91.3198C152.507 90.9466 153.738 90.4128 154.906 89.7281C156.071 89.0626 157.152 88.2233 158.123 87.2323C159.087 86.2515 159.909 85.1031 160.558 83.8298C161.167 82.5268 161.625 81.1394 161.921 79.7022C162.259 78.2574 162.549 76.7954 162.811 75.3197C163.044 73.8281 163.377 72.3592 163.807 70.9259C164.292 69.4843 165.178 68.2636 166.329 67.4506C167.493 66.7105 168.732 66.137 170.018 65.743C171.244 65.2799 172.362 64.508 173.29 63.4845C174.201 62.4423 174.962 61.2432 175.547 59.9312C176.13 58.6092 176.588 57.2203 176.913 55.7879C177.25 54.364 177.431 52.8982 177.453 51.4237C177.385 49.8739 177.589 48.3243 178.054 46.8657C178.551 45.4051 179.358 44.108 180.403 43.0907C182.518 41.0804 185.249 40.3537 187.861 40.1243C187.866 40.1239 187.87 40.1245 187.874 40.126C187.878 40.1276 187.882 40.13 187.885 40.1332C187.889 40.1364 187.891 40.1404 187.893 40.1448C187.895 40.1492 187.896 40.154 187.897 40.1589C187.897 40.1684 187.895 40.1778 187.889 40.1852C187.884 40.1927 187.876 40.1976 187.868 40.199C185.283 40.6559 182.663 41.5569 180.743 43.5317C179.795 44.5108 179.076 45.7429 178.649 47.1172C178.437 47.8009 178.29 48.5085 178.211 49.2279C178.142 49.9625 178.115 50.7015 178.132 51.44C178.126 52.9798 177.939 54.5117 177.575 55.9947C177.216 57.4722 176.72 58.902 176.095 60.2599C175.463 61.6268 174.636 62.8638 173.646 63.9199C172.64 64.9627 171.433 65.7219 170.122 66.1366C168.842 66.4546 167.606 66.9726 166.45 67.6758C165.892 68.0531 165.393 68.5342 164.974 69.0991C164.874 69.2439 164.763 69.3803 164.672 69.5322L164.428 70.0126C164.27 70.3363 164.134 70.6729 164.02 71.0197C163.61 72.4421 163.326 73.9077 163.172 75.3947C162.97 76.8824 162.747 78.375 162.451 79.8524C162.172 81.3566 161.703 82.8068 161.06 84.1578C160.359 85.4771 159.48 86.6614 158.455 87.6669C156.386 89.6192 153.898 90.9059 151.247 91.3938C151.238 91.3955 151.229 91.3932 151.222 91.3874C151.215 91.3816 151.21 91.3729 151.209 91.3631C151.208 91.3534 151.21 91.3437 151.215 91.3358C151.22 91.3278 151.227 91.3222 151.235 91.3198Z" fill="#A54729"/>
<path d="M234.827 66.7265C234.923 68.8317 234.997 70.9368 235.035 73.042C235.087 75.1471 235.121 77.2523 235.139 79.3573L235.148 85.6728C235.142 87.7779 235.123 89.8831 235.077 91.9882L234.827 91.7036C237.224 91.7628 239.621 91.836 242.018 91.9883C239.621 92.1407 237.224 92.2138 234.827 92.2731C234.795 92.2738 234.763 92.2674 234.733 92.2541C234.703 92.2409 234.676 92.221 234.653 92.1957C234.63 92.1704 234.611 92.1402 234.598 92.1067C234.585 92.0732 234.578 92.0372 234.578 92.0006L234.577 91.9883C234.531 89.8831 234.512 87.778 234.506 85.6728L234.515 79.3574C234.531 77.2522 234.566 75.1471 234.619 73.042C234.657 70.9368 234.731 68.8317 234.827 66.7265Z" fill="#A54729"/>
<path d="M150.157 40.1086L174.097 39.8056L186.133 39.6774L198.212 39.6018C206.272 39.5692 214.33 39.4753 222.414 39.5202L234.526 39.5608L246.628 39.6829H246.635C246.746 39.684 246.851 39.7351 246.928 39.8248C247.006 39.9146 247.049 40.0357 247.048 40.1615L246.9 58.1581L246.836 76.1545L246.861 94.1509L246.959 112.147C246.959 112.197 246.951 112.245 246.935 112.291C246.918 112.337 246.894 112.378 246.864 112.413C246.833 112.448 246.797 112.476 246.757 112.495C246.718 112.515 246.675 112.525 246.632 112.525H246.628L233.036 112.686L233.508 112.147L233.589 123.993C233.589 124.1 233.566 124.205 233.521 124.299C233.476 124.393 233.411 124.472 233.331 124.529C233.252 124.586 233.161 124.619 233.068 124.624C232.974 124.63 232.881 124.608 232.797 124.561L232.789 124.557L211.9 112.771L212.172 112.844L196.68 112.902L181.188 112.939L150.204 112.883L150.198 112.883C150.028 112.883 149.865 112.806 149.745 112.668C149.625 112.531 149.558 112.345 149.558 112.151L149.558 112.147C149.628 100.067 149.677 87.9817 149.798 75.9627L150.157 40.1086ZM150.25 40.2148L150.61 76.3462L150.849 112.147L150.204 111.411L181.188 111.355L196.68 111.393L212.172 111.45H212.176C212.269 111.451 212.361 111.476 212.445 111.523L233.282 123.429L232.483 123.993L232.563 112.147L232.563 112.138C232.564 112.068 232.576 111.998 232.6 111.934C232.624 111.869 232.659 111.811 232.703 111.762C232.746 111.712 232.798 111.674 232.855 111.647C232.912 111.621 232.973 111.608 233.034 111.608H233.036L246.628 111.77L246.297 112.147L246.394 94.1509L246.42 76.1544L246.355 58.1581L246.208 40.1617L246.628 40.6404L234.623 40.7625L222.629 40.8031C214.642 40.848 206.63 40.7541 198.619 40.7215L186.592 40.646L174.522 40.5176L150.25 40.2148Z" fill="#A54729"/>
<path d="M189.793 61.5955L189.135 61.6079L189.14 61.9834L189.799 61.9709L189.793 61.5955Z" fill="#A54729"/>
<path d="M189.614 93.0438L189.602 92.268L190.261 92.2548L190.273 93.0306L189.614 93.0438ZM189.566 89.9382L189.555 89.1617L190.213 89.1485L190.225 89.925L189.566 89.9382ZM189.519 86.8319L189.507 86.0554L190.166 86.0421L190.178 86.8187L189.519 86.8319ZM189.472 83.7256L189.46 82.9491L190.119 82.9359L190.131 83.7124L189.472 83.7256ZM189.424 80.6201L189.413 79.8435L190.071 79.8303L190.083 80.6069L189.424 80.6201ZM189.377 77.5138L189.365 76.7372L190.024 76.724L190.036 77.5006L189.377 77.5138ZM189.33 74.4075L189.318 73.6309L189.976 73.6177L189.988 74.3943L189.33 74.4075ZM189.282 71.3012L189.271 70.5246L189.929 70.5114L189.941 71.288L189.282 71.3012ZM189.235 68.1956L189.223 67.419L189.882 67.4058L189.894 68.1824L189.235 68.1956ZM189.188 65.0893L189.176 64.3127L189.834 64.2995L189.846 65.0761L189.188 65.0893Z" fill="#A54729"/>
<path d="M190.314 96.1186H189.661L189.649 95.3745L190.308 95.361L190.314 96.1186Z" fill="#A54729"/>
<path d="M223.109 96.1186H222.426V95.3677H223.109V96.1186ZM220.376 96.1186H219.693V95.3677H220.376V96.1186ZM217.643 96.1186H216.96V95.3677H217.643V96.1186ZM214.91 96.1186H214.227V95.3677H214.91V96.1186ZM212.177 96.1186H211.494V95.3677H212.177V96.1186ZM209.444 96.1186H208.761V95.3677H209.444V96.1186ZM206.711 96.1186H206.028V95.3677H206.711L206.711 96.1186ZM203.978 96.1186H203.295V95.3677H203.978V96.1186ZM201.245 96.1186H200.562V95.3677H201.245V96.1186ZM198.513 96.1186H197.829V95.3677H198.513V96.1186ZM195.78 96.1186H195.096V95.3677H195.78V96.1186ZM193.047 96.1186H192.363V95.3677H193.047L193.047 96.1186Z" fill="#A54729"/>
<path d="M225.488 95.3677H225.159V96.1186H225.488V95.3677Z" fill="#A54729"/>
</svg>
