<svg width="20" height="20" viewBox="0 0 20 20" fill="none" xmlns="http://www.w3.org/2000/svg">
<path d="M16.057 3.9C15.8668 3.76293 15.6469 3.67263 15.4153 3.63643C15.1836 3.60023 14.9467 3.61916 14.7237 3.69167C14.1355 3.85707 13.5263 3.93568 12.9154 3.925C12.0125 3.87599 11.1273 3.65539 10.307 3.275C9.29373 2.80636 8.19766 2.54296 7.08205 2.5C4.67371 2.5 3.74871 3.33333 3.58205 3.45C3.5023 3.52816 3.43908 3.62155 3.39613 3.72462C3.35319 3.82769 3.33139 3.93834 3.33205 4.05V16.6667C3.33205 16.8877 3.41984 17.0996 3.57612 17.2559C3.7324 17.4122 3.94437 17.5 4.16538 17.5C4.38639 17.5 4.59835 17.4122 4.75463 17.2559C4.91091 17.0996 4.99871 16.8877 4.99871 16.6667V13.0833C5.66274 12.8291 6.3716 12.7128 7.08205 12.7417C7.98489 12.7907 8.87012 13.0113 9.69038 13.3917C10.7037 13.8603 11.7998 14.1237 12.9154 14.1667C13.92 14.2046 14.9193 14.0047 15.832 13.5833C16.078 13.4678 16.2866 13.2854 16.434 13.057C16.5813 12.8286 16.6615 12.5634 16.6654 12.2917V5.09167C16.6651 4.85915 16.6098 4.62999 16.5041 4.42289C16.3984 4.21579 16.2452 4.03662 16.057 3.9ZM14.9987 12.1583C14.3344 12.4117 13.6258 12.5279 12.9154 12.5C12.0114 12.4521 11.1255 12.2285 10.307 11.8417C9.2918 11.3798 8.19653 11.1194 7.08205 11.075C6.37996 11.0629 5.67938 11.1442 4.99871 11.3167V4.51667C5.66118 4.25611 6.3708 4.1369 7.08205 4.16667C7.986 4.21457 8.87196 4.43818 9.69038 4.825C10.7056 5.28687 11.8009 5.54725 12.9154 5.59167C13.6179 5.60204 14.3186 5.51795 14.9987 5.34167V12.1583Z" fill="black" fill-opacity="0.5"/>
</svg>
