<svg width="60" height="45" viewBox="0 0 60 45" fill="none" xmlns="http://www.w3.org/2000/svg">
<path d="M21 16.0714C17.6906 16.0714 15 18.9542 15 22.5C15 26.0458 17.6906 28.9286 21 28.9286C24.3094 28.9286 27 26.0458 27 22.5C27 18.9542 24.3094 16.0714 21 16.0714ZM58.5 38.5714H35.6813C39.5719 34.4833 42 28.798 42 22.5C42 10.0748 32.5969 0 21 0C9.40313 0 0 10.0748 0 22.5C0 34.9252 9.40313 45 21 45H58.5C59.325 45 60 44.2768 60 43.3929V40.1786C60 39.2946 59.325 38.5714 58.5 38.5714ZM21 32.1429C16.0312 32.1429 12 27.8237 12 22.5C12 17.1763 16.0312 12.8571 21 12.8571C25.9688 12.8571 30 17.1763 30 22.5C30 27.8237 25.9688 32.1429 21 32.1429Z" fill="#A54729"/>
</svg>
