<svg width="30" height="10" viewBox="0 0 30 10" fill="none" xmlns="http://www.w3.org/2000/svg">
<g clip-path="url(#clip0_468_4063)">
<path d="M6.42 3.60249H3.372V4.66087H5.532C5.424 6.15671 4.368 6.79173 3.372 6.79173C2.1 6.79173 0.984 5.60635 0.984 3.95528C0.984 2.34655 2.04 1.10472 3.372 1.10472C4.392 1.10472 5.004 1.86675 5.004 1.86675L5.64 1.0906C5.64 1.0906 4.824 0.0322266 3.348 0.0322266C1.464 0.0463383 0 1.92319 0 3.94117C0 5.93092 1.368 7.86422 3.396 7.86422C5.172 7.86422 6.48 6.42483 6.48 4.30807C6.48 3.8565 6.42 3.60249 6.42 3.60249ZM8.916 2.84046C7.668 2.84046 6.768 3.9835 6.768 5.33823C6.768 6.69295 7.632 7.86422 8.928 7.86422C10.092 7.86422 11.052 6.80584 11.052 5.36645C11.064 3.68716 9.948 2.84046 8.916 2.84046ZM8.928 3.82828C9.54 3.82828 10.128 4.40686 10.128 5.35234C10.128 6.2696 9.552 6.8764 8.928 6.8764C8.244 6.8764 7.704 6.24138 7.704 5.35234C7.704 4.47741 8.244 3.82828 8.928 3.82828ZM13.584 2.84046C12.336 2.84046 11.436 3.9835 11.436 5.33823C11.436 6.69295 12.3 7.86422 13.596 7.86422C14.76 7.86422 15.72 6.80584 15.72 5.36645C15.732 3.68716 14.616 2.84046 13.584 2.84046ZM13.596 3.82828C14.208 3.82828 14.796 4.40686 14.796 5.35234C14.796 6.2696 14.22 6.8764 13.596 6.8764C12.912 6.8764 12.372 6.24138 12.372 5.35234C12.384 4.47741 12.912 3.82828 13.596 3.82828ZM18.168 2.84046C17.016 2.84046 16.116 4.02584 16.116 5.35234C16.116 6.86229 17.16 7.86422 18.144 7.86422C18.756 7.86422 19.08 7.58199 19.32 7.25742V7.75133C19.32 8.61214 18.876 9.13428 18.192 9.13428C17.544 9.13428 17.208 8.56981 17.1 8.24524L16.284 8.65448C16.572 9.37418 17.16 10.1362 18.204 10.1362C19.344 10.1362 20.22 9.28951 20.22 7.51143V2.99568H19.32V3.41904C19.044 3.06624 18.672 2.84046 18.168 2.84046ZM18.252 3.82828C18.816 3.82828 19.392 4.39274 19.392 5.35234C19.392 6.34016 18.816 6.8764 18.24 6.8764C17.628 6.8764 17.064 6.29782 17.064 5.36645C17.052 4.39274 17.652 3.82828 18.252 3.82828ZM24.192 2.82634C23.112 2.82634 22.2 3.84239 22.2 5.33823C22.2 6.91874 23.208 7.86422 24.3 7.86422C25.2 7.86422 25.764 7.28564 26.088 6.76351L25.344 6.18493C25.152 6.53772 24.828 6.8764 24.3 6.8764C23.7 6.8764 23.424 6.49539 23.256 6.11437L26.124 4.71731L25.98 4.30807C25.692 3.50371 25.044 2.82634 24.192 2.82634ZM24.228 3.80005C24.624 3.80005 24.9 4.03995 25.02 4.3363L23.112 5.28178C23.028 4.54797 23.616 3.80005 24.228 3.80005ZM20.844 7.70899H21.78V0.314461H20.844V7.70899ZM30 3.9835H28.848V2.62878H27.912V3.9835H26.76V5.08422H27.912V6.43894H28.848V5.08422H30V3.9835Z" fill="white"/>
</g>
<defs>
<clipPath id="clip0_468_4063">
<rect width="30" height="10" fill="white"/>
</clipPath>
</defs>
</svg>
