<svg width="650" height="548" viewBox="0 0 650 548" fill="none" xmlns="http://www.w3.org/2000/svg">
<path d="M379.228 182.352C367.824 207.162 353.086 224.471 335.023 216.67H339.912L335.895 194.753C336.749 188.601 337.845 181.716 339.229 173.819C342.118 175.676 345.163 177.239 348.323 178.486C354.783 181.269 361.641 182.835 368.597 183.114C372.156 183.323 375.726 183.067 379.228 182.352Z" fill="#A54729"/>
<path d="M439.868 240.67C443.652 259.328 447.309 273.84 451.155 281.988C449.58 283.922 447.916 285.769 446.168 287.523C444.469 289.251 442.611 290.788 440.623 292.113C438.681 293.433 436.531 294.361 434.279 294.852C433.14 295.069 431.984 295.157 430.828 295.112C429.663 295.042 428.505 294.865 427.368 294.582C425.481 286.8 424.906 285.19 424.502 275.769C424.115 267.023 425.562 239.137 425.562 239.137C423.81 181.957 405.98 163.212 405.98 163.212C421.581 154.302 423.837 141.651 423.837 141.651C423.837 141.651 434.198 212.726 439.868 240.67Z" fill="#A54729"/>
<path d="M451.153 281.989C450.132 284.377 448.791 286.593 447.172 288.565C445.557 290.594 443.663 292.346 441.556 293.762C440.477 294.457 439.34 295.042 438.159 295.507C436.963 295.955 435.719 296.237 434.456 296.346C433.2 296.446 431.937 296.345 430.709 296.047C429.538 295.75 428.415 295.269 427.375 294.62C427.95 297.002 428.651 299.962 429.505 303.896C442.787 313.703 460.229 289.066 460.679 288.42C457.282 290.84 454.155 288.353 451.153 281.989ZM432.434 302.382C432.085 302.369 431.754 302.211 431.512 301.941C431.269 301.671 431.134 301.311 431.134 300.936C431.134 300.561 431.269 300.201 431.512 299.931C431.754 299.661 432.085 299.503 432.434 299.49C432.784 299.503 433.114 299.661 433.357 299.931C433.599 300.201 433.735 300.561 433.735 300.936C433.735 301.311 433.599 301.671 433.357 301.941C433.114 302.211 432.784 302.369 432.434 302.382ZM438.689 301.92C438.34 301.906 438.009 301.748 437.766 301.478C437.524 301.208 437.388 300.848 437.388 300.473C437.388 300.098 437.524 299.738 437.766 299.468C438.009 299.199 438.34 299.04 438.689 299.027C439.038 299.04 439.369 299.199 439.611 299.468C439.854 299.738 439.99 300.098 439.99 300.473C439.99 300.848 439.854 301.208 439.611 301.478C439.369 301.748 439.038 301.906 438.689 301.92ZM445.591 298.448C445.241 298.435 444.911 298.277 444.668 298.007C444.425 297.737 444.29 297.377 444.29 297.002C444.29 296.627 444.425 296.267 444.668 295.997C444.911 295.727 445.241 295.569 445.591 295.556C445.94 295.569 446.27 295.727 446.513 295.997C446.756 296.267 446.891 296.627 446.891 297.002C446.891 297.377 446.756 297.737 446.513 298.007C446.27 298.277 445.94 298.435 445.591 298.448ZM450.767 293.126C450.418 293.112 450.087 292.954 449.844 292.684C449.602 292.415 449.466 292.054 449.466 291.679C449.466 291.304 449.602 290.944 449.844 290.674C450.087 290.405 450.418 290.246 450.767 290.233C451.116 290.246 451.447 290.405 451.689 290.674C451.932 290.944 452.067 291.304 452.067 291.679C452.067 292.054 451.932 292.415 451.689 292.684C451.447 292.954 451.116 293.112 450.767 293.126Z" fill="#A54729"/>
<path d="M427.375 294.62C427.348 294.601 427.312 294.582 427.285 294.562C427.312 294.572 427.339 294.572 427.366 294.582C427.372 294.593 427.375 294.607 427.375 294.62Z" fill="white"/>
<path d="M359.361 30.1193C358.112 31.0455 357.124 32.3227 356.506 33.8111C356.206 34.5442 355.967 35.3043 355.791 36.0825L355.572 37.2874C355.502 37.7203 355.401 38.147 355.271 38.5637C354.785 40.2713 353.916 41.8254 352.742 43.0904C352.137 43.7588 351.422 44.3022 350.634 44.6935C350.193 44.901 349.721 45.0224 349.241 45.0518C348.682 45.0854 348.128 44.9276 347.659 44.6011C347.518 44.5071 347.416 44.3606 347.37 44.19L347.368 44.1816C347.269 43.81 347.223 43.4242 347.232 43.0377C347.235 42.6906 347.269 42.3446 347.334 42.0045C347.462 41.3483 347.684 40.7172 347.991 40.1332C348.288 39.5719 348.638 39.045 349.035 38.5609C349.425 38.0931 349.846 37.6573 350.296 37.2571L350.15 37.4323C350.785 36.3837 351.276 35.2423 351.607 34.0433C351.693 33.7253 351.729 33.4841 351.816 33.0976C351.897 32.7254 352.014 32.3631 352.163 32.0163C352.445 31.3646 352.793 30.7482 353.2 30.1781C353.988 29.0326 355.002 28.0887 356.17 27.4144C356.759 27.058 357.414 26.8431 358.088 26.7845C358.762 26.7259 359.44 26.8251 360.076 27.0751L359.908 27.0614C362.714 26.5137 365.55 26.1632 368.398 26.0121C371.27 25.802 374.155 25.9738 376.988 26.5237C378.437 26.8164 379.843 27.3106 381.172 27.9937C382.55 28.6845 383.786 29.6617 384.809 30.8687C385.047 31.192 385.307 31.4997 385.525 31.8405C385.727 32.187 385.962 32.5351 386.135 32.8844C386.482 33.5815 386.831 34.2792 387.113 35.0051C387.706 36.4387 388.192 37.9199 388.569 39.4351C389.927 45.4382 390.346 51.6419 389.807 57.7923C389.767 60.7629 390.128 63.724 390.879 66.5835C391.274 68.0138 391.772 69.4093 392.367 70.7579C392.647 71.4164 393.052 72.0049 393.557 72.4857C394.098 72.9432 394.715 73.2873 395.375 73.4999C395.387 73.5038 395.397 73.5099 395.406 73.5181C395.415 73.5262 395.423 73.5362 395.428 73.5475C395.434 73.5587 395.437 73.571 395.438 73.5836C395.439 73.5963 395.438 73.609 395.434 73.6211C395.427 73.6435 395.413 73.6625 395.394 73.6746C395.375 73.6867 395.353 73.691 395.331 73.6869C394.606 73.5672 393.911 73.2884 393.291 72.8678C392.68 72.4031 392.167 71.8071 391.783 71.1179C391.028 69.794 390.393 68.3953 389.887 66.9413C388.861 64.0184 388.302 60.9306 388.233 57.808C388.195 56.2232 388.258 54.7419 388.211 53.2411C388.184 51.7421 388.142 50.2438 388.025 48.7539C387.83 45.7849 387.408 42.8381 386.762 39.9434C386.445 38.5104 386.024 37.1064 385.501 35.7444C385.255 35.0586 384.949 34.4087 384.646 33.7552C384.342 33.14 383.982 32.5588 383.571 32.02C381.737 29.8944 379.345 28.4168 376.711 27.783C371.23 26.3946 365.528 26.3593 360.033 27.6799C359.98 27.6913 359.926 27.6879 359.876 27.6699L359.865 27.6661C359.315 27.4742 358.731 27.419 358.158 27.5049C357.585 27.5908 357.037 27.8155 356.557 28.1619C355.078 29.2181 353.94 30.7397 353.299 32.5178C353.204 32.7888 353.135 33.0693 353.093 33.3553C353.048 33.6248 353.007 34.0508 352.939 34.3841C352.663 35.7936 352.162 37.1414 351.458 38.368C351.434 38.4125 351.403 38.453 351.368 38.4885L351.313 38.5435C350.937 38.9053 350.58 39.2881 350.242 39.6904C349.923 40.0859 349.642 40.5155 349.404 40.9725C349.173 41.4057 349 41.8719 348.891 42.3572C348.842 42.5886 348.814 42.8244 348.807 43.0615C348.8 43.2595 348.814 43.4578 348.848 43.6525L348.558 43.2334C348.793 43.3504 349.05 43.4082 349.31 43.4024C349.569 43.3966 349.823 43.3275 350.054 43.2002C350.689 42.9131 351.27 42.504 351.769 41.993C352.835 40.9278 353.66 39.6144 354.18 38.1537C354.46 37.4259 354.609 36.6647 354.85 35.8041C355.098 34.9768 355.43 34.1811 355.839 33.4314C356.638 31.9264 357.838 30.7121 359.285 29.9446C359.306 29.9347 359.329 29.9335 359.35 29.9411C359.372 29.9488 359.39 29.9647 359.4 29.9858C359.411 30.0069 359.414 30.0316 359.409 30.055C359.404 30.0784 359.39 30.0988 359.372 30.1122L359.361 30.1193Z" fill="#A54729"/>
<path d="M352.293 42.5042C352.139 45.2377 352.216 47.9808 352.525 50.6992C352.678 52.0324 352.92 53.3521 353.249 54.6478C353.378 55.3016 353.609 55.9179 353.79 56.5498C354.011 57.1638 354.246 57.773 354.509 58.3615C355.032 59.5363 355.689 60.6368 356.465 61.6377C357.213 62.6553 358.081 63.5651 359.046 64.3447C359.989 65.1069 361.05 65.6834 362.181 66.0475C362.742 66.2233 363.319 66.3286 363.902 66.3614C364.464 66.4099 365.028 66.3734 365.58 66.2529L365.682 66.229C365.765 66.2093 365.852 66.2075 365.936 66.2237C366.02 66.2398 366.101 66.2736 366.173 66.3231C366.245 66.3726 366.307 66.4368 366.356 66.5121C366.405 66.5874 366.439 66.6723 366.457 66.762C366.468 66.814 366.473 66.867 366.472 66.9202C366.454 68.654 366.328 70.3846 366.096 72.1006C365.981 72.9668 365.798 73.8211 365.548 74.6542C365.422 75.0843 365.231 75.4893 364.982 75.8529C364.843 76.0428 364.644 76.1716 364.422 76.2151C364.21 76.2145 364.006 76.1264 363.853 75.969C364.016 76.0781 364.211 76.1176 364.399 76.0796C364.562 76.0035 364.694 75.8672 364.772 75.6955C364.933 75.3261 365.04 74.9324 365.089 74.5282C365.198 73.6982 365.254 72.8612 365.257 72.023C365.286 70.341 365.21 68.6372 365.116 66.9671L366.009 67.6342C364.635 68.0747 363.175 68.1066 361.785 67.7264C360.425 67.3873 359.144 66.7541 358.021 65.8657C356.907 65.0185 355.917 63.9993 355.081 62.8412C354.876 62.5542 354.659 62.2792 354.464 61.982L353.912 61.0568C353.552 60.439 353.232 59.7952 352.955 59.1301C351.93 56.4862 351.382 53.6578 351.34 50.7948C351.275 47.9959 351.596 45.202 352.293 42.5042Z" fill="#A54729"/>
<path d="M404.569 75.8557C406.347 76.3095 408.102 76.8664 409.854 77.43C411.601 78.0172 413.341 78.6067 415.065 79.3078L415.008 79.2907C417.139 79.8184 419.105 80.9314 420.713 82.5207C422.316 84.0906 423.669 85.93 424.721 87.9668C426.738 92.0573 428.044 96.5079 428.575 101.101C429.135 105.645 429.304 110.236 429.078 114.813C428.871 119.371 428.428 123.913 427.752 128.418L427.751 128.424C427.717 128.647 427.611 128.85 427.451 128.996C427.29 129.142 427.087 129.222 426.876 129.221L415.854 129.165L404.833 129.032L404.812 129.032C404.637 129.029 404.469 128.956 404.342 128.827C404.215 128.698 404.137 128.523 404.124 128.335C403.811 123.428 403.616 118.521 403.541 113.614C403.516 111.158 403.538 108.702 403.608 106.245C403.642 103.787 403.841 101.335 404.203 98.9084C404.041 101.35 404.004 103.8 404.094 106.246C404.162 108.692 404.277 111.135 404.44 113.577C404.724 118.459 405.107 123.342 405.54 128.204L404.833 127.507L415.854 127.375L426.876 127.319L426.001 128.122C426.611 123.671 427.122 119.204 427.337 114.723C427.588 110.254 427.488 105.77 427.037 101.32C426.784 99.11 426.399 96.9199 425.887 94.7626C425.359 92.6189 424.627 90.5395 423.701 88.5576C422.78 86.5809 421.569 84.7761 420.114 83.2122C418.685 81.6239 416.901 80.4562 414.93 79.8211L414.887 79.8088L414.873 79.8039C413.206 79.0441 411.482 78.3788 409.764 77.7212C408.044 77.0644 406.322 76.4079 404.569 75.8557Z" fill="#A54729"/>
<path d="M360.529 29.3584C361.504 29.5842 362.42 30.0404 363.209 30.6938C363.999 31.3472 364.643 32.1813 365.094 33.1354C365.569 34.0711 365.932 35.0675 366.175 36.1009C366.418 37.0446 366.723 37.9688 367.088 38.8664C367.796 40.6342 368.819 42.2364 370.1 43.5828C370.653 44.257 371.336 44.793 372.103 45.153C372.869 45.5129 373.7 45.688 374.536 45.6659L374.145 45.9067C374.786 45.1679 375.5 44.506 376.275 43.9326C377.065 43.2662 378.044 42.9102 379.049 42.9236C379.317 42.9626 379.574 43.058 379.807 43.2043C380.041 43.3506 380.244 43.5449 380.407 43.776C380.691 44.2009 380.904 44.6756 381.036 45.1789C381.275 46.1307 381.407 47.11 381.428 48.0956C381.627 50.0921 381.265 52.1068 380.389 53.8809C379.859 54.8089 379.081 55.5439 378.157 55.99C377.232 56.436 376.203 56.5723 375.205 56.3811L376.012 55.9219C375.607 57.6587 375.235 59.4337 374.93 61.2039C374.601 62.9718 374.333 64.7493 374.149 66.526C373.964 68.2796 373.897 70.0453 373.949 71.8093C373.917 73.4166 374.321 74.9994 375.111 76.3653L374.199 76.0614C375.666 75.6994 377.096 75.4795 378.548 75.2629C379.998 75.0698 381.449 74.9067 382.905 74.8219C385.809 74.6261 388.723 74.6549 391.624 74.9081C391.648 74.9104 391.67 74.9227 391.685 74.9424C391.701 74.962 391.708 74.9874 391.706 75.013C391.704 75.0355 391.695 75.0566 391.68 75.0726C391.665 75.0887 391.645 75.0987 391.624 75.101C390.182 75.2605 388.744 75.3751 387.315 75.5786C385.883 75.7343 384.458 75.9493 383.04 76.1861C381.622 76.4212 380.209 76.678 378.805 76.9729C377.406 77.2525 375.992 77.5954 374.65 77.959L374.645 77.9602C374.482 78.0042 374.311 77.9989 374.151 77.945C373.991 77.8912 373.848 77.7908 373.737 77.6549C373.101 76.8289 372.649 75.8573 372.417 74.8147C372.189 73.8646 372.06 72.89 372.033 71.9092C371.973 70.0265 372.082 68.1419 372.36 66.2818C372.866 62.6236 373.675 59.0212 374.778 55.5174L374.79 55.4794C374.842 55.3108 374.955 55.1715 375.103 55.0922C375.252 55.0129 375.423 55.0001 375.58 55.0565L375.584 55.058C376.324 55.2601 377.103 55.2167 377.819 54.9335C378.579 54.6295 379.239 54.0943 379.719 53.3936C380.65 51.8281 381.059 49.9702 380.878 48.1234C380.868 47.1892 380.735 46.2612 380.481 45.3673C380.223 44.5102 379.698 43.722 378.986 43.7194C378.193 43.826 377.456 44.2081 376.885 44.8074C376.239 45.4001 375.653 46.0636 375.135 46.787C375.05 46.9061 374.927 46.988 374.79 47.0179L374.744 47.028C373.674 47.2627 372.563 47.1441 371.558 46.6877C370.597 46.2491 369.723 45.6175 368.983 44.827C367.548 43.3149 366.442 41.4821 365.742 39.4589C365.389 38.4726 365.118 37.4549 364.932 36.4175C364.778 35.4596 364.526 34.5226 364.182 33.6233C363.828 32.7351 363.342 31.9142 362.744 31.1923C362.121 30.4684 361.352 29.9061 360.497 29.5481L360.484 29.5431C360.463 29.5349 360.446 29.5186 360.436 29.4975C360.426 29.4764 360.423 29.4519 360.429 29.4288C360.434 29.4058 360.448 29.3858 360.466 29.3728C360.485 29.3597 360.507 29.3546 360.529 29.3584Z" fill="#A54729"/>
<path d="M404.273 92.2313C404.475 90.7003 404.853 89.2021 405.398 87.771C405.925 86.315 406.631 84.9413 407.498 83.6865C408.363 82.3991 409.468 81.318 410.741 80.5114C412.029 79.7432 413.503 79.4102 414.97 79.5559C413.59 79.7767 412.273 80.3213 411.111 81.1508C409.996 82.0138 409.019 83.065 408.218 84.2636C407.384 85.4634 406.654 86.7412 406.034 88.0816C405.404 89.4272 404.801 90.8029 404.273 92.2313Z" fill="#A54729"/>
<path d="M374.424 77.0103C374.717 78.6061 374.715 80.248 374.419 81.8431C374.168 83.4409 373.668 84.982 372.941 86.4021C373.05 84.8142 373.248 83.2349 373.535 81.6729C373.808 80.1249 374.053 78.5947 374.424 77.0103Z" fill="#A54729"/>
<path d="M333.445 113.459C333.599 111.786 333.852 110.124 334.154 108.474C334.454 106.822 334.786 105.173 335.182 103.541C335.973 100.264 336.994 97.0554 338.235 93.9433C338.858 92.377 339.56 90.8483 340.338 89.364C341.102 87.858 341.967 86.4134 342.926 85.0414C344.821 82.2015 347.247 79.8153 350.047 78.0342L349.97 78.0867C350.271 77.8793 350.586 77.6984 350.913 77.5459C351.212 77.3989 351.512 77.276 351.811 77.1522C352.411 76.9235 353.013 76.7184 353.619 76.5527C354.819 76.2147 356.04 75.9662 357.273 75.8088C358.495 75.6321 359.72 75.5362 360.942 75.4598C362.165 75.3943 363.387 75.3892 364.606 75.4049L364.628 75.4053C364.72 75.4064 364.81 75.4269 364.894 75.4655C364.978 75.5042 365.054 75.5602 365.118 75.6304C365.182 75.7006 365.232 75.7837 365.266 75.8748C365.3 75.9659 365.317 76.0633 365.316 76.1614L365.314 76.2112C365.086 79.3073 364.932 82.4399 364.86 85.5625C364.753 88.6907 364.807 91.8171 364.988 94.9549C364.451 91.8567 364.112 88.723 363.972 85.5754C363.834 82.4243 363.797 79.28 363.907 76.1122L364.614 76.9183C363.42 76.9664 362.229 77.0365 361.043 77.1284C359.858 77.2401 358.676 77.37 357.511 77.5761C356.352 77.769 355.203 78.0281 354.069 78.3523C353.507 78.5119 352.96 78.706 352.425 78.9155C352.162 79.0278 351.899 79.1387 351.65 79.2647C351.425 79.373 351.207 79.4971 350.997 79.6362C350.974 79.6531 350.943 79.6737 350.92 79.689C348.343 81.3643 346.096 83.5638 344.306 86.1639C342.457 88.7901 340.868 91.6163 339.566 94.5964C338.229 97.5956 337.062 100.679 336.071 103.828C335.046 106.99 334.17 110.204 333.445 113.459Z" fill="#A54729"/>
<path d="M321.797 69.489C322.743 70.1518 323.557 71.0083 324.194 72.0094C324.821 73.0242 325.323 74.1224 325.686 75.2762C326.052 76.4287 326.324 77.6129 326.501 78.8158C326.686 80.0247 326.78 81.2477 326.782 82.4729L326.771 82.3371L334.12 112.745C334.736 115.276 335.367 117.8 336.014 120.319L336.5 122.205L336.765 123.036C336.882 123.312 336.987 123.59 337.112 123.865C337.643 124.987 338.258 126.062 338.95 127.079C340.35 129.163 341.891 131.133 343.56 132.975L348.793 138.454L347.49 138.668L353.268 127.265L353.713 128.482L343.336 124.641L343.291 124.624C343.216 124.596 343.148 124.551 343.091 124.491C342.16 123.484 341.447 122.27 341.003 120.934C340.561 119.66 340.304 118.321 340.239 116.963C340.151 114.306 340.562 111.657 341.447 109.174C341.857 107.932 342.362 106.766 342.831 105.589L344.222 102.041C344.675 100.853 345.118 99.6615 345.538 98.4608C345.991 97.2739 346.364 96.0533 346.653 94.8085C346.195 97.3371 345.547 99.822 344.717 102.239C343.973 104.672 343.088 107.115 342.36 109.5C341.634 111.871 341.345 114.372 341.51 116.861C341.604 118.072 341.87 119.259 342.298 120.383C342.696 121.462 343.299 122.44 344.069 123.254L343.824 123.105L354.228 126.861C354.337 126.901 354.437 126.966 354.521 127.051C354.604 127.136 354.67 127.24 354.713 127.355C354.755 127.47 354.774 127.593 354.768 127.717C354.762 127.84 354.731 127.961 354.677 128.07L354.672 128.079L348.944 139.512C348.892 139.614 348.823 139.705 348.739 139.778C348.655 139.852 348.558 139.907 348.455 139.941C348.351 139.974 348.242 139.985 348.134 139.974C348.026 139.962 347.922 139.927 347.826 139.872C347.759 139.833 347.696 139.783 347.641 139.726L342.369 134.256C340.606 132.371 338.985 130.337 337.523 128.175C336.769 127.081 336.098 125.923 335.517 124.712C335.373 124.4 335.245 124.072 335.109 123.752C334.989 123.418 334.881 123.063 334.776 122.727L334.287 120.827C333.647 118.292 333.029 115.753 332.433 113.211C331.222 108.13 330.117 103.024 329.011 97.9197C327.927 92.8093 326.884 87.6895 325.881 82.5601L325.878 82.5438C325.871 82.5044 325.868 82.4641 325.87 82.424C325.929 81.2533 325.905 80.0795 325.799 78.9127C325.697 77.7374 325.501 76.5739 325.213 75.4349C324.703 73.109 323.504 71.023 321.797 69.489Z" fill="#A54729"/>
<path d="M312.738 66.2492C313.22 65.7011 313.822 65.2922 314.489 65.0601C315.157 64.8281 315.868 64.7805 316.558 64.9217C317.251 65.061 317.907 65.3623 318.48 65.8042C318.758 66.0196 319.017 66.2618 319.254 66.5276C319.475 66.804 319.676 67.0977 319.856 67.4063C319.54 67.2529 319.266 67.0649 318.983 66.901C318.686 66.7595 318.421 66.5757 318.13 66.4561C317.578 66.1865 316.998 65.99 316.403 65.8709C315.81 65.7561 315.205 65.7342 314.607 65.8058C313.971 65.8822 313.345 66.0309 312.738 66.2492Z" fill="#A54729"/>
<path d="M319.858 74.1174C320.074 74.752 320.093 75.4446 319.911 76.0915C319.721 76.7861 319.307 77.3852 318.742 77.7815C318.177 78.1331 317.532 78.3105 316.879 78.2944C316.572 78.2734 316.267 78.2293 315.966 78.1625C315.675 78.0691 315.39 77.9548 315.113 77.8202C315.404 77.759 315.698 77.7155 315.993 77.6899L316.821 77.5446C317.326 77.4358 317.812 77.2413 318.26 76.9684C319.117 76.276 319.69 75.2539 319.858 74.1174Z" fill="#A54729"/>
<path d="M316.297 84.01C317.028 84.043 317.755 84.1312 318.475 84.2739L319.525 84.4812C319.864 84.5501 320.227 84.6127 320.502 84.6373L320.559 84.6423C320.611 84.6472 320.661 84.6639 320.707 84.6913C321.249 85.0137 321.736 85.4334 322.146 85.9321C322.359 86.1836 322.532 86.4703 322.659 86.7812C322.798 87.0888 322.836 87.4376 322.767 87.7712C322.549 87.2211 322.175 86.7581 321.699 86.4472C321.251 86.1089 320.783 85.8021 320.298 85.5286L320.502 85.5825C320.109 85.5687 319.718 85.5051 319.339 85.3929C318.978 85.3014 318.63 85.1707 318.283 85.0453C317.587 84.7815 316.921 84.4342 316.297 84.01Z" fill="#A54729"/>
<path d="M335.022 216.815C325.616 217.067 316.21 217.198 306.805 217.374L278.587 217.712L250.37 217.873C240.964 217.899 231.558 218.017 222.152 217.94L222.139 217.94C221.861 217.938 221.593 217.83 221.382 217.636C221.171 217.443 221.03 217.175 220.985 216.881L217.768 195.925L214.701 174.941L211.644 153.955L210.113 143.463L208.514 132.983L205.301 112.026L201.943 91.0948C199.694 77.1425 197.34 63.2092 195.013 49.2712C194.974 49.0384 195.023 48.7985 195.149 48.6044C195.275 48.4103 195.468 48.2778 195.685 48.2361C195.725 48.2284 195.765 48.2238 195.806 48.2224L195.827 48.222L224.077 47.4757L252.327 46.8354L280.579 46.246L308.831 45.7243C309.169 45.7182 309.498 45.8399 309.761 46.068C310.023 46.2961 310.203 46.6161 310.267 46.9719L316.937 83.8616L323.441 120.786C325.634 133.089 327.704 145.418 329.83 157.735C331.968 170.05 333.956 182.396 336.026 194.725C336.032 194.762 336.025 194.801 336.005 194.832C335.985 194.863 335.954 194.885 335.919 194.892C335.885 194.9 335.849 194.892 335.819 194.871C335.79 194.85 335.769 194.818 335.762 194.781C333.325 182.529 330.806 170.295 328.438 158.029C326.056 145.766 323.62 133.514 321.306 121.237L314.29 84.4202L307.44 47.5687L308.875 48.8161L280.621 49.2201L252.366 49.5563L224.11 49.8417L195.853 50.0212L196.667 48.9721C198.725 62.9588 200.756 76.9503 202.893 90.9227L206.113 111.879L209.478 132.809L211.169 143.272L212.926 153.723L216.447 174.625L219.959 195.528L223.32 216.459L222.152 215.4C231.558 215.323 240.964 215.441 250.37 215.467L278.587 215.628L306.805 215.966C316.21 216.142 325.616 216.273 335.022 216.525C335.057 216.526 335.09 216.542 335.115 216.569C335.139 216.596 335.153 216.632 335.153 216.67C335.153 216.708 335.139 216.744 335.115 216.771C335.09 216.798 335.057 216.814 335.022 216.815Z" fill="#A54729"/>
<path d="M204.738 59.3534L254.031 58.0101L278.869 57.3517L303.784 56.7641C303.994 56.7592 304.198 56.8333 304.362 56.9736C304.525 57.1139 304.638 57.3114 304.68 57.5317L304.682 57.5442L311.699 94.6205L318.588 131.724L332.34 205.936C332.374 206.122 332.374 206.313 332.34 206.498C332.305 206.684 332.237 206.86 332.139 207.017C332.041 207.175 331.915 207.31 331.769 207.415C331.622 207.52 331.458 207.593 331.285 207.63C331.198 207.648 331.109 207.657 331.02 207.657L227.802 207.439H227.792C227.523 207.439 227.264 207.336 227.059 207.148C226.855 206.961 226.719 206.702 226.676 206.418L215.573 132.582L204.738 59.3534ZM204.738 59.3534L216.967 132.986L228.927 206.011L227.802 204.99L331.02 204.772L329.701 206.493L316.23 132.222L309.508 95.083L302.914 57.9173L303.812 58.6972L279.197 58.9211L254.505 59.0741L204.738 59.3534Z" fill="#A54729"/>
<path d="M393.953 141.228C395.578 140.698 397.2 140.317 398.803 139.925C400.372 139.574 401.921 139.129 403.443 138.591L402.861 139.395C402.946 138.459 403.051 137.525 403.166 136.593C403.306 135.663 403.414 134.73 403.583 133.803C403.734 132.875 403.917 131.95 404.113 131.026C404.329 130.105 404.536 129.182 404.831 128.27C404.946 129.228 404.974 130.176 405.01 131.125C405.026 132.072 405.029 133.018 405.001 133.96C404.99 134.904 404.918 135.841 404.878 136.782C404.814 137.72 404.739 138.657 404.644 139.592L404.642 139.611C404.624 139.787 404.56 139.954 404.458 140.093C404.355 140.232 404.218 140.337 404.062 140.396C403.237 140.704 402.388 140.932 401.526 141.077C400.689 141.228 399.846 141.33 399 141.384C397.317 141.511 395.626 141.459 393.953 141.228Z" fill="#A54729"/>
<path d="M387.977 153.091C389.061 151.684 390.239 150.362 391.499 149.134C392.732 147.888 393.996 146.682 395.289 145.516C396.568 144.331 397.897 143.215 399.217 142.087C400.553 140.98 401.894 139.881 403.271 138.829L403.325 138.788C403.422 138.714 403.535 138.669 403.654 138.658C405.175 138.519 406.693 138.417 408.221 138.387C408.984 138.361 409.75 138.37 410.516 138.388C411.286 138.397 412.054 138.476 412.811 138.626C412.05 138.705 411.31 138.884 410.563 139.03L408.327 139.482C406.837 139.787 405.342 140.063 403.853 140.329L404.235 140.158C402.952 141.332 401.638 142.465 400.321 143.594C398.989 144.703 397.669 145.827 396.306 146.892C394.954 147.973 393.583 149.028 392.192 150.054C390.811 151.098 389.38 152.062 387.977 153.091Z" fill="#A54729"/>
<path d="M390.918 172.649L403.054 164.29C405.056 162.874 407.069 161.481 409.041 160.026L411.998 157.848C412.948 157.123 413.861 156.342 414.732 155.509C418.238 152.169 420.944 147.974 422.622 143.277C424.313 138.496 424.87 133.339 424.244 128.27C425.587 133.353 425.484 138.751 423.947 143.771C422.415 148.852 419.645 153.402 415.925 156.949C414.992 157.822 414.014 158.639 412.997 159.395C411.994 160.12 410.998 160.856 409.975 161.546C407.931 162.927 405.883 164.297 403.782 165.569C399.604 168.153 395.314 170.524 390.918 172.649Z" fill="#A54729"/>
<path d="M369.772 381.592C369.513 382.136 369.232 382.664 368.994 383.211C368.769 383.763 368.57 384.326 368.4 384.9C368.062 386.032 367.898 387.215 367.912 388.404C367.939 389.573 368.146 390.729 368.527 391.825C368.892 392.9 369.437 393.894 370.135 394.759L370.143 394.768C370.169 394.8 370.193 394.835 370.213 394.872C371.763 397.661 372.892 400.695 373.56 403.861C373.904 405.478 374.04 407.138 373.966 408.795C373.888 410.512 373.462 412.19 372.718 413.713C371.929 415.235 370.793 416.516 369.415 417.437C368.086 418.353 366.606 418.989 365.055 419.31C363.524 419.636 361.953 419.68 360.409 419.441C359.659 419.321 358.916 419.156 358.183 418.948C357.482 418.77 356.773 418.612 356.06 418.482C350.313 417.318 344.383 417.776 338.851 419.813C338.176 420.108 337.492 420.379 336.826 420.694C336.172 421.037 335.504 421.349 334.862 421.716L332.951 422.862C332.302 423.264 331.635 423.631 330.952 423.961C328.209 425.263 325.288 426.083 322.303 426.389C319.312 426.739 316.291 426.649 313.323 426.12C311.819 425.852 310.34 425.433 308.908 424.87C307.371 424.31 305.984 423.359 304.864 422.099C304.229 421.352 303.839 420.403 303.751 419.397C303.727 418.879 303.794 418.361 303.948 417.87C304.08 417.404 304.275 416.962 304.528 416.558C305.481 415.155 306.7 413.983 308.103 413.119C310.712 411.526 313.449 410.186 316.279 409.114C321.733 406.768 327.289 404.632 332.52 401.983C335.122 400.753 337.467 398.974 339.415 396.751C341.245 394.36 342.76 391.711 343.917 388.877L343.88 389.006C344.205 387.204 344.564 385.408 344.913 383.611L345.983 378.222C345.988 378.196 346.003 378.172 346.024 378.157C346.045 378.141 346.071 378.135 346.096 378.14C346.121 378.144 346.144 378.159 346.159 378.181C346.174 378.203 346.181 378.231 346.178 378.258L345.539 383.724C345.318 385.545 345.107 387.367 344.862 389.184C344.858 389.219 344.849 389.253 344.836 389.286L344.826 389.313C343.777 392.338 342.338 395.19 340.551 397.787C338.541 400.257 336.088 402.268 333.339 403.7C330.691 405.203 327.975 406.473 325.249 407.686C322.523 408.897 319.791 410.075 317.051 411.219C314.335 412.251 311.694 413.499 309.151 414.953C307.983 415.634 306.956 416.564 306.134 417.685C305.97 417.931 305.843 418.203 305.756 418.49C305.665 418.744 305.621 419.014 305.624 419.285C305.676 419.859 305.9 420.399 306.261 420.825C307.18 421.858 308.305 422.654 309.551 423.153C310.865 423.722 312.226 424.16 313.616 424.46C316.442 425.069 319.329 425.296 322.208 425.137C325.1 424.995 327.952 424.343 330.648 423.21C331.317 422.92 331.968 422.584 332.595 422.201L334.552 421.072C335.213 420.709 335.9 420.402 336.572 420.065C337.256 419.755 337.957 419.492 338.649 419.204C341.453 418.147 344.363 417.449 347.32 417.122C350.285 416.768 353.278 416.781 356.241 417.161C356.983 417.253 357.724 417.373 358.461 417.516C359.159 417.673 359.865 417.788 360.575 417.861C361.958 417.983 363.35 417.878 364.704 417.55C366.028 417.273 367.286 416.709 368.4 415.893C369.514 415.076 370.461 414.024 371.183 412.801C372.49 410.305 372.511 407.162 372.004 404.195C371.734 402.69 371.354 401.209 370.867 399.767C370.396 398.312 369.828 396.895 369.167 395.527L369.245 395.641C368.483 394.613 367.908 393.442 367.549 392.186C367.178 390.961 367.027 389.672 367.104 388.387C367.183 387.123 367.451 385.88 367.9 384.709C368.116 384.13 368.369 383.567 368.656 383.024C368.955 382.493 369.293 381.988 369.608 381.474C369.622 381.451 369.643 381.435 369.668 381.429C369.692 381.423 369.718 381.427 369.74 381.44C369.762 381.454 369.778 381.476 369.785 381.502C369.792 381.528 369.79 381.556 369.778 381.58L369.772 381.592Z" fill="#A54729"/>
<path d="M402.244 382.86C403.312 386.18 403.469 389.758 402.697 393.171C402.492 394.042 402.191 394.883 401.801 395.678C401.447 396.415 401.124 397.184 400.825 397.957C400.232 399.501 399.743 401.089 399.361 402.708C398.63 405.898 398.414 409.333 399.597 412.176C400.78 415.005 403.493 416.822 406.383 417.551C407.851 417.906 409.363 418 410.86 417.829C411.236 417.786 411.61 417.723 411.983 417.649L413.18 417.42C413.981 417.282 414.784 417.169 415.589 417.084C418.803 416.754 422.043 416.838 425.238 417.333C428.426 417.816 431.544 418.731 434.517 420.056C435.244 420.425 435.995 420.743 436.701 421.157C437.405 421.558 438.131 421.995 438.817 422.367C440.204 423.141 441.671 423.737 443.187 424.143C444.699 424.574 446.244 424.857 447.803 424.99C449.359 425.139 450.923 425.166 452.482 425.07C455.575 424.964 458.629 424.302 461.518 423.114C462.86 422.601 464.052 421.719 464.976 420.556C465.146 420.323 465.272 420.056 465.345 419.771C465.419 419.486 465.438 419.187 465.402 418.894C465.267 418.25 464.968 417.66 464.537 417.189C463.51 416.062 462.314 415.128 460.997 414.426C460.318 414.051 459.627 413.682 458.925 413.339C458.203 413.019 457.506 412.686 456.764 412.374C450.847 409.837 444.897 407.407 439.105 404.355C437.647 403.585 436.229 402.728 434.861 401.787C433.482 400.807 432.228 399.639 431.128 398.313C429.098 395.59 427.512 392.517 426.437 389.226L426.428 389.202C426.422 389.184 426.417 389.166 426.415 389.148L425.875 384.43C425.872 384.403 425.879 384.375 425.894 384.353C425.909 384.331 425.932 384.317 425.957 384.312C425.982 384.308 426.008 384.314 426.029 384.329C426.05 384.344 426.064 384.368 426.07 384.394L427.004 389.041L426.982 388.964C428.421 391.993 429.882 395.057 432.042 397.403C434.318 399.668 436.958 401.47 439.833 402.723C442.696 404.121 445.671 405.318 448.633 406.558C451.592 407.805 454.58 408.995 457.538 410.267C460.519 411.578 463.623 412.931 466.062 415.806C466.723 416.59 467.163 417.559 467.331 418.601C467.456 419.722 467.164 420.852 466.519 421.744C465.37 423.2 463.874 424.294 462.19 424.908C460.64 425.53 459.033 425.973 457.396 426.23C452.555 427.051 447.604 426.682 442.915 425.151C441.358 424.648 439.86 423.951 438.454 423.074L436.376 421.825C435.691 421.406 434.96 421.083 434.254 420.707C431.366 419.325 428.295 418.434 425.151 418.064C422.016 417.705 418.85 417.798 415.738 418.341C414.964 418.473 414.193 418.627 413.429 418.808L412.286 419.098C411.881 419.205 411.472 419.299 411.059 419.372C409.394 419.68 407.69 419.659 406.032 419.312C404.348 418.966 402.75 418.25 401.337 417.208C399.877 416.148 398.725 414.669 398.011 412.939C397.346 411.234 397.036 409.394 397.103 407.547C397.166 405.766 397.433 404 397.898 402.29C398.353 400.608 398.94 398.971 399.655 397.396C400.007 396.61 400.379 395.839 400.794 395.079C401.184 394.381 401.494 393.636 401.719 392.859C402.19 391.272 402.452 389.622 402.498 387.956C402.522 386.263 402.373 384.573 402.053 382.915C402.048 382.889 402.053 382.861 402.066 382.838C402.079 382.815 402.1 382.798 402.125 382.791C402.149 382.784 402.175 382.787 402.197 382.8C402.22 382.813 402.236 382.834 402.244 382.86Z" fill="#A54729"/>
<path d="M399.544 413.968C404.145 422.815 417.465 415.042 426.124 417.833C427.366 418.233 427.606 418.111 427.606 418.111C427.606 418.111 433.112 401.548 440.461 402.063C440.461 402.063 452.552 404.612 454.212 408.428C454.212 408.428 444.582 417.862 445.351 425.252C463.842 427.319 466.409 420.002 466.409 420.002C470.066 427.634 455.842 431.736 446.151 428.588C438.002 425.94 422.147 420.002 422.147 420.002V424.963L416.28 427.634H399.495L402.055 421.656C397.195 417.458 399.544 413.968 399.544 413.968Z" fill="#A54729"/>
<path d="M304.67 420.002C304.67 420.002 307.237 427.319 325.728 425.252C326.496 417.862 316.867 408.428 316.867 408.428C318.527 404.612 330.617 402.063 330.617 402.063C337.967 401.548 343.472 418.111 343.472 418.111C343.472 418.111 343.713 418.233 344.955 417.833C353.614 415.042 366.934 422.815 371.535 413.968C371.535 413.968 373.884 417.458 369.024 421.656L371.583 427.634H354.799L348.931 424.963V420.002C348.931 420.002 333.077 425.94 324.928 428.588C315.237 431.736 301.013 427.634 304.67 420.002Z" fill="#A54729"/>
<path d="M349.43 79.5546C349.668 76.5806 349.821 73.6412 349.935 70.7011C350.026 67.7618 350.109 64.8292 350.07 61.8946C350.065 60.4281 350.054 58.9597 350.001 57.4931L349.947 55.2899L349.853 53.0863C349.748 50.1416 349.526 47.2045 349.43 44.2126C350.267 47.0629 350.875 49.9846 351.249 52.9459C351.643 55.9071 351.849 58.8936 351.866 61.8847C351.879 64.8773 351.699 67.8672 351.327 70.8331C350.99 73.8053 350.354 76.7295 349.43 79.5546Z" fill="#A54729"/>
<path d="M368.168 65.3105C368.795 64.9596 369.386 64.5395 369.932 64.0571C370.472 63.5916 370.99 63.0957 371.482 62.5714C371.994 62.0662 372.462 61.5079 372.966 60.9735C373.454 60.422 373.942 59.8638 374.496 59.3311C374.251 60.0757 373.921 60.785 373.514 61.4427C373.106 62.1021 372.633 62.7132 372.105 63.2657C371.572 63.8263 370.969 64.3042 370.313 64.6853C369.662 65.0943 368.922 65.3101 368.168 65.3105Z" fill="#A54729"/>
<path d="M357.097 51.2839C357.027 51.7933 356.925 52.251 356.844 52.6959C356.759 53.099 356.723 53.5124 356.738 53.9255C356.739 54.0885 356.776 54.2488 356.846 54.3933C356.917 54.5377 357.018 54.6621 357.142 54.7559C357.5 54.9966 357.883 55.1906 358.283 55.3338C357.827 55.5615 357.306 55.5953 356.827 55.4282C356.688 55.3929 356.559 55.3219 356.451 55.2214C356.325 55.1323 356.216 55.0177 356.131 54.8839C355.962 54.6243 355.863 54.3203 355.842 54.0044C355.82 53.4586 355.94 52.9169 356.188 52.4396C356.405 51.9851 356.716 51.5898 357.097 51.2839Z" fill="#A54729"/>
<path d="M357.281 58.9209C358.24 58.9616 359.195 59.0559 360.145 59.2035C360.573 59.2672 361.006 59.281 361.436 59.2444C361.648 59.2244 361.849 59.1396 362.017 59.0002C362.185 58.8608 362.311 58.6726 362.382 58.458C362.409 58.5984 362.426 58.7408 362.433 58.8839C362.412 59.0384 362.373 59.1893 362.317 59.333C362.232 59.4686 362.135 59.5957 362.029 59.7126C361.911 59.8037 361.779 59.88 361.648 59.9619C361.139 60.1698 360.59 60.2385 360.05 60.1618C359.545 60.0995 359.051 59.9618 358.581 59.7527C358.107 59.5561 357.668 59.2749 357.281 58.9209Z" fill="#A54729"/>
<path d="M425.697 239.148C425.564 245.171 425.405 251.192 425.32 257.213C425.255 263.224 425.089 269.271 425.33 275.22C425.8 287.158 429.679 298.537 432.256 310.32C433.608 316.203 434.764 322.116 435.781 328.065C436.795 334.013 437.72 339.983 438.421 345.992C439.113 352.001 439.65 358.042 439.873 364.116C440.158 370.218 439.972 376.334 439.319 382.404L439.311 382.465C439.283 382.699 439.196 382.921 439.06 383.107C438.925 383.293 438.745 383.436 438.54 383.522C437.475 383.953 436.381 384.291 435.266 384.536C434.199 384.793 433.13 384.984 432.061 385.15C429.923 385.47 427.783 385.667 425.645 385.765C421.384 385.943 417.117 385.826 412.87 385.415C404.435 384.498 396.121 383.582 387.713 383.001C383.517 382.705 379.317 382.488 375.113 382.35C373.011 382.287 370.909 382.234 368.806 382.212C366.711 382.2 364.568 382.151 362.458 381.989C358.224 381.684 354.023 380.976 349.905 379.874C345.796 378.746 341.784 377.245 337.913 375.387C337.835 375.35 337.77 375.288 337.726 375.211C337.681 375.133 337.66 375.042 337.665 374.951L337.666 374.943C338.406 361.744 338.59 348.505 338.59 335.287C338.546 322.068 338.297 308.855 337.585 295.694L337.298 290.76C337.194 289.117 337.023 287.482 336.889 285.843C336.654 282.556 336.217 279.308 335.825 276.051C335.668 274.412 335.321 272.822 335.059 271.209C334.776 269.598 334.519 268.004 334.172 266.356C333.546 263.081 333.08 259.772 332.778 256.444C332.259 249.815 332.101 243.159 332.304 236.51C332.445 229.882 332.722 223.247 333.407 216.661C333.41 216.624 333.428 216.59 333.455 216.566C333.481 216.542 333.516 216.53 333.551 216.533C333.586 216.536 333.618 216.553 333.641 216.581C333.665 216.609 333.677 216.646 333.675 216.683C333.423 223.295 333.351 229.901 333.531 236.507C333.609 239.807 333.678 243.12 333.796 246.412C333.925 249.695 334.175 252.97 334.577 256.221C334.972 259.473 335.523 262.697 336.185 265.89C336.544 267.464 336.842 269.125 337.157 270.76C337.452 272.4 337.833 274.033 338.019 275.686L338.694 280.634C338.936 282.283 339.031 283.942 339.207 285.595C339.355 287.251 339.54 288.904 339.657 290.561L339.984 295.532C340.79 308.792 340.782 322.069 340.379 335.314C340 348.563 339.293 361.783 338.51 375.004L338.264 374.561C345.907 378.29 354.134 380.446 362.519 380.918C364.615 381.05 366.687 381.017 368.804 380.976C370.914 380.939 373.024 380.933 375.135 380.935C379.356 380.955 383.577 381.044 387.797 381.203C392.017 381.363 396.235 381.585 400.447 381.895C404.649 382.188 408.894 382.642 413.04 382.957C417.195 383.256 421.363 383.301 425.522 383.089C427.592 382.969 429.652 382.753 431.682 382.424C432.696 382.254 433.705 382.06 434.69 381.81C435.638 381.589 436.569 381.294 437.477 380.928L436.699 382.046C437.269 376.133 437.384 370.18 437.043 364.247C436.762 358.286 436.267 352.33 435.559 346.378C434.159 334.492 432.204 322.646 429.819 310.935C428.608 305.074 427.192 299.266 425.905 293.368C425.274 290.417 424.687 287.432 424.302 284.405C423.924 281.383 423.705 278.339 423.645 275.29C423.603 269.193 423.909 263.194 424.23 257.168C424.584 251.15 424.951 245.137 425.428 239.131C425.431 239.094 425.447 239.059 425.474 239.034C425.5 239.01 425.534 238.997 425.57 238.999C425.605 239.001 425.637 239.018 425.661 239.046C425.685 239.073 425.698 239.11 425.697 239.148Z" fill="#A54729"/>
<path d="M314.316 77.0419L331.022 52.1904" stroke="#A54729" stroke-width="2.90331" stroke-linecap="round" stroke-linejoin="round"/>
<path d="M391.62 75.002C374.313 75.4359 343.579 123.87 343.579 123.87L343.525 124.42L342.608 133.243C342.608 133.243 342.113 137.211 344.028 147.61L344.019 147.687C345.035 147.282 346.041 146.906 347.03 146.55C351.42 145.052 356.012 144.348 360.617 144.467C365.874 144.38 367.288 145.148 372.087 146.103C377.722 147.231 387.979 153.091 387.979 153.091C389.032 152.007 390.145 150.994 391.314 150.057C398.968 126.307 404.623 101.869 408.209 77.0365C401.667 69.4382 391.62 75.002 391.62 75.002ZM371.482 127.573C370.888 127.45 370.319 127.215 369.801 126.879C369.283 126.555 368.845 126.102 368.525 125.558C369.527 126.041 370.576 126.4 371.653 126.628C372.178 126.738 372.709 126.809 373.243 126.84C373.782 126.898 374.331 126.869 374.933 126.917C373.904 127.604 372.668 127.839 371.482 127.573Z" fill="#A54729"/>
<path d="M189.426 95.124C190.401 95.7034 191.318 96.3875 192.164 97.1659C192.997 97.9195 193.787 98.726 194.53 99.5811C195.275 100.434 195.97 101.335 196.613 102.279C197.279 103.238 197.851 104.268 198.32 105.353C197.344 104.776 196.426 104.092 195.58 103.313C194.747 102.56 193.957 101.753 193.216 100.896C192.473 100.042 191.777 99.1405 191.134 98.1968C190.469 97.2372 189.897 96.2077 189.426 95.124Z" fill="#A54729"/>
<path d="M331.02 206.215C331.998 206.816 332.917 207.521 333.763 208.32C334.597 209.093 335.388 209.92 336.13 210.794C336.875 211.666 337.57 212.585 338.212 213.547C338.877 214.524 339.447 215.571 339.914 216.673C338.934 216.073 338.015 215.368 337.168 214.569C336.334 213.796 335.544 212.969 334.803 212.093C334.06 211.22 333.365 210.3 332.723 209.338C332.059 208.361 331.488 207.314 331.02 206.215Z" fill="#A54729"/>
<path d="M303.797 57.7306C303.9 56.7195 304.115 55.725 304.437 54.7681C304.741 53.8379 305.106 52.9321 305.529 52.0575C305.95 51.1816 306.43 50.3395 306.964 49.5379C307.508 48.7043 308.144 47.9438 308.856 47.2727C308.755 48.2845 308.541 49.2795 308.219 50.2366C307.915 51.1668 307.549 52.0723 307.124 52.9458C306.701 53.8208 306.221 54.6624 305.687 55.4643C305.142 56.2972 304.508 57.0579 303.797 57.7306Z" fill="#A54729"/>
<path d="M355.525 49.8029C355.913 49.7885 356.281 49.6128 356.551 49.3129C356.821 49.0131 356.972 48.6124 356.972 48.1955C356.972 47.7786 356.821 47.378 356.551 47.0781C356.281 46.7783 355.913 46.6026 355.525 46.5881C355.137 46.6026 354.769 46.7783 354.499 47.0781C354.229 47.378 354.078 47.7786 354.078 48.1955C354.078 48.6124 354.229 49.0131 354.499 49.3129C354.769 49.6128 355.137 49.7885 355.525 49.8029Z" fill="#A54729"/>
<path d="M363.689 50.3603C364.078 50.3459 364.446 50.1702 364.716 49.8703C364.985 49.5705 365.136 49.1698 365.136 48.7529C365.136 48.336 364.985 47.9353 364.716 47.6354C364.446 47.3356 364.078 47.1599 363.689 47.1455C363.301 47.1599 362.933 47.3356 362.663 47.6354C362.393 47.9353 362.242 48.336 362.242 48.7529C362.242 49.1698 362.393 49.5705 362.663 49.8703C362.933 50.1702 363.301 50.3459 363.689 50.3603Z" fill="#A54729"/>
<path d="M352.336 44.5783C353.169 44.2156 354.065 44.0487 354.964 44.0888C355.862 44.1289 356.742 44.3751 357.545 44.8107" stroke="#A54729" stroke-width="1.0755" stroke-linecap="round" stroke-linejoin="round"/>
<path d="M362.664 45.0392C364.097 44.4761 365.68 44.5468 367.064 45.2355" stroke="#A54729" stroke-width="1.0755" stroke-linecap="round" stroke-linejoin="round"/>
<path d="M359.876 44.0353C360.226 44.0224 360.557 43.8643 360.8 43.5945C361.043 43.3246 361.178 42.9641 361.178 42.589C361.178 42.2138 361.043 41.8533 360.8 41.5835C360.557 41.3136 360.226 41.1556 359.876 41.1426C359.527 41.1556 359.196 41.3136 358.953 41.5835C358.71 41.8533 358.574 42.2138 358.574 42.589C358.574 42.9641 358.71 43.3246 358.953 43.5945C359.196 43.8643 359.527 44.0224 359.876 44.0353Z" fill="#B21919"/>
<path d="M360.102 31.744L360.284 28.6377" stroke="#B21919" stroke-width="1.93554" stroke-linecap="round" stroke-linejoin="round"/>
<path d="M388.509 163.934C389.335 163.553 390.049 162.939 390.575 162.156C391.1 161.374 391.418 160.453 391.495 159.492C391.483 158.535 391.279 157.591 390.895 156.726C390.512 155.861 389.959 155.095 389.274 154.481C388.601 153.85 387.85 153.321 387.043 152.909C386.241 152.456 385.427 152.017 384.606 151.602C382.964 150.768 381.292 150.016 379.591 149.344C372.816 146.646 365.647 145.269 358.42 145.277C354.817 145.261 351.228 145.77 347.752 146.791C346.012 147.326 344.308 147.985 342.65 148.762C340.977 149.49 339.387 150.42 337.911 151.535C336.456 152.658 335.278 154.144 334.478 155.865C333.721 157.608 333.294 159.495 333.224 161.417C333.129 163.327 333.46 165.234 334.189 166.979C334.965 168.684 336.113 170.163 337.535 171.291C340.454 173.558 343.627 175.422 346.981 176.839C350.312 178.334 353.753 179.53 357.268 180.416C360.77 181.317 364.341 181.872 367.938 182.074C371.539 182.258 375.148 182.168 378.737 181.808C382.276 181.417 385.913 180.745 388.861 178.937C389.564 178.496 390.191 177.926 390.711 177.254C391.212 176.602 391.567 175.837 391.75 175.016C391.831 174.662 391.819 174.291 391.717 173.943C391.614 173.596 391.425 173.285 391.169 173.045C390.548 172.459 389.822 172.016 389.036 171.743C387.336 171.137 385.583 170.719 383.804 170.497C382.908 170.356 382.004 170.322 381.049 170.078C380.536 169.962 380.071 169.674 379.72 169.256C379.394 168.828 379.197 168.304 379.155 167.752C379.107 167.222 379.181 166.686 379.37 166.193C379.546 165.68 379.903 165.262 380.364 165.029C381.227 164.645 382.141 164.406 383.072 164.322C383.992 164.218 384.907 164.196 385.82 164.172C386.722 164.196 387.623 164.116 388.509 163.934ZM388.58 164.11C387.676 164.319 386.752 164.418 385.827 164.405C384.918 164.423 384.01 164.49 383.107 164.606C382.217 164.72 381.35 164.979 380.533 165.375C380.286 165.567 380.079 165.813 379.924 166.096C379.77 166.379 379.671 166.693 379.636 167.019C379.6 167.344 379.628 167.674 379.717 167.988C379.806 168.301 379.955 168.592 380.154 168.841C380.439 169.137 380.805 169.327 381.199 169.384C382.034 169.545 382.97 169.532 383.887 169.613C385.752 169.722 387.602 170.032 389.408 170.538C390.383 170.808 391.295 171.293 392.085 171.962C392.531 172.355 392.876 172.863 393.087 173.439C393.281 174.027 393.336 174.658 393.245 175.275C393.066 176.383 392.646 177.43 392.018 178.33C391.397 179.193 390.639 179.931 389.779 180.511C388.131 181.581 386.335 182.36 384.458 182.821C382.641 183.3 380.796 183.645 378.935 183.854C375.247 184.245 371.535 184.321 367.836 184.081C360.428 183.512 353.173 181.534 346.409 178.241C344.722 177.428 343.077 176.521 341.48 175.522C339.861 174.535 338.33 173.39 336.905 172.103C335.422 170.823 334.247 169.179 333.48 167.309C332.785 165.427 332.482 163.405 332.592 161.383C332.692 159.376 333.164 157.411 333.981 155.603C334.828 153.804 336.053 152.241 337.559 151.037C339.051 149.859 340.656 148.854 342.346 148.04C344.001 147.161 345.709 146.401 347.458 145.765C350.991 144.525 354.669 143.821 358.384 143.672C365.822 143.405 373.218 144.961 380.012 148.221C381.7 149.02 383.352 149.895 384.966 150.844C385.774 151.317 386.568 151.809 387.356 152.321C388.176 152.807 388.93 153.411 389.598 154.116C390.285 154.805 390.83 155.641 391.199 156.569C391.568 157.497 391.752 158.498 391.74 159.507C391.648 160.508 391.305 161.464 390.749 162.274C390.193 163.085 389.444 163.719 388.58 164.11Z" fill="#A54729"/>
<path d="M367.086 166.22C366.268 166.924 365.235 166.702 363.527 166.336C361.68 166.131 359.96 165.229 358.675 163.79C358.153 163.125 357.3 162.036 357.596 160.782C357.756 160.255 358.055 159.788 358.457 159.439C358.859 159.09 359.347 158.873 359.861 158.815C360.849 158.718 361.263 159.393 362.664 160.203C365.486 161.843 366.951 160.946 367.733 162.286C368.048 162.926 368.155 163.66 368.038 164.372C367.921 165.085 367.586 165.735 367.086 166.22Z" fill="#A54729"/>
<path d="M340.182 161.479C343.652 161.479 343.657 155.693 340.182 155.693C336.713 155.693 336.707 161.479 340.182 161.479Z" fill="#A54729"/>
<path d="M342.612 170.33C346.081 170.33 346.087 164.545 342.612 164.545C339.143 164.545 339.137 170.33 342.612 170.33Z" fill="#A54729"/>
<path d="M351.991 175.711C355.46 175.711 355.466 169.926 351.991 169.926C348.522 169.926 348.516 175.711 351.991 175.711Z" fill="#A54729"/>
<path d="M362.991 178.835C366.46 178.835 366.466 173.05 362.991 173.05C359.522 173.05 359.516 178.835 362.991 178.835Z" fill="#A54729"/>
<path d="M374.315 179.356C377.785 179.356 377.79 173.57 374.315 173.57C370.846 173.57 370.84 179.356 374.315 179.356Z" fill="#A54729"/>
<path d="M348.272 155.057C351.742 155.057 351.747 149.271 348.272 149.271C344.803 149.271 344.797 155.057 348.272 155.057Z" fill="#A54729"/>
<path d="M359.917 153.668C363.386 153.668 363.392 147.883 359.917 147.883C356.447 147.883 356.442 153.668 359.917 153.668Z" fill="#A54729"/>
<path d="M371.725 155.578C375.195 155.578 375.2 149.792 371.725 149.792C368.256 149.792 368.25 155.578 371.725 155.578Z" fill="#A54729"/>
<path d="M384.507 161.999C387.976 161.999 387.982 156.214 384.507 156.214C381.037 156.214 381.031 161.999 384.507 161.999Z" fill="#A54729"/>
<path d="M297.364 425.885C292.808 393.911 288.691 361.882 284.548 329.856L278.537 281.792C276.528 265.772 274.662 249.733 272.717 233.705L269.828 209.658L267.038 185.599L261.487 137.479L250.806 41.1838L260.651 40.8444L255.78 137.158L253.13 185.303L251.793 209.374L250.354 233.441C249.376 249.484 248.476 265.531 247.435 281.571L244.323 329.69C242.112 361.762 239.928 393.836 237.301 425.885C237.743 393.716 238.628 361.57 239.486 329.424L240.978 281.215C241.472 265.146 242.105 249.084 242.663 233.017L243.525 208.919L244.49 184.827L246.444 136.644L250.78 40.3013L260.625 39.9619L270.769 136.323L275.629 184.53L278.046 208.636L280.362 232.753C281.888 248.834 283.492 264.905 284.955 280.994L289.355 329.258C292.153 361.451 294.978 393.641 297.364 425.885Z" fill="#A54729"/>
<path d="M254.789 81.4973H243.862C241.876 81.4973 240.267 83.2242 240.267 85.3543V90.2822C240.267 92.4123 241.876 94.1392 243.862 94.1392H254.789C256.774 94.1392 258.384 92.4123 258.384 90.2822V85.3543C258.384 83.2242 256.774 81.4973 254.789 81.4973Z" fill="#A54729"/>
<path d="M338.997 360.918C347.223 362.588 355.488 364.066 363.772 365.26C367.91 365.883 372.062 366.4 376.205 366.721C377.241 366.802 378.277 366.882 379.307 366.896C380.34 366.937 381.371 366.968 382.382 366.906C382.884 366.875 383.41 366.9 383.892 366.825L385.337 366.611C386.422 366.388 387.521 366.255 388.624 366.212C390.76 366.146 392.898 366.204 395.028 366.386C397.138 366.539 399.236 366.74 401.327 366.957C405.507 367.428 409.662 367.971 413.792 368.585C417.925 369.191 422.054 369.751 426.184 370.104C428.243 370.29 430.31 370.364 432.376 370.325C434.436 370.343 436.485 369.981 438.431 369.254L438.439 369.251C438.47 369.238 438.505 369.239 438.536 369.252C438.567 369.265 438.593 369.29 438.608 369.323C438.622 369.355 438.626 369.392 438.616 369.426C438.607 369.461 438.586 369.491 438.558 369.51C436.681 370.632 434.62 371.356 432.487 371.64C430.38 371.961 428.255 372.128 426.127 372.138C421.904 372.151 417.684 371.924 413.484 371.459C409.297 371.044 405.147 370.398 401.011 369.801C396.931 369.084 392.811 368.658 388.679 368.526C387.688 368.528 386.7 368.612 385.721 368.778L384.049 368.969C383.492 369.033 382.966 368.989 382.423 369.003C381.339 369.03 380.278 368.961 379.22 368.883C378.156 368.831 377.106 368.713 376.057 368.595C371.858 368.123 367.702 367.458 363.566 366.689C355.302 365.108 347.101 363.25 338.94 361.201C338.906 361.192 338.876 361.17 338.857 361.137C338.838 361.105 338.832 361.067 338.839 361.03C338.846 360.993 338.867 360.96 338.897 360.939C338.926 360.918 338.962 360.911 338.997 360.918Z" fill="#A54729"/>
<path d="M343.577 372.561C347.046 372.561 347.052 366.776 343.577 366.776C340.107 366.776 340.102 372.561 343.577 372.561Z" fill="#A54729"/>
<path d="M352.635 374.644C356.105 374.644 356.111 368.859 352.635 368.859C349.166 368.859 349.16 374.644 352.635 374.644Z" fill="#A54729"/>
<path d="M362.772 376.727C366.242 376.727 366.247 370.941 362.772 370.941C359.303 370.941 359.297 376.727 362.772 376.727Z" fill="#A54729"/>
<path d="M373.772 377.653C377.242 377.653 377.247 371.867 373.772 371.867C370.303 371.867 370.297 377.653 373.772 377.653Z" fill="#A54729"/>
<path d="M385.85 377.19C389.32 377.19 389.325 371.404 385.85 371.404C382.381 371.404 382.375 377.19 385.85 377.19Z" fill="#A54729"/>
<path d="M397.928 379.041C401.398 379.041 401.404 373.256 397.928 373.256C394.459 373.256 394.453 379.041 397.928 379.041Z" fill="#A54729"/>
<path d="M410.221 380.892C413.691 380.892 413.697 375.107 410.221 375.107C406.752 375.107 406.746 380.892 410.221 380.892Z" fill="#A54729"/>
<path d="M421.651 380.43C425.12 380.43 425.126 374.644 421.651 374.644C418.182 374.644 418.176 380.43 421.651 380.43Z" fill="#A54729"/>
<path d="M433.3 379.041C436.769 379.041 436.775 373.256 433.3 373.256C429.83 373.256 429.824 379.041 433.3 379.041Z" fill="#A54729"/>
<path d="M407.056 126.156C407.406 126.143 407.737 125.985 407.98 125.716C408.223 125.446 408.358 125.085 408.358 124.71C408.358 124.335 408.223 123.974 407.98 123.705C407.737 123.435 407.406 123.277 407.056 123.264C406.707 123.277 406.376 123.435 406.133 123.705C405.89 123.974 405.754 124.335 405.754 124.71C405.754 125.085 405.89 125.446 406.133 125.716C406.376 125.985 406.707 126.143 407.056 126.156Z" fill="#A54729"/>
<path d="M412.666 126.041C413.015 126.028 413.346 125.87 413.589 125.6C413.832 125.33 413.968 124.97 413.968 124.594C413.968 124.219 413.832 123.859 413.589 123.589C413.346 123.319 413.015 123.161 412.666 123.148C412.316 123.161 411.985 123.319 411.742 123.589C411.499 123.859 411.363 124.219 411.363 124.594C411.363 124.97 411.499 125.33 411.742 125.6C411.985 125.87 412.316 126.028 412.666 126.041Z" fill="#A54729"/>
<path d="M418.81 126.041C419.159 126.028 419.491 125.87 419.734 125.6C419.976 125.33 420.112 124.97 420.112 124.594C420.112 124.219 419.976 123.859 419.734 123.589C419.491 123.319 419.159 123.161 418.81 123.148C418.461 123.161 418.129 123.319 417.887 123.589C417.644 123.859 417.508 124.219 417.508 124.594C417.508 124.97 417.644 125.33 417.887 125.6C418.129 125.87 418.461 126.028 418.81 126.041Z" fill="#A54729"/>
<path d="M424.349 126.041C424.699 126.028 425.03 125.87 425.273 125.6C425.516 125.33 425.651 124.97 425.651 124.594C425.651 124.219 425.516 123.859 425.273 123.589C425.03 123.319 424.699 123.161 424.349 123.148C424 123.161 423.669 123.319 423.426 123.589C423.183 123.859 423.047 124.219 423.047 124.594C423.047 124.97 423.183 125.33 423.426 125.6C423.669 125.87 424 126.028 424.349 126.041Z" fill="#A54729"/>
<path d="M349.351 219.758H211.227" stroke="#A54729" stroke-width="7.74217" stroke-linecap="round" stroke-linejoin="round"/>
<path d="M241.916 262.913L243.15 262.04C242.627 262.085 242.102 262.092 241.578 262.06C240.088 261.929 238.619 261.601 237.205 261.084C235.406 260.38 233.668 259.51 232.01 258.484L232.364 260.414C233.654 261.475 235.089 262.315 236.618 262.907C238.137 263.462 239.743 263.689 241.343 263.575L241.916 262.913Z" fill="#A54729"/>
</svg>
