<svg width="24" height="24" viewBox="0 0 24 24" fill="none" xmlns="http://www.w3.org/2000/svg">
<path d="M16.025 21V11.325C16.025 11.075 15.9667 10.8167 15.85 10.55C15.7333 10.2833 15.5833 10.0833 15.4 9.95L10.125 6.25V4.5C10.125 4.08975 10.2719 3.73718 10.5656 3.4423C10.8594 3.14743 11.2125 3 11.625 3H21.5C21.9125 3 22.2656 3.14688 22.5594 3.44063C22.8531 3.73438 23 4.0875 23 4.5V19.5C23 19.9125 22.8531 20.2656 22.5594 20.5594C22.2656 20.8531 21.9125 21 21.5 21H16.025ZM17.425 16.95H18.925V15.45H17.425V16.95ZM17.425 12.7H18.925V11.2H17.425V12.7ZM17.425 8.425H18.925V6.925H17.425V8.425ZM1 20.25V12.025C1 11.7917 1.05417 11.5625 1.1625 11.3375C1.27083 11.1125 1.425 10.9333 1.625 10.8L6.9 7.025C7.1662 6.84167 7.45775 6.75 7.77465 6.75C8.09155 6.75 8.38333 6.84167 8.65 7.025L13.9 10.8C14.1 10.9333 14.2542 11.1125 14.3625 11.3375C14.4708 11.5625 14.525 11.7917 14.525 12.025V20.25C14.525 20.4625 14.4531 20.6406 14.3094 20.7844C14.1656 20.9281 13.9875 21 13.775 21H9.775V15.475H5.775V21H1.75C1.5375 21 1.35938 20.9281 1.21563 20.7844C1.07188 20.6406 1 20.4625 1 20.25Z" fill="#455A64"/>
</svg>
