<svg width="22" height="22" viewBox="0 0 22 22" fill="none" xmlns="http://www.w3.org/2000/svg">
<path d="M11 1V21M13.9754 3.14286C13.0774 3.61158 12.0485 3.85859 11 3.85714C9.95152 3.85859 8.92257 3.61158 8.02459 3.14286M8.02459 18.8571C8.92323 18.3898 9.95175 18.1428 11 18.1428C12.0483 18.1428 13.0768 18.3898 13.9754 18.8571M21 6L1 16M20.3443 9.30357C19.4274 8.86321 18.6661 8.21508 18.1421 7.42866C17.618 6.64223 17.3509 5.74713 17.3694 4.83929M1.6557 12.6964C2.5726 13.1368 3.33386 13.7849 3.85792 14.5713C4.38197 15.3578 4.64907 16.2529 4.6306 17.1607M1 6L21 16M1.6557 9.30357C2.5726 8.86321 3.33386 8.21508 3.85792 7.42866C4.38197 6.64223 4.64907 5.74713 4.6306 4.83929M20.3443 12.6964C19.4274 13.1368 18.6661 13.7849 18.1421 14.5713C17.618 15.3578 17.3509 16.2529 17.3694 17.1607" stroke="white" stroke-width="2" stroke-linecap="round" stroke-linejoin="round"/>
</svg>
