<svg width="26" height="26" viewBox="0 0 26 26" fill="none" xmlns="http://www.w3.org/2000/svg">
<path d="M13 1V25M16.5705 3.57143C15.4929 4.1339 14.2582 4.43031 13 4.42857C11.7418 4.43031 10.5071 4.1339 9.42951 3.57143M9.42951 22.4286C10.5079 21.8677 11.7421 21.5714 13 21.5714C14.2579 21.5714 15.4921 21.8677 16.5705 22.4286M25 7L1 19M24.2132 10.9643C23.1129 10.4358 22.1994 9.6581 21.5705 8.71439C20.9416 7.77067 20.6211 6.69656 20.6433 5.60714M1.78685 15.0357C2.88712 15.5642 3.80063 16.3419 4.4295 17.2856C5.05837 18.2293 5.37889 19.3034 5.35672 20.3929M1 7L25 19M1.78685 10.9643C2.88712 10.4358 3.80063 9.6581 4.4295 8.71439C5.05837 7.77067 5.37889 6.69656 5.35672 5.60714M24.2132 15.0357C23.1129 15.5642 22.1994 16.3419 21.5705 17.2856C20.9416 18.2293 20.6211 19.3034 20.6433 20.3929" stroke="#E19C5B" stroke-width="2" stroke-linecap="round" stroke-linejoin="round"/>
</svg>
