<svg width="70" height="70" viewBox="0 0 70 70" fill="none" xmlns="http://www.w3.org/2000/svg">
<path d="M21.3862 34.5C26.4697 34.5 30.5907 30.379 30.5907 25.2955C30.5907 20.2119 26.4697 16.0909 21.3862 16.0909C16.3027 16.0909 12.1816 20.2119 12.1816 25.2955C12.1816 30.379 16.3027 34.5 21.3862 34.5Z" fill="#A54729"/>
<path d="M31.8693 39.6136C28.2693 37.7855 24.296 37.0568 21.3864 37.0568C15.6872 37.0568 4 40.552 4 47.5398V52.9091H23.1761V50.8547C23.1761 48.4257 24.1989 45.9903 25.9886 43.9602C27.4166 42.3392 29.416 40.8345 31.8693 39.6136Z" fill="#A54729"/>
<path d="M45.4197 38.5909C38.7631 38.5909 25.4766 42.7023 25.4766 50.8636V57H65.3629V50.8636C65.3629 42.7023 52.0764 38.5909 45.4197 38.5909Z" fill="#E19C5B"/>
<path d="M45.4199 34.5C51.6331 34.5 56.6699 29.4632 56.6699 23.25C56.6699 17.0368 51.6331 12 45.4199 12C39.2067 12 34.1699 17.0368 34.1699 23.25C34.1699 29.4632 39.2067 34.5 45.4199 34.5Z" fill="#E19C5B"/>
</svg>
