<svg width="20" height="20" viewBox="0 0 20 20" fill="none" xmlns="http://www.w3.org/2000/svg">
<g clip-path="url(#clip0_534_4299)">
<path d="M2.24638 1.86523L16.6382 16.257C16.9113 16.5301 17.0647 16.9005 17.0647 17.2867C17.0647 17.6729 16.9113 18.0433 16.6382 18.3164C16.365 18.5894 15.9947 18.7427 15.6085 18.7427C15.2223 18.7427 14.8519 18.5894 14.5788 18.3164L11.0632 14.7402C10.8331 14.5066 10.704 14.192 10.7038 13.8641V13.648C10.7038 13.4825 10.671 13.3186 10.6071 13.1658C10.5433 13.0131 10.4498 12.8745 10.3319 12.7582L9.87802 12.3391C9.72393 12.1969 9.53655 12.0957 9.33314 12.045C9.12972 11.9942 8.91679 11.9954 8.71396 12.0484C8.3941 12.1319 8.05798 12.1303 7.73894 12.0438C7.4199 11.9572 7.12903 11.7887 6.89521 11.5551L3.5581 8.21758C1.57841 6.23789 0.849896 3.24844 2.24638 1.86523Z" stroke="white" stroke-width="2" stroke-linejoin="round"/>
<path d="M15.6247 1.25L12.6071 4.26758C12.3749 4.49973 12.1907 4.77536 12.065 5.07871C11.9393 5.38206 11.8747 5.70719 11.8747 6.03555V6.61602C11.8747 6.69814 11.8585 6.77947 11.8271 6.85534C11.7956 6.93122 11.7496 7.00015 11.6915 7.0582L11.2497 7.5M12.4997 8.75L12.9415 8.3082C12.9995 8.25011 13.0685 8.20403 13.1443 8.17259C13.2202 8.14116 13.3015 8.12499 13.3837 8.125H13.9641C14.2925 8.125 14.6176 8.06032 14.921 7.93465C15.2243 7.80898 15.4999 7.62478 15.7321 7.39258L18.7497 4.375M17.1872 2.8125L14.0622 5.9375M7.81217 14.375L3.91685 18.2922C3.62384 18.5851 3.22649 18.7497 2.81217 18.7497C2.39785 18.7497 2.00049 18.5851 1.70748 18.2922C1.41456 17.9992 1.25 17.6018 1.25 17.1875C1.25 16.7732 1.41456 16.3758 1.70748 16.0828L4.99967 12.8125" stroke="white" stroke-width="2" stroke-linecap="round" stroke-linejoin="round"/>
</g>
<defs>
<clipPath id="clip0_534_4299">
<rect width="20" height="20" fill="white"/>
</clipPath>
</defs>
</svg>
