<svg width="52" height="52" viewBox="0 0 52 52" fill="none" xmlns="http://www.w3.org/2000/svg">
<path d="M29.2383 25.9413L20.0508 16.7538C19.837 16.54 19.73 16.2726 19.73 15.9518C19.73 15.6309 19.837 15.3538 20.0508 15.1205C20.2842 14.8872 20.5613 14.7705 20.8821 14.7705C21.2029 14.7705 21.48 14.8872 21.7133 15.1205L31.3092 24.7163C31.4842 24.8913 31.6106 25.0858 31.6883 25.2997C31.7661 25.5136 31.805 25.7275 31.805 25.9413C31.805 26.1552 31.7661 26.3691 31.6883 26.583C31.6106 26.7969 31.4842 26.9913 31.3092 27.1663L21.6842 36.7913C21.4508 37.0247 21.1786 37.1365 20.8675 37.1268C20.5564 37.117 20.2842 36.9955 20.0508 36.7622C19.837 36.5288 19.7251 36.2566 19.7154 35.9455C19.7057 35.6344 19.8175 35.3622 20.0508 35.1288L29.2383 25.9413Z" fill="white"/>
<rect x="0.5" y="0.5" width="51" height="51" rx="25.5" stroke="white"/>
</svg>
