<svg width="70" height="70" viewBox="0 0 70 70" fill="none" xmlns="http://www.w3.org/2000/svg">
<path d="M42.3456 23.5418H27.4309L23.1653 13.3534C23.0077 13.0379 22.9549 12.6803 23.0145 12.3326C23.0742 11.9849 23.2432 11.6654 23.4971 11.4205C23.7509 11.1755 24.0762 11.0179 24.4258 10.9707C24.7754 10.9234 25.1309 10.9889 25.4406 11.1577L27.7392 12.4122C28.3677 12.7549 29.0903 12.8849 29.7989 12.7827C30.5074 12.6806 31.1639 12.3517 31.67 11.8454L32.545 10.9704C33.1665 10.3491 34.0094 10 34.8883 10C35.7671 10 36.61 10.3491 37.2315 10.9704L38.1065 11.8454C38.6126 12.3517 39.2691 12.6806 39.9777 12.7827C40.6862 12.8849 41.4088 12.7549 42.0374 12.4122L44.3359 11.1577C44.6457 10.9889 45.0012 10.9234 45.3507 10.9707C45.7003 11.0179 46.0256 11.1755 46.2795 11.4205C46.5333 11.6654 46.7023 11.9849 46.762 12.3326C46.8217 12.6803 46.7688 13.0379 46.6112 13.3534L42.3456 23.5418ZM45.2457 60H24.3154C22.0978 60 19.9439 59.2588 18.196 57.894C16.4482 56.5293 15.2067 54.6194 14.6689 52.4681L14.644 52.3686C13.7144 48.6523 13.7924 44.7553 14.8702 41.0792C15.948 37.4031 17.9865 34.0809 20.7756 31.4549L25.666 26.8562H45.5523L49.9488 31.5461C52.4127 34.1742 54.1783 37.3783 55.0838 40.8652C55.9894 44.352 56.0062 48.0103 55.1325 51.5052L54.8922 52.4681C54.3544 54.6194 53.1129 56.5293 51.3651 57.894C49.6172 59.2588 47.4633 60 45.2457 60Z" fill="#E19C5B"/>
<path d="M34.7791 53.3712C40.2705 53.3712 44.7222 48.9195 44.7222 43.4281C44.7222 37.9367 40.2705 33.485 34.7791 33.485C29.2876 33.485 24.8359 37.9367 24.8359 43.4281C24.8359 48.9195 29.2876 53.3712 34.7791 53.3712Z" fill="#A54729"/>
<path d="M44.0957 23.3015H25.9263C24.9433 23.3015 24.1465 24.0984 24.1465 25.0814V25.315C24.1465 26.298 24.9433 27.0949 25.9263 27.0949H44.0957C45.0787 27.0949 45.8755 26.298 45.8755 25.315V25.0814C45.8755 24.0984 45.0787 23.3015 44.0957 23.3015Z" fill="#A54729"/>
</svg>
