<svg width="52" height="52" viewBox="0 0 52 52" fill="none" xmlns="http://www.w3.org/2000/svg">
<path d="M22.7617 25.9413L31.9492 16.7538C32.163 16.54 32.27 16.2726 32.27 15.9518C32.27 15.6309 32.163 15.3538 31.9492 15.1205C31.7158 14.8872 31.4387 14.7705 31.1179 14.7705C30.7971 14.7705 30.52 14.8872 30.2867 15.1205L20.6908 24.7163C20.5158 24.8913 20.3894 25.0858 20.3117 25.2997C20.2339 25.5136 20.195 25.7275 20.195 25.9413C20.195 26.1552 20.2339 26.3691 20.3117 26.583C20.3894 26.7969 20.5158 26.9913 20.6908 27.1663L30.3158 36.7913C30.5492 37.0247 30.8214 37.1365 31.1325 37.1268C31.4436 37.117 31.7158 36.9955 31.9492 36.7622C32.163 36.5288 32.2749 36.2566 32.2846 35.9455C32.2943 35.6344 32.1825 35.3622 31.9492 35.1288L22.7617 25.9413Z" fill="white"/>
<rect x="-0.5" y="0.5" width="51" height="51" rx="25.5" transform="matrix(-1 0 0 1 51 0)" stroke="white"/>
</svg>
