<svg width="124" height="124" viewBox="0 0 124 124" fill="none" xmlns="http://www.w3.org/2000/svg">
<path d="M85.6461 61.7048L120.619 26.7323C124.91 22.4407 124.91 15.4825 120.619 11.1874L112.846 3.415C108.554 -0.876614 101.596 -0.876614 97.3012 3.415L62.3288 38.3875L27.3563 3.415C23.0647 -0.876614 16.1066 -0.876614 11.8115 3.415L4.03902 11.1874C-0.252591 15.479 -0.252591 22.4372 4.03902 26.7323L39.0115 61.7048L4.03902 96.6772C-0.252591 100.969 -0.252591 107.927 4.03902 112.222L11.8115 119.995C16.1031 124.286 23.0647 124.286 27.3563 119.995L62.3288 85.0221L97.3012 119.995C101.593 124.286 108.554 124.286 112.846 119.995L120.619 112.222C124.91 107.93 124.91 100.972 120.619 96.6772L85.6461 61.7048Z" fill="white"/>
</svg>
