<svg width="20" height="20" viewBox="0 0 20 20" fill="none" xmlns="http://www.w3.org/2000/svg">
<path d="M13.5418 11.8869C12.5693 11.0224 11.3134 10.5449 10.0123 10.5449C8.71113 10.5449 7.45523 11.0224 6.48277 11.8869C6.40059 11.958 6.33337 12.0447 6.28499 12.142C6.23661 12.2393 6.20805 12.3452 6.20097 12.4537C6.19388 12.5621 6.2084 12.6709 6.2437 12.7736C6.279 12.8764 6.33437 12.9712 6.40658 13.0523C6.4788 13.1335 6.56643 13.1996 6.66439 13.2466C6.76234 13.2937 6.86866 13.3208 6.97718 13.3264C7.08571 13.332 7.19426 13.316 7.29654 13.2793C7.39882 13.2426 7.4928 13.186 7.573 13.1126C8.24512 12.5153 9.11306 12.1853 10.0123 12.1853C10.9115 12.1853 11.7794 12.5153 12.4515 13.1126C12.6142 13.2572 12.8276 13.3313 13.0448 13.3185C13.2621 13.3057 13.4653 13.2071 13.6099 13.0445C13.7545 12.8818 13.8285 12.6684 13.8157 12.4512C13.803 12.2339 13.7044 12.0307 13.5418 11.8861V11.8869Z" fill="white"/>
<path d="M10.0113 7.17579C7.80882 7.17275 5.68814 8.00985 4.08158 9.51641C4.00024 9.58928 3.93426 9.67765 3.88752 9.77634C3.84079 9.87504 3.81422 9.98207 3.8094 10.0912C3.80457 10.2003 3.82157 10.3092 3.85941 10.4117C3.89725 10.5141 3.95516 10.608 4.02975 10.6877C4.10433 10.7675 4.1941 10.8315 4.29377 10.8762C4.39344 10.9208 4.50102 10.945 4.6102 10.9475C4.71937 10.95 4.82794 10.9307 4.92955 10.8907C5.03115 10.8506 5.12374 10.7907 5.20189 10.7145C6.50637 9.49488 8.22547 8.81643 10.0113 8.81643C11.7971 8.81643 13.5162 9.49488 14.8206 10.7145C14.8988 10.7907 14.9914 10.8506 15.093 10.8907C15.1946 10.9307 15.3032 10.95 15.4123 10.9475C15.5215 10.945 15.6291 10.9208 15.7288 10.8762C15.8284 10.8315 15.9182 10.7675 15.9928 10.6877C16.0674 10.608 16.1253 10.5141 16.1631 10.4117C16.201 10.3092 16.218 10.2003 16.2131 10.0912C16.2083 9.98207 16.1817 9.87504 16.135 9.77634C16.0883 9.67765 16.0223 9.58928 15.941 9.51641C14.3344 8.00985 12.2137 7.17275 10.0113 7.17579Z" fill="white"/>
<path d="M18.0469 6.86953C15.8353 4.89623 12.9749 3.80566 10.011 3.80566C7.04699 3.80566 4.18663 4.89623 1.97502 6.86953C1.8919 6.94053 1.82381 7.02742 1.77475 7.12511C1.72569 7.2228 1.69665 7.32931 1.68934 7.43838C1.68202 7.54745 1.69659 7.65688 1.73216 7.76024C1.76774 7.86361 1.82362 7.95882 1.89652 8.04028C1.96941 8.12174 2.05786 8.18781 2.15665 8.23461C2.25544 8.2814 2.36259 8.30798 2.4718 8.31278C2.58101 8.31758 2.69008 8.3005 2.79259 8.26255C2.89511 8.2246 2.98901 8.16654 3.06877 8.09179C4.97956 6.38764 7.45044 5.44588 10.0108 5.44588C12.5711 5.44588 15.042 6.38764 16.9528 8.09179C17.1149 8.23683 17.3281 8.3115 17.5453 8.29938C17.7626 8.28726 17.9661 8.18933 18.1111 8.02714C18.2562 7.86496 18.3309 7.6518 18.3187 7.43455C18.3066 7.21731 18.2087 7.01378 18.0465 6.86874L18.0469 6.86953Z" fill="white"/>
<path d="M10.0117 16.6172C10.7021 16.6172 11.2617 16.0575 11.2617 15.3672C11.2617 14.6768 10.7021 14.1172 10.0117 14.1172C9.32136 14.1172 8.76172 14.6768 8.76172 15.3672C8.76172 16.0575 9.32136 16.6172 10.0117 16.6172Z" fill="white"/>
</svg>
