<svg width="70" height="70" viewBox="0 0 70 70" fill="none" xmlns="http://www.w3.org/2000/svg">
<path d="M35 10C21.1875 10 10 21.1875 10 35C10 48.8 21.1875 60 35 60C48.8125 60 60 48.8 60 35C60 21.1875 48.8125 10 35 10ZM40.475 40.475L20 50L29.525 29.525L50 20L40.475 40.475Z" fill="#E19C5B"/>
<path d="M32.75 35C32.75 33.7636 33.7636 32.75 35 32.75C35.5967 32.75 36.169 32.9871 36.591 33.409C37.0129 33.831 37.25 34.4033 37.25 35C37.25 35.5967 37.0129 36.169 36.591 36.591C36.169 37.0129 35.5967 37.25 35 37.25C33.7636 37.25 32.75 36.2364 32.75 35Z" fill="#A54729" stroke="#A54729"/>
</svg>
