<svg width="80" height="81" viewBox="0 0 80 81" fill="none" xmlns="http://www.w3.org/2000/svg">
<g clip-path="url(#clip0_441_4377)">
<path d="M7.36031 71.4508L6.86482 70.4978H4.0469L4.84235 72.0277L3.89235 73.8555C3.79984 74.0335 3.7515 74.2311 3.75139 74.4317C3.75128 74.6323 3.79941 74.83 3.89172 75.0081L4.84297 76.8414L3.89205 78.6734C3.81637 78.8191 3.77012 78.9782 3.75595 79.1418C3.74177 79.3053 3.75995 79.4701 3.80944 79.6266C3.85894 79.7831 3.93877 79.9284 4.0444 80.054C4.15002 80.1797 4.27936 80.2833 4.42504 80.359C4.57071 80.4347 4.72987 80.4809 4.89341 80.4951C5.05696 80.5093 5.2217 80.4911 5.37822 80.4416C5.53474 80.3921 5.67999 80.3123 5.80565 80.2067C5.93132 80.101 6.03495 79.9717 6.11064 79.826L7.36064 77.4176C7.45302 77.2397 7.50127 77.0422 7.50132 76.8417C7.50137 76.6412 7.45323 76.4437 7.36094 76.2657L6.41002 74.433L7.36034 72.6046C7.45296 72.4264 7.50132 72.2285 7.50131 72.0277C7.50131 71.8269 7.45295 71.629 7.36031 71.4508ZM51.2507 65.4967H1.25138C0.920273 65.4975 0.60298 65.6295 0.369114 65.8639C0.135247 66.0983 0.00390625 66.4159 0.00390625 66.747C0.00390625 67.0781 0.135247 67.3957 0.369114 67.6301C0.60298 67.8645 0.920273 67.9965 1.25138 67.9973H51.2507C51.5818 67.9965 51.8991 67.8645 52.133 67.6301C52.3668 67.3957 52.4982 67.0781 52.4982 66.747C52.4982 66.4159 52.3668 66.0983 52.133 65.8639C51.8991 65.6295 51.5818 65.4975 51.2507 65.4967ZM55.2378 22.775L45.9003 20.8438L43.594 25.3125C43.2829 25.9238 42.8102 26.4381 42.2273 26.7995C41.6444 27.1609 40.9736 27.3556 40.2878 27.3625C40.0122 27.3619 39.7376 27.3304 39.469 27.2688C37.5881 26.8214 35.6766 26.5143 33.7503 26.35V31.025C33.7398 31.3678 33.8653 31.7009 34.0995 31.9515C34.3337 32.2021 34.6575 32.3498 35.0003 32.3625H55.0003C55.343 32.3498 55.6668 32.2021 55.901 31.9515C56.1352 31.7009 56.2608 31.3678 56.2503 31.025V24.0875C56.2564 23.7861 56.1593 23.4916 55.9752 23.2529C55.791 23.0142 55.5309 22.8456 55.2378 22.775Z" fill="#E19C5B"/>
<path d="M41.3687 24.1627L43.3562 20.3189L35.2375 18.6377C35.0506 18.6096 34.8597 18.6227 34.6784 18.6762C34.497 18.7297 34.3296 18.8222 34.1879 18.9473C34.0461 19.0723 33.9334 19.227 33.8578 19.4002C33.7822 19.5735 33.7454 19.7612 33.75 19.9502V23.8439C35.8703 24.0101 37.9745 24.3402 40.0437 24.8314C40.3077 24.8869 40.5827 24.8508 40.8235 24.7293C41.0642 24.6078 41.2565 24.408 41.3687 24.1627ZM47.6625 4.8877C47.8812 4.98145 48.1 5.08145 48.3125 5.18145C48.1317 5.01827 47.9045 4.91558 47.6625 4.8877ZM17.4875 16.6439C17.6949 16.7035 17.9093 16.735 18.125 16.7377C18.7878 16.7368 19.4231 16.4731 19.8918 16.0045C20.3605 15.5358 20.6241 14.9005 20.625 14.2377C20.6228 14.0199 20.5912 13.8033 20.5312 13.5939L17.4875 16.6439ZM18.125 11.7377C17.4622 11.7386 16.8269 12.0022 16.3582 12.4709C15.8895 12.9395 15.6259 13.5749 15.625 14.2377C15.6277 14.4534 15.6592 14.6678 15.7187 14.8752L18.7625 11.8314C18.5553 11.771 18.3408 11.7394 18.125 11.7377Z" fill="#E19C5B"/>
<path d="M77.4887 44.5342C78.1513 44.5333 78.7866 44.2716 79.2552 43.8065C79.7238 43.3414 79.9874 42.7108 79.9883 42.053V37.0845C79.9874 36.4268 79.7238 35.7962 79.2552 35.3311C78.7866 34.866 78.1513 34.6043 77.4887 34.6034H71.902C71.8895 34.5476 71.8708 34.498 71.8583 34.4421C71.6591 33.6074 71.398 32.7885 71.0771 31.992C70.8942 31.5119 70.6856 31.0419 70.4522 30.5839C69.9167 29.6475 69.266 28.7807 68.515 28.0036C67.6714 27.0483 66.8715 26.1489 66.6528 25.1751C66.4466 24.2508 66.8903 23.7608 67.5777 23.2212C69.9523 21.3603 70.0585 18.6124 68.0526 16.4786C66.1654 14.4689 63.5158 13.2221 61.0849 11.994C60.2788 11.5846 59.5789 11.231 59.1165 10.9519C53.6423 7.65198 47.7182 4.50093 41.6004 2.57184C41.4754 2.52842 41.3504 2.485 41.2255 2.44778C36.2074 0.813977 30.907 0.210402 25.6466 0.673765C25.6348 0.678827 25.6219 0.680956 25.6091 0.679968L25.2904 0.717185C24.4155 0.822634 23.5531 0.946691 22.6845 1.12037C21.6678 1.31713 20.6623 1.56767 19.6725 1.87092C9.48655 5.02817 3.03753 15.7653 1.53776 25.7891C1.33779 27.1414 0.906608 30.615 0.556662 34.0389C0.555603 34.0847 0.551428 34.1302 0.544164 34.1754C0.487922 34.7151 0.43793 35.2237 0.394187 35.7013C0.394187 35.7199 0.387938 35.7323 0.387938 35.7509C0.369191 35.9742 0.350443 36.1851 0.331696 36.3898C0.326552 36.4058 0.324434 36.4227 0.325447 36.4394C0.3067 36.6503 0.287953 36.855 0.269206 37.0659C0.0879835 39.0943 0.0129949 40.4713 0.000496801 41.4141C-0.0362515 42.011 0.0100097 42.61 0.137976 43.1944C0.137051 43.2031 0.139264 43.2119 0.144225 43.2192C0.156156 43.2702 0.172894 43.3201 0.194217 43.368L0.212964 43.4053C0.225462 43.4425 0.24421 43.4673 0.256708 43.4983C0.308432 43.5834 0.366943 43.6643 0.431681 43.7402C0.492576 43.8121 0.561792 43.8767 0.637899 43.9325C0.662896 43.9511 0.687892 43.9635 0.712888 43.9821C0.754973 44.0148 0.801192 44.042 0.850367 44.0628C0.894978 44.086 0.940878 44.1067 0.987846 44.1248C1.01182 44.1358 1.03698 44.1441 1.06283 44.1496C1.1238 44.1699 1.18658 44.1845 1.25031 44.193V48.2559C1.25118 48.9137 1.51481 49.5442 1.98339 50.0094C2.45197 50.4745 3.08725 50.7362 3.74992 50.737H3.96864L4.84351 52.4056L3.89365 54.2168C3.80125 54.3942 3.75303 54.5909 3.75303 54.7906C3.75303 54.9903 3.80125 55.187 3.89365 55.3644L4.84351 57.1756L3.89365 58.9868C3.80126 59.1631 3.75303 59.3588 3.75303 59.5575C3.75303 59.7562 3.80126 59.9519 3.89365 60.1282L4.84351 61.9456L4.5373 62.5225C4.5373 62.5225 7.35562 62.5225 7.36187 62.5163C7.45426 62.3389 7.50247 62.1422 7.50247 61.9425C7.50247 61.7428 7.45426 61.5461 7.36187 61.3687L6.41202 59.5575L7.36187 57.7463C7.45426 57.5689 7.50247 57.3722 7.50247 57.1725C7.50247 56.9728 7.45426 56.7761 7.36187 56.5987L6.41202 54.7875L7.36187 52.9763C7.45426 52.7989 7.50247 52.6022 7.50247 52.4025C7.50247 52.2028 7.45426 52.0061 7.36187 51.8287L6.78696 50.737H7.49935C7.82763 50.7371 8.15271 50.673 8.45602 50.5484C8.75933 50.4237 9.03493 50.2409 9.26706 50.0105C9.49918 49.7801 9.6833 49.5066 9.80889 49.2055C9.93447 48.9044 9.99906 48.5817 9.99897 48.2559V43.9883C10.074 43.9883 10.1552 43.9821 10.2302 43.9821C10.5614 43.9697 10.8988 43.9635 11.2488 43.9511V53.8447H37.4948V42.8346C37.4894 42.5225 37.3676 42.2235 37.1529 41.9954C36.9381 41.7674 36.6458 41.6266 36.3324 41.6002C32.3643 41.1164 27.2651 38.3065 26.009 36.5697L18.6039 38.3065C18.5093 38.326 18.4131 38.3364 18.3165 38.3375C18.0719 38.3376 17.8326 38.2665 17.6283 38.1332C17.424 37.9998 17.2635 37.8099 17.1666 37.587L9.47405 19.7662H5.84335C6.14956 18.9474 6.48701 18.1162 6.87445 17.285H10.2989C10.5428 17.2847 10.7813 17.3557 10.9847 17.4892C11.1881 17.6226 11.3474 17.8127 11.4425 18.0356L19.0538 35.6517L24.9967 34.256V11.6652C24.9962 11.3915 25.0874 11.1253 25.2559 10.9086C25.4245 10.6919 25.6608 10.5369 25.9278 10.4681L43.4939 5.85315C44.2125 6.12608 44.9374 6.40521 45.6685 6.71535C46.1997 6.93865 46.7309 7.17439 47.2745 7.42247L27.4963 12.6205V34.2933C28.0587 35.2299 32.858 38.6725 36.6387 39.1377C37.5555 39.2429 38.4022 39.6764 39.02 40.357C39.6378 41.0376 39.9842 41.9185 39.9944 42.8346V51.2147L67.4902 50.123C70.9647 50.2036 72.0582 48.4172 72.3707 47.5115C72.4071 47.4257 72.4344 47.3363 72.4519 47.2448C72.4709 47.1716 72.4835 47.0969 72.4894 47.0215V44.5342H73.7392V48.2559C73.7392 51.6737 75.9826 54.4587 78.7385 54.4587C79.0699 54.4587 79.3878 54.328 79.6222 54.0954C79.8566 53.8627 79.9883 53.5472 79.9883 53.2182C79.9883 52.8892 79.8566 52.5736 79.6222 52.341C79.3878 52.1083 79.0699 51.9776 78.7385 51.9776C77.3824 51.9776 76.2389 50.2718 76.2389 48.2559V44.5342H77.4887ZM16.248 44.2923C16.2496 44.065 16.3147 43.8426 16.436 43.6498C16.5574 43.4571 16.7303 43.3016 16.9354 43.2006C20.3287 41.532 23.6406 44.3295 24.7217 45.3902C24.8478 45.5135 24.9971 45.611 25.1612 45.6769C25.3253 45.7429 25.5008 45.7762 25.6778 45.7747H29.9834C30.2094 45.772 30.4323 45.8264 30.6313 45.9327C30.8302 46.0391 30.9986 46.1939 31.1207 46.3826L32.3081 48.2497C32.4235 48.4431 32.4839 48.6641 32.4828 48.8889C32.4816 49.1138 32.419 49.3341 32.3016 49.5264C32.1842 49.7187 32.0165 49.8757 31.8162 49.9808C31.6159 50.0859 31.3907 50.135 31.1645 50.123H17.5728C17.2316 50.1319 16.9008 50.0065 16.6525 49.774C16.4043 49.5416 16.2588 49.221 16.248 48.8824V44.2923ZM7.49935 44.5342V48.2559H3.74992V44.5342H7.49935ZM18.1227 19.0963C17.134 19.0963 16.1674 18.8052 15.3453 18.26C14.5232 17.7147 13.8824 16.9397 13.504 16.033C13.1257 15.1262 13.0267 14.1285 13.2196 13.1659C13.4124 12.2033 13.8886 11.3191 14.5877 10.6251C15.2869 9.93111 16.1777 9.4585 17.1474 9.26703C18.1172 9.07556 19.1224 9.17383 20.0359 9.54941C20.9493 9.925 21.7301 10.561 22.2794 11.3771C22.8288 12.1931 23.122 13.1525 23.122 14.134C23.1202 15.4495 22.5929 16.7107 21.6558 17.6409C20.7186 18.5711 19.4481 19.0945 18.1227 19.0963ZM61.866 33.3752H68.94C69.2176 34.1605 69.4369 34.9649 69.5961 35.7819C69.6024 35.7943 69.6024 35.813 69.6086 35.8316C69.5286 35.849 69.4468 35.8573 69.3649 35.8564H61.866C61.5346 35.8564 61.2167 35.7257 60.9823 35.493C60.7479 35.2604 60.6162 34.9448 60.6162 34.6158C60.6162 34.2868 60.7479 33.9712 60.9823 33.7386C61.2167 33.5059 61.5346 33.3752 61.866 33.3752ZM54.9921 34.6034H34.9952C33.9893 34.5913 33.0295 34.1833 32.3265 33.4692C31.6235 32.7551 31.2348 31.7932 31.2457 30.7948V19.8034C31.2439 19.2327 31.3703 18.6688 31.6157 18.1526C31.8611 17.6365 32.2193 17.1812 32.6643 16.8198C33.0879 16.475 33.5839 16.2287 34.1159 16.0988C34.6479 15.969 35.2024 15.9589 35.7388 16.0693L55.7357 20.1818C56.5916 20.3665 57.3574 20.8378 57.9047 21.5166C58.452 22.1953 58.7475 23.0403 58.7415 23.9097V30.7948C58.7525 31.7932 58.3638 32.7551 57.6607 33.4692C56.9577 34.1833 55.9979 34.5913 54.9921 34.6034ZM69.9898 45.7809H59.9913C59.6599 45.7809 59.342 45.6502 59.1076 45.4176C58.8732 45.1849 58.7415 44.8694 58.7415 44.5404C58.7415 44.2114 58.8732 43.8958 59.1076 43.6632C59.342 43.4305 59.6599 43.2998 59.9913 43.2998H69.9898V45.7809ZM69.9898 40.8187H61.866C61.5346 40.8187 61.2167 40.688 60.9823 40.4553C60.7479 40.2227 60.6162 39.9071 60.6162 39.5781C60.6162 39.2491 60.7479 38.9335 60.9823 38.7009C61.2167 38.4682 61.5346 38.3375 61.866 38.3375H69.9273C69.9273 38.3685 69.9335 38.4058 69.9335 38.4368C69.946 38.6539 69.9585 38.871 69.9648 39.0943C69.9773 39.4106 69.9898 39.727 69.9898 40.0495L69.9898 40.8187ZM72.4894 42.053V37.0845H77.4887V42.053H72.4894Z" fill="#A54729"/>
<path d="M9.37593 61.7437H39.3759C39.6013 61.7445 39.8226 61.6842 40.0165 61.5694C40.2104 61.4546 40.3696 61.2894 40.4772 61.0914C40.5848 60.8935 40.6369 60.6701 40.6279 60.4449C40.6188 60.2197 40.5491 60.0012 40.4259 59.8125L38.4259 56.75H10.3259L8.33218 59.8125C8.20758 60.0004 8.1364 60.2187 8.12626 60.4439C8.11612 60.6692 8.16739 60.8929 8.27459 61.0913C8.3818 61.2897 8.5409 61.4551 8.73489 61.5701C8.92888 61.685 9.15046 61.745 9.37593 61.7437Z" fill="#E19C5B"/>
</g>
<defs>
<clipPath id="clip0_441_4377">
<rect width="80" height="80" fill="white" transform="translate(0 0.5)"/>
</clipPath>
</defs>
</svg>
