<svg width="13" height="14" viewBox="0 0 13 14" fill="none" xmlns="http://www.w3.org/2000/svg">
<g clip-path="url(#clip0_468_4064)">
<path d="M11.0755 11.2715H9.15038V8.20658C9.15038 7.47571 9.13575 6.53515 8.14721 6.53515C7.1435 6.53515 6.99021 7.33041 6.99021 8.15265V11.2715H5.06513V4.96883H6.91438V5.82794H6.93929C7.19767 5.33262 7.826 4.80978 8.76471 4.80978C10.7153 4.80978 11.076 6.11413 11.076 7.81198L11.0755 11.2715ZM2.89088 4.10642C2.27121 4.10642 1.77342 3.59679 1.77342 2.96994C1.77342 2.34363 2.27175 1.83455 2.89088 1.83455C3.50838 1.83455 4.00888 2.34363 4.00888 2.96994C4.00888 3.59679 3.50783 4.10642 2.89088 4.10642ZM3.85612 11.2715H1.92562V4.96883H3.85612V11.2715ZM12.0385 0.015625H0.959292C0.429 0.015625 0 0.441601 0 0.967191V12.2726C0 12.7988 0.429 13.2242 0.959292 13.2242H12.0369C12.5667 13.2242 13 12.7988 13 12.2726V0.967191C13 0.441601 12.5667 0.015625 12.0369 0.015625H12.0385Z" fill="white"/>
</g>
<defs>
<clipPath id="clip0_468_4064">
<rect width="13" height="13.2086" fill="white" transform="translate(0 0.015625)"/>
</clipPath>
</defs>
</svg>
