<svg width="14" height="14" viewBox="0 0 14 14" fill="none" xmlns="http://www.w3.org/2000/svg">
<path d="M7.00195 6.85449C7.28303 6.85449 7.52322 6.75441 7.72253 6.55424C7.92183 6.35408 8.02148 6.11345 8.02148 5.83236C8.02148 5.55128 7.9214 5.31109 7.72123 5.11178C7.52107 4.91248 7.28044 4.81283 6.99935 4.81283C6.71827 4.81283 6.47808 4.91291 6.27878 5.11308C6.07947 5.31324 5.97982 5.55387 5.97982 5.83496C5.97982 6.11604 6.0799 6.35623 6.28007 6.55553C6.48023 6.75484 6.72086 6.85449 7.00195 6.85449ZM7.00065 11.6816C8.29371 10.5052 9.24891 9.43817 9.86628 8.48053C10.4836 7.5229 10.7923 6.67949 10.7923 5.95033C10.7923 4.80515 10.4263 3.86746 9.69431 3.13727C8.96231 2.40709 8.06443 2.04199 7.00065 2.04199C5.93687 2.04199 5.03899 2.40709 4.30699 3.13727C3.57499 3.86746 3.20898 4.80515 3.20898 5.95033C3.20898 6.67949 3.52496 7.5229 4.1569 8.48053C4.78885 9.43817 5.73676 10.5052 7.00065 11.6816ZM7.00065 12.8337C5.43537 11.5017 4.26628 10.2646 3.49336 9.1222C2.72044 7.97984 2.33398 6.92255 2.33398 5.95033C2.33398 4.49199 2.80308 3.33019 3.74128 2.46491C4.67947 1.59963 5.76593 1.16699 7.00065 1.16699C8.23537 1.16699 9.32183 1.59963 10.26 2.46491C11.1982 3.33019 11.6673 4.49199 11.6673 5.95033C11.6673 6.92255 11.2809 7.97984 10.5079 9.1222C9.73503 10.2646 8.56593 11.5017 7.00065 12.8337Z" fill="white"/>
</svg>
