<svg width="28" height="28" viewBox="0 0 28 28" fill="none" xmlns="http://www.w3.org/2000/svg">
<rect width="28" height="28" rx="4" fill="white"/>
<path d="M6.08984 14.1681C6.08984 12.3547 6.45251 10.7654 7.17784 9.40008C7.92451 8.01341 8.94851 6.94674 10.2498 6.20008C11.5512 5.45341 13.0445 5.08008 14.7298 5.08008C16.8632 5.08008 18.6232 5.59208 20.0098 6.61608C21.0938 7.38796 21.9059 8.41902 22.4461 9.70926C22.6991 10.3134 22.2179 10.9361 21.5629 10.9361H19.6208C19.201 10.9361 18.8359 10.668 18.6365 10.2986C18.3255 9.72259 17.9086 9.25241 17.3858 8.88808C16.6818 8.39741 15.7965 8.15208 14.7298 8.15208C13.2365 8.15208 12.0418 8.68541 11.1458 9.75208C10.2712 10.7974 9.83384 12.2694 9.83384 14.1681C9.83384 16.0667 10.2712 17.5494 11.1458 18.6161C12.0418 19.6827 13.2365 20.2161 14.7298 20.2161C16.5842 20.2161 17.8876 19.5007 18.6401 18.07C18.8352 17.699 19.2004 17.4321 19.6195 17.4321H21.5321C22.1965 17.4321 22.6778 18.0712 22.4042 18.6766C21.8518 19.8986 21.043 20.9131 19.9778 21.7201C18.5698 22.7654 16.8205 23.2881 14.7298 23.2881C13.0445 23.2881 11.5512 22.9147 10.2498 22.1681C8.94851 21.4001 7.92451 20.3334 7.17784 18.9681C6.45251 17.5814 6.08984 15.9814 6.08984 14.1681Z" fill="#A54729"/>
</svg>
