<svg width="20" height="20" viewBox="0 0 20 20" fill="none" xmlns="http://www.w3.org/2000/svg">
<path d="M10.0026 19.8996L9.65969 19.4033C9.40177 19.0296 3.33594 10.2079 3.33594 6.66667C3.33594 2.99083 6.32677 0 10.0026 0C13.6784 0 16.6693 2.99083 16.6693 6.66667C16.6693 10.2079 10.6034 19.0296 10.3455 19.4033L10.0026 19.8996ZM10.0026 0.833333C6.78594 0.833333 4.16927 3.45 4.16927 6.66667C4.16927 9.49458 8.70469 16.4813 10.0026 18.4225C11.3005 16.4813 15.8359 9.49458 15.8359 6.66667C15.8359 3.45 13.2193 0.833333 10.0026 0.833333Z" fill="#FACCAD"/>
<path d="M10.0026 9.58333C8.39469 9.58333 7.08594 8.275 7.08594 6.66667C7.08594 5.05833 8.39469 3.75 10.0026 3.75C11.6105 3.75 12.9193 5.05833 12.9193 6.66667C12.9193 8.275 11.6105 9.58333 10.0026 9.58333ZM10.0026 4.58333C8.85385 4.58333 7.91927 5.51792 7.91927 6.66667C7.91927 7.81542 8.85385 8.75 10.0026 8.75C11.1514 8.75 12.0859 7.81542 12.0859 6.66667C12.0859 5.51792 11.1514 4.58333 10.0026 4.58333Z" fill="#FACCAD"/>
</svg>
