<svg width="28" height="28" viewBox="0 0 28 28" fill="none" xmlns="http://www.w3.org/2000/svg">
<g clip-path="url(#clip0_355_3632)">
<path d="M14 0.4375C6.51876 0.4375 0.4375 6.51876 0.4375 14C0.4375 21.4812 6.51876 27.5625 14 27.5625C21.4812 27.5625 27.5625 21.4812 27.5625 14C27.5625 6.51876 21.4812 0.4375 14 0.4375ZM23.2312 19.845C21.3413 17.15 17.885 15.435 14 15.435C10.115 15.435 6.64998 17.15 4.77752 19.8625C3.70123 18.165 3.0625 16.1525 3.0625 14C3.0625 7.97124 7.97124 3.0625 14 3.0625C20.0288 3.0625 24.9375 7.97124 24.9375 14C24.9375 16.1525 24.3075 18.1563 23.2312 19.845Z" fill="#90A4AE"/>
<path d="M14.0011 13.9739C16.4028 13.9739 18.3498 12.0269 18.3498 9.62512C18.3498 7.22337 16.4028 5.27637 14.0011 5.27637C11.5993 5.27637 9.65234 7.22337 9.65234 9.62512C9.65234 12.0269 11.5993 13.9739 14.0011 13.9739Z" fill="#90A4AE"/>
</g>
<defs>
<clipPath id="clip0_355_3632">
<rect width="28" height="28" fill="white"/>
</clipPath>
</defs>
</svg>
