<svg width="20" height="20" viewBox="0 0 20 20" fill="none" xmlns="http://www.w3.org/2000/svg">
<path d="M17.8804 6.64453C17.7416 6.58992 17.5936 6.56209 17.4445 6.5625H17.4288C16.6409 6.57422 15.7573 7.31211 15.2937 8.42813C14.7378 9.76328 14.9937 11.1293 15.8695 11.4805C16.0082 11.5351 16.1559 11.5629 16.305 11.5625C17.0968 11.5625 17.9925 10.8203 18.4601 9.69688C19.012 8.36172 18.7523 6.9957 17.8804 6.64453ZM12.7968 11.8547C11.7109 10.0527 11.2421 9.375 9.99993 9.375C8.75774 9.375 8.28508 10.057 7.19915 11.8547C6.26946 13.3922 4.39055 13.5203 3.9218 14.8262C3.82671 15.0654 3.77895 15.3207 3.78118 15.5781C3.78118 16.6402 4.59368 17.5 5.59368 17.5C6.83587 17.5 8.52727 16.5082 10.0038 16.5082C11.4804 16.5082 13.164 17.5 14.4062 17.5C15.4062 17.5 16.2148 16.6406 16.2148 15.5781C16.2157 15.3205 16.1666 15.0651 16.0702 14.8262C15.6015 13.5156 13.7265 13.3922 12.7968 11.8547ZM7.51985 7.65625C7.57215 7.65629 7.62439 7.65238 7.6761 7.64453C8.58274 7.51289 9.14876 6.25664 8.94329 4.83789C8.74993 3.50039 7.93821 2.5 7.08938 2.5C7.03708 2.49996 6.98484 2.50388 6.93313 2.51172C6.02649 2.64336 5.46048 3.89961 5.66594 5.31836C5.8593 6.65195 6.67102 7.65625 7.51985 7.65625ZM14.3327 5.31836C14.5382 3.89961 13.9722 2.64336 13.0656 2.51172C13.0138 2.50388 12.9616 2.49996 12.9093 2.5C12.0605 2.5 11.2503 3.50039 11.0566 4.83789C10.8511 6.25664 11.4171 7.51289 12.3238 7.64453C12.3755 7.65238 12.4277 7.65629 12.48 7.65625C13.3288 7.65625 14.1406 6.65195 14.3327 5.31836ZM4.13157 11.4805C5.00618 11.1289 5.26165 9.76172 4.70657 8.42813C4.23938 7.30469 3.34446 6.5625 2.55383 6.5625C2.40477 6.56209 2.25699 6.58993 2.11829 6.64453C1.24368 6.99609 0.98821 8.36328 1.54329 9.69688C2.01048 10.8203 2.9054 11.5625 3.69602 11.5625C3.84508 11.5629 3.99287 11.5351 4.13157 11.4805Z" stroke="white" stroke-width="2" stroke-miterlimit="10"/>
</svg>
