<svg width="20" height="20" viewBox="0 0 20 20" fill="none" xmlns="http://www.w3.org/2000/svg">
<g clip-path="url(#clip0_405_14072)">
<path d="M14.6582 13.0813C14.484 12.9065 14.277 12.7678 14.0491 12.6731C13.8212 12.5785 13.5768 12.5298 13.3301 12.5298C13.0833 12.5298 12.8389 12.5785 12.611 12.6731C12.3831 12.7678 12.1761 12.9065 12.0019 13.0813L11.0957 13.9875C10.0753 13.3399 9.12994 12.5811 8.27693 11.725C7.42264 10.8704 6.664 9.92523 6.01443 8.90627L6.92068 8.00002C7.09548 7.82583 7.23418 7.61884 7.32881 7.39093C7.42345 7.16302 7.47216 6.91867 7.47216 6.67189C7.47216 6.42512 7.42345 6.18077 7.32881 5.95286C7.23418 5.72495 7.09548 5.51796 6.92068 5.34377L5.15193 3.58127C4.9802 3.40589 4.77496 3.26683 4.54841 3.17234C4.32187 3.07786 4.07864 3.02988 3.83318 3.03127C3.58598 3.03066 3.34111 3.07894 3.11264 3.17334C2.88417 3.26773 2.67662 3.40636 2.50193 3.58127L1.65193 4.42502C1.24679 4.86062 0.944415 5.38148 0.767036 5.94931C0.589657 6.51714 0.541783 7.11751 0.626933 7.70627C0.826933 10.05 2.36443 12.8688 4.73318 15.2438C7.10193 17.6188 9.95193 19.15 12.2957 19.375C12.4706 19.3844 12.6458 19.3844 12.8207 19.375C13.3252 19.3962 13.8289 19.3164 14.3022 19.1404C14.7755 18.9644 15.2088 18.6957 15.5769 18.35L16.4207 17.5C16.5956 17.3253 16.7342 17.1178 16.8286 16.8893C16.923 16.6608 16.9713 16.416 16.9707 16.1688C16.9721 15.9233 16.9241 15.6801 16.8296 15.4535C16.7351 15.227 16.5961 15.0218 16.4207 14.85L14.6582 13.0813ZM15.5394 16.6188L14.6894 17.4625C14.3751 17.7244 14.0083 17.9158 13.6136 18.0236C13.219 18.1315 12.8057 18.1532 12.4019 18.0875C10.3707 17.9125 7.78318 16.475 5.64568 14.3375C3.50818 12.2 2.07068 9.63127 1.87693 7.60002C1.80953 7.19622 1.83051 6.7826 1.93841 6.38768C2.04631 5.99277 2.23857 5.62595 2.50193 5.31252L3.38318 4.46252C3.44158 4.40459 3.51084 4.35876 3.58699 4.32766C3.66314 4.29656 3.74468 4.28079 3.82693 4.28127C3.90919 4.28079 3.99073 4.29656 4.06687 4.32766C4.14302 4.35876 4.21228 4.40459 4.27068 4.46252L6.03943 6.25002C6.15584 6.36712 6.22118 6.52553 6.22118 6.69064C6.22118 6.85576 6.15584 7.01417 6.03943 7.13127L4.78943 8.38127C4.69162 8.4786 4.62877 8.60557 4.61068 8.74237C4.59259 8.87917 4.62028 9.01811 4.68943 9.13752C5.4378 10.4116 6.34739 11.5837 7.39568 12.625C8.43698 13.6733 9.60915 14.5829 10.8832 15.3313C11.0026 15.4004 11.1415 15.4281 11.2783 15.41C11.4151 15.3919 11.5421 15.3291 11.6394 15.2313L12.8894 13.9813C13.0065 13.8649 13.1649 13.7995 13.3301 13.7995C13.4952 13.7995 13.6536 13.8649 13.7707 13.9813L15.5394 15.75C15.5974 15.8084 15.6432 15.8777 15.6743 15.9538C15.7054 16.03 15.7212 16.1115 15.7207 16.1938C15.7168 16.3534 15.6519 16.5055 15.5394 16.6188ZM16.6269 3.36877C15.7583 2.49688 14.7258 1.80554 13.5887 1.33463C12.4517 0.863722 11.2326 0.622549 10.0019 0.625019C9.83617 0.625019 9.6772 0.690867 9.55999 0.808077C9.44278 0.925287 9.37693 1.08426 9.37693 1.25002C9.37693 1.41578 9.44278 1.57475 9.55999 1.69196C9.6772 1.80917 9.83617 1.87502 10.0019 1.87502C11.0747 1.87498 12.1369 2.0874 13.1272 2.50001C14.1175 2.91262 15.0162 3.51726 15.7716 4.27903C16.527 5.0408 17.124 5.94463 17.5283 6.93835C17.9326 7.93207 18.136 8.99601 18.1269 10.0688C18.1269 10.2345 18.1928 10.3935 18.31 10.5107C18.4272 10.6279 18.5862 10.6938 18.7519 10.6938C18.9177 10.6938 19.0767 10.6279 19.1939 10.5107C19.3111 10.3935 19.3769 10.2345 19.3769 10.0688C19.3889 8.82498 19.1517 7.59138 18.6794 6.44068C18.2071 5.28999 17.5093 4.2455 16.6269 3.36877Z" fill="#FACCAD"/>
<path d="M13.0695 6.94394C13.4242 7.2965 13.7048 7.71644 13.8948 8.17905C14.0848 8.64167 14.1803 9.13761 14.1758 9.6377C14.1758 9.80346 14.2416 9.96243 14.3588 10.0796C14.476 10.1968 14.635 10.2627 14.8008 10.2627C14.9665 10.2627 15.1255 10.1968 15.2427 10.0796C15.3599 9.96243 15.4258 9.80346 15.4258 9.6377C15.4341 8.97585 15.3108 8.31894 15.0633 7.70508C14.8157 7.09122 14.4487 6.53262 13.9836 6.06169C13.5185 5.59076 12.9645 5.21686 12.3537 4.96169C11.743 4.70651 11.0877 4.57514 10.4258 4.5752C10.26 4.5752 10.101 4.64104 9.98384 4.75825C9.86663 4.87546 9.80078 5.03443 9.80078 5.2002C9.80078 5.36596 9.86663 5.52493 9.98384 5.64214C10.101 5.75935 10.26 5.82519 10.4258 5.8252C10.9183 5.82891 11.4053 5.92962 11.8589 6.12157C12.3126 6.31353 12.7239 6.59298 13.0695 6.94394Z" fill="#FACCAD"/>
</g>
<defs>
<clipPath id="clip0_405_14072">
<rect width="20" height="20" fill="white"/>
</clipPath>
</defs>
</svg>
