<svg width="15" height="15" viewBox="0 0 15 15" fill="none" xmlns="http://www.w3.org/2000/svg">
<g clip-path="url(#clip0_558_4131)">
<path d="M10.9917 9.81095C10.861 9.67985 10.7058 9.57583 10.5349 9.50486C10.3639 9.43388 10.1807 9.39734 9.99559 9.39734C9.81051 9.39734 9.62724 9.43388 9.45631 9.50486C9.28538 9.57583 9.13014 9.67985 8.9995 9.81095L8.31981 10.4906C7.55453 10.0049 6.8455 9.43584 6.20575 8.79376C5.56503 8.15279 4.99604 7.44392 4.50887 6.6797L5.18856 6.00001C5.31966 5.86937 5.42368 5.71413 5.49466 5.5432C5.56563 5.37226 5.60217 5.189 5.60217 5.00392C5.60217 4.81884 5.56563 4.63558 5.49466 4.46464C5.42368 4.29371 5.31966 4.13847 5.18856 4.00783L3.862 2.68595C3.7332 2.55442 3.57927 2.45012 3.40936 2.37926C3.23945 2.30839 3.05703 2.27241 2.87293 2.27345C2.68753 2.273 2.50388 2.30921 2.33252 2.38C2.16117 2.45079 2.00551 2.55477 1.8745 2.68595L1.237 3.31876C0.933139 3.64547 0.706358 4.03611 0.573324 4.46199C0.440289 4.88786 0.404384 5.33813 0.468246 5.7797C0.618246 7.53751 1.77137 9.65158 3.54793 11.4328C5.3245 13.2141 7.462 14.3625 9.21981 14.5313C9.35096 14.5383 9.4824 14.5383 9.61356 14.5313C9.99195 14.5472 10.3697 14.4873 10.7247 14.3553C11.0796 14.2233 11.4047 14.0218 11.6807 13.7625L12.3136 13.125C12.4447 12.994 12.5487 12.8383 12.6195 12.667C12.6903 12.4956 12.7265 12.312 12.7261 12.1266C12.7271 11.9425 12.6911 11.7601 12.6203 11.5902C12.5494 11.4202 12.4451 11.2663 12.3136 11.1375L10.9917 9.81095ZM11.6526 12.4641L11.0151 13.0969C10.7794 13.2933 10.5042 13.4369 10.2083 13.5177C9.91226 13.5986 9.60235 13.6149 9.2995 13.5656C7.77606 13.4344 5.83543 12.3563 4.23231 10.7531C2.62918 9.15002 1.55106 7.22345 1.40575 5.70001C1.3552 5.39716 1.37093 5.08695 1.45185 4.79076C1.53278 4.49458 1.67697 4.21946 1.8745 3.98439L2.53543 3.34689C2.57923 3.30344 2.63118 3.26907 2.68829 3.24575C2.7454 3.22242 2.80656 3.2106 2.86825 3.21095C2.92994 3.2106 2.99109 3.22242 3.0482 3.24575C3.10531 3.26907 3.15726 3.30344 3.20106 3.34689L4.52762 4.68751C4.61493 4.77534 4.66393 4.89415 4.66393 5.01798C4.66393 5.14182 4.61493 5.26063 4.52762 5.34845L3.59012 6.28595C3.51676 6.35895 3.46962 6.45418 3.45605 6.55678C3.44249 6.65938 3.46326 6.76358 3.51512 6.85314C4.0764 7.80866 4.75859 8.68779 5.54481 9.46877C6.32578 10.255 7.20491 10.9372 8.16043 11.4985C8.24999 11.5503 8.3542 11.5711 8.4568 11.5575C8.5594 11.544 8.65462 11.4968 8.72762 11.4235L9.66512 10.486C9.75295 10.3986 9.87175 10.3496 9.99559 10.3496C10.1194 10.3496 10.2382 10.3986 10.3261 10.486L11.6526 11.8125C11.6961 11.8563 11.7304 11.9083 11.7538 11.9654C11.7771 12.0225 11.7889 12.0836 11.7886 12.1453C11.7856 12.265 11.737 12.3791 11.6526 12.4641ZM12.4682 2.52658C11.8168 1.87266 11.0424 1.35416 10.1896 1.00097C9.33679 0.647792 8.42252 0.466912 7.4995 0.468764C7.37518 0.468764 7.25595 0.51815 7.16804 0.606058C7.08013 0.693965 7.03075 0.813194 7.03075 0.937514C7.03075 1.06183 7.08013 1.18106 7.16804 1.26897C7.25595 1.35688 7.37518 1.40626 7.4995 1.40626C8.3041 1.40624 9.10074 1.56555 9.84344 1.87501C10.5862 2.18446 11.2602 2.63794 11.8268 3.20927C12.3933 3.7806 12.8411 4.45847 13.1443 5.20376C13.4475 5.94905 13.6001 6.74701 13.5932 7.55158C13.5932 7.6759 13.6426 7.79513 13.7305 7.88303C13.8184 7.97094 13.9377 8.02033 14.062 8.02033C14.1863 8.02033 14.3055 7.97094 14.3935 7.88303C14.4814 7.79513 14.5307 7.6759 14.5307 7.55158C14.5397 6.61873 14.3619 5.69353 14.0076 4.83051C13.6534 3.96749 13.13 3.18412 12.4682 2.52658Z" fill="#FACCAD"/>
<path d="M9.80312 5.2082C10.0691 5.47262 10.2796 5.78757 10.4221 6.13453C10.5646 6.4815 10.6362 6.85345 10.6328 7.22852C10.6328 7.35284 10.6822 7.47207 10.7701 7.55997C10.858 7.64788 10.9772 7.69727 11.1016 7.69727C11.2259 7.69727 11.3451 7.64788 11.433 7.55997C11.5209 7.47207 11.5703 7.35284 11.5703 7.22852C11.5765 6.73213 11.4841 6.23945 11.2984 5.77905C11.1128 5.31866 10.8375 4.89971 10.4887 4.54651C10.1398 4.19331 9.72434 3.91289 9.26629 3.72151C8.80823 3.53013 8.31674 3.4316 7.82031 3.43164C7.69599 3.43164 7.57676 3.48103 7.48886 3.56893C7.40095 3.65684 7.35156 3.77607 7.35156 3.90039C7.35156 4.02471 7.40095 4.14394 7.48886 4.23185C7.57676 4.31975 7.69599 4.36914 7.82031 4.36914C8.18973 4.37192 8.55497 4.44746 8.89519 4.59142C9.2354 4.73539 9.54392 4.94498 9.80312 5.2082Z" fill="#FACCAD"/>
</g>
<defs>
<clipPath id="clip0_558_4131">
<rect width="15" height="15" fill="white"/>
</clipPath>
</defs>
</svg>
