<svg width="20" height="20" viewBox="0 0 20 20" fill="none" xmlns="http://www.w3.org/2000/svg">
<path d="M17.918 1.66699H2.08413C1.85418 1.66714 1.66782 1.85366 1.66797 2.08366V17.9174C1.66812 18.1475 1.85463 18.3338 2.08464 18.3337H7.91848C8.14843 18.3335 8.33479 18.147 8.33464 17.917V8.33366H17.9185C18.1484 8.33351 18.3348 8.14699 18.3346 7.91699V2.08315C18.3345 1.8532 18.148 1.66684 17.918 1.66699ZM17.5013 7.50033H14.5846V5.41699C14.5846 5.18689 14.3981 5.00033 14.168 5.00033C13.9379 5.00033 13.7513 5.18689 13.7513 5.41699V7.50033H11.2513V5.41699C11.2513 5.18689 11.0647 5.00033 10.8346 5.00033C10.6045 5.00033 10.418 5.18689 10.418 5.41699V7.50033H8.33464V5.41699C8.33464 5.18689 8.14807 5.00033 7.91797 5.00033C7.68787 5.00033 7.5013 5.18689 7.5013 5.41699V7.50033H5.41797C5.18787 7.50033 5.0013 7.68689 5.0013 7.91699C5.0013 8.14709 5.18787 8.33366 5.41797 8.33366H7.5013V10.417H5.41797C5.18787 10.417 5.0013 10.6036 5.0013 10.8337C5.0013 11.0638 5.18787 11.2503 5.41797 11.2503H7.5013V13.7503H5.41797C5.18787 13.7503 5.0013 13.9369 5.0013 14.167C5.0013 14.3971 5.18787 14.5837 5.41797 14.5837H7.5013V17.5003H2.5013V2.50033H17.5013V7.50033Z" fill="#E19C5B"/>
</svg>
