<svg width="28" height="28" viewBox="0 0 28 28" fill="none" xmlns="http://www.w3.org/2000/svg">
<rect width="28" height="28" rx="14" fill="#E19C5B"/>
<path d="M20.5413 8.48311C19.6931 7.64427 18.5686 7.13229 17.3712 7.03965C16.1737 6.94702 14.9821 7.27983 14.0116 7.97797C12.9935 7.23103 11.7262 6.89233 10.4651 7.03008C9.20389 7.16783 8.04247 7.7718 7.21468 8.72036C6.3869 9.66892 5.95424 10.8916 6.00384 12.1422C6.05343 13.3928 6.5816 14.5785 7.48197 15.4603L12.4512 20.3697C12.8674 20.7736 13.4278 21 14.0116 21C14.5955 21 15.1559 20.7736 15.572 20.3697L20.5413 15.4603C21.4756 14.5332 22 13.279 22 11.9717C22 10.6645 21.4756 9.41031 20.5413 8.48311ZM19.413 14.3711L14.4437 19.2726C14.3872 19.3289 14.3199 19.3736 14.2457 19.4041C14.1716 19.4346 14.092 19.4503 14.0116 19.4503C13.9313 19.4503 13.8517 19.4346 13.7775 19.4041C13.7034 19.3736 13.6361 19.3289 13.5795 19.2726L8.61026 14.3475C7.98271 13.7147 7.6313 12.8648 7.6313 11.9796C7.6313 11.0945 7.98271 10.2445 8.61026 9.61178C9.24975 8.98903 10.1122 8.63984 11.0109 8.63984C11.9095 8.63984 12.772 8.98903 13.4115 9.61178C13.4859 9.68576 13.5744 9.74448 13.6719 9.78455C13.7694 9.82462 13.874 9.84525 13.9796 9.84525C14.0853 9.84525 14.1899 9.82462 14.2874 9.78455C14.3849 9.74448 14.4734 9.68576 14.5478 9.61178C15.1873 8.98903 16.0497 8.63984 16.9484 8.63984C17.847 8.63984 18.7095 8.98903 19.349 9.61178C19.9852 10.2362 20.3481 11.0816 20.3601 11.9667C20.372 12.8519 20.0321 13.7065 19.413 14.3475V14.3711Z" fill="white"/>
</svg>
