<svg width="80" height="80" viewBox="0 0 80 80" fill="none" xmlns="http://www.w3.org/2000/svg">
<path d="M61.9883 18.5873C62.5198 18.4087 63.0034 18.1108 63.4021 17.7165C63.8007 17.3222 64.1039 16.8418 64.2883 16.3123L67.0508 8.3623L62.9133 5.3623L56.2508 10.4623C55.8091 10.8051 55.4497 11.2423 55.1988 11.7419C54.948 12.2415 54.812 12.7909 54.8008 13.3498C54.7914 14.4957 54.4243 15.6101 53.7508 16.5373L42.1133 32.4998L47.6883 36.5498L59.2758 20.5748C59.9497 19.6448 60.8984 18.9496 61.9883 18.5873Z" fill="#E19C5B"/>
<path d="M33.2513 32.8878L35.7513 29.4253C35.8479 29.2921 35.9699 29.1793 36.1103 29.0933C36.2506 29.0073 36.4066 28.9499 36.5692 28.9243C36.7318 28.8988 36.8978 28.9056 37.0578 28.9444C37.2177 28.9832 37.3685 29.0532 37.5013 29.1503L52.3513 39.9253C52.6098 40.1198 52.7829 40.4068 52.8341 40.7261C52.8854 41.0455 52.8109 41.3723 52.6263 41.6378L50.1263 45.1003C49.9802 45.3004 49.7745 45.4492 49.5388 45.5253L45.7888 46.8753C44.8563 47.2049 44.0176 47.7558 43.3448 48.4808C42.6721 49.2059 42.1853 50.0833 41.9263 51.0378C41.4263 52.8753 40.8013 55.2003 40.3138 56.9753C39.8223 58.7756 39.0046 60.4703 37.9013 61.9753L31.8513 70.3129C31.0494 71.4184 30.0376 72.3552 28.8737 73.0698C27.7098 73.7843 26.4165 74.2626 25.0677 74.4774C23.719 74.6921 22.3411 74.6391 21.0128 74.3213C19.6845 74.0035 18.4319 73.4272 17.3263 72.6253C15.105 71.0063 13.614 68.5747 13.1785 65.8607C12.7429 63.1467 13.3982 60.3706 15.0013 58.1378L21.0513 49.8003C22.1246 48.2854 23.4627 46.9769 25.0013 45.9378L30.1388 42.5753C30.9724 42.0307 31.66 41.2903 32.1415 40.4187C32.623 39.5471 32.8839 38.5709 32.9013 37.5753L33.0013 33.5378C33.0214 33.3019 33.1081 33.0765 33.2513 32.8878Z" fill="#A54729"/>
</svg>
