<svg width="28" height="28" viewBox="0 0 28 28" fill="none" xmlns="http://www.w3.org/2000/svg">
<rect width="28" height="28" rx="14" fill="#E19C5B"/>
<path d="M22.7365 13.4501L15.5364 7.22773C15.4105 7.11899 15.2502 7.04493 15.0756 7.01494C14.9011 6.98494 14.7201 7.00034 14.5557 7.0592C14.3913 7.11805 14.2507 7.21772 14.1518 7.3456C14.0529 7.47347 14.0001 7.62382 14.0001 7.77763V10.5349C11.5415 10.7315 9.25635 11.7139 7.59175 13.2899C5.92715 14.8658 5.00294 16.9219 5 19.0557V20.2224C5.00014 20.3838 5.05842 20.5412 5.16675 20.6728C5.27508 20.8043 5.42809 20.9035 5.60456 20.9565C5.78103 21.0095 5.97221 21.0137 6.15159 20.9686C6.33097 20.9234 6.48964 20.8312 6.60562 20.7046C7.48735 19.7984 8.56922 19.0532 9.788 18.5125C11.0068 17.9718 12.338 17.6464 13.704 17.5553C13.749 17.5506 13.8615 17.5429 14.0001 17.5351V20.2224C14.0001 20.3762 14.0529 20.5265 14.1518 20.6544C14.2507 20.7823 14.3913 20.8819 14.5557 20.9408C14.7201 20.9997 14.9011 21.0151 15.0756 20.9851C15.2502 20.9551 15.4105 20.881 15.5364 20.7723L22.7365 14.5499C22.9052 14.404 23 14.2062 23 14C23 13.7938 22.9052 13.596 22.7365 13.4501ZM15.8001 18.3448V16.7223C15.8001 16.516 15.7053 16.3182 15.5365 16.1723C15.3677 16.0264 15.1388 15.9445 14.9001 15.9445C14.6706 15.9445 13.7337 15.9834 13.4943 16.0106C11.0686 16.2038 8.75972 17.0002 6.84682 18.3035C7.06394 16.5881 8.00562 15.0021 9.49155 13.8492C10.9775 12.6964 12.9032 12.0577 14.9001 12.0555C15.1388 12.0555 15.3677 11.9736 15.5365 11.8277C15.7053 11.6818 15.8001 11.484 15.8001 11.2777V9.65523L20.8276 14L15.8001 18.3448Z" fill="white"/>
</svg>
