<svg width="12" height="12" viewBox="0 0 12 12" fill="none" xmlns="http://www.w3.org/2000/svg">
<path d="M6.40518 0.263019L7.75125 3.47842C7.85426 3.72456 8.07727 3.89318 8.33328 3.91727L11.6125 4.22519C11.9835 4.28175 12.1315 4.7583 11.8625 5.03271L9.39234 7.20599C9.19233 7.38195 9.10132 7.65845 9.15633 7.92553L9.87436 11.4457C9.93737 11.8322 9.55035 12.1276 9.21833 11.9443L6.35618 10.1889C6.13617 10.0538 5.86415 10.0538 5.64414 10.1889L2.78199 11.9432C2.45097 12.1255 2.06295 11.8311 2.12595 11.4447L2.84399 7.92448C2.89799 7.6574 2.80799 7.3809 2.60798 7.20494L0.136846 5.03376C-0.131169 4.7604 0.0168393 4.2828 0.386859 4.22624L3.66603 3.91832C3.92205 3.89423 4.14506 3.7256 4.24806 3.47947L5.59414 0.264067C5.76115 -0.0878475 6.23917 -0.0878474 6.40518 0.263019Z" fill="#FDD835"/>
<path d="M6.30842 3.67045L6.08041 1.30131C6.07141 1.16935 6.0454 0.943115 6.24741 0.943115C6.40742 0.943115 6.49443 1.29189 6.49443 1.29189L7.17846 3.1939C7.43648 3.91763 7.33047 4.16585 7.08146 4.31248C6.79544 4.48006 6.37342 4.34914 6.30842 3.67045Z" fill="#FFFF8D"/>
<path d="M9.12964 6.99571L11.0917 5.39219C11.1887 5.30736 11.3638 5.17225 11.2238 5.01828C11.1127 4.89679 10.8127 5.0717 10.8127 5.0717L9.09564 5.77448C8.58361 5.95986 8.24359 6.23427 8.21359 6.5799C8.17459 7.04074 8.56961 7.3958 9.12964 6.99571Z" fill="#F4B400"/>
</svg>
