<svg width="24" height="24" viewBox="0 0 24 24" fill="none" xmlns="http://www.w3.org/2000/svg">
<path d="M21.0693 9.49442L21.084 9.49657L21.0988 9.49784C21.1952 9.50608 21.2872 9.54213 21.3635 9.60159C21.435 9.65732 21.49 9.73139 21.5226 9.81578C21.5422 9.90192 21.5386 9.99184 21.5121 10.0763C21.4838 10.1666 21.4304 10.247 21.3582 10.3082L21.3455 10.3189L21.3336 10.3305L17.2036 14.3305L17.013 14.5151L17.059 14.7764L18.059 20.4564L18.059 20.4564L18.0603 20.4632C18.0781 20.5569 18.0688 20.6538 18.0333 20.7424C17.9979 20.831 17.9378 20.9076 17.8603 20.9632L17.8582 20.9647C17.7724 21.0268 17.6691 21.06 17.5632 21.0596L17.5598 21.0597C17.4853 21.0599 17.412 21.0408 17.3471 21.0042L17.3406 21.0005L17.334 20.997L12.234 18.317L12.0023 18.1953L11.7702 18.3163L6.65024 20.9863L6.64723 20.9879C6.56511 21.0314 6.47249 21.0512 6.37975 21.0451C6.28701 21.0389 6.19783 21.007 6.12223 20.9529C6.04484 20.8974 5.98493 20.8209 5.94955 20.7324C5.91411 20.6438 5.90477 20.5469 5.92262 20.4532L5.92266 20.4532L5.92387 20.4464L6.92387 14.7664L6.96987 14.5051L6.7793 14.3205L2.65244 10.3235C2.58932 10.2598 2.54451 10.1802 2.52274 10.0931C2.5011 10.0065 2.50303 9.91576 2.52828 9.83023C2.55757 9.74318 2.61029 9.66585 2.68068 9.60676C2.75226 9.54666 2.83926 9.50783 2.9318 9.49468L2.9318 9.49469L2.93446 9.4943L8.62446 8.6543L8.88363 8.61604L8.99969 8.38118L11.5497 3.22118L11.5497 3.22118L11.5514 3.2176C11.5924 3.13307 11.6563 3.06177 11.7359 3.01189C11.8155 2.962 11.9075 2.93555 12.0014 2.93555C12.0954 2.93555 12.1874 2.962 12.267 3.01189C12.3466 3.06177 12.4105 3.13307 12.4514 3.2176L12.4514 3.21761L12.453 3.22083L15.003 8.39083L15.1193 8.62649L15.3793 8.66442L21.0693 9.49442ZM16.1991 14.029L16.1991 14.0291L16.2044 14.0238L19.2044 11.0338L19.9124 10.3282L18.9231 10.1848L14.7131 9.57482L14.7131 9.57482L14.7103 9.57442C14.6293 9.56316 14.5523 9.5322 14.4861 9.48425C14.4198 9.43631 14.3663 9.37284 14.3303 9.29942L14.3301 9.29887L12.4501 5.47887L11.9897 4.5435L11.5484 5.48802L9.7708 9.29297C9.73481 9.36489 9.68199 9.42708 9.61681 9.47425C9.55056 9.5222 9.47356 9.55316 9.39256 9.56442L9.39256 9.56442L9.38974 9.56482L5.17974 10.1748L4.19254 10.3179L4.89789 11.0232L7.89789 14.0232L7.89784 14.0233L7.90383 14.029C7.96246 14.0858 8.00633 14.156 8.03161 14.2335C8.05688 14.3111 8.06279 14.3937 8.04882 14.474L8.04867 14.475L7.32867 18.665L7.15597 19.67L8.05625 19.1911L11.8162 17.1911L11.8164 17.191C11.8888 17.1525 11.9695 17.1323 12.0514 17.1323C12.1334 17.1323 12.2141 17.1525 12.2864 17.191L12.2866 17.1911L16.0466 19.1911L16.9469 19.67L16.7742 18.665L16.0542 14.475L16.0541 14.474C16.0401 14.3937 16.046 14.3111 16.0713 14.2335C16.0966 14.156 16.1404 14.0858 16.1991 14.029Z" fill="#A54729" stroke="#A54729"/>
</svg>
