<svg width="122" height="21" viewBox="0 0 122 21" fill="none" xmlns="http://www.w3.org/2000/svg">
<path d="M18.75 8.17574H12.0312L10 0.907227L7.96875 8.17574H1.25L6.71875 12.5369L4.60938 19.8054L10 15.2626L15.3906 19.8054L13.2812 12.5369L18.75 8.17574Z" fill="#FAF003" stroke="#B09F07" stroke-linejoin="round"/>
<path d="M44.25 8.17574H37.5312L35.5 0.907227L33.4688 8.17574H26.75L32.2188 12.5369L30.1094 19.8054L35.5 15.2626L40.8906 19.8054L38.7812 12.5369L44.25 8.17574Z" fill="#FAF003" stroke="#B09F07" stroke-linejoin="round"/>
<path d="M69.75 8.17574H63.0312L61 0.907227L58.9688 8.17574H52.25L57.7188 12.5369L55.6094 19.8054L61 15.2626L66.3906 19.8054L64.2812 12.5369L69.75 8.17574Z" fill="#FAF003" stroke="#B09F07" stroke-linejoin="round"/>
<path d="M95.25 8.17574H88.5312L86.5 0.907227L84.4688 8.17574H77.75L83.2188 12.5369L81.1094 19.8054L86.5 15.2626L91.8906 19.8054L89.7812 12.5369L95.25 8.17574Z" fill="#FAF003" stroke="#B09F07" stroke-linejoin="round"/>
<path d="M120.75 8.17574H114.031L112 0.907227L109.969 8.17574H103.25L108.719 12.5369L106.609 19.8054L112 15.2626L117.391 19.8054L115.281 12.5369L120.75 8.17574Z" fill="#FAF003" stroke="#B09F07" stroke-linejoin="round"/>
</svg>
