<svg width="390" height="330" viewBox="0 0 390 330" fill="none" xmlns="http://www.w3.org/2000/svg">
<path d="M230.875 237.086C230.839 237.082 230.802 237.081 230.765 237.081H230.753C226.447 236.913 222.14 236.761 217.832 236.626H217.823C211.494 236.431 205.167 236.27 198.843 236.144H198.83C198.78 236.144 198.725 236.139 198.674 236.139C198.64 237.427 198.611 238.742 198.585 239.925C198.657 239.925 198.729 239.921 198.801 239.916H198.805C209.491 239.529 220.175 239.047 230.858 238.469H230.871C230.918 238.465 230.96 238.465 231.002 238.46L230.875 237.086ZM184.008 235.889H184.004C182.732 235.866 181.464 235.848 180.192 235.835L165.391 235.689C160.464 235.63 155.529 235.625 150.598 235.625C145.663 235.63 140.728 235.593 135.797 235.63L121 235.762L106.198 236.008L102.501 236.067L100.655 236.103L99.8518 236.117L99.8475 235.366L99.8011 231.38C99.7334 225.1 99.6743 218.821 99.5898 212.546C99.5349 208.2 99.4631 203.853 99.3743 199.504L98.6053 167.634C98.3729 157.004 98.17 146.379 98.17 135.754C98.1194 130.439 98.2039 125.133 98.2208 119.818C98.3053 114.508 98.3601 109.193 98.5081 103.883L98.9391 88.7167L99.3954 72.7403C99.425 72.6993 99.4715 72.6676 99.5053 72.6811C99.5154 72.6804 99.5255 72.682 99.5349 72.6858H99.5475L99.6785 72.6902L100.604 72.7039L104.301 72.7403L111.7 72.8131L112.228 72.8176L119.102 72.8769L126.501 72.8951C127.68 72.8995 128.855 72.9042 130.033 72.9086C136.752 72.9223 143.467 72.9056 150.18 72.8586L156.099 72.8313L170.901 72.7585L171.353 72.754L185.694 72.6083C191.309 72.5674 190.388 72.4809 196.004 72.4036C195.936 72.2079 195.877 72.0032 195.818 71.7984C195.697 71.363 195.614 70.9168 195.568 70.4652C195.493 69.8143 195.553 69.1535 195.746 68.5313C190.219 68.4448 191.225 68.3902 185.694 68.3492L171.129 68.2037L170.901 68.1991L165.97 68.1763L156.099 68.1263C154.046 68.1172 151.991 68.1066 149.935 68.0944C148.228 68.0853 146.522 68.0777 144.818 68.0716C139.802 68.0488 134.79 68.0413 129.78 68.0488C128.685 68.0534 127.595 68.0579 126.501 68.0625L124.676 68.067L119.102 68.0807L111.991 68.1398L111.7 68.1444L106.84 68.1945L104.301 68.2173L100.604 68.2536L99.6785 68.2673L99.5644 68.2718L99.3489 68.2764C98.8997 68.3192 98.4578 68.4263 98.0349 68.5949C97.4813 68.8382 96.9823 69.206 96.5713 69.6737C96.1603 70.1414 95.8468 70.6982 95.6517 71.3069C95.5561 71.6094 95.4909 71.9222 95.4574 72.2397C95.4404 72.3983 95.4319 72.5579 95.432 72.7175L95.4362 72.8768V73.0041L95.4574 74.0007L95.508 75.9892L95.6096 79.9799L95.8377 87.943L95.994 93.4854L96.2813 103.883C96.4335 109.193 96.4884 114.508 96.5772 119.818C96.5897 125.133 96.6743 130.439 96.6278 135.754C96.6278 146.379 96.4292 157.004 96.1926 167.634L95.4235 199.504C95.3517 202.808 95.2926 206.11 95.2461 209.411C95.1362 216.732 95.0729 224.054 94.9927 231.38L94.9504 235.366L94.9419 236.362V236.481L94.9461 236.74C94.9515 236.917 94.9671 237.093 94.9927 237.268C95.0397 237.62 95.1248 237.965 95.2461 238.296C95.3164 238.504 95.4027 238.705 95.5039 238.897C96.0463 239.972 96.9365 240.794 98.0053 241.209C98.3187 241.329 98.643 241.413 98.9729 241.459C99.1334 241.486 99.3025 241.486 99.4672 241.5L99.7587 241.504H100.68L102.531 241.513L105.133 241.518H106.232L121.033 241.523L135.831 241.427C140.761 241.382 145.697 241.272 150.632 241.195C155.563 241.118 160.494 241.031 165.425 240.899L180.226 240.517C182.901 240.439 185.575 240.359 188.25 240.276C188.322 240.276 188.394 240.271 188.47 240.271C188.605 239.275 188.825 237.641 189.053 235.962C189.006 235.962 188.964 235.962 188.918 235.958C187.283 235.935 185.643 235.907 184.008 235.889ZM215.793 68.8134C216.038 69.7234 217.346 71.158 217.367 71.2536C217.473 71.7086 220.54 71.3707 220.751 71.7847C220.766 71.8111 220.778 71.8384 220.789 71.8666C220.832 71.9486 220.87 72.035 220.908 72.1215C221.204 72.117 221.495 72.1124 221.791 72.1033C221.795 72.1079 221.795 72.1079 221.799 72.1033C229.358 71.9714 238.929 72.3034 246.484 72.1215C246.83 71.6937 246.227 70.8412 246.531 70.4954C246.903 70.0677 246.167 69.6871 246.484 69.3777C237.602 69.1546 224.675 68.9727 215.793 68.8134Z" fill="#A54729"/>
<path d="M81.0096 270.405C80.2661 263.221 79.8802 256.037 79.6018 248.853C79.5366 247.058 79.4742 245.262 79.4302 243.466L79.4117 242.792L79.4024 242.455C79.4002 242.338 79.3932 242.257 79.3996 242.055C79.4113 241.347 79.5684 240.652 79.8597 240.018C80.1548 239.379 80.5753 238.818 81.092 238.372C81.6087 237.926 82.2092 237.606 82.852 237.435C83.1702 237.354 83.495 237.306 83.8217 237.293L84.4475 237.269L85.699 237.226L88.2022 237.14L93.2093 237.011L98.217 236.931C99.0506 236.921 99.8866 236.92 100.727 236.938L101.986 236.955L102.311 236.96C102.476 236.97 102.642 236.975 102.807 236.998C103.138 237.045 103.463 237.13 103.776 237.251C104.4 237.493 104.967 237.878 105.438 238.38C105.909 238.882 106.272 239.489 106.503 240.158C106.619 240.49 106.699 240.834 106.741 241.185C106.779 241.495 106.792 241.807 106.778 242.119L106.741 243.466C106.697 245.262 106.636 247.057 106.57 248.853C106.292 256.037 105.905 263.221 105.157 270.405C104.409 263.221 104.021 256.037 103.744 248.853C103.678 247.057 103.617 245.262 103.573 243.466L103.536 242.119C103.536 242.03 103.532 241.942 103.522 241.854C103.52 241.805 103.514 241.756 103.502 241.709C103.487 241.615 103.46 241.524 103.422 241.437C103.352 241.265 103.248 241.112 103.117 240.988C102.986 240.865 102.831 240.773 102.664 240.721C102.583 240.696 102.501 240.68 102.417 240.674C102.375 240.671 102.332 240.675 102.29 240.67L101.989 240.673L100.746 240.691C99.9189 240.696 99.0876 240.719 98.2539 240.753L93.2575 240.879L88.2605 240.956L85.7616 240.973L84.5121 240.981L83.8873 240.983C83.797 240.982 83.7067 240.988 83.6174 241.003C83.4457 241.038 83.2831 241.112 83.1406 241.221C82.9981 241.33 82.8792 241.471 82.7918 241.634C82.7042 241.804 82.6492 241.99 82.6302 242.183C82.6207 242.273 82.6162 242.364 82.6167 242.455L82.6076 242.792L82.5891 243.466C82.545 245.262 82.4826 247.058 82.4175 248.853C82.139 256.037 81.7532 263.221 81.0096 270.405Z" fill="#A54729"/>
<path d="M105.502 276.999C113.826 276.999 113.839 263.068 105.502 263.068C97.1781 263.068 97.1644 276.999 105.502 276.999Z" fill="#A54729"/>
<path d="M81.0097 277.37C89.3335 277.37 89.3472 263.439 81.0097 263.439C72.686 263.439 72.6722 277.37 81.0097 277.37Z" fill="#A54729"/>
<path d="M106.709 68.7279C106.804 67.7974 106.981 66.8788 107.238 65.9845C107.371 65.5286 107.533 65.0831 107.723 64.6512C107.921 64.178 108.204 63.7518 108.556 63.3975C108.775 63.1768 109.051 63.0312 109.348 62.9793C109.669 62.9336 109.995 63.0123 110.267 63.2014C110.687 63.5132 111.037 63.9222 111.292 64.3985C111.745 65.2427 112.095 66.1459 112.335 67.0861C112.562 68.0183 112.695 68.9741 112.731 69.937C112.746 70.9108 112.706 71.8083 112.663 72.7368C112.582 74.5815 112.461 76.4261 112.229 78.2708C111.997 76.4261 111.876 74.5815 111.794 72.7368C111.735 71.821 111.752 70.8724 111.678 70.0035C111.62 69.123 111.48 68.2509 111.261 67.4003C111.058 66.5561 110.764 65.7406 110.384 64.9705C110.23 64.6332 110.014 64.3333 109.749 64.089C109.666 64.0146 109.561 63.9742 109.453 63.975C109.322 63.9827 109.197 64.0355 109.097 64.1255C108.801 64.3798 108.55 64.6886 108.355 65.0375C108.128 65.4117 107.923 65.8012 107.742 66.2035C107.36 67.0136 107.036 67.8666 106.709 68.7279Z" fill="#A54729"/>
<path d="M124.515 68.728C124.61 67.7974 124.787 66.8788 125.044 65.9845C125.177 65.5286 125.339 65.0831 125.529 64.6512C125.726 64.1779 126.009 63.7518 126.361 63.3975C126.581 63.1768 126.857 63.0312 127.153 62.9793C127.475 62.9336 127.8 63.0123 128.073 63.2014C128.493 63.5132 128.843 63.9222 129.097 64.3985C129.55 65.2427 129.901 66.1459 130.141 67.0861C130.368 68.0183 130.5 68.9741 130.537 69.937C130.552 70.9108 130.512 71.8083 130.469 72.7368C130.388 74.5815 130.266 76.4261 130.035 78.2708C129.803 76.4261 129.682 74.5815 129.6 72.7368C129.54 71.821 129.558 70.8724 129.484 70.0035C129.426 69.123 129.286 68.2509 129.067 67.4003C128.864 66.5561 128.57 65.7406 128.19 64.9705C128.036 64.6332 127.82 64.3333 127.555 64.089C127.472 64.0146 127.367 63.9742 127.258 63.975C127.128 63.9827 127.003 64.0354 126.902 64.1255C126.607 64.3797 126.356 64.6885 126.161 65.0375C125.934 65.4117 125.729 65.8012 125.548 66.2035C125.165 67.0136 124.841 67.8666 124.515 68.728Z" fill="#A54729"/>
<path d="M144.659 68.728C144.754 67.7974 144.931 66.8788 145.188 65.9845C145.321 65.5286 145.483 65.0831 145.673 64.6512C145.87 64.178 146.153 63.7518 146.505 63.3975C146.725 63.1768 147.001 63.0312 147.297 62.9793C147.619 62.9336 147.944 63.0123 148.217 63.2014C148.637 63.5132 148.987 63.9222 149.241 64.3985C149.694 65.2427 150.045 66.1459 150.285 67.0861C150.512 68.0183 150.644 68.9741 150.681 69.937C150.696 70.9108 150.656 71.8083 150.613 72.7368C150.532 74.5815 150.41 76.4261 150.179 78.2708C149.947 76.4261 149.826 74.5815 149.744 72.7368C149.684 71.821 149.702 70.8724 149.628 70.0035C149.57 69.123 149.43 68.2509 149.211 67.4003C149.008 66.5561 148.714 65.7406 148.334 64.9705C148.18 64.6332 147.964 64.3333 147.699 64.089C147.616 64.0146 147.511 63.9742 147.402 63.975C147.272 63.9827 147.147 64.0355 147.046 64.1255C146.751 64.3798 146.5 64.6886 146.305 65.0375C146.078 65.4117 145.873 65.8012 145.692 66.2035C145.309 67.0136 144.985 67.8666 144.659 68.728Z" fill="#A54729"/>
<path d="M165.834 68.728C165.929 67.7974 166.106 66.8788 166.363 65.9845C166.496 65.5286 166.658 65.0831 166.848 64.6512C167.046 64.1779 167.329 63.7518 167.681 63.3975C167.901 63.1768 168.176 63.0312 168.473 62.9793C168.794 62.9336 169.12 63.0123 169.392 63.2014C169.812 63.5132 170.162 63.9222 170.417 64.3985C170.87 65.2427 171.22 66.1459 171.46 67.0861C171.687 68.0183 171.82 68.9741 171.856 69.937C171.871 70.9108 171.831 71.8083 171.788 72.7368C171.707 74.5815 171.586 76.4261 171.354 78.2708C171.122 76.4261 171.001 74.5815 170.919 72.7368C170.86 71.821 170.877 70.8724 170.803 70.0035C170.745 69.123 170.605 68.2509 170.386 67.4003C170.184 66.5561 169.889 65.7406 169.509 64.9705C169.355 64.6332 169.139 64.3333 168.874 64.089C168.791 64.0146 168.686 63.9742 168.578 63.975C168.447 63.9827 168.322 64.0354 168.222 64.1255C167.926 64.3797 167.675 64.6886 167.48 65.0375C167.253 65.4117 167.048 65.8012 166.867 66.2035C166.485 67.0136 166.161 67.8666 165.834 68.728Z" fill="#A54729"/>
<path d="M103.605 85.5996C104.871 83.9996 106.229 82.5089 107.608 81.0441C108.307 80.3219 108.997 79.5909 109.712 78.8883C110.424 78.1826 111.133 77.4731 111.863 76.7894L111.873 76.7801C111.927 76.7298 111.99 76.6913 112.057 76.6669C112.125 76.6426 112.196 76.6328 112.268 76.6381C112.339 76.6435 112.408 76.6639 112.472 76.6982C112.536 76.7325 112.593 76.78 112.64 76.8379C112.655 76.8578 112.67 76.8786 112.684 76.9003C113.539 78.3012 114.362 79.7245 115.154 81.1704C115.555 81.8902 115.937 82.6231 116.317 83.358C116.693 84.0953 117.061 84.8379 117.403 85.5996C116.883 84.9658 116.389 84.3127 115.903 83.6544C115.42 82.9938 114.94 82.331 114.478 81.6552C113.546 80.3098 112.644 78.942 111.775 77.5517L112.594 77.6626C111.888 78.3745 111.159 79.0606 110.434 79.7505C109.711 80.4434 108.965 81.1081 108.226 81.7815C106.73 83.1079 105.214 84.4085 103.605 85.5996Z" fill="#A54729"/>
<path d="M120.375 85.5996C121.642 83.9996 123 82.5089 124.379 81.0441C125.077 80.3219 125.768 79.5909 126.483 78.8883C127.195 78.1826 127.904 77.4731 128.634 76.7894L128.644 76.7802C128.698 76.7298 128.76 76.6913 128.828 76.6669C128.896 76.6426 128.967 76.6328 129.038 76.6381C129.109 76.6435 129.179 76.6639 129.243 76.6982C129.306 76.7325 129.363 76.78 129.41 76.8379C129.426 76.8578 129.441 76.8786 129.454 76.9003C130.309 78.3012 131.133 79.7246 131.925 81.1704C132.326 81.8902 132.708 82.6231 133.087 83.358C133.463 84.0953 133.832 84.8379 134.174 85.5996C133.654 84.9658 133.16 84.3128 132.674 83.6544C132.191 82.9938 131.71 82.331 131.249 81.6552C130.316 80.3098 129.415 78.942 128.545 77.5517L129.365 77.6626C128.658 78.3745 127.93 79.0606 127.204 79.7505C126.482 80.4434 125.735 81.1081 124.996 81.7815C123.501 83.1079 121.984 84.4085 120.375 85.5996Z" fill="#A54729"/>
<path d="M140.52 85.5996C141.786 83.9996 143.143 82.5089 144.523 81.0441C145.221 80.3219 145.912 79.5909 146.627 78.8883C147.339 78.1826 148.048 77.4731 148.778 76.7894L148.788 76.7801C148.842 76.7298 148.904 76.6913 148.972 76.6669C149.04 76.6426 149.111 76.6328 149.182 76.6381C149.253 76.6435 149.323 76.6639 149.387 76.6982C149.45 76.7325 149.507 76.78 149.554 76.8379C149.57 76.8577 149.585 76.8786 149.598 76.9003C150.453 78.3012 151.277 79.7245 152.069 81.1704C152.47 81.8902 152.852 82.6231 153.231 83.358C153.607 84.0953 153.976 84.8379 154.318 85.5996C153.798 84.9658 153.304 84.3127 152.818 83.6544C152.335 82.9938 151.854 82.331 151.393 81.6552C150.46 80.3098 149.559 78.942 148.689 77.5517L149.509 77.6626C148.802 78.3745 148.074 79.0606 147.348 79.7505C146.626 80.4434 145.879 81.1081 145.14 81.7815C143.645 83.1079 142.128 84.4085 140.52 85.5996Z" fill="#A54729"/>
<path d="M173.085 80.1802C172.694 79.7508 172.327 79.3035 171.969 78.85C171.612 78.3958 171.262 77.9362 170.925 77.4677L171.53 77.5493C170.86 78.3059 170.172 79.0399 169.465 79.7513C168.762 80.468 168.037 81.1575 167.306 81.8406C166.566 82.5135 165.815 83.1726 165.044 83.8069C164.265 84.4329 163.477 85.0484 162.636 85.5997C163.232 84.7555 163.882 83.9756 164.541 83.2062C165.206 82.445 165.893 81.7087 166.591 80.9862C167.297 80.2738 168.009 79.5679 168.743 78.8891C169.475 78.2067 170.224 77.5453 170.99 76.9048L171.037 76.8658C171.116 76.8 171.217 76.7707 171.316 76.7844C171.415 76.7981 171.505 76.8537 171.566 76.9389C171.577 76.9541 171.586 76.9699 171.595 76.9864C171.867 77.502 172.126 78.0271 172.377 78.5571C172.627 79.0881 172.869 79.6252 173.085 80.1802Z" fill="#A54729"/>
<path d="M107.783 122.458H107.648C107.713 122.683 107.798 122.901 107.901 123.108C107.837 122.898 107.797 122.679 107.783 122.458ZM107.783 122.458H107.648C107.713 122.683 107.798 122.901 107.901 123.108C107.837 122.898 107.797 122.679 107.783 122.458ZM107.783 122.458H107.648C107.713 122.683 107.798 122.901 107.901 123.108C107.837 122.898 107.797 122.679 107.783 122.458ZM102.058 85.6042C102.583 87.3149 103.264 88.9655 104.09 90.5322C104.486 91.2737 104.983 91.947 105.565 92.5298C106.085 93.072 106.769 93.3949 107.491 93.4399C108.214 93.4696 108.922 93.2139 109.482 92.7209C110.071 92.1829 110.542 91.5118 110.863 90.7553C111.541 89.1127 112 87.3756 112.228 85.5951C107.665 90.3411 102.282 85.7953 102.058 85.6042ZM107.783 122.458H107.648C107.713 122.683 107.798 122.901 107.901 123.108C107.837 122.898 107.797 122.679 107.783 122.458ZM118.613 150.224C117.869 146.342 117.193 142.449 116.584 138.543C115.967 134.644 115.41 130.73 114.873 126.812C114.349 122.894 113.842 118.977 113.394 115.045C112.938 111.118 112.549 107.181 112.228 103.232C112.972 107.114 113.646 111.007 114.252 114.913C114.873 118.813 115.427 122.731 115.967 126.639C116.491 130.562 116.998 134.475 117.442 138.411C117.907 142.338 118.297 146.276 118.613 150.224L124.515 150.224C128.694 145.956 130.034 131.281 128.787 127.377C128.31 125.875 125.166 116.979 124.515 115.678C123.865 114.376 122.749 102.491 123.615 93.7584C123.74 92.8805 123.681 91.9838 123.442 91.1336C123.204 90.2834 122.793 89.5012 122.238 88.844C121.393 87.9128 120.363 87.2003 119.225 86.76C116.976 85.9235 114.606 85.5289 112.228 85.5951C112.435 87.4607 112.24 89.3525 111.658 91.1238C111.354 92.0688 110.837 92.9178 110.153 93.5946C109.405 94.2926 108.443 94.6657 107.453 94.6413C107.365 94.6322 107.276 94.6275 107.187 94.614C107.365 96.839 107.466 99.0732 107.538 101.298C107.622 103.724 107.656 106.154 107.69 108.584C107.707 111.004 107.715 113.434 107.707 115.855L107.698 119.491C107.694 120.096 107.711 120.701 107.72 121.306C107.732 121.611 107.737 121.912 107.766 122.212C107.77 122.298 107.779 122.376 107.783 122.458C108.253 122.462 108.722 122.505 109.186 122.585C109.605 122.656 110.015 122.781 110.407 122.958C110.817 123.122 111.159 123.438 111.37 123.85C111.033 123.646 110.654 123.535 110.268 123.527C109.888 123.501 109.507 123.498 109.127 123.518C108.362 123.55 107.593 123.636 106.815 123.695C106.038 123.759 105.256 123.818 104.466 123.855C103.663 123.908 102.857 123.906 102.054 123.85C102.778 123.45 103.544 123.144 104.335 122.94C105.12 122.718 105.922 122.57 106.731 122.498C107.035 122.471 107.339 122.458 107.648 122.458C107.551 122.094 107.487 121.716 107.415 121.343C107.31 120.742 107.229 120.137 107.153 119.532C107.014 118.321 106.908 117.102 106.836 115.887C106.667 113.457 106.608 111.023 106.575 108.593C106.562 106.158 106.579 103.733 106.667 101.298C106.752 99.0641 106.866 96.8345 107.086 94.6049C106.237 94.4538 105.453 94.0192 104.846 93.3626C104.214 92.6689 103.7 91.8601 103.33 90.9737C102.6 89.281 102.167 87.4574 102.053 85.5951C100.866 86.4485 99.8147 87.5025 98.9393 88.7167C97.8348 90.2143 96.8496 91.8095 95.9943 93.4855C88.0379 108.661 82.1182 138.479 81.6999 144.468C81.5113 146.527 81.904 148.6 82.8267 150.415C83.7494 152.23 85.1592 153.704 86.8717 154.642C86.8675 151.712 86.9858 148.791 87.1507 145.869C87.3069 142.957 87.5436 140.04 87.8098 137.133C88.0971 134.225 88.414 131.317 88.8408 128.428C89.0436 126.981 89.2887 125.534 89.5633 124.096C89.7069 123.381 89.8591 122.662 90.0365 121.957C90.1294 121.593 90.2266 121.243 90.3366 120.892C90.3999 120.719 90.459 120.551 90.5309 120.378C90.6112 120.223 90.683 120.023 90.8436 119.946C90.7221 120.072 90.6407 120.236 90.6112 120.415C90.5647 120.587 90.531 120.76 90.4971 120.942C90.4338 121.302 90.3872 121.661 90.3366 122.021C90.2478 122.74 90.1717 123.468 90.1042 124.191C89.9562 125.638 89.8337 127.09 89.7028 128.542L88.9168 137.251C88.6295 140.154 88.3506 143.057 88.0083 145.96C87.6788 148.854 87.3238 151.753 86.8717 154.642C88.2534 161.664 83.7704 199.636 83.7704 199.636C87.8986 203.495 91.7183 206.726 95.2464 209.41C96.7464 210.553 98.1943 211.598 99.5901 212.546C125.758 230.406 133.959 216.282 134.132 215.981V215.977C129.134 210.221 118.613 150.224 118.613 150.224ZM116.876 94.532C117.211 93.8364 117.644 93.2009 118.16 92.6482C118.687 92.0695 119.326 91.6235 120.032 91.3423C120.742 91.0555 121.524 91.0555 122.234 91.3423C121.587 91.5164 120.972 91.8038 120.413 92.1932C119.882 92.5731 119.389 93.0107 118.942 93.4991C118.013 94.4774 117.197 95.6105 116.196 96.7253C116.3 95.9566 116.531 95.214 116.876 94.532ZM107.783 122.458H107.648C107.713 122.683 107.798 122.901 107.901 123.108C107.837 122.898 107.797 122.679 107.783 122.458ZM107.783 122.458H107.648C107.713 122.683 107.798 122.901 107.901 123.108C107.837 122.898 107.797 122.679 107.783 122.458ZM107.783 122.458H107.648C107.713 122.683 107.798 122.901 107.901 123.108C107.837 122.898 107.797 122.679 107.783 122.458ZM107.783 122.458H107.648C107.713 122.683 107.798 122.901 107.901 123.108C107.837 122.898 107.797 122.679 107.783 122.458ZM107.783 122.458H107.648C107.713 122.683 107.798 122.901 107.901 123.108C107.837 122.898 107.797 122.679 107.783 122.458Z" fill="#A54729"/>
<path d="M107.899 123.106C107.796 122.9 107.712 122.683 107.649 122.459H107.782C107.796 122.679 107.835 122.897 107.899 123.106Z" fill="white"/>
<path d="M107.899 123.106C107.796 122.9 107.712 122.683 107.649 122.459H107.782C107.796 122.679 107.835 122.897 107.899 123.106Z" fill="white"/>
<path d="M119.215 86.7023C122.215 86.5985 125.214 86.5484 128.211 86.4736L137.202 86.3371L137.763 86.3285L137.904 86.3264C137.846 86.2944 138.239 86.3862 138.214 86.4402C138.257 86.4792 138.294 86.5261 138.322 86.5787C138.347 86.6238 138.368 86.6712 138.385 86.7204C138.423 86.8373 138.454 86.9573 138.476 87.0791C138.559 87.5061 138.602 87.908 138.648 88.3156C138.736 89.127 138.804 89.9337 138.87 90.7409L139.226 95.5789C139.439 98.8036 139.677 102.025 139.859 105.25L140.966 124.597C141.156 127.821 141.36 131.045 141.619 134.263C141.866 137.483 142.125 140.702 142.453 143.913C143.066 150.34 143.838 156.749 144.716 163.138C145.599 169.525 146.56 175.897 147.709 182.226C148.819 188.553 150.266 194.805 152.042 200.953C152.924 204.007 154.031 206.98 155.352 209.844C156.013 211.252 156.793 212.591 157.684 213.844C158.532 215.081 159.632 216.092 160.899 216.8L160.931 216.817C161.012 216.858 161.08 216.922 161.128 217.003C161.176 217.083 161.203 217.177 161.204 217.273C161.205 217.368 161.181 217.463 161.135 217.545C161.089 217.627 161.022 217.693 160.943 217.736C159.882 218.292 158.761 218.703 157.606 218.96C157.045 219.117 156.473 219.193 155.907 219.313C155.337 219.39 154.767 219.472 154.196 219.534C151.915 219.732 149.621 219.691 147.347 219.412C145.083 219.157 142.839 218.737 140.628 218.153C139.53 217.842 138.437 217.51 137.346 217.182L134.117 216.037C134.11 216.035 134.103 216.031 134.098 216.026C134.092 216.021 134.088 216.014 134.084 216.007C134.081 216 134.079 215.993 134.079 215.985C134.078 215.977 134.079 215.969 134.081 215.962C134.086 215.947 134.096 215.935 134.109 215.928C134.122 215.921 134.137 215.919 134.152 215.923L137.417 216.909C138.517 217.183 139.616 217.46 140.718 217.716C142.926 218.191 145.159 218.523 147.404 218.712C149.637 218.907 151.883 218.877 154.111 218.622C154.664 218.55 155.215 218.459 155.765 218.374C156.307 218.247 156.86 218.163 157.392 218.001C158.452 217.743 159.478 217.348 160.449 216.825L160.493 217.761C159.069 217.01 157.825 215.916 156.856 214.564C155.893 213.273 155.053 211.881 154.35 210.408C152.969 207.498 151.818 204.468 150.909 201.349C149.124 195.15 147.708 188.834 146.669 182.44C144.458 169.701 143.265 156.815 142.089 143.953L140.364 124.648L139.553 114.99C139.293 111.769 139.096 108.544 138.875 105.321C138.655 102.098 138.504 98.8696 138.309 95.6467L138.006 90.8168C137.949 90.0138 137.889 89.2105 137.812 88.416C137.773 88.0213 137.729 87.6197 137.67 87.2533C137.658 87.1765 137.642 87.1006 137.621 87.0259C137.619 87.0141 137.615 87.0112 137.626 87.0297C137.644 87.06 137.666 87.0868 137.692 87.109C137.651 87.1434 138.018 87.23 137.938 87.1981L137.797 87.196L137.234 87.1875L128.221 87.0509C125.217 86.9761 122.215 86.9261 119.214 86.8222C119.2 86.8216 119.186 86.815 119.176 86.8038C119.166 86.7926 119.161 86.7776 119.161 86.762C119.161 86.7465 119.166 86.7316 119.176 86.7204C119.187 86.7093 119.2 86.7028 119.215 86.7023Z" fill="#A54729"/>
<path d="M132.409 94.0098C133.381 96.0359 134.192 98.0564 135.188 99.9445C135.662 100.884 136.22 101.77 136.854 102.591C137.481 103.433 138.34 104.039 139.307 104.321C138.764 104.436 138.203 104.386 137.686 104.177C137.163 103.964 136.678 103.656 136.252 103.266C135.424 102.497 134.735 101.571 134.219 100.534C133.701 99.5298 133.286 98.4683 132.982 97.3678C132.661 96.2787 132.469 95.1505 132.409 94.0098Z" fill="#A54729"/>
<path d="M122.233 88.8441C123.622 88.8883 124.989 89.0129 126.351 89.1565L130.419 89.6125C131.094 89.699 131.769 89.7746 132.444 89.8394C133.117 89.9215 133.792 89.9696 134.464 90.0254C135.133 90.0781 135.804 90.0945 136.474 90.0743C136.805 90.0692 137.135 90.0301 137.46 89.9573C137.791 89.9074 138.099 89.7416 138.334 89.4854C138.176 89.8393 137.903 90.1184 137.566 90.2694C137.243 90.4392 136.904 90.5691 136.554 90.6569C135.866 90.8257 135.166 90.9275 134.461 90.9613C133.072 91.0265 131.681 90.974 130.3 90.8042C128.927 90.6385 127.564 90.3959 126.216 90.0774C124.862 89.7712 123.531 89.359 122.233 88.8441Z" fill="#A54729"/>
<path d="M129.477 86.7623C129.587 87.3033 129.645 87.8553 129.65 88.4092C129.657 88.9338 129.64 89.4585 129.598 89.9812C129.555 90.4985 129.499 91.0072 129.429 91.5174C129.358 92.0334 129.27 92.5273 129.218 93.1075C128.859 92.6683 128.627 92.1246 128.554 91.5445C128.462 90.9955 128.44 90.4356 128.488 89.8802C128.532 89.3333 128.632 88.7934 128.786 88.2705C128.94 87.731 129.173 87.2217 129.477 86.7623Z" fill="#A54729"/>
<path d="M132.129 86.7623C132.299 87.2981 132.396 87.8582 132.414 88.4243C132.435 88.9739 132.403 89.5245 132.318 90.067C132.231 90.5859 132.111 91.098 131.96 91.5998C131.893 91.8184 131.858 92.0465 131.855 92.2765C131.841 92.5305 131.881 92.8077 131.87 93.1075C131.656 92.9198 131.473 92.6942 131.33 92.4403C131.183 92.1583 131.1 91.8432 131.087 91.5203C131.08 90.9662 131.124 90.4126 131.22 89.8682C131.302 89.3438 131.411 88.8248 131.547 88.3139C131.685 87.7742 131.88 87.2535 132.129 86.7623Z" fill="#A54729"/>
<path d="M143.356 154.647V154.624L139.219 102.905L139.207 102.718L138.163 89.7178L137.926 86.7601V80.0118C138.18 82.131 139.143 84.0776 140.635 85.4859C142.87 87.5017 146.935 88.6256 154.299 85.5723C155.073 85.2538 155.88 84.8852 156.729 84.4712C156.729 84.4712 156.674 87.3015 156.839 92.2568C157.012 97.467 157.435 105.025 158.428 114.112V114.117L158.432 114.171C158.609 115.791 158.805 117.458 159.019 119.172C157.578 120.01 156.594 121.156 156.75 122.722C156.815 123.428 156.925 124.129 157.08 124.819L147.116 133.861L152.098 138.338L160.481 129.415C160.549 129.843 160.621 130.275 160.692 130.712C159.167 132.386 157.663 134.198 157.663 134.844C157.658 135.117 157.715 135.386 157.828 135.631C156.746 136.464 155.698 137.333 154.633 138.188C154.101 138.611 153.581 139.053 153.057 139.485L151.688 140.627C150.459 139.485 149.216 138.361 147.974 137.237L146.009 135.481L144.412 134.061C146.449 132.022 148.473 129.975 150.471 127.895C151.536 126.799 152.584 125.688 153.632 124.578C154.663 123.45 155.719 122.344 156.733 121.193C155.588 122.194 154.481 123.236 153.357 124.255C152.242 125.292 151.13 126.33 150.032 127.381C147.826 129.474 145.65 131.608 143.483 133.747L143.128 134.102L143.504 134.434L145.485 136.168L147.476 137.897C148.807 139.044 150.137 140.186 151.485 141.31L151.688 141.483L151.874 141.31L153.378 139.908C153.877 139.44 154.38 138.975 154.87 138.498C155.854 137.542 156.856 136.605 157.828 135.631C158.17 136.373 159.011 136.609 159.792 135.936C160.008 135.749 160.574 135.276 161.36 134.603C162.678 142.038 164.381 149.937 166.561 158.028C166.561 158.028 167.93 166.31 143.356 154.647Z" fill="#A54729"/>
<path d="M183.471 98.5181C183.318 99.7741 183.028 101.007 182.609 102.19C182.195 103.078 180.653 104.502 178.671 106.076C178.477 105.294 178.27 104.502 178.021 103.737C177.526 102.187 176.923 100.68 176.216 99.228C175.528 97.7696 174.722 96.3794 173.808 95.0734C174.864 98.1359 176.018 101.098 176.968 104.129C177.26 105.007 177.525 105.893 177.763 106.786C174.801 109.057 171.171 111.509 168.818 113.061C168.888 112.876 168.941 112.684 168.978 112.488C169.05 112.074 169.147 111.646 169.185 111.223C169.215 110.795 169.24 110.367 169.261 109.944L169.249 108.665C169.167 106.973 168.973 105.29 168.666 103.628C168.357 101.974 167.969 100.338 167.504 98.7275C167.052 97.1138 166.494 95.5369 165.835 94.0087C166.067 95.6832 166.363 97.326 166.667 98.9641L167.575 103.856C167.875 105.489 168.144 107.121 168.382 108.752L168.535 109.981L168.636 111.209C168.678 111.623 168.657 112.024 168.674 112.442C168.682 112.649 168.671 112.857 168.64 113.061L168.632 113.184L168.417 113.323C168.265 113.255 168.289 113.566 168.142 113.502C162.066 111.009 158.432 114.171 158.432 114.171L158.428 114.117V114.112L156.839 92.2568C158.499 85.3767 160.692 82.4236 160.692 82.4236C160.692 82.4236 160.811 88.207 171.953 87.2742C171.995 87.4153 172.046 87.5609 172.105 87.711C172.168 87.8749 172.236 88.0433 172.312 88.2025C173.002 89.5898 173.909 90.8395 174.991 91.8973C175.624 92.5312 176.354 93.041 177.15 93.4035C178.269 93.9504 179.449 94.336 180.661 94.5502C180.938 94.589 181.202 94.699 181.431 94.8708C181.659 95.0427 181.846 95.2714 181.975 95.5376C182.309 96.2248 182.825 97.2622 183.471 98.5181Z" fill="#A54729"/>
<path d="M149.277 192.528C149.838 192.813 150.344 193.154 150.877 193.445C151.43 193.701 151.934 194.034 152.49 194.265C153.577 194.776 154.682 195.221 155.799 195.659C156.356 195.886 156.909 196.14 157.482 196.335L158.34 196.641C158.629 196.733 158.924 196.798 159.218 196.87C159.806 197.012 160.403 197.109 161.004 197.161C161.604 197.227 162.208 197.255 162.811 197.246C163.414 197.249 164.016 197.243 164.618 197.223C165.219 197.205 165.818 197.225 166.418 197.196C167.618 197.167 168.816 197.101 170.015 197.057C172.416 196.994 174.82 196.88 177.265 196.91C177.279 196.911 177.292 196.916 177.302 196.926C177.312 196.935 177.319 196.948 177.321 196.963C177.322 196.977 177.319 196.992 177.312 197.004C177.305 197.016 177.293 197.025 177.28 197.029C174.928 197.743 172.51 198.181 170.07 198.335C168.849 198.402 167.625 198.4 166.405 198.329C165.181 198.28 163.963 198.137 162.758 197.9C162.154 197.806 161.556 197.669 160.955 197.564L159.153 197.252C158.548 197.174 157.946 197.071 157.337 196.978C156.725 196.899 156.119 196.776 155.521 196.611C154.92 196.455 154.333 196.242 153.766 195.974C153.192 195.723 152.635 195.428 152.099 195.093C151.824 194.94 151.56 194.763 151.312 194.562C151.056 194.375 150.805 194.179 150.557 193.982C150.078 193.562 149.627 193.107 149.207 192.621C149.198 192.611 149.192 192.597 149.191 192.583C149.19 192.569 149.194 192.555 149.201 192.544C149.209 192.532 149.22 192.524 149.233 192.521C149.245 192.517 149.259 192.518 149.27 192.524L149.277 192.528Z" fill="#A54729"/>
<path d="M151.131 191.111C151.348 191.103 151.553 191.005 151.703 190.837C151.854 190.669 151.938 190.445 151.938 190.212C151.938 189.979 151.854 189.754 151.703 189.587C151.553 189.419 151.348 189.32 151.131 189.312C150.915 189.32 150.709 189.419 150.559 189.587C150.408 189.754 150.324 189.979 150.324 190.212C150.324 190.445 150.408 190.669 150.559 190.837C150.709 191.005 150.915 191.103 151.131 191.111Z" fill="#A54729"/>
<path d="M156.945 193.81C157.161 193.802 157.366 193.704 157.517 193.536C157.667 193.368 157.751 193.144 157.751 192.91C157.751 192.677 157.667 192.453 157.517 192.285C157.366 192.117 157.161 192.019 156.945 192.011C156.728 192.019 156.523 192.117 156.372 192.285C156.222 192.453 156.138 192.677 156.138 192.91C156.138 193.144 156.222 193.368 156.372 193.536C156.523 193.704 156.728 193.802 156.945 193.81Z" fill="#A54729"/>
<path d="M164.362 194.997C164.578 194.989 164.783 194.891 164.934 194.723C165.084 194.555 165.168 194.331 165.168 194.098C165.168 193.864 165.084 193.64 164.934 193.472C164.783 193.305 164.578 193.206 164.362 193.198C164.145 193.206 163.94 193.305 163.789 193.472C163.639 193.64 163.555 193.864 163.555 194.098C163.555 194.331 163.639 194.555 163.789 194.723C163.94 194.891 164.145 194.989 164.362 194.997Z" fill="#A54729"/>
<path d="M172.38 194.566C172.597 194.557 172.802 194.459 172.952 194.291C173.103 194.123 173.187 193.899 173.187 193.666C173.187 193.433 173.103 193.208 172.952 193.041C172.802 192.873 172.597 192.775 172.38 192.766C172.164 192.775 171.958 192.873 171.808 193.041C171.657 193.208 171.573 193.433 171.573 193.666C171.573 193.899 171.657 194.123 171.808 194.291C171.958 194.459 172.164 194.557 172.38 194.566Z" fill="#A54729"/>
<path d="M177.573 106.97L177.327 106.6C177.639 106.359 178.586 105.61 178.877 105.378L179.129 105.745C178.836 105.977 177.887 106.729 177.573 106.97Z" fill="#A54729"/>
<path d="M223.173 76.2007C221.835 76.7143 220.58 77.4504 219.453 78.3823C218.317 79.287 217.364 80.4326 216.655 81.7487L216.401 82.2444C216.32 82.4113 216.261 82.5901 216.19 82.7622L215.782 83.8197C215.524 84.5433 215.193 85.2224 214.888 85.9177C214.242 87.2863 213.577 88.6435 212.869 89.9729C210.052 95.301 207.049 100.503 203.99 105.671L203.785 106.018L203.485 105.755L191.286 95.092L191.75 95.116L183.246 101.264L183.376 100.67C186.101 105.73 189.065 110.636 192.255 115.37C193.846 117.733 195.556 119.999 197.378 122.16C198.287 123.231 199.252 124.245 200.269 125.198C200.78 125.665 201.307 126.109 201.852 126.52C202.132 126.708 202.399 126.929 202.69 127.092C202.963 127.27 203.248 127.424 203.543 127.553C204.138 127.749 204.772 127.753 205.37 127.566C205.999 127.381 206.601 127.102 207.158 126.737C208.299 125.981 209.356 125.086 210.308 124.071C212.228 122.01 213.987 119.783 215.57 117.413C218.758 112.662 221.702 107.727 224.39 102.629C221.847 107.825 219.017 112.852 215.916 117.683C214.35 120.103 212.602 122.381 210.691 124.494C209.721 125.559 208.639 126.501 207.469 127.301C206.867 127.708 206.214 128.022 205.531 128.232C204.814 128.465 204.049 128.466 203.332 128.237C202.993 128.1 202.665 127.931 202.353 127.733C202.037 127.562 201.758 127.339 201.459 127.143C200.885 126.724 200.332 126.272 199.804 125.788C198.761 124.821 197.77 123.79 196.836 122.701C194.985 120.528 193.247 118.247 191.629 115.869C188.388 111.132 185.392 106.206 182.654 101.113L182.459 100.752L182.784 100.519L191.316 94.4164L191.558 94.2435L191.781 94.4404L203.92 105.182L203.415 105.266C206.537 100.159 209.61 95.006 212.491 89.7386C213.212 88.4218 213.915 87.095 214.583 85.7495C214.901 85.07 215.247 84.3991 215.514 83.6991L215.947 82.6474C216.024 82.472 216.089 82.2901 216.176 82.1205L216.448 81.618C217.2 80.297 218.195 79.1557 219.372 78.2643C220.53 77.3659 221.813 76.6694 223.173 76.2007Z" fill="#A54729"/>
<path d="M204.513 110.929C204.394 110.93 204.276 110.902 204.17 110.845C204.063 110.788 203.97 110.705 203.899 110.602C203.748 110.401 203.631 110.173 203.554 109.928C203.399 109.445 203.304 108.942 203.27 108.432C203.243 108.179 203.231 107.926 203.227 107.673C203.215 107.419 203.215 107.166 203.221 106.914C203.22 106.406 203.259 105.905 203.284 105.399L204.12 105.538C204.027 106.014 203.92 106.493 203.853 106.973C203.811 107.214 203.777 107.455 203.754 107.696C203.724 107.938 203.701 108.18 203.693 108.422C203.656 108.904 203.677 109.389 203.757 109.864C203.795 110.1 203.872 110.327 203.983 110.534C204.036 110.64 204.112 110.732 204.204 110.8C204.296 110.869 204.402 110.913 204.513 110.929Z" fill="#A54729"/>
<path d="M205.139 175.497L199.443 233.241C197.486 234.543 195.341 235.488 193.097 236.035H193.093C190.094 236.737 186.986 236.687 184.008 235.889H184.004C180.22 234.874 176.695 232.962 173.686 230.292L177.273 196.97L181.224 160.294C185.073 163.869 189.209 167.07 193.583 169.859C197.225 172.201 201.102 174.092 205.139 175.497Z" fill="#A54729"/>
<path d="M243.049 232.586C241.544 235.015 239.225 236.485 236.58 237.318C229.359 239.602 219.737 237.154 217.832 236.626H217.823C217.608 236.567 217.494 236.531 217.494 236.531L208.329 176.407C216.192 178.282 224.449 177.308 231.48 170.127L243.049 232.586Z" fill="#A54729"/>
<path d="M201.298 174.079L196.008 231.475L196.428 231.52L201.718 174.124L201.298 174.079Z" fill="white"/>
<path d="M190.951 229.638C181.691 229.638 174.433 223.234 174.338 223.149L174.609 222.799C174.732 222.91 187.042 233.764 199.953 226.922L200.14 227.331C197.284 228.856 194.138 229.646 190.951 229.638Z" fill="white"/>
<path d="M226.9 230.506C223.234 230.514 219.596 229.826 216.152 228.473L216.315 228.053C216.451 228.114 230.124 234.067 241.579 225.136L241.827 225.504C237.473 228.843 232.243 230.595 226.9 230.506Z" fill="white"/>
<path d="M191.448 95.5131C190.978 95.0404 190.525 94.5474 190.09 94.034C189.643 93.5268 189.229 92.9878 188.85 92.4205L188.309 91.5294C188.106 91.2165 187.97 90.8587 187.911 90.4819C187.88 90.2912 187.864 90.0977 187.865 89.904L187.874 89.3873C187.875 89.0519 187.86 88.7176 187.835 88.3872C187.8 87.7434 187.664 87.1106 187.432 86.5159C187.376 86.381 187.306 86.2531 187.224 86.1342C187.142 86.0057 187.033 85.8384 186.947 85.6841C186.771 85.3669 186.624 85.0322 186.508 84.6847L186.151 83.7302C186.029 83.4137 185.881 83.1145 185.753 82.803L184.964 80.9471L184.95 80.9135C184.927 80.859 184.916 80.7997 184.916 80.7399L184.916 80.7355L184.964 80.9422C184.574 80.0653 184.085 79.2435 183.508 78.4952C183.395 78.3324 183.253 78.196 183.09 78.0941C182.928 77.9922 182.747 77.9271 182.56 77.9028C182.485 77.9027 182.411 77.9218 182.345 77.9583C182.278 77.9948 182.22 78.0477 182.176 78.1128C182.085 78.289 182.042 78.4889 182.05 78.6902C182.124 79.6716 182.345 80.6337 182.705 81.5389L183.211 82.9556C183.3 83.1983 183.375 83.4463 183.437 83.6985C183.47 83.8422 183.474 83.9921 183.447 84.1375C183.42 84.2828 183.364 84.42 183.282 84.5392C183.112 84.7641 182.875 84.9191 182.611 84.9782C182.347 85.0372 182.073 84.9967 181.833 84.8635C181.393 84.6214 181.006 84.2793 180.7 83.8607C180.087 83.0744 179.546 82.2262 179.084 81.328C178.85 80.8837 178.626 80.4339 178.411 79.9785C178.325 79.7753 178.212 79.5867 178.075 79.4183C177.939 79.2684 177.778 79.1463 177.601 79.0578C177.247 78.8863 176.847 78.8618 176.478 78.9889C176.301 79.0501 176.137 79.1485 175.996 79.2785C175.854 79.4084 175.738 79.5674 175.654 79.7461L175.623 79.7989C175.634 79.7916 175.641 79.7804 175.645 79.7675L175.059 79.9555C174.939 79.8768 174.809 79.8179 174.673 79.7807C174.576 79.7484 174.472 79.7505 174.377 79.787C174.301 79.8308 174.242 79.9028 174.211 79.9897C174.184 80.0436 174.167 80.1216 174.142 80.1863L174.097 80.4252C174.083 80.5001 174.052 80.5703 174.008 80.6297C173.963 80.6892 173.906 80.7362 173.841 80.7668C173.776 80.7975 173.705 80.8108 173.634 80.8057C173.563 80.8006 173.494 80.7772 173.434 80.7375L173.43 80.7346C173.349 80.6829 173.258 80.6525 173.164 80.646C173.136 80.6443 173.109 80.6501 173.084 80.663C173.059 80.6759 173.037 80.6953 173.021 80.7196C172.881 80.9559 172.804 81.2288 172.797 81.5088C172.755 82.2302 172.789 82.9543 172.897 83.6676C172.907 83.7515 172.898 83.8369 172.87 83.916C172.842 83.9952 172.796 84.0656 172.737 84.1207L172.703 84.1514C172.592 84.2672 172.499 84.401 172.426 84.548C172.343 84.7188 172.281 84.9009 172.243 85.0895C172.164 85.4919 172.161 85.9071 172.232 86.311C172.411 87.1863 172.732 88.0205 173.182 88.7746C173.644 89.5599 174.178 90.2922 174.778 90.9601C175.341 91.6496 176.004 92.2353 176.742 92.6939C177.513 93.1287 178.317 93.4936 179.144 93.7849C179.556 93.9313 179.975 94.0544 180.398 94.1538L180.719 94.2186C180.849 94.2428 180.977 94.2803 181.1 94.3305C181.346 94.4296 181.571 94.5787 181.764 94.7698C181.953 94.959 182.107 95.1857 182.217 95.4375L182.516 96.0839L183.106 97.382L184.29 99.9813C184.295 99.9929 184.296 100.006 184.292 100.019C184.289 100.031 184.281 100.041 184.271 100.048C184.26 100.054 184.248 100.056 184.236 100.053C184.225 100.05 184.214 100.042 184.208 100.031C183.719 99.2204 183.246 98.399 182.789 97.567L182.102 96.3193L181.761 95.6928C181.648 95.4705 181.485 95.2811 181.289 95.1408C181.092 95.0005 180.867 94.9136 180.633 94.8873C180.524 94.8729 180.403 94.8628 180.29 94.8436C179.831 94.7751 179.378 94.6713 178.933 94.533C178.046 94.2643 177.181 93.9151 176.348 93.4891C175.51 93.0206 174.751 92.405 174.102 91.6677C173.443 90.9606 172.853 90.1827 172.342 89.3461C171.811 88.4796 171.439 87.5116 171.247 86.4943C171.151 85.9473 171.163 85.3846 171.281 84.8428C171.345 84.5611 171.445 84.2901 171.577 84.0373C171.719 83.7595 171.91 83.5147 172.141 83.3169L171.947 83.8005C171.845 83.0032 171.827 82.1958 171.895 81.3942C171.924 80.9075 172.093 80.4426 172.379 80.0646C172.482 79.947 172.607 79.8544 172.746 79.7928C172.884 79.7313 173.033 79.7022 173.183 79.7076C173.446 79.7207 173.699 79.8121 173.916 79.9716L173.248 80.281L173.323 79.9319C173.36 79.808 173.406 79.6872 173.46 79.5702C173.589 79.291 173.809 79.0731 174.079 78.9585C174.337 78.8621 174.618 78.8575 174.879 78.9454C175.103 79.0153 175.315 79.124 175.506 79.2673L174.921 79.4553C174.944 79.4002 174.97 79.3472 175.001 79.2967L174.97 79.3493C175.109 79.0816 175.296 78.8462 175.519 78.6567C175.743 78.4671 176 78.3272 176.274 78.2449C176.815 78.0834 177.393 78.1523 177.888 78.4375C178.131 78.5783 178.347 78.7659 178.526 78.991C178.688 79.2141 178.819 79.4608 178.916 79.7237C179.099 80.1841 179.295 80.638 179.504 81.0855C179.905 81.9848 180.392 82.8364 180.957 83.6261C181.221 84.0151 181.56 84.3369 181.952 84.5687C182.13 84.6757 182.337 84.7132 182.537 84.6751C182.738 84.6369 182.92 84.5254 183.053 84.3593C183.112 84.2757 183.152 84.1783 183.17 84.075C183.188 83.9716 183.183 83.8651 183.156 83.7642C183.094 83.5286 183.02 83.2969 182.934 83.0703C182.765 82.6031 182.577 82.1388 182.394 81.6712C181.979 80.7311 181.696 79.7298 181.555 78.7002C181.528 78.3945 181.582 78.0868 181.711 77.8128C181.794 77.6644 181.907 77.5385 182.042 77.4449C182.177 77.3514 182.331 77.2927 182.491 77.2736C182.79 77.2376 183.093 77.3069 183.353 77.4711C183.584 77.6098 183.797 77.78 183.987 77.9777C184.668 78.7323 185.242 79.592 185.688 80.5284C185.718 80.586 185.734 80.6506 185.736 80.7165L185.736 80.7354L185.736 80.7399L185.688 80.5329C186.234 81.7999 186.845 83.0541 187.269 84.3627C187.364 84.6675 187.486 84.9616 187.635 85.2405C187.711 85.3838 187.787 85.4993 187.882 85.6586C187.985 85.822 188.072 85.9963 188.142 86.1788C188.389 86.8684 188.524 87.5987 188.541 88.3376C188.555 88.6942 188.553 89.0514 188.534 89.4077L188.499 89.9255C188.49 90.077 188.495 90.2291 188.512 90.3797C188.659 91.0067 188.908 91.6005 189.248 92.1332C189.933 93.2916 190.691 94.3978 191.517 95.4441C191.524 95.454 191.528 95.4667 191.527 95.4794C191.526 95.4922 191.521 95.5042 191.512 95.5129C191.504 95.5217 191.492 95.5265 191.48 95.5266C191.468 95.5266 191.457 95.5218 191.448 95.5131Z" fill="#A54729"/>
<path d="M175.28 79.6091C175.535 80.1749 175.753 80.739 176.01 81.2826C176.266 81.8259 176.532 82.3592 176.83 82.8727C177.121 83.3908 177.44 83.8898 177.776 84.3794C178.113 84.8694 178.476 85.3392 178.836 85.8323C177.856 85.1399 177.034 84.2186 176.431 83.1369C175.812 82.0658 175.419 80.8615 175.28 79.6091Z" fill="#A54729"/>
<path d="M173.677 80.3544C173.848 81.0819 173.957 81.8138 174.163 82.4993C174.367 83.1859 174.64 83.8462 174.978 84.4682C175.317 85.0896 175.718 85.6693 176.174 86.1968C176.646 86.7118 177.139 87.2505 177.59 87.8139C177.011 87.4019 176.454 86.9567 175.919 86.4802C174.846 85.4654 174.106 84.104 173.811 82.5992C173.684 81.8593 173.639 81.1058 173.677 80.3544Z" fill="#A54729"/>
<path d="M172.421 83.7348C172.659 84.2107 172.872 84.7009 173.059 85.203C173.253 85.6807 173.48 86.1416 173.74 86.5816C174.006 87.0227 174.294 87.4473 174.604 87.8531C174.915 88.2805 175.2 88.7284 175.458 89.1941C175.062 88.8596 174.685 88.4989 174.33 88.1139C173.955 87.7382 173.623 87.3144 173.344 86.8518C173.068 86.3809 172.857 85.8699 172.715 85.3345C172.584 84.8089 172.486 84.2745 172.421 83.7348Z" fill="#A54729"/>
<path d="M171.885 124.355C171.192 125.404 170.409 126.381 169.547 127.274C168.703 128.186 167.83 129.066 166.947 129.932C165.17 131.651 163.334 133.298 161.488 134.927L160.104 136.143C159.842 136.4 159.525 136.584 159.181 136.677C158.99 136.725 158.792 136.732 158.598 136.698C158.404 136.663 158.219 136.587 158.052 136.475C157.728 136.245 157.489 135.9 157.379 135.499C157.325 135.311 157.295 135.117 157.289 134.921C157.285 134.798 157.299 134.676 157.33 134.559C157.356 134.46 157.391 134.364 157.434 134.272C157.738 133.678 158.102 133.123 158.52 132.615C160.079 130.616 161.865 128.908 163.565 127.085L163.47 127.611L161.981 124.224L162.202 124.447L159.944 123.458L160.492 122.933C160.76 124.069 160.811 125.252 160.64 126.41C160.59 126.705 160.516 126.995 160.418 127.277C160.323 127.6 160.16 127.895 159.942 128.139C159.809 128.286 159.644 128.395 159.462 128.455C159.28 128.515 159.086 128.525 158.9 128.483C158.579 128.396 158.289 128.21 158.067 127.946C157.371 127.033 156.908 125.939 156.726 124.773C156.615 124.221 156.532 123.663 156.478 123.101C156.385 122.503 156.438 121.889 156.632 121.32C157.111 120.253 157.928 119.406 158.936 118.932C159.87 118.434 160.856 118.056 161.873 117.806C163.878 117.298 165.926 117.012 167.985 116.952C165.949 117.161 163.934 117.569 161.965 118.17C160.994 118.471 160.055 118.878 159.16 119.383C158.281 119.826 157.575 120.588 157.167 121.537C157.021 122.015 156.995 122.527 157.094 123.02C157.161 123.554 157.256 124.085 157.377 124.608C157.496 125.124 157.654 125.628 157.849 126.116C158.022 126.582 158.272 127.011 158.588 127.38C158.712 127.529 158.872 127.636 159.051 127.689C159.116 127.703 159.184 127.698 159.246 127.674C159.309 127.649 159.364 127.607 159.406 127.551C159.656 127.169 159.813 126.726 159.862 126.261C159.994 125.228 159.939 124.176 159.702 123.165L159.512 122.322L160.25 122.64L162.513 123.617L162.663 123.681L162.733 123.84L164.228 127.224L164.356 127.514L164.133 127.751C162.442 129.534 160.66 131.255 159.118 133.164C158.738 133.612 158.403 134.101 158.117 134.624C158.092 134.675 158.071 134.728 158.055 134.783C158.042 134.819 158.036 134.857 158.039 134.896C158.041 135.021 158.058 135.145 158.089 135.265C158.145 135.487 158.271 135.682 158.446 135.815C158.648 135.924 158.877 135.959 159.099 135.914C159.321 135.868 159.523 135.746 159.673 135.565L161.095 134.394C162.987 132.834 164.855 131.244 166.686 129.606C167.606 128.793 168.515 127.965 169.397 127.106C170.292 126.261 171.125 125.341 171.885 124.355Z" fill="#A54729"/>
<path d="M159.889 123.091L159.584 121.234L160 121.156L160.305 123.012L159.889 123.091Z" fill="#A54729"/>
<path d="M163.748 123.807H162.359V124.262H163.748V123.807Z" fill="#A54729"/>
<path d="M165.226 125.725L163.705 127.253L163.992 127.585L165.514 126.057L165.226 125.725Z" fill="#A54729"/>
<path d="M152.11 138.646L146.788 133.861L156.944 124.645L157.216 124.993L147.446 133.861L152.086 138.032L162.028 127.448L160.187 126.076L160.428 125.702L162.687 127.387L152.11 138.646Z" fill="#A54729"/>
<path d="M263.174 72.7526L261.748 93.5892L260.279 114.348L258.776 135.057L257.245 155.734C256.749 162.63 256.19 169.498 255.654 176.378L254.84 186.696L253.983 197.004C252.857 210.754 251.646 224.512 250.574 238.3L250.466 238.072L256.843 242.229L256.708 242.2C264.369 240.976 272.018 239.667 279.673 238.405L302.624 234.511L302.33 234.854L304.961 193.065L307.697 151.284L310.555 109.514C311.503 95.5896 312.547 81.6731 313.538 67.7526L313.741 68.224L310.001 65.2576L310.355 65.3501L286.847 69.0648L263.174 72.7526ZM263.081 72.6595L286.562 68.4842L310.209 64.3358L310.401 64.3022L310.563 64.4285L314.327 67.3591L314.549 67.5321L314.53 67.8308C313.628 81.7584 312.779 95.6902 311.835 109.614L309.014 151.388L306.071 193.152L303.023 234.908L303.001 235.208L302.729 235.251L279.742 238.893C272.085 240.142 264.421 241.345 256.769 242.633L256.697 242.645L256.634 242.604L250.234 238.487L250.115 238.41L250.126 238.26C251.184 224.451 252.102 210.614 253.105 196.768L253.846 186.38L254.629 176C255.158 169.083 255.664 162.153 256.232 155.251L257.896 134.536L259.587 113.851L261.312 93.2162L263.081 72.6595Z" fill="#A54729"/>
<path d="M256.949 242.434L256.527 242.399L268.405 76.0062L268.567 75.9768L313.998 67.5672L314.07 68.0154L268.801 76.395L256.949 242.434Z" fill="#A54729"/>
<path d="M263.235 72.5098L263.02 72.9018L268.495 76.3965L268.711 76.0045L263.235 72.5098Z" fill="#A54729"/>
<path d="M260.909 287.903C246.861 275.525 251.019 241.23 251.203 239.776L254.971 240.327C254.929 240.661 250.913 273.804 263.318 284.733L260.909 287.903Z" fill="#A54729"/>
<path d="M236.47 281.461L234.758 277.804C249.067 270.032 251.822 236.74 251.849 236.405L255.638 236.746C255.525 238.208 252.676 272.659 236.47 281.461Z" fill="#A54729"/>
<path d="M312.83 281.217C298.782 268.84 302.941 234.544 303.125 233.09L306.892 233.642C306.851 233.975 302.834 267.118 315.238 278.048L312.83 281.217Z" fill="#A54729"/>
<path d="M288.391 274.775L286.679 271.118C301.005 263.337 303.743 230.055 303.769 229.72L307.559 230.06C307.446 231.522 304.598 265.973 288.391 274.775Z" fill="#A54729"/>
<path d="M309.918 145.75L303.975 238.153L307.347 238.405L313.29 146.002L309.918 145.75Z" fill="#A54729"/>
<path d="M258.024 148.38L252.081 240.783L255.453 241.034L261.396 148.631L258.024 148.38Z" fill="#A54729"/>
<path d="M311.264 148.854L259.481 149.766L259.536 153.406L311.32 152.495L311.264 148.854Z" fill="#A54729"/>
<path d="M199.726 253.012C199.631 253.525 199.474 254.023 199.257 254.491C199.074 254.905 198.82 255.278 198.509 255.592C198.446 255.655 198.38 255.714 198.311 255.77C198.097 255.945 197.855 256.076 197.597 256.156C197.468 256.2 197.335 256.229 197.2 256.243L196.845 256.27C196.411 256.325 195.984 256.425 195.569 256.57C194.649 256.797 193.705 256.883 192.763 256.825C191.834 256.798 190.917 256.698 190.008 256.575C188.183 256.325 186.379 256.002 184.566 255.692C183.662 255.533 182.76 255.366 181.862 255.192C180.958 255.033 180.053 254.86 179.153 254.687C175.612 254.022 172.101 253.226 168.598 252.375C168.527 252.357 168.455 252.339 168.383 252.321L168.37 252.316C168.288 252.296 168.215 252.246 168.163 252.175C168.112 252.104 168.085 252.015 168.087 251.925C168.085 251.82 168.098 251.716 168.125 251.615C168.144 251.533 168.168 251.453 168.197 251.374C168.256 251.229 168.325 251.089 168.404 250.955C168.478 250.828 168.561 250.708 168.653 250.596C168.741 250.485 168.836 250.38 168.936 250.282C169.318 249.899 169.746 249.573 170.208 249.313C171.101 248.816 172.04 248.423 173.01 248.139C173.491 248.002 173.973 247.875 174.455 247.766C174.936 247.666 175.427 247.552 175.9 247.465C175.955 247.456 176.005 247.447 176.06 247.433C176.965 247.265 177.869 247.101 178.769 246.91C180.083 246.633 181.397 246.332 182.677 245.932C183.248 245.754 183.805 245.559 184.359 245.336C185.256 244.982 186.095 244.477 186.843 243.839C187.418 243.488 187.883 242.078 188.25 240.276C188.521 238.956 188.741 237.432 188.918 235.957C189.269 233.018 189.455 230.278 189.531 229.81C189.644 229.798 189.759 229.798 189.873 229.81C189.873 229.878 189.455 232.995 189.053 235.962C188.825 237.641 188.605 239.275 188.47 240.271C188.39 240.881 188.339 241.254 188.339 241.259C188.244 242.338 187.784 243.342 187.046 244.08C186.309 244.804 185.461 245.386 184.541 245.8C184.017 246.053 183.481 246.276 182.935 246.469C181.614 246.937 180.272 247.331 178.912 247.647C177.957 247.879 177.001 248.096 176.043 248.298C175.857 248.334 175.672 248.375 175.49 248.416C175.203 248.48 174.919 248.548 174.628 248.612C174.159 248.73 173.698 248.862 173.238 248.999C172.327 249.264 171.445 249.632 170.605 250.095C170.202 250.317 169.825 250.592 169.486 250.914C169.402 250.988 169.326 251.07 169.257 251.16C169.186 251.239 169.122 251.326 169.067 251.42C169.026 251.479 168.991 251.543 168.962 251.611C171.324 252.229 173.688 252.839 176.056 253.44C177.117 253.713 178.173 253.981 179.234 254.25C180.125 254.464 181.021 254.677 181.912 254.882C182.812 255.073 183.708 255.255 184.608 255.428C185.153 255.533 185.703 255.633 186.252 255.72C186.89 255.824 187.532 255.92 188.174 255.997C188.796 256.075 189.417 256.138 190.042 256.184C190.95 256.257 191.863 256.297 192.763 256.275C193.654 256.274 194.54 256.147 195.4 255.897C195.505 255.865 195.611 255.829 195.721 255.792C195.722 255.791 195.724 255.789 195.727 255.788C195.729 255.788 195.731 255.787 195.733 255.788C196.077 255.66 196.433 255.574 196.794 255.533L196.98 255.519L197.124 255.506C197.217 255.495 197.309 255.475 197.398 255.446C197.578 255.386 197.747 255.292 197.897 255.169C198.52 254.562 198.936 253.746 199.076 252.853C199.267 251.927 199.316 250.974 199.219 250.032C199.172 249.563 199.085 249.1 198.962 248.648C198.932 248.534 198.89 248.425 198.856 248.316C198.814 248.198 198.771 248.066 198.738 247.943C198.675 247.695 198.625 247.442 198.59 247.188C198.465 246.196 198.428 245.193 198.48 244.193C198.497 243.852 198.535 242.105 198.586 239.925C198.611 238.742 198.64 237.427 198.674 236.139C198.75 232.931 198.839 229.887 198.902 229.432C198.886 229.892 198.856 232.931 198.831 236.144C198.822 237.086 198.818 238.046 198.81 238.956L198.839 236.144L198.881 231.703C198.873 232.968 198.86 234.592 198.843 236.144C198.831 237.591 198.818 238.965 198.805 239.916C198.805 240.035 198.805 240.148 198.801 240.253C198.805 240.144 198.805 240.03 198.801 239.916L198.788 241.204C198.793 241.204 198.797 240.945 198.801 240.499C198.793 242.41 198.788 243.889 198.801 244.198C198.814 245.17 198.9 246.14 199.059 247.097C199.103 247.326 199.161 247.553 199.232 247.775C199.264 247.885 199.302 247.993 199.346 248.098C199.393 248.216 199.443 248.334 199.481 248.457C199.644 248.942 199.757 249.444 199.819 249.954C199.951 250.972 199.92 252.006 199.726 253.012Z" fill="#A54729"/>
<path d="M195.471 246.266C195.583 246.605 195.619 246.967 195.575 247.323C195.536 247.691 195.418 248.043 195.229 248.352C195.039 248.665 194.775 248.917 194.465 249.083C194.168 249.247 193.838 249.333 193.504 249.332C193.783 249.18 194.051 249.004 194.304 248.806C194.542 248.619 194.746 248.387 194.906 248.121C195.224 247.558 195.418 246.923 195.471 246.266Z" fill="#A54729"/>
<path d="M198.187 255.328C198.187 255.328 200.277 256.452 198.553 260.564C198.553 260.564 198.538 262.181 193.305 261.148L166.769 257.484C166.769 257.484 165.368 252.535 169.557 252.187L176.137 253.78C176.137 253.78 174.994 249.28 175.623 247.951C176.483 246.803 177.672 245.995 179.004 245.652C180.336 245.31 181.736 245.453 182.985 246.059C182.985 246.059 181.887 252.87 186.508 255.896C186.508 255.896 193.766 256.511 198.187 255.328Z" fill="#A54729"/>
<path d="M231.37 245.113C231.351 245.118 230.472 233.357 230.474 233.378C230.572 234.356 231.522 247.119 231.556 248.098C231.606 249.069 231.584 250.042 231.488 251.009C231.46 251.243 231.419 251.474 231.364 251.702C231.338 251.816 231.304 251.919 231.27 252.031C231.233 252.154 231.19 252.276 231.16 252.401C231.029 252.896 230.949 253.404 230.922 253.918C230.855 254.943 230.954 255.972 231.215 256.961C231.346 257.465 231.536 257.95 231.781 258.403C232.03 258.886 232.383 259.298 232.811 259.604C233.036 259.763 233.287 259.875 233.551 259.937C233.683 259.969 233.817 259.988 233.952 259.993L234.308 259.99C234.744 260.011 235.177 260.078 235.6 260.191C236.532 260.345 237.48 260.359 238.416 260.231C239.339 260.13 240.246 259.961 241.148 259.768C242.949 259.377 244.73 258.919 246.514 258.469C247.405 258.242 248.295 258.007 249.182 257.762C250.073 257.534 250.961 257.29 251.849 257.05C255.405 256.096 258.928 255.007 262.432 253.861L262.446 253.856C262.527 253.83 262.596 253.774 262.643 253.699C262.69 253.624 262.712 253.534 262.704 253.444C262.697 253.34 262.677 253.237 262.644 253.138C262.619 253.058 262.589 252.979 262.555 252.903C262.49 252.762 262.412 252.627 262.323 252.503C262.241 252.381 262.148 252.267 262.048 252.162C261.954 252.057 261.853 251.958 261.746 251.869C261.339 251.517 260.89 251.226 260.412 251.002C259.489 250.574 258.526 250.253 257.54 250.046C257.053 249.948 256.565 249.856 256.076 249.783C255.588 249.722 255.093 249.647 254.612 249.597C253.646 249.488 252.679 249.39 251.717 249.264C249.797 249.052 247.896 248.67 246.034 248.121C245.116 247.84 244.247 247.401 243.46 246.82C241.555 245.856 240.077 234.05 239.846 233.034C239.733 233.03 239.619 233.04 239.507 233.063C239.487 233.068 241.791 244.339 241.794 244.36C241.96 245.43 242.486 246.397 243.272 247.076C244.055 247.742 244.939 248.257 245.884 248.6C247.75 249.269 249.672 249.741 251.623 250.011C252.59 250.167 253.557 250.314 254.525 250.437C255.013 250.495 255.481 250.576 255.959 250.643C256.433 250.722 256.903 250.819 257.371 250.921C258.297 251.116 259.201 251.415 260.07 251.812C260.487 252.002 260.88 252.247 261.24 252.542C261.327 252.61 261.409 252.687 261.484 252.769C261.561 252.844 261.631 252.927 261.693 253.016C261.754 253.097 261.808 253.184 261.852 253.277C261.872 253.318 261.89 253.36 261.904 253.404C261.919 253.436 261.929 253.503 261.929 253.479L262.201 253.063C258.719 254.267 255.231 255.453 251.738 256.62C250.862 256.901 249.986 257.186 249.107 257.455C248.226 257.719 247.341 257.967 246.455 258.21C244.686 258.702 242.894 259.094 241.087 259.382C240.185 259.521 239.279 259.634 238.377 259.682C237.489 259.75 236.597 259.691 235.723 259.505C235.261 259.368 234.788 259.283 234.309 259.25L234.121 259.252L233.98 259.25C233.886 259.246 233.793 259.233 233.702 259.21C233.517 259.166 233.342 259.085 233.185 258.972C232.523 258.415 232.055 257.634 231.856 256.754C231.604 255.846 231.492 254.9 231.523 253.952C231.539 253.481 231.595 253.011 231.692 252.551C231.713 252.435 231.747 252.325 231.774 252.212C231.806 252.088 231.842 251.956 231.864 251.829C231.912 251.577 231.945 251.322 231.964 251.065C232.024 250.066 231.994 249.064 231.875 248.072C231.763 247.087 230.679 234.342 230.474 233.378L231.37 245.113Z" fill="#A54729"/>
<path d="M235.013 249.906C234.924 250.252 234.912 250.617 234.979 250.969C235.042 251.332 235.184 251.675 235.393 251.969C235.603 252.266 235.883 252.497 236.203 252.638C236.511 252.78 236.845 252.84 237.178 252.813C236.89 252.683 236.611 252.528 236.345 252.35C236.096 252.181 235.877 251.966 235.7 251.713C235.345 251.176 235.11 250.558 235.013 249.906Z" fill="#A54729"/>
<path d="M232.906 259.154C232.906 259.154 230.895 260.436 232.888 264.405C232.888 264.405 233.01 266.017 238.161 264.583L264.386 258.886C264.386 258.886 265.455 253.843 261.254 253.818L254.796 255.913C254.796 255.913 255.638 251.337 254.922 250.06C253.988 248.981 252.748 248.266 251.397 248.027C250.046 247.788 248.659 248.038 247.454 248.739C247.454 248.739 249.001 255.448 244.592 258.821C244.592 258.821 237.393 259.993 232.906 259.154Z" fill="#A54729"/>
<path d="M246.485 69.3755C247.711 83.4269 248.511 97.4895 249.188 111.555C249.89 125.621 250.357 139.692 250.726 153.766C251.086 167.841 251.307 181.919 251.388 196C251.415 210.083 251.385 224.168 251.008 238.262L250.986 239.062L250.318 238.987L244.978 238.387C243.2 238.165 241.42 237.964 239.642 237.722C241.433 237.666 243.223 237.651 245.013 237.614L250.382 237.572L249.692 238.297C248.671 224.24 247.997 210.174 247.38 196.107C246.807 182.038 246.383 167.965 246.109 153.889C245.835 139.812 245.657 125.733 245.715 111.648C245.747 97.5629 245.904 83.4748 246.485 69.3755Z" fill="#A54729"/>
<path d="M192.977 74.3931C194.18 73.9953 195.301 73.355 196.282 72.5063C197.229 71.6585 197.993 70.5984 198.521 69.3999C199.044 68.2005 199.392 66.9212 199.552 65.6074C199.721 64.2977 199.744 62.9709 199.621 61.6552L200.002 62.144C199.505 61.9555 199.052 61.6545 198.672 61.2615C198.31 60.9004 197.993 60.4901 197.73 60.041C197.216 59.1495 196.911 58.1372 196.841 57.091C196.795 56.5656 196.82 56.0359 196.914 55.5181C197.007 54.9386 197.288 54.4134 197.707 54.0357C198.137 53.6964 198.664 53.5307 199.197 53.5676C199.68 53.5895 200.156 53.6998 200.605 53.8939L200.57 53.8825C201.657 54.1992 202.814 54.068 203.816 53.5145C204.838 52.9584 205.752 52.1971 206.509 51.2715C207.281 50.3515 207.966 49.351 208.554 48.2849C209.152 47.2313 209.678 46.1327 210.128 44.9977C210.159 44.9212 210.207 44.8547 210.269 44.8049C210.331 44.755 210.404 44.7236 210.48 44.7137C210.557 44.7039 210.635 44.716 210.706 44.7488C210.777 44.7816 210.838 44.834 210.884 44.9007L210.902 44.9265C211.703 46.1179 212.385 47.3977 212.935 48.7442C213.219 49.405 213.481 50.0766 213.73 50.7569C213.995 51.4552 214.218 52.1713 214.398 52.9008C214.701 54.341 214.876 55.8091 214.92 57.285C214.97 58.7661 214.886 60.249 214.67 61.7127C214.559 62.4952 214.337 63.2548 214.012 63.9643C213.924 64.1375 213.828 64.3057 213.723 64.468C213.676 64.5387 213.558 64.7622 213.469 64.9188C213.272 65.2538 213.049 65.5695 212.801 65.8622C212.314 66.4415 211.743 66.9329 211.111 67.3178C210.799 67.5103 210.474 67.6777 210.139 67.8184C209.972 67.8911 209.8 67.9431 209.611 68.0031C209.435 68.0479 209.274 68.1007 209.093 68.1324C207.711 68.3908 206.289 68.1972 205.01 67.5767C203.731 66.9562 202.655 65.9372 201.919 64.6512C201.911 64.6367 201.908 64.6193 201.911 64.6025C201.914 64.5858 201.923 64.571 201.936 64.5611C201.949 64.5512 201.965 64.5469 201.98 64.5491C201.996 64.5513 202.011 64.5599 202.021 64.573C202.853 65.6588 203.946 66.4788 205.18 66.9443C206.368 67.4122 207.661 67.48 208.887 67.1387C209.034 67.1038 209.19 67.0415 209.336 66.994C209.464 66.9431 209.611 66.8899 209.75 66.8177C210.029 66.6782 210.298 66.5168 210.555 66.3346C211.067 65.9768 211.527 65.5389 211.919 65.0354C212.111 64.7878 212.282 64.5224 212.43 64.2425C212.508 64.0884 212.549 63.9962 212.676 63.7607C212.77 63.594 212.834 63.4755 212.898 63.3391C213.146 62.7497 213.31 62.1232 213.384 61.4809C213.55 60.1008 213.618 58.7091 213.587 57.3178C213.562 55.9206 213.427 54.5282 213.185 53.1552C213.036 52.4926 212.85 51.8403 212.628 51.2017C212.408 50.5376 212.166 49.8792 211.914 49.2246C211.433 47.9194 210.848 46.6615 210.166 45.4649L210.939 45.3936C210.386 46.5243 209.764 47.6142 209.077 48.6559C208.397 49.6961 207.641 50.6761 206.816 51.5867C205.995 52.5161 205.04 53.2956 203.987 53.8945C203.445 54.1861 202.867 54.3912 202.271 54.5033C201.663 54.6076 201.043 54.596 200.439 54.469L200.405 54.4575C199.644 54.2141 198.688 54.1855 198.209 54.6838C197.726 55.1685 197.706 56.1081 197.836 56.9718C197.95 57.8345 198.234 58.661 198.669 59.3958C198.883 59.7536 199.14 60.0799 199.432 60.3665C199.689 60.6439 199.995 60.8635 200.331 61.0126L200.358 61.022C200.454 61.0563 200.539 61.1198 200.602 61.205C200.665 61.2901 200.703 61.3931 200.713 61.5015C200.837 62.9283 200.781 64.3667 200.546 65.7773C200.332 67.1918 199.895 68.5567 199.255 69.8131C198.616 71.0762 197.712 72.1608 196.614 72.9799C195.529 73.7684 194.298 74.2951 193.007 74.5241C192.99 74.5272 192.973 74.5232 192.96 74.5129C192.946 74.5027 192.937 74.487 192.934 74.4694C192.932 74.4532 192.935 74.4366 192.942 74.4226C192.95 74.4086 192.963 74.3982 192.977 74.3931Z" fill="#A54729"/>
<path d="M200.168 61.5761C200.9 66.3089 192.054 57.8748 194.196 50.897C196.337 43.9192 196.956 43.0698 204.281 42.2203C211.605 41.3708 210.535 45.1934 210.535 45.1934C210.535 45.1934 206.387 55.0546 200.506 54.1736C200.506 54.1736 196.623 52.2363 197.464 57.8208C197.464 57.8208 198.244 60.3435 199.206 60.9598L200.168 61.5761Z" fill="#A54729"/>
<path d="M207.918 70.5624C207.855 70.5625 207.793 70.5419 207.741 70.5034C207.689 70.4649 207.649 70.4103 207.626 70.3468C207.603 70.2832 207.599 70.2138 207.613 70.1476C207.628 70.0813 207.661 70.0214 207.708 69.9757C207.978 69.7119 208.132 69.5339 208.137 69.5283C208.194 69.4631 208.272 69.4246 208.355 69.4213C208.438 69.418 208.518 69.4502 208.579 69.5109C208.64 69.5715 208.676 69.6556 208.679 69.7447C208.682 69.8339 208.653 69.9208 208.597 69.9864C208.597 69.9864 208.428 70.1829 208.128 70.4754C208.071 70.5316 207.996 70.5626 207.918 70.5624Z" fill="#A54729"/>
<path d="M202.91 72.9798H202.893C202.487 72.9566 202.088 72.8702 201.706 72.7232C201.667 72.7083 201.631 72.6854 201.601 72.6557C201.57 72.626 201.546 72.5901 201.528 72.5502C201.511 72.5102 201.501 72.4668 201.499 72.4227C201.496 72.3785 201.503 72.3343 201.516 72.2927C201.53 72.251 201.552 72.2127 201.579 72.1799C201.607 72.1471 201.64 72.1205 201.677 72.1016C201.714 72.0827 201.754 72.0718 201.795 72.0696C201.837 72.0674 201.878 72.074 201.916 72.0889C202.242 72.2135 202.582 72.2867 202.927 72.3061C203.008 72.3109 203.085 72.3497 203.14 72.4142C203.195 72.4787 203.225 72.5639 203.223 72.6517C203.221 72.7395 203.187 72.8228 203.128 72.8841C203.07 72.9454 202.992 72.9797 202.91 72.9798ZM204.029 72.8877C203.951 72.8875 203.877 72.8563 203.819 72.8C203.762 72.7437 203.726 72.6664 203.718 72.5832C203.71 72.4999 203.732 72.4166 203.778 72.3494C203.825 72.2823 203.892 72.236 203.969 72.2197C204.317 72.143 204.657 72.0313 204.986 71.8862C205.024 71.8695 205.065 71.8611 205.106 71.8614C205.147 71.8617 205.188 71.8707 205.226 71.8879C205.263 71.9051 205.298 71.9302 205.327 71.9617C205.355 71.9932 205.378 72.0305 205.394 72.0715C205.409 72.1124 205.417 72.1563 205.417 72.2006C205.417 72.2448 205.408 72.2886 205.392 72.3293C205.376 72.3701 205.353 72.4071 205.324 72.4382C205.294 72.4692 205.26 72.4938 205.222 72.5105C204.856 72.6718 204.478 72.7958 204.091 72.881C204.07 72.8854 204.05 72.8877 204.029 72.8877ZM200.818 72.1809C200.754 72.181 200.691 72.1592 200.638 72.1186C200.315 71.869 200.017 71.5825 199.751 71.2642C199.695 71.198 199.666 71.1108 199.67 71.0217C199.674 70.9326 199.711 70.8489 199.772 70.7889C199.834 70.7288 199.914 70.6974 199.997 70.7015C200.08 70.7055 200.158 70.7448 200.214 70.8106C200.45 71.0928 200.713 71.3469 201 71.5684C201.054 71.6099 201.095 71.6688 201.116 71.7367C201.137 71.8046 201.137 71.8779 201.117 71.9461C201.097 72.0143 201.057 72.0738 201.003 72.116C200.95 72.1582 200.885 72.181 200.818 72.1809ZM206.112 71.999C206.043 71.9991 205.976 71.9747 205.922 71.9297C205.867 71.8846 205.828 71.8214 205.81 71.7498C205.792 71.6782 205.796 71.6022 205.822 71.5336C205.848 71.465 205.895 71.4076 205.954 71.3703C206.268 71.1727 206.572 70.9564 206.863 70.7224C206.896 70.696 206.934 70.6769 206.974 70.6661C207.014 70.6553 207.055 70.6531 207.096 70.6596C207.136 70.666 207.175 70.681 207.211 70.7038C207.246 70.7265 207.277 70.7565 207.301 70.792C207.326 70.8276 207.343 70.868 207.354 70.9109C207.364 70.9538 207.366 70.9985 207.36 71.0422C207.354 71.086 207.34 71.1281 207.319 71.1661C207.297 71.2041 207.27 71.2372 207.237 71.2636C206.926 71.5127 206.603 71.7429 206.269 71.953C206.221 71.983 206.167 71.9988 206.112 71.999Z" fill="#A54729"/>
<path d="M199.291 70.408C199.239 70.408 199.187 70.3941 199.142 70.3675C199.096 70.341 199.057 70.3026 199.028 70.2559C198.914 70.0689 198.802 69.8706 198.692 69.6608C198.671 69.6223 198.658 69.5799 198.653 69.536C198.648 69.4921 198.651 69.4476 198.662 69.4049C198.673 69.3623 198.692 69.3224 198.717 69.2875C198.742 69.2526 198.774 69.2234 198.809 69.2016C198.845 69.1798 198.885 69.1657 198.925 69.1603C198.966 69.1549 199.007 69.1581 199.047 69.1699C199.087 69.1817 199.124 69.2018 199.156 69.229C199.188 69.2562 199.216 69.29 199.236 69.3285C199.34 69.5249 199.445 69.7106 199.552 69.8854C199.583 69.9362 199.6 69.9951 199.603 70.0558C199.605 70.1166 199.592 70.1769 199.566 70.2305C199.539 70.284 199.499 70.3288 199.451 70.36C199.402 70.3913 199.347 70.4079 199.291 70.408Z" fill="#A54729"/>
<path d="M211.623 55.9997C211.866 55.9906 212.097 55.8801 212.266 55.6914C212.435 55.5027 212.53 55.2507 212.53 54.9884C212.53 54.7261 212.435 54.474 212.266 54.2854C212.097 54.0967 211.866 53.9862 211.623 53.9771C211.379 53.9862 211.149 54.0967 210.98 54.2854C210.81 54.474 210.716 54.7261 210.716 54.9884C210.716 55.2507 210.81 55.5027 210.98 55.6914C211.149 55.8801 211.379 55.9906 211.623 55.9997Z" fill="#A54729"/>
<path d="M206.495 56.121C206.739 56.1119 206.97 56.0014 207.139 55.8127C207.308 55.6241 207.403 55.372 207.403 55.1097C207.403 54.8474 207.308 54.5954 207.139 54.4067C206.97 54.218 206.739 54.1075 206.495 54.0984C206.252 54.1075 206.021 54.218 205.852 54.4067C205.683 54.5954 205.588 54.8474 205.588 55.1097C205.588 55.372 205.683 55.6241 205.852 55.8127C206.021 56.0014 206.252 56.1119 206.495 56.121Z" fill="#A54729"/>
<path d="M213.707 52.804C213.373 52.8623 213.102 52.8854 212.835 52.907C212.572 52.9246 212.324 52.9294 212.076 52.934C211.829 52.9389 211.581 52.9255 211.318 52.9163C211.023 52.9024 210.729 52.8649 210.439 52.804C210.623 52.523 210.868 52.2955 211.153 52.1417C211.438 51.988 211.754 51.9128 212.073 51.923C212.388 51.92 212.699 51.9911 212.986 52.1314C213.286 52.2687 213.538 52.504 213.707 52.804Z" fill="#A54729"/>
<path d="M207.228 52.804C206.984 52.8812 206.734 52.9374 206.481 52.9721C206.27 52.9992 206.058 53.0134 205.846 53.0147C205.635 53.0131 205.425 52.9991 205.216 52.9726C204.962 52.9401 204.712 52.8837 204.467 52.804C204.61 52.5492 204.813 52.3404 205.056 52.1996C205.299 52.0588 205.573 51.9911 205.849 52.0038C206.117 52.0031 206.381 52.0683 206.622 52.1945C206.88 52.3224 207.092 52.5361 207.228 52.804Z" fill="#A54729"/>
<path d="M211.172 57.2941C211.172 57.4551 211.141 57.6144 211.081 57.7619C211.022 57.9095 210.934 58.0421 210.824 58.1516C210.607 58.3806 210.333 58.539 210.036 58.6088C209.75 58.6738 209.455 58.6715 209.17 58.602C208.892 58.5337 208.633 58.3976 208.411 58.2042C208.672 58.1434 208.936 58.1009 209.202 58.077C209.446 58.0297 209.681 58.0176 209.898 57.9514C210.368 57.8524 210.806 57.6261 211.172 57.2941Z" fill="#A54729"/>
<path d="M209.032 52.3533C209.276 52.3442 209.506 52.2337 209.675 52.045C209.845 51.8564 209.939 51.6043 209.939 51.342C209.939 51.0797 209.845 50.8276 209.675 50.639C209.506 50.4503 209.276 50.3398 209.032 50.3307C208.789 50.3398 208.558 50.4503 208.389 50.639C208.22 50.8276 208.125 51.0797 208.125 51.342C208.125 51.6043 208.22 51.8564 208.389 52.045C208.558 52.2337 208.789 52.3442 209.032 52.3533Z" fill="#B21919"/>
<path d="M210.405 45.4868C211.752 45.8725 214.119 55.208 214.119 55.208C214.119 55.208 216.134 44.9308 210.405 45.4868Z" fill="#A54729"/>
<path d="M207.228 61.777C207.499 62.0513 207.827 62.2513 208.184 62.3601C208.542 62.4688 208.919 62.4831 209.282 62.4017C209.46 62.3919 209.642 62.319 209.828 62.2917C210.011 62.2282 210.201 62.186 210.395 62.1265C210.797 61.985 211.208 61.8683 211.623 61.777C211.37 62.1725 211.047 62.5101 210.673 62.7705C210.483 62.9025 210.283 63.0169 210.076 63.1126C209.857 63.202 209.63 63.2658 209.399 63.3029C208.908 63.3978 208.403 63.2985 207.975 63.0233C207.767 62.8943 207.591 62.714 207.462 62.4973C207.332 62.2806 207.252 62.0336 207.228 61.777Z" fill="#A54729"/>
<path d="M196.633 60.6015C196.633 60.6015 195.838 73.1811 192.992 74.4586C192.992 74.4586 196.859 72.9334 198.083 71.4666C199.306 69.9999 200.563 63.0598 200.167 61.5761L196.633 60.6015Z" fill="#A54729"/>
<path d="M217.849 71.2536C213.438 68.254 214.253 58.6658 214.253 58.6658C214.253 58.6658 214.489 66.3162 209.033 67.5044L208.367 69.7574L217.849 71.2536Z" fill="#A54729"/>
<path d="M168.84 113.1L166.421 114.708L166.442 114.591C168.017 116.693 169.451 118.914 170.734 121.236C171.403 122.401 171.909 123.666 172.237 124.99C172.313 125.342 172.333 125.706 172.297 126.065C172.278 126.262 172.221 126.453 172.132 126.627C172.042 126.8 171.92 126.952 171.774 127.073C171.478 127.284 171.131 127.397 170.776 127.401C170.446 127.41 170.117 127.386 169.792 127.327L170.051 127.043C170.199 127.755 170.405 128.451 170.666 129.124C170.897 129.783 171.262 130.379 171.734 130.867C171.952 131.068 172.23 131.176 172.517 131.172C172.833 131.123 173.141 131.033 173.436 130.904C174.07 130.632 174.69 130.326 175.295 129.985C176.518 129.311 177.717 128.571 178.905 127.815C180.09 127.054 181.272 126.279 182.436 125.486L183.015 125.092L182.929 125.824L181.042 141.883C180.422 147.237 179.78 152.589 179.115 157.937L179.009 157.608C179.947 158.518 180.866 159.447 181.819 160.341C182.778 161.228 183.763 162.084 184.753 162.932C186.739 164.622 188.79 166.217 190.907 167.718C195.115 170.759 199.659 173.221 204.435 175.046C205.032 175.272 205.642 175.45 206.253 175.625L208.086 176.155C209.315 176.473 210.562 176.71 211.818 176.863C214.329 177.202 216.873 177.141 219.368 176.683C221.864 176.228 224.266 175.3 226.462 173.945C228.655 172.586 230.652 170.89 232.39 168.911L232.349 169.048L228.13 135.871L226.031 119.282L223.965 102.687L223.943 102.506L224.049 102.347C225.709 99.8616 227.111 97.1879 228.231 94.374C229.39 91.5908 230.106 88.6174 230.348 85.5783C230.594 82.5643 229.953 79.5435 228.518 76.9426C228.345 76.618 228.15 76.307 227.936 76.012L227.629 75.5582C227.522 75.4104 227.4 75.2753 227.287 75.1332L226.941 74.7115L226.768 74.5006C226.719 74.4499 226.666 74.4023 226.612 74.3582C226.345 74.157 226.058 73.9882 225.757 73.8548C224.442 73.3006 223.086 72.8638 221.704 72.5488L222.099 72.4267L222.082 72.4447C222.012 72.5131 221.923 72.5545 221.829 72.5625C221.734 72.5704 221.64 72.5445 221.561 72.4887C221.543 72.4755 221.525 72.4608 221.508 72.4447L221.491 72.4267L221.694 72.5485C217.301 71.4936 212.809 70.7554 208.326 70.1391L208.721 69.8203C208.33 72.1749 207.897 74.5252 207.304 76.8435C207.016 78.0132 206.65 79.1585 206.207 80.2702C205.981 80.8441 205.692 81.3863 205.345 81.8852C205.158 82.1539 204.928 82.385 204.667 82.568C204.371 82.7767 204.012 82.8514 203.665 82.776C203.066 82.5631 202.561 82.1215 202.243 81.5347C201.928 81.0228 201.654 80.4828 201.424 79.9207C200.977 78.8162 200.596 77.6818 200.284 76.5244C199.658 74.2256 199.148 71.8923 198.755 69.5346L199.044 69.7049C197.664 70.3165 196.299 70.9859 194.945 71.6726C193.593 72.3624 192.256 73.0898 190.952 73.8797C189.641 74.6506 188.39 75.5349 187.211 76.524C186.653 77.0537 186.201 77.7009 185.884 78.4259C185.568 79.1508 185.392 79.938 185.368 80.7389L185.369 80.7354L185.368 80.7399H185.284V80.7354L185.284 80.7317C185.294 79.9117 185.46 79.1027 185.771 78.3543C186.082 77.606 186.532 76.9341 187.094 76.3802C188.263 75.355 189.508 74.4341 190.816 73.6267C193.418 71.9985 196.112 70.548 198.883 69.2839L199.121 69.1742L199.172 69.4543C199.585 71.7877 200.115 74.0955 200.758 76.3678C201.075 77.4978 201.46 78.6046 201.909 79.6813C202.131 80.2086 202.394 80.7147 202.695 81.1942C202.94 81.6466 203.324 81.9932 203.78 82.1746C204.171 82.2774 204.575 81.9296 204.881 81.4947C205.193 81.0332 205.451 80.5331 205.652 80.0051C206.071 78.9192 206.415 77.8017 206.682 76.6615C207.243 74.3736 207.649 72.0345 208.013 69.6905L208.069 69.33L208.408 69.3715C210.669 69.6484 212.922 69.9703 215.167 70.3371C217.415 70.7077 219.656 71.1144 221.887 71.6581L222.091 71.78L222.077 71.766C222 71.691 221.899 71.6495 221.795 71.6495C221.713 71.6492 221.632 71.675 221.564 71.7238C221.546 71.7364 221.529 71.7505 221.513 71.766L221.499 71.78L221.895 71.6578C223.328 71.9818 224.735 72.4337 226.099 73.0085C226.464 73.1698 226.81 73.3753 227.131 73.6209C227.22 73.6928 227.305 73.7709 227.384 73.8548L227.569 74.0786L227.938 74.5265C228.059 74.6776 228.189 74.8215 228.303 74.9788L228.632 75.4621C228.861 75.7774 229.069 76.1093 229.256 76.4555C230.037 77.8213 230.599 79.3199 230.915 80.8877C231.224 82.4478 231.329 84.0467 231.228 85.6381C230.985 88.7867 230.251 91.8686 229.057 94.7544C227.896 97.6344 226.445 100.368 224.73 102.907L224.814 102.567L226.804 119.172L228.761 135.782L232.655 169.004L232.665 169.084L232.614 169.141C230.848 171.134 228.821 172.84 226.598 174.205C225.483 174.878 224.319 175.451 223.117 175.919C221.91 176.37 220.672 176.719 219.414 176.964C216.895 177.441 214.324 177.518 211.784 177.191C210.515 177.044 209.256 176.813 208.013 176.499L206.162 175.978C205.543 175.811 204.925 175.64 204.32 175.421C199.483 173.656 194.872 171.244 190.593 168.242C186.28 165.296 182.232 161.922 178.502 158.165L178.374 158.034L178.397 157.837C179.024 152.483 179.666 147.132 180.323 141.783L182.289 125.735L182.782 126.073C181.603 126.867 180.417 127.638 179.213 128.383C178.008 129.127 176.794 129.854 175.544 130.521C174.918 130.862 174.275 131.168 173.619 131.439C173.271 131.585 172.906 131.682 172.534 131.727C172.124 131.73 171.727 131.573 171.415 131.285C170.886 130.736 170.48 130.065 170.228 129.321C169.963 128.614 169.758 127.883 169.613 127.137L169.545 126.796L169.872 126.853C170.422 127.018 171.009 126.966 171.526 126.705C171.628 126.62 171.713 126.514 171.776 126.393C171.838 126.273 171.877 126.139 171.891 126.001C171.923 125.69 171.908 125.376 171.848 125.07C171.553 123.781 171.086 122.545 170.461 121.401C169.232 119.061 167.851 116.818 166.326 114.689L166.275 114.617L166.347 114.572L168.796 113.022L168.84 113.1Z" fill="#A54729"/>
<path d="M182.394 125.387L194.005 118.523L182.824 126.171L182.394 125.387Z" fill="#A54729"/>
</svg>
