<svg width="15" height="13" viewBox="0 0 15 13" fill="none" xmlns="http://www.w3.org/2000/svg">
<g clip-path="url(#clip0_468_4062)">
<path d="M14.7658 1.4581C14.2227 1.70297 13.6394 1.86851 13.026 1.94291C13.652 1.56206 14.1315 0.958553 14.3579 0.240273C13.7633 0.599107 13.1126 0.851725 12.434 0.987155C11.8817 0.389046 11.0942 0.015625 10.2229 0.015625C8.55054 0.015625 7.19426 1.39311 7.19426 3.09329C7.19426 3.33419 7.22096 3.5692 7.2723 3.79484C4.75479 3.66629 2.52286 2.44103 1.02891 0.579252C0.768049 1.03395 0.618732 1.56262 0.618732 2.12669C0.618732 3.19431 1.15356 4.13629 1.96622 4.68808C1.48514 4.67293 1.01461 4.54099 0.593983 4.30329V4.34218C0.593983 5.83348 1.63795 7.07698 3.02375 7.35978C2.76918 7.43065 2.50202 7.46768 2.22564 7.46768C2.03022 7.46768 1.84064 7.44889 1.65543 7.41349C2.0409 8.63581 3.15958 9.52555 4.4847 9.55069C3.44801 10.3764 2.14173 10.8686 0.722968 10.8686C0.478603 10.8686 0.237093 10.8538 0 10.8247C1.34072 11.6982 2.93261 12.2081 4.64329 12.2081C10.2147 12.2081 13.2617 7.51845 13.2617 3.4515C13.2617 3.31798 13.2588 3.18545 13.2524 3.0534C13.8461 2.61712 14.3586 2.07692 14.7658 1.4581Z" fill="white"/>
</g>
<defs>
<clipPath id="clip0_468_4062">
<rect width="15" height="12.1925" fill="white" transform="translate(0 0.015625)"/>
</clipPath>
</defs>
</svg>
