<svg width="428" height="342" viewBox="0 0 428 342" fill="none" xmlns="http://www.w3.org/2000/svg">
<path d="M425.628 162.466C382.535 62.413 301.468 0.333008 214.001 0.333008C126.535 0.333008 45.4681 62.413 2.37476 162.466C1.20007 165.158 0.59375 168.063 0.59375 171C0.59375 173.936 1.20007 176.841 2.37476 179.533C45.4681 279.586 126.535 341.666 214.001 341.666C301.468 341.666 382.535 279.586 425.628 179.533C426.803 176.841 427.409 173.936 427.409 171C427.409 168.063 426.803 165.158 425.628 162.466ZM214.001 299C146.375 299 82.3748 250.146 45.4681 171C82.3748 91.853 146.375 42.9997 214.001 42.9997C281.628 42.9997 345.628 91.853 382.535 171C345.628 250.146 281.628 299 214.001 299ZM214.001 85.6663C197.124 85.6663 180.626 90.6711 166.593 100.048C152.56 109.424 141.622 122.751 135.164 138.344C128.705 153.937 127.015 171.094 130.308 187.647C133.6 204.2 141.728 219.405 153.662 231.339C165.596 243.274 180.801 251.401 197.354 254.693C213.907 257.986 231.064 256.296 246.657 249.837C262.25 243.379 275.577 232.441 284.953 218.408C294.33 204.375 299.335 187.877 299.335 171C299.335 148.368 290.344 126.663 274.341 110.66C258.338 94.6568 236.633 85.6663 214.001 85.6663ZM214.001 213.666C205.563 213.666 197.314 211.164 190.297 206.476C183.281 201.787 177.812 195.124 174.583 187.327C171.353 179.531 170.508 170.952 172.155 162.676C173.801 154.399 177.864 146.797 183.832 140.83C189.799 134.863 197.401 130.799 205.678 129.153C213.954 127.507 222.533 128.351 230.329 131.581C238.126 134.81 244.789 140.279 249.477 147.295C254.166 154.312 256.668 162.561 256.668 171C256.668 182.316 252.173 193.168 244.171 201.17C236.17 209.171 225.317 213.666 214.001 213.666Z" fill="#A54729"/>
</svg>
