<svg width="478" height="1646" viewBox="0 0 478 1646" fill="none" xmlns="http://www.w3.org/2000/svg">
<path d="M238.8 583.733C370.803 583.733 477.6 690.53 477.6 822.533C477.6 954.537 370.803 1061.33 238.8 1061.33C106.797 1061.33 0 954.537 0 822.533C0 690.53 106.797 583.733 238.8 583.733ZM0 238.8C0 370.803 106.797 477.6 238.8 477.6C370.803 477.6 477.6 370.803 477.6 238.8C477.6 106.797 370.803 0 238.8 0C106.797 0 0 106.797 0 238.8ZM0 1406.27C0 1538.27 106.797 1645.07 238.8 1645.07C370.803 1645.07 477.6 1538.27 477.6 1406.27C477.6 1274.26 370.803 1167.47 238.8 1167.47C106.797 1167.47 0 1274.26 0 1406.27Z" fill="#A54729"/>
</svg>
