<svg width="27" height="27" viewBox="0 0 27 27" fill="none" xmlns="http://www.w3.org/2000/svg">
<path d="M18.2796 16.047C16.9668 14.88 15.2713 14.2354 13.5148 14.2354C11.7583 14.2354 10.0628 14.88 8.74998 16.047C8.63904 16.143 8.54829 16.26 8.48298 16.3914C8.41767 16.5228 8.37911 16.6658 8.36955 16.8122C8.35998 16.9586 8.37959 17.1054 8.42724 17.2441C8.47489 17.3829 8.54964 17.5108 8.64713 17.6204C8.74462 17.73 8.86292 17.8191 8.99516 17.8827C9.1274 17.9462 9.27094 17.9828 9.41744 17.9903C9.56394 17.9979 9.71049 17.9763 9.84857 17.9268C9.98665 17.8772 10.1135 17.8008 10.2218 17.7018C11.1291 16.8954 12.3009 16.4499 13.5148 16.4499C14.7287 16.4499 15.9004 16.8954 16.8078 17.7018C17.0274 17.897 17.3155 17.9969 17.6088 17.9796C17.902 17.9624 18.1765 17.8293 18.3716 17.6098C18.5668 17.3902 18.6668 17.1021 18.6495 16.8088C18.6322 16.5155 18.4992 16.2411 18.2796 16.0459V16.047Z" fill="#E19C5B"/>
<path d="M13.5142 9.68751C10.5409 9.68341 7.67801 10.8135 5.50916 12.8474C5.39934 12.9457 5.31028 13.065 5.24718 13.1983C5.18408 13.3315 5.14823 13.476 5.14171 13.6233C5.13519 13.7706 5.15814 13.9177 5.20923 14.0559C5.26031 14.1942 5.33849 14.3209 5.43918 14.4286C5.53987 14.5363 5.66105 14.6228 5.79561 14.683C5.93017 14.7432 6.0754 14.776 6.22279 14.7794C6.37017 14.7827 6.51675 14.7566 6.65391 14.7026C6.79108 14.6486 6.91608 14.5677 7.02158 14.4647C8.78263 12.8183 11.1034 11.9024 13.5142 11.9024C15.9251 11.9024 18.2458 12.8183 20.0069 14.4647C20.1124 14.5677 20.2374 14.6486 20.3746 14.7026C20.5117 14.7566 20.6583 14.7827 20.8057 14.7794C20.9531 14.776 21.0983 14.7432 21.2329 14.683C21.3674 14.6228 21.4886 14.5363 21.5893 14.4286C21.69 14.3209 21.7682 14.1942 21.8192 14.0559C21.8703 13.9177 21.8933 13.7706 21.8868 13.6233C21.8802 13.476 21.8444 13.3315 21.7813 13.1983C21.7182 13.065 21.6291 12.9457 21.5193 12.8474C19.3505 10.8135 16.4875 9.68341 13.5142 9.68751Z" fill="#E19C5B"/>
<path d="M24.3625 9.27391C21.3768 6.60996 17.5154 5.1377 13.514 5.1377C9.51265 5.1377 5.65117 6.60996 2.66549 9.27391C2.55328 9.36976 2.46136 9.48707 2.39513 9.61895C2.3289 9.75083 2.2897 9.89462 2.27982 10.0419C2.26995 10.1891 2.28961 10.3368 2.33764 10.4764C2.38567 10.6159 2.46111 10.7445 2.55952 10.8544C2.65793 10.9644 2.77732 11.0536 2.91069 11.1168C3.04406 11.1799 3.18872 11.2158 3.33615 11.2223C3.48358 11.2288 3.63082 11.2057 3.76922 11.1545C3.90762 11.1033 4.03438 11.0249 4.14206 10.924C6.72163 8.62337 10.0573 7.35198 13.5137 7.35198C16.9702 7.35198 20.3059 8.62337 22.8854 10.924C23.1044 11.1198 23.3922 11.2206 23.6854 11.2042C23.9787 11.1878 24.2535 11.0556 24.4493 10.8367C24.6451 10.6177 24.7459 10.33 24.7295 10.0367C24.7131 9.74342 24.5809 9.46866 24.362 9.27285L24.3625 9.27391Z" fill="#E19C5B"/>
<path d="M13.5156 22.4336C14.4476 22.4336 15.2031 21.6781 15.2031 20.7461C15.2031 19.8141 14.4476 19.0586 13.5156 19.0586C12.5836 19.0586 11.8281 19.8141 11.8281 20.7461C11.8281 21.6781 12.5836 22.4336 13.5156 22.4336Z" fill="#E19C5B"/>
</svg>
