<svg width="20" height="20" viewBox="0 0 20 20" fill="none" xmlns="http://www.w3.org/2000/svg">
<path d="M13.5405 11.8869C12.5681 11.0224 11.3122 10.5449 10.011 10.5449C8.7099 10.5449 7.45401 11.0224 6.48155 11.8869C6.39937 11.958 6.33215 12.0447 6.28377 12.142C6.23539 12.2393 6.20683 12.3452 6.19974 12.4537C6.19266 12.5621 6.20718 12.6709 6.24248 12.7736C6.27778 12.8764 6.33315 12.9712 6.40536 13.0523C6.47758 13.1335 6.56521 13.1996 6.66316 13.2466C6.76112 13.2937 6.86744 13.3208 6.97596 13.3264C7.08448 13.332 7.19304 13.316 7.29532 13.2793C7.3976 13.2426 7.49158 13.186 7.57178 13.1126C8.2439 12.5153 9.11184 12.1853 10.011 12.1853C10.9102 12.1853 11.7782 12.5153 12.4503 13.1126C12.6129 13.2572 12.8264 13.3313 13.0436 13.3185C13.2609 13.3057 13.4641 13.2071 13.6087 13.0445C13.7533 12.8818 13.8273 12.6684 13.8145 12.4512C13.8017 12.2339 13.7032 12.0307 13.5405 11.8861V11.8869Z" fill="white"/>
<path d="M10.0105 7.17579C7.80809 7.17275 5.68741 8.00985 4.08085 9.51641C3.99951 9.58928 3.93353 9.67765 3.88679 9.77634C3.84005 9.87504 3.81349 9.98207 3.80866 10.0912C3.80384 10.2003 3.82084 10.3092 3.85868 10.4117C3.89652 10.5141 3.95443 10.608 4.02901 10.6877C4.1036 10.7675 4.19336 10.8315 4.29304 10.8762C4.39271 10.9208 4.50029 10.945 4.60946 10.9475C4.71864 10.95 4.82721 10.9307 4.92882 10.8907C5.03042 10.8506 5.12301 10.7907 5.20116 10.7145C6.50564 9.49488 8.22474 8.81643 10.0105 8.81643C11.7963 8.81643 13.5154 9.49488 14.8199 10.7145C14.8981 10.7907 14.9906 10.8506 15.0923 10.8907C15.1939 10.9307 15.3024 10.95 15.4116 10.9475C15.5208 10.945 15.6284 10.9208 15.728 10.8762C15.8277 10.8315 15.9175 10.7675 15.9921 10.6877C16.0666 10.608 16.1246 10.5141 16.1624 10.4117C16.2002 10.3092 16.2172 10.2003 16.2124 10.0912C16.2076 9.98207 16.181 9.87504 16.1343 9.77634C16.0875 9.67765 16.0216 9.58928 15.9402 9.51641C14.3337 8.00985 12.213 7.17275 10.0105 7.17579Z" fill="white"/>
<path d="M18.0464 6.86953C15.8348 4.89623 12.9744 3.80566 10.0105 3.80566C7.0465 3.80566 4.18614 4.89623 1.97453 6.86953C1.89141 6.94053 1.82332 7.02742 1.77426 7.12511C1.7252 7.2228 1.69616 7.32931 1.68885 7.43838C1.68154 7.54745 1.6961 7.65688 1.73168 7.76024C1.76725 7.86361 1.82313 7.95882 1.89603 8.04028C1.96893 8.12174 2.05737 8.18781 2.15616 8.23461C2.25495 8.2814 2.3621 8.30798 2.47131 8.31278C2.58052 8.31758 2.68959 8.3005 2.79211 8.26255C2.89462 8.2246 2.98852 8.16654 3.06828 8.09179C4.97907 6.38764 7.44995 5.44588 10.0103 5.44588C12.5706 5.44588 15.0415 6.38764 16.9523 8.09179C17.1144 8.23683 17.3276 8.3115 17.5449 8.29938C17.7621 8.28726 17.9656 8.18933 18.1107 8.02714C18.2557 7.86496 18.3304 7.6518 18.3183 7.43455C18.3061 7.21731 18.2082 7.01378 18.046 6.86874L18.0464 6.86953Z" fill="white"/>
<path d="M10.0115 16.6177C10.7018 16.6177 11.2615 16.058 11.2615 15.3677C11.2615 14.6773 10.7018 14.1177 10.0115 14.1177C9.32112 14.1177 8.76147 14.6773 8.76147 15.3677C8.76147 16.058 9.32112 16.6177 10.0115 16.6177Z" fill="white"/>
</svg>
