<svg width="80" height="81" viewBox="0 0 80 81" fill="none" xmlns="http://www.w3.org/2000/svg">
<path d="M75.001 35.1253C75.001 30.922 71.111 27.627 66.736 28.6453C64.3726 29.1953 62.4493 31.097 61.8726 33.4537C61.3026 35.787 61.966 37.9603 63.3326 39.5037C64.371 40.672 65.001 42.1453 65.001 43.7087V50.1253H71.6676V43.7153C71.6676 42.1237 72.3426 40.647 73.386 39.4453C74.3893 38.287 75.001 36.782 75.001 35.1253Z" fill="#A54729"/>
<path d="M18.3333 18.458H7.41833C6.08167 18.458 5 19.5397 5 20.8763V22.0097C5 25.6313 8.33333 24.5963 8.33333 29.123C8.33333 31.4497 5 36.2997 5 46.7913L18.3333 43.458C18.3333 31.6447 23.3333 28.9863 23.3333 23.458C23.3333 20.4997 21.2383 18.458 18.3333 18.458ZM37.8367 27.828L34.785 29.2547L36.3067 32.5113L39.3583 31.0847C39.835 30.8613 40.04 30.2947 39.8183 29.818L39.1017 28.2863C38.88 27.8113 38.3133 27.6063 37.8367 27.828Z" fill="#A54729"/>
<path d="M34.6999 25.8231L31.0898 27.5107L47.7343 63.1157L51.3444 61.4281L34.6999 25.8231Z" fill="#A54729"/>
<path d="M74.5 59.6253H5.5V47.0213C5.58075 46.953 5.6902 46.8617 5.82729 46.7503C6.15748 46.482 6.64788 46.0968 7.28398 45.6337C8.55649 44.7073 10.4102 43.4703 12.7291 42.2331C17.3707 39.7567 23.8524 37.292 31.255 37.292C39.9949 37.292 50.8581 40.5954 59.5772 43.9257C63.928 45.5876 67.7287 47.2497 70.4416 48.4963C71.7979 49.1195 72.8818 49.6387 73.6261 50.0018C73.9982 50.1833 74.2854 50.3258 74.4792 50.4228C74.4863 50.4263 74.4932 50.4298 74.5 50.4332V59.6253Z" fill="#E19C5B" stroke="#A54729"/>
</svg>
